G04 #@! TF.GenerationSoftware,KiCad,Pcbnew,(5.1.5)-3*
G04 #@! TF.CreationDate,2020-04-17T01:41:00-04:00*
G04 #@! TF.ProjectId,weir-controller,77656972-2d63-46f6-9e74-726f6c6c6572,rev?*
G04 #@! TF.SameCoordinates,Original*
G04 #@! TF.FileFunction,Paste,Top*
G04 #@! TF.FilePolarity,Positive*
%FSLAX46Y46*%
G04 Gerber Fmt 4.6, Leading zero omitted, Abs format (unit mm)*
G04 Created by KiCad (PCBNEW (5.1.5)-3) date 2020-04-17 01:41:00*
%MOMM*%
%LPD*%
G04 APERTURE LIST*
%ADD10C,0.100000*%
%ADD11R,0.500000X2.250000*%
%ADD12R,0.900000X0.600000*%
%ADD13R,0.600000X0.900000*%
%ADD14R,0.600000X1.050000*%
%ADD15R,5.000000X5.000000*%
%ADD16R,2.000000X0.900000*%
%ADD17R,0.900000X2.000000*%
%ADD18R,3.800000X2.000000*%
%ADD19R,1.500000X2.000000*%
G04 APERTURE END LIST*
D10*
G36*
X147731252Y-72342306D02*
G01*
X147737319Y-72343206D01*
X147743269Y-72344696D01*
X147749044Y-72346763D01*
X147754588Y-72349385D01*
X147759849Y-72352538D01*
X147764776Y-72356192D01*
X147769320Y-72360311D01*
X148299650Y-72890641D01*
X148303769Y-72895185D01*
X148307423Y-72900112D01*
X148310576Y-72905373D01*
X148313198Y-72910917D01*
X148315265Y-72916692D01*
X148316755Y-72922642D01*
X148317655Y-72928709D01*
X148317956Y-72934835D01*
X148317655Y-72940961D01*
X148316755Y-72947028D01*
X148315265Y-72952978D01*
X148313198Y-72958753D01*
X148310576Y-72964297D01*
X148307423Y-72969558D01*
X148303769Y-72974485D01*
X148299650Y-72979029D01*
X148211262Y-73067417D01*
X148206718Y-73071536D01*
X148201791Y-73075190D01*
X148196530Y-73078343D01*
X148190986Y-73080965D01*
X148185211Y-73083032D01*
X148179261Y-73084522D01*
X148173194Y-73085422D01*
X148167068Y-73085723D01*
X148160942Y-73085422D01*
X148154875Y-73084522D01*
X148148925Y-73083032D01*
X148143150Y-73080965D01*
X148137606Y-73078343D01*
X148132345Y-73075190D01*
X148127418Y-73071536D01*
X148122874Y-73067417D01*
X147592544Y-72537087D01*
X147588425Y-72532543D01*
X147584771Y-72527616D01*
X147581618Y-72522355D01*
X147578996Y-72516811D01*
X147576929Y-72511036D01*
X147575439Y-72505086D01*
X147574539Y-72499019D01*
X147574238Y-72492893D01*
X147574539Y-72486767D01*
X147575439Y-72480700D01*
X147576929Y-72474750D01*
X147578996Y-72468975D01*
X147581618Y-72463431D01*
X147584771Y-72458170D01*
X147588425Y-72453243D01*
X147592544Y-72448699D01*
X147680932Y-72360311D01*
X147685476Y-72356192D01*
X147690403Y-72352538D01*
X147695664Y-72349385D01*
X147701208Y-72346763D01*
X147706983Y-72344696D01*
X147712933Y-72343206D01*
X147719000Y-72342306D01*
X147725126Y-72342005D01*
X147731252Y-72342306D01*
G37*
G36*
X148084806Y-71988753D02*
G01*
X148090873Y-71989653D01*
X148096823Y-71991143D01*
X148102598Y-71993210D01*
X148108142Y-71995832D01*
X148113403Y-71998985D01*
X148118330Y-72002639D01*
X148122874Y-72006758D01*
X148653204Y-72537088D01*
X148657323Y-72541632D01*
X148660977Y-72546559D01*
X148664130Y-72551820D01*
X148666752Y-72557364D01*
X148668819Y-72563139D01*
X148670309Y-72569089D01*
X148671209Y-72575156D01*
X148671510Y-72581282D01*
X148671209Y-72587408D01*
X148670309Y-72593475D01*
X148668819Y-72599425D01*
X148666752Y-72605200D01*
X148664130Y-72610744D01*
X148660977Y-72616005D01*
X148657323Y-72620932D01*
X148653204Y-72625476D01*
X148564816Y-72713864D01*
X148560272Y-72717983D01*
X148555345Y-72721637D01*
X148550084Y-72724790D01*
X148544540Y-72727412D01*
X148538765Y-72729479D01*
X148532815Y-72730969D01*
X148526748Y-72731869D01*
X148520622Y-72732170D01*
X148514496Y-72731869D01*
X148508429Y-72730969D01*
X148502479Y-72729479D01*
X148496704Y-72727412D01*
X148491160Y-72724790D01*
X148485899Y-72721637D01*
X148480972Y-72717983D01*
X148476428Y-72713864D01*
X147946098Y-72183534D01*
X147941979Y-72178990D01*
X147938325Y-72174063D01*
X147935172Y-72168802D01*
X147932550Y-72163258D01*
X147930483Y-72157483D01*
X147928993Y-72151533D01*
X147928093Y-72145466D01*
X147927792Y-72139340D01*
X147928093Y-72133214D01*
X147928993Y-72127147D01*
X147930483Y-72121197D01*
X147932550Y-72115422D01*
X147935172Y-72109878D01*
X147938325Y-72104617D01*
X147941979Y-72099690D01*
X147946098Y-72095146D01*
X148034486Y-72006758D01*
X148039030Y-72002639D01*
X148043957Y-71998985D01*
X148049218Y-71995832D01*
X148054762Y-71993210D01*
X148060537Y-71991143D01*
X148066487Y-71989653D01*
X148072554Y-71988753D01*
X148078680Y-71988452D01*
X148084806Y-71988753D01*
G37*
G36*
X148438359Y-71635199D02*
G01*
X148444426Y-71636099D01*
X148450376Y-71637589D01*
X148456151Y-71639656D01*
X148461695Y-71642278D01*
X148466956Y-71645431D01*
X148471883Y-71649085D01*
X148476427Y-71653204D01*
X149006757Y-72183534D01*
X149010876Y-72188078D01*
X149014530Y-72193005D01*
X149017683Y-72198266D01*
X149020305Y-72203810D01*
X149022372Y-72209585D01*
X149023862Y-72215535D01*
X149024762Y-72221602D01*
X149025063Y-72227728D01*
X149024762Y-72233854D01*
X149023862Y-72239921D01*
X149022372Y-72245871D01*
X149020305Y-72251646D01*
X149017683Y-72257190D01*
X149014530Y-72262451D01*
X149010876Y-72267378D01*
X149006757Y-72271922D01*
X148918369Y-72360310D01*
X148913825Y-72364429D01*
X148908898Y-72368083D01*
X148903637Y-72371236D01*
X148898093Y-72373858D01*
X148892318Y-72375925D01*
X148886368Y-72377415D01*
X148880301Y-72378315D01*
X148874175Y-72378616D01*
X148868049Y-72378315D01*
X148861982Y-72377415D01*
X148856032Y-72375925D01*
X148850257Y-72373858D01*
X148844713Y-72371236D01*
X148839452Y-72368083D01*
X148834525Y-72364429D01*
X148829981Y-72360310D01*
X148299651Y-71829980D01*
X148295532Y-71825436D01*
X148291878Y-71820509D01*
X148288725Y-71815248D01*
X148286103Y-71809704D01*
X148284036Y-71803929D01*
X148282546Y-71797979D01*
X148281646Y-71791912D01*
X148281345Y-71785786D01*
X148281646Y-71779660D01*
X148282546Y-71773593D01*
X148284036Y-71767643D01*
X148286103Y-71761868D01*
X148288725Y-71756324D01*
X148291878Y-71751063D01*
X148295532Y-71746136D01*
X148299651Y-71741592D01*
X148388039Y-71653204D01*
X148392583Y-71649085D01*
X148397510Y-71645431D01*
X148402771Y-71642278D01*
X148408315Y-71639656D01*
X148414090Y-71637589D01*
X148420040Y-71636099D01*
X148426107Y-71635199D01*
X148432233Y-71634898D01*
X148438359Y-71635199D01*
G37*
G36*
X148791912Y-71281646D02*
G01*
X148797979Y-71282546D01*
X148803929Y-71284036D01*
X148809704Y-71286103D01*
X148815248Y-71288725D01*
X148820509Y-71291878D01*
X148825436Y-71295532D01*
X148829980Y-71299651D01*
X149360310Y-71829981D01*
X149364429Y-71834525D01*
X149368083Y-71839452D01*
X149371236Y-71844713D01*
X149373858Y-71850257D01*
X149375925Y-71856032D01*
X149377415Y-71861982D01*
X149378315Y-71868049D01*
X149378616Y-71874175D01*
X149378315Y-71880301D01*
X149377415Y-71886368D01*
X149375925Y-71892318D01*
X149373858Y-71898093D01*
X149371236Y-71903637D01*
X149368083Y-71908898D01*
X149364429Y-71913825D01*
X149360310Y-71918369D01*
X149271922Y-72006757D01*
X149267378Y-72010876D01*
X149262451Y-72014530D01*
X149257190Y-72017683D01*
X149251646Y-72020305D01*
X149245871Y-72022372D01*
X149239921Y-72023862D01*
X149233854Y-72024762D01*
X149227728Y-72025063D01*
X149221602Y-72024762D01*
X149215535Y-72023862D01*
X149209585Y-72022372D01*
X149203810Y-72020305D01*
X149198266Y-72017683D01*
X149193005Y-72014530D01*
X149188078Y-72010876D01*
X149183534Y-72006757D01*
X148653204Y-71476427D01*
X148649085Y-71471883D01*
X148645431Y-71466956D01*
X148642278Y-71461695D01*
X148639656Y-71456151D01*
X148637589Y-71450376D01*
X148636099Y-71444426D01*
X148635199Y-71438359D01*
X148634898Y-71432233D01*
X148635199Y-71426107D01*
X148636099Y-71420040D01*
X148637589Y-71414090D01*
X148639656Y-71408315D01*
X148642278Y-71402771D01*
X148645431Y-71397510D01*
X148649085Y-71392583D01*
X148653204Y-71388039D01*
X148741592Y-71299651D01*
X148746136Y-71295532D01*
X148751063Y-71291878D01*
X148756324Y-71288725D01*
X148761868Y-71286103D01*
X148767643Y-71284036D01*
X148773593Y-71282546D01*
X148779660Y-71281646D01*
X148785786Y-71281345D01*
X148791912Y-71281646D01*
G37*
G36*
X149145466Y-70928093D02*
G01*
X149151533Y-70928993D01*
X149157483Y-70930483D01*
X149163258Y-70932550D01*
X149168802Y-70935172D01*
X149174063Y-70938325D01*
X149178990Y-70941979D01*
X149183534Y-70946098D01*
X149713864Y-71476428D01*
X149717983Y-71480972D01*
X149721637Y-71485899D01*
X149724790Y-71491160D01*
X149727412Y-71496704D01*
X149729479Y-71502479D01*
X149730969Y-71508429D01*
X149731869Y-71514496D01*
X149732170Y-71520622D01*
X149731869Y-71526748D01*
X149730969Y-71532815D01*
X149729479Y-71538765D01*
X149727412Y-71544540D01*
X149724790Y-71550084D01*
X149721637Y-71555345D01*
X149717983Y-71560272D01*
X149713864Y-71564816D01*
X149625476Y-71653204D01*
X149620932Y-71657323D01*
X149616005Y-71660977D01*
X149610744Y-71664130D01*
X149605200Y-71666752D01*
X149599425Y-71668819D01*
X149593475Y-71670309D01*
X149587408Y-71671209D01*
X149581282Y-71671510D01*
X149575156Y-71671209D01*
X149569089Y-71670309D01*
X149563139Y-71668819D01*
X149557364Y-71666752D01*
X149551820Y-71664130D01*
X149546559Y-71660977D01*
X149541632Y-71657323D01*
X149537088Y-71653204D01*
X149006758Y-71122874D01*
X149002639Y-71118330D01*
X148998985Y-71113403D01*
X148995832Y-71108142D01*
X148993210Y-71102598D01*
X148991143Y-71096823D01*
X148989653Y-71090873D01*
X148988753Y-71084806D01*
X148988452Y-71078680D01*
X148988753Y-71072554D01*
X148989653Y-71066487D01*
X148991143Y-71060537D01*
X148993210Y-71054762D01*
X148995832Y-71049218D01*
X148998985Y-71043957D01*
X149002639Y-71039030D01*
X149006758Y-71034486D01*
X149095146Y-70946098D01*
X149099690Y-70941979D01*
X149104617Y-70938325D01*
X149109878Y-70935172D01*
X149115422Y-70932550D01*
X149121197Y-70930483D01*
X149127147Y-70928993D01*
X149133214Y-70928093D01*
X149139340Y-70927792D01*
X149145466Y-70928093D01*
G37*
G36*
X149499019Y-70574539D02*
G01*
X149505086Y-70575439D01*
X149511036Y-70576929D01*
X149516811Y-70578996D01*
X149522355Y-70581618D01*
X149527616Y-70584771D01*
X149532543Y-70588425D01*
X149537087Y-70592544D01*
X150067417Y-71122874D01*
X150071536Y-71127418D01*
X150075190Y-71132345D01*
X150078343Y-71137606D01*
X150080965Y-71143150D01*
X150083032Y-71148925D01*
X150084522Y-71154875D01*
X150085422Y-71160942D01*
X150085723Y-71167068D01*
X150085422Y-71173194D01*
X150084522Y-71179261D01*
X150083032Y-71185211D01*
X150080965Y-71190986D01*
X150078343Y-71196530D01*
X150075190Y-71201791D01*
X150071536Y-71206718D01*
X150067417Y-71211262D01*
X149979029Y-71299650D01*
X149974485Y-71303769D01*
X149969558Y-71307423D01*
X149964297Y-71310576D01*
X149958753Y-71313198D01*
X149952978Y-71315265D01*
X149947028Y-71316755D01*
X149940961Y-71317655D01*
X149934835Y-71317956D01*
X149928709Y-71317655D01*
X149922642Y-71316755D01*
X149916692Y-71315265D01*
X149910917Y-71313198D01*
X149905373Y-71310576D01*
X149900112Y-71307423D01*
X149895185Y-71303769D01*
X149890641Y-71299650D01*
X149360311Y-70769320D01*
X149356192Y-70764776D01*
X149352538Y-70759849D01*
X149349385Y-70754588D01*
X149346763Y-70749044D01*
X149344696Y-70743269D01*
X149343206Y-70737319D01*
X149342306Y-70731252D01*
X149342005Y-70725126D01*
X149342306Y-70719000D01*
X149343206Y-70712933D01*
X149344696Y-70706983D01*
X149346763Y-70701208D01*
X149349385Y-70695664D01*
X149352538Y-70690403D01*
X149356192Y-70685476D01*
X149360311Y-70680932D01*
X149448699Y-70592544D01*
X149453243Y-70588425D01*
X149458170Y-70584771D01*
X149463431Y-70581618D01*
X149468975Y-70578996D01*
X149474750Y-70576929D01*
X149480700Y-70575439D01*
X149486767Y-70574539D01*
X149492893Y-70574238D01*
X149499019Y-70574539D01*
G37*
G36*
X150913233Y-70574539D02*
G01*
X150919300Y-70575439D01*
X150925250Y-70576929D01*
X150931025Y-70578996D01*
X150936569Y-70581618D01*
X150941830Y-70584771D01*
X150946757Y-70588425D01*
X150951301Y-70592544D01*
X151039689Y-70680932D01*
X151043808Y-70685476D01*
X151047462Y-70690403D01*
X151050615Y-70695664D01*
X151053237Y-70701208D01*
X151055304Y-70706983D01*
X151056794Y-70712933D01*
X151057694Y-70719000D01*
X151057995Y-70725126D01*
X151057694Y-70731252D01*
X151056794Y-70737319D01*
X151055304Y-70743269D01*
X151053237Y-70749044D01*
X151050615Y-70754588D01*
X151047462Y-70759849D01*
X151043808Y-70764776D01*
X151039689Y-70769320D01*
X150509359Y-71299650D01*
X150504815Y-71303769D01*
X150499888Y-71307423D01*
X150494627Y-71310576D01*
X150489083Y-71313198D01*
X150483308Y-71315265D01*
X150477358Y-71316755D01*
X150471291Y-71317655D01*
X150465165Y-71317956D01*
X150459039Y-71317655D01*
X150452972Y-71316755D01*
X150447022Y-71315265D01*
X150441247Y-71313198D01*
X150435703Y-71310576D01*
X150430442Y-71307423D01*
X150425515Y-71303769D01*
X150420971Y-71299650D01*
X150332583Y-71211262D01*
X150328464Y-71206718D01*
X150324810Y-71201791D01*
X150321657Y-71196530D01*
X150319035Y-71190986D01*
X150316968Y-71185211D01*
X150315478Y-71179261D01*
X150314578Y-71173194D01*
X150314277Y-71167068D01*
X150314578Y-71160942D01*
X150315478Y-71154875D01*
X150316968Y-71148925D01*
X150319035Y-71143150D01*
X150321657Y-71137606D01*
X150324810Y-71132345D01*
X150328464Y-71127418D01*
X150332583Y-71122874D01*
X150862913Y-70592544D01*
X150867457Y-70588425D01*
X150872384Y-70584771D01*
X150877645Y-70581618D01*
X150883189Y-70578996D01*
X150888964Y-70576929D01*
X150894914Y-70575439D01*
X150900981Y-70574539D01*
X150907107Y-70574238D01*
X150913233Y-70574539D01*
G37*
G36*
X151266786Y-70928093D02*
G01*
X151272853Y-70928993D01*
X151278803Y-70930483D01*
X151284578Y-70932550D01*
X151290122Y-70935172D01*
X151295383Y-70938325D01*
X151300310Y-70941979D01*
X151304854Y-70946098D01*
X151393242Y-71034486D01*
X151397361Y-71039030D01*
X151401015Y-71043957D01*
X151404168Y-71049218D01*
X151406790Y-71054762D01*
X151408857Y-71060537D01*
X151410347Y-71066487D01*
X151411247Y-71072554D01*
X151411548Y-71078680D01*
X151411247Y-71084806D01*
X151410347Y-71090873D01*
X151408857Y-71096823D01*
X151406790Y-71102598D01*
X151404168Y-71108142D01*
X151401015Y-71113403D01*
X151397361Y-71118330D01*
X151393242Y-71122874D01*
X150862912Y-71653204D01*
X150858368Y-71657323D01*
X150853441Y-71660977D01*
X150848180Y-71664130D01*
X150842636Y-71666752D01*
X150836861Y-71668819D01*
X150830911Y-71670309D01*
X150824844Y-71671209D01*
X150818718Y-71671510D01*
X150812592Y-71671209D01*
X150806525Y-71670309D01*
X150800575Y-71668819D01*
X150794800Y-71666752D01*
X150789256Y-71664130D01*
X150783995Y-71660977D01*
X150779068Y-71657323D01*
X150774524Y-71653204D01*
X150686136Y-71564816D01*
X150682017Y-71560272D01*
X150678363Y-71555345D01*
X150675210Y-71550084D01*
X150672588Y-71544540D01*
X150670521Y-71538765D01*
X150669031Y-71532815D01*
X150668131Y-71526748D01*
X150667830Y-71520622D01*
X150668131Y-71514496D01*
X150669031Y-71508429D01*
X150670521Y-71502479D01*
X150672588Y-71496704D01*
X150675210Y-71491160D01*
X150678363Y-71485899D01*
X150682017Y-71480972D01*
X150686136Y-71476428D01*
X151216466Y-70946098D01*
X151221010Y-70941979D01*
X151225937Y-70938325D01*
X151231198Y-70935172D01*
X151236742Y-70932550D01*
X151242517Y-70930483D01*
X151248467Y-70928993D01*
X151254534Y-70928093D01*
X151260660Y-70927792D01*
X151266786Y-70928093D01*
G37*
G36*
X151620340Y-71281646D02*
G01*
X151626407Y-71282546D01*
X151632357Y-71284036D01*
X151638132Y-71286103D01*
X151643676Y-71288725D01*
X151648937Y-71291878D01*
X151653864Y-71295532D01*
X151658408Y-71299651D01*
X151746796Y-71388039D01*
X151750915Y-71392583D01*
X151754569Y-71397510D01*
X151757722Y-71402771D01*
X151760344Y-71408315D01*
X151762411Y-71414090D01*
X151763901Y-71420040D01*
X151764801Y-71426107D01*
X151765102Y-71432233D01*
X151764801Y-71438359D01*
X151763901Y-71444426D01*
X151762411Y-71450376D01*
X151760344Y-71456151D01*
X151757722Y-71461695D01*
X151754569Y-71466956D01*
X151750915Y-71471883D01*
X151746796Y-71476427D01*
X151216466Y-72006757D01*
X151211922Y-72010876D01*
X151206995Y-72014530D01*
X151201734Y-72017683D01*
X151196190Y-72020305D01*
X151190415Y-72022372D01*
X151184465Y-72023862D01*
X151178398Y-72024762D01*
X151172272Y-72025063D01*
X151166146Y-72024762D01*
X151160079Y-72023862D01*
X151154129Y-72022372D01*
X151148354Y-72020305D01*
X151142810Y-72017683D01*
X151137549Y-72014530D01*
X151132622Y-72010876D01*
X151128078Y-72006757D01*
X151039690Y-71918369D01*
X151035571Y-71913825D01*
X151031917Y-71908898D01*
X151028764Y-71903637D01*
X151026142Y-71898093D01*
X151024075Y-71892318D01*
X151022585Y-71886368D01*
X151021685Y-71880301D01*
X151021384Y-71874175D01*
X151021685Y-71868049D01*
X151022585Y-71861982D01*
X151024075Y-71856032D01*
X151026142Y-71850257D01*
X151028764Y-71844713D01*
X151031917Y-71839452D01*
X151035571Y-71834525D01*
X151039690Y-71829981D01*
X151570020Y-71299651D01*
X151574564Y-71295532D01*
X151579491Y-71291878D01*
X151584752Y-71288725D01*
X151590296Y-71286103D01*
X151596071Y-71284036D01*
X151602021Y-71282546D01*
X151608088Y-71281646D01*
X151614214Y-71281345D01*
X151620340Y-71281646D01*
G37*
G36*
X151973893Y-71635199D02*
G01*
X151979960Y-71636099D01*
X151985910Y-71637589D01*
X151991685Y-71639656D01*
X151997229Y-71642278D01*
X152002490Y-71645431D01*
X152007417Y-71649085D01*
X152011961Y-71653204D01*
X152100349Y-71741592D01*
X152104468Y-71746136D01*
X152108122Y-71751063D01*
X152111275Y-71756324D01*
X152113897Y-71761868D01*
X152115964Y-71767643D01*
X152117454Y-71773593D01*
X152118354Y-71779660D01*
X152118655Y-71785786D01*
X152118354Y-71791912D01*
X152117454Y-71797979D01*
X152115964Y-71803929D01*
X152113897Y-71809704D01*
X152111275Y-71815248D01*
X152108122Y-71820509D01*
X152104468Y-71825436D01*
X152100349Y-71829980D01*
X151570019Y-72360310D01*
X151565475Y-72364429D01*
X151560548Y-72368083D01*
X151555287Y-72371236D01*
X151549743Y-72373858D01*
X151543968Y-72375925D01*
X151538018Y-72377415D01*
X151531951Y-72378315D01*
X151525825Y-72378616D01*
X151519699Y-72378315D01*
X151513632Y-72377415D01*
X151507682Y-72375925D01*
X151501907Y-72373858D01*
X151496363Y-72371236D01*
X151491102Y-72368083D01*
X151486175Y-72364429D01*
X151481631Y-72360310D01*
X151393243Y-72271922D01*
X151389124Y-72267378D01*
X151385470Y-72262451D01*
X151382317Y-72257190D01*
X151379695Y-72251646D01*
X151377628Y-72245871D01*
X151376138Y-72239921D01*
X151375238Y-72233854D01*
X151374937Y-72227728D01*
X151375238Y-72221602D01*
X151376138Y-72215535D01*
X151377628Y-72209585D01*
X151379695Y-72203810D01*
X151382317Y-72198266D01*
X151385470Y-72193005D01*
X151389124Y-72188078D01*
X151393243Y-72183534D01*
X151923573Y-71653204D01*
X151928117Y-71649085D01*
X151933044Y-71645431D01*
X151938305Y-71642278D01*
X151943849Y-71639656D01*
X151949624Y-71637589D01*
X151955574Y-71636099D01*
X151961641Y-71635199D01*
X151967767Y-71634898D01*
X151973893Y-71635199D01*
G37*
G36*
X152327446Y-71988753D02*
G01*
X152333513Y-71989653D01*
X152339463Y-71991143D01*
X152345238Y-71993210D01*
X152350782Y-71995832D01*
X152356043Y-71998985D01*
X152360970Y-72002639D01*
X152365514Y-72006758D01*
X152453902Y-72095146D01*
X152458021Y-72099690D01*
X152461675Y-72104617D01*
X152464828Y-72109878D01*
X152467450Y-72115422D01*
X152469517Y-72121197D01*
X152471007Y-72127147D01*
X152471907Y-72133214D01*
X152472208Y-72139340D01*
X152471907Y-72145466D01*
X152471007Y-72151533D01*
X152469517Y-72157483D01*
X152467450Y-72163258D01*
X152464828Y-72168802D01*
X152461675Y-72174063D01*
X152458021Y-72178990D01*
X152453902Y-72183534D01*
X151923572Y-72713864D01*
X151919028Y-72717983D01*
X151914101Y-72721637D01*
X151908840Y-72724790D01*
X151903296Y-72727412D01*
X151897521Y-72729479D01*
X151891571Y-72730969D01*
X151885504Y-72731869D01*
X151879378Y-72732170D01*
X151873252Y-72731869D01*
X151867185Y-72730969D01*
X151861235Y-72729479D01*
X151855460Y-72727412D01*
X151849916Y-72724790D01*
X151844655Y-72721637D01*
X151839728Y-72717983D01*
X151835184Y-72713864D01*
X151746796Y-72625476D01*
X151742677Y-72620932D01*
X151739023Y-72616005D01*
X151735870Y-72610744D01*
X151733248Y-72605200D01*
X151731181Y-72599425D01*
X151729691Y-72593475D01*
X151728791Y-72587408D01*
X151728490Y-72581282D01*
X151728791Y-72575156D01*
X151729691Y-72569089D01*
X151731181Y-72563139D01*
X151733248Y-72557364D01*
X151735870Y-72551820D01*
X151739023Y-72546559D01*
X151742677Y-72541632D01*
X151746796Y-72537088D01*
X152277126Y-72006758D01*
X152281670Y-72002639D01*
X152286597Y-71998985D01*
X152291858Y-71995832D01*
X152297402Y-71993210D01*
X152303177Y-71991143D01*
X152309127Y-71989653D01*
X152315194Y-71988753D01*
X152321320Y-71988452D01*
X152327446Y-71988753D01*
G37*
G36*
X152681000Y-72342306D02*
G01*
X152687067Y-72343206D01*
X152693017Y-72344696D01*
X152698792Y-72346763D01*
X152704336Y-72349385D01*
X152709597Y-72352538D01*
X152714524Y-72356192D01*
X152719068Y-72360311D01*
X152807456Y-72448699D01*
X152811575Y-72453243D01*
X152815229Y-72458170D01*
X152818382Y-72463431D01*
X152821004Y-72468975D01*
X152823071Y-72474750D01*
X152824561Y-72480700D01*
X152825461Y-72486767D01*
X152825762Y-72492893D01*
X152825461Y-72499019D01*
X152824561Y-72505086D01*
X152823071Y-72511036D01*
X152821004Y-72516811D01*
X152818382Y-72522355D01*
X152815229Y-72527616D01*
X152811575Y-72532543D01*
X152807456Y-72537087D01*
X152277126Y-73067417D01*
X152272582Y-73071536D01*
X152267655Y-73075190D01*
X152262394Y-73078343D01*
X152256850Y-73080965D01*
X152251075Y-73083032D01*
X152245125Y-73084522D01*
X152239058Y-73085422D01*
X152232932Y-73085723D01*
X152226806Y-73085422D01*
X152220739Y-73084522D01*
X152214789Y-73083032D01*
X152209014Y-73080965D01*
X152203470Y-73078343D01*
X152198209Y-73075190D01*
X152193282Y-73071536D01*
X152188738Y-73067417D01*
X152100350Y-72979029D01*
X152096231Y-72974485D01*
X152092577Y-72969558D01*
X152089424Y-72964297D01*
X152086802Y-72958753D01*
X152084735Y-72952978D01*
X152083245Y-72947028D01*
X152082345Y-72940961D01*
X152082044Y-72934835D01*
X152082345Y-72928709D01*
X152083245Y-72922642D01*
X152084735Y-72916692D01*
X152086802Y-72910917D01*
X152089424Y-72905373D01*
X152092577Y-72900112D01*
X152096231Y-72895185D01*
X152100350Y-72890641D01*
X152630680Y-72360311D01*
X152635224Y-72356192D01*
X152640151Y-72352538D01*
X152645412Y-72349385D01*
X152650956Y-72346763D01*
X152656731Y-72344696D01*
X152662681Y-72343206D01*
X152668748Y-72342306D01*
X152674874Y-72342005D01*
X152681000Y-72342306D01*
G37*
G36*
X152239058Y-73314578D02*
G01*
X152245125Y-73315478D01*
X152251075Y-73316968D01*
X152256850Y-73319035D01*
X152262394Y-73321657D01*
X152267655Y-73324810D01*
X152272582Y-73328464D01*
X152277126Y-73332583D01*
X152807456Y-73862913D01*
X152811575Y-73867457D01*
X152815229Y-73872384D01*
X152818382Y-73877645D01*
X152821004Y-73883189D01*
X152823071Y-73888964D01*
X152824561Y-73894914D01*
X152825461Y-73900981D01*
X152825762Y-73907107D01*
X152825461Y-73913233D01*
X152824561Y-73919300D01*
X152823071Y-73925250D01*
X152821004Y-73931025D01*
X152818382Y-73936569D01*
X152815229Y-73941830D01*
X152811575Y-73946757D01*
X152807456Y-73951301D01*
X152719068Y-74039689D01*
X152714524Y-74043808D01*
X152709597Y-74047462D01*
X152704336Y-74050615D01*
X152698792Y-74053237D01*
X152693017Y-74055304D01*
X152687067Y-74056794D01*
X152681000Y-74057694D01*
X152674874Y-74057995D01*
X152668748Y-74057694D01*
X152662681Y-74056794D01*
X152656731Y-74055304D01*
X152650956Y-74053237D01*
X152645412Y-74050615D01*
X152640151Y-74047462D01*
X152635224Y-74043808D01*
X152630680Y-74039689D01*
X152100350Y-73509359D01*
X152096231Y-73504815D01*
X152092577Y-73499888D01*
X152089424Y-73494627D01*
X152086802Y-73489083D01*
X152084735Y-73483308D01*
X152083245Y-73477358D01*
X152082345Y-73471291D01*
X152082044Y-73465165D01*
X152082345Y-73459039D01*
X152083245Y-73452972D01*
X152084735Y-73447022D01*
X152086802Y-73441247D01*
X152089424Y-73435703D01*
X152092577Y-73430442D01*
X152096231Y-73425515D01*
X152100350Y-73420971D01*
X152188738Y-73332583D01*
X152193282Y-73328464D01*
X152198209Y-73324810D01*
X152203470Y-73321657D01*
X152209014Y-73319035D01*
X152214789Y-73316968D01*
X152220739Y-73315478D01*
X152226806Y-73314578D01*
X152232932Y-73314277D01*
X152239058Y-73314578D01*
G37*
G36*
X151885504Y-73668131D02*
G01*
X151891571Y-73669031D01*
X151897521Y-73670521D01*
X151903296Y-73672588D01*
X151908840Y-73675210D01*
X151914101Y-73678363D01*
X151919028Y-73682017D01*
X151923572Y-73686136D01*
X152453902Y-74216466D01*
X152458021Y-74221010D01*
X152461675Y-74225937D01*
X152464828Y-74231198D01*
X152467450Y-74236742D01*
X152469517Y-74242517D01*
X152471007Y-74248467D01*
X152471907Y-74254534D01*
X152472208Y-74260660D01*
X152471907Y-74266786D01*
X152471007Y-74272853D01*
X152469517Y-74278803D01*
X152467450Y-74284578D01*
X152464828Y-74290122D01*
X152461675Y-74295383D01*
X152458021Y-74300310D01*
X152453902Y-74304854D01*
X152365514Y-74393242D01*
X152360970Y-74397361D01*
X152356043Y-74401015D01*
X152350782Y-74404168D01*
X152345238Y-74406790D01*
X152339463Y-74408857D01*
X152333513Y-74410347D01*
X152327446Y-74411247D01*
X152321320Y-74411548D01*
X152315194Y-74411247D01*
X152309127Y-74410347D01*
X152303177Y-74408857D01*
X152297402Y-74406790D01*
X152291858Y-74404168D01*
X152286597Y-74401015D01*
X152281670Y-74397361D01*
X152277126Y-74393242D01*
X151746796Y-73862912D01*
X151742677Y-73858368D01*
X151739023Y-73853441D01*
X151735870Y-73848180D01*
X151733248Y-73842636D01*
X151731181Y-73836861D01*
X151729691Y-73830911D01*
X151728791Y-73824844D01*
X151728490Y-73818718D01*
X151728791Y-73812592D01*
X151729691Y-73806525D01*
X151731181Y-73800575D01*
X151733248Y-73794800D01*
X151735870Y-73789256D01*
X151739023Y-73783995D01*
X151742677Y-73779068D01*
X151746796Y-73774524D01*
X151835184Y-73686136D01*
X151839728Y-73682017D01*
X151844655Y-73678363D01*
X151849916Y-73675210D01*
X151855460Y-73672588D01*
X151861235Y-73670521D01*
X151867185Y-73669031D01*
X151873252Y-73668131D01*
X151879378Y-73667830D01*
X151885504Y-73668131D01*
G37*
G36*
X151531951Y-74021685D02*
G01*
X151538018Y-74022585D01*
X151543968Y-74024075D01*
X151549743Y-74026142D01*
X151555287Y-74028764D01*
X151560548Y-74031917D01*
X151565475Y-74035571D01*
X151570019Y-74039690D01*
X152100349Y-74570020D01*
X152104468Y-74574564D01*
X152108122Y-74579491D01*
X152111275Y-74584752D01*
X152113897Y-74590296D01*
X152115964Y-74596071D01*
X152117454Y-74602021D01*
X152118354Y-74608088D01*
X152118655Y-74614214D01*
X152118354Y-74620340D01*
X152117454Y-74626407D01*
X152115964Y-74632357D01*
X152113897Y-74638132D01*
X152111275Y-74643676D01*
X152108122Y-74648937D01*
X152104468Y-74653864D01*
X152100349Y-74658408D01*
X152011961Y-74746796D01*
X152007417Y-74750915D01*
X152002490Y-74754569D01*
X151997229Y-74757722D01*
X151991685Y-74760344D01*
X151985910Y-74762411D01*
X151979960Y-74763901D01*
X151973893Y-74764801D01*
X151967767Y-74765102D01*
X151961641Y-74764801D01*
X151955574Y-74763901D01*
X151949624Y-74762411D01*
X151943849Y-74760344D01*
X151938305Y-74757722D01*
X151933044Y-74754569D01*
X151928117Y-74750915D01*
X151923573Y-74746796D01*
X151393243Y-74216466D01*
X151389124Y-74211922D01*
X151385470Y-74206995D01*
X151382317Y-74201734D01*
X151379695Y-74196190D01*
X151377628Y-74190415D01*
X151376138Y-74184465D01*
X151375238Y-74178398D01*
X151374937Y-74172272D01*
X151375238Y-74166146D01*
X151376138Y-74160079D01*
X151377628Y-74154129D01*
X151379695Y-74148354D01*
X151382317Y-74142810D01*
X151385470Y-74137549D01*
X151389124Y-74132622D01*
X151393243Y-74128078D01*
X151481631Y-74039690D01*
X151486175Y-74035571D01*
X151491102Y-74031917D01*
X151496363Y-74028764D01*
X151501907Y-74026142D01*
X151507682Y-74024075D01*
X151513632Y-74022585D01*
X151519699Y-74021685D01*
X151525825Y-74021384D01*
X151531951Y-74021685D01*
G37*
G36*
X151178398Y-74375238D02*
G01*
X151184465Y-74376138D01*
X151190415Y-74377628D01*
X151196190Y-74379695D01*
X151201734Y-74382317D01*
X151206995Y-74385470D01*
X151211922Y-74389124D01*
X151216466Y-74393243D01*
X151746796Y-74923573D01*
X151750915Y-74928117D01*
X151754569Y-74933044D01*
X151757722Y-74938305D01*
X151760344Y-74943849D01*
X151762411Y-74949624D01*
X151763901Y-74955574D01*
X151764801Y-74961641D01*
X151765102Y-74967767D01*
X151764801Y-74973893D01*
X151763901Y-74979960D01*
X151762411Y-74985910D01*
X151760344Y-74991685D01*
X151757722Y-74997229D01*
X151754569Y-75002490D01*
X151750915Y-75007417D01*
X151746796Y-75011961D01*
X151658408Y-75100349D01*
X151653864Y-75104468D01*
X151648937Y-75108122D01*
X151643676Y-75111275D01*
X151638132Y-75113897D01*
X151632357Y-75115964D01*
X151626407Y-75117454D01*
X151620340Y-75118354D01*
X151614214Y-75118655D01*
X151608088Y-75118354D01*
X151602021Y-75117454D01*
X151596071Y-75115964D01*
X151590296Y-75113897D01*
X151584752Y-75111275D01*
X151579491Y-75108122D01*
X151574564Y-75104468D01*
X151570020Y-75100349D01*
X151039690Y-74570019D01*
X151035571Y-74565475D01*
X151031917Y-74560548D01*
X151028764Y-74555287D01*
X151026142Y-74549743D01*
X151024075Y-74543968D01*
X151022585Y-74538018D01*
X151021685Y-74531951D01*
X151021384Y-74525825D01*
X151021685Y-74519699D01*
X151022585Y-74513632D01*
X151024075Y-74507682D01*
X151026142Y-74501907D01*
X151028764Y-74496363D01*
X151031917Y-74491102D01*
X151035571Y-74486175D01*
X151039690Y-74481631D01*
X151128078Y-74393243D01*
X151132622Y-74389124D01*
X151137549Y-74385470D01*
X151142810Y-74382317D01*
X151148354Y-74379695D01*
X151154129Y-74377628D01*
X151160079Y-74376138D01*
X151166146Y-74375238D01*
X151172272Y-74374937D01*
X151178398Y-74375238D01*
G37*
G36*
X150824844Y-74728791D02*
G01*
X150830911Y-74729691D01*
X150836861Y-74731181D01*
X150842636Y-74733248D01*
X150848180Y-74735870D01*
X150853441Y-74739023D01*
X150858368Y-74742677D01*
X150862912Y-74746796D01*
X151393242Y-75277126D01*
X151397361Y-75281670D01*
X151401015Y-75286597D01*
X151404168Y-75291858D01*
X151406790Y-75297402D01*
X151408857Y-75303177D01*
X151410347Y-75309127D01*
X151411247Y-75315194D01*
X151411548Y-75321320D01*
X151411247Y-75327446D01*
X151410347Y-75333513D01*
X151408857Y-75339463D01*
X151406790Y-75345238D01*
X151404168Y-75350782D01*
X151401015Y-75356043D01*
X151397361Y-75360970D01*
X151393242Y-75365514D01*
X151304854Y-75453902D01*
X151300310Y-75458021D01*
X151295383Y-75461675D01*
X151290122Y-75464828D01*
X151284578Y-75467450D01*
X151278803Y-75469517D01*
X151272853Y-75471007D01*
X151266786Y-75471907D01*
X151260660Y-75472208D01*
X151254534Y-75471907D01*
X151248467Y-75471007D01*
X151242517Y-75469517D01*
X151236742Y-75467450D01*
X151231198Y-75464828D01*
X151225937Y-75461675D01*
X151221010Y-75458021D01*
X151216466Y-75453902D01*
X150686136Y-74923572D01*
X150682017Y-74919028D01*
X150678363Y-74914101D01*
X150675210Y-74908840D01*
X150672588Y-74903296D01*
X150670521Y-74897521D01*
X150669031Y-74891571D01*
X150668131Y-74885504D01*
X150667830Y-74879378D01*
X150668131Y-74873252D01*
X150669031Y-74867185D01*
X150670521Y-74861235D01*
X150672588Y-74855460D01*
X150675210Y-74849916D01*
X150678363Y-74844655D01*
X150682017Y-74839728D01*
X150686136Y-74835184D01*
X150774524Y-74746796D01*
X150779068Y-74742677D01*
X150783995Y-74739023D01*
X150789256Y-74735870D01*
X150794800Y-74733248D01*
X150800575Y-74731181D01*
X150806525Y-74729691D01*
X150812592Y-74728791D01*
X150818718Y-74728490D01*
X150824844Y-74728791D01*
G37*
G36*
X150471291Y-75082345D02*
G01*
X150477358Y-75083245D01*
X150483308Y-75084735D01*
X150489083Y-75086802D01*
X150494627Y-75089424D01*
X150499888Y-75092577D01*
X150504815Y-75096231D01*
X150509359Y-75100350D01*
X151039689Y-75630680D01*
X151043808Y-75635224D01*
X151047462Y-75640151D01*
X151050615Y-75645412D01*
X151053237Y-75650956D01*
X151055304Y-75656731D01*
X151056794Y-75662681D01*
X151057694Y-75668748D01*
X151057995Y-75674874D01*
X151057694Y-75681000D01*
X151056794Y-75687067D01*
X151055304Y-75693017D01*
X151053237Y-75698792D01*
X151050615Y-75704336D01*
X151047462Y-75709597D01*
X151043808Y-75714524D01*
X151039689Y-75719068D01*
X150951301Y-75807456D01*
X150946757Y-75811575D01*
X150941830Y-75815229D01*
X150936569Y-75818382D01*
X150931025Y-75821004D01*
X150925250Y-75823071D01*
X150919300Y-75824561D01*
X150913233Y-75825461D01*
X150907107Y-75825762D01*
X150900981Y-75825461D01*
X150894914Y-75824561D01*
X150888964Y-75823071D01*
X150883189Y-75821004D01*
X150877645Y-75818382D01*
X150872384Y-75815229D01*
X150867457Y-75811575D01*
X150862913Y-75807456D01*
X150332583Y-75277126D01*
X150328464Y-75272582D01*
X150324810Y-75267655D01*
X150321657Y-75262394D01*
X150319035Y-75256850D01*
X150316968Y-75251075D01*
X150315478Y-75245125D01*
X150314578Y-75239058D01*
X150314277Y-75232932D01*
X150314578Y-75226806D01*
X150315478Y-75220739D01*
X150316968Y-75214789D01*
X150319035Y-75209014D01*
X150321657Y-75203470D01*
X150324810Y-75198209D01*
X150328464Y-75193282D01*
X150332583Y-75188738D01*
X150420971Y-75100350D01*
X150425515Y-75096231D01*
X150430442Y-75092577D01*
X150435703Y-75089424D01*
X150441247Y-75086802D01*
X150447022Y-75084735D01*
X150452972Y-75083245D01*
X150459039Y-75082345D01*
X150465165Y-75082044D01*
X150471291Y-75082345D01*
G37*
G36*
X149940961Y-75082345D02*
G01*
X149947028Y-75083245D01*
X149952978Y-75084735D01*
X149958753Y-75086802D01*
X149964297Y-75089424D01*
X149969558Y-75092577D01*
X149974485Y-75096231D01*
X149979029Y-75100350D01*
X150067417Y-75188738D01*
X150071536Y-75193282D01*
X150075190Y-75198209D01*
X150078343Y-75203470D01*
X150080965Y-75209014D01*
X150083032Y-75214789D01*
X150084522Y-75220739D01*
X150085422Y-75226806D01*
X150085723Y-75232932D01*
X150085422Y-75239058D01*
X150084522Y-75245125D01*
X150083032Y-75251075D01*
X150080965Y-75256850D01*
X150078343Y-75262394D01*
X150075190Y-75267655D01*
X150071536Y-75272582D01*
X150067417Y-75277126D01*
X149537087Y-75807456D01*
X149532543Y-75811575D01*
X149527616Y-75815229D01*
X149522355Y-75818382D01*
X149516811Y-75821004D01*
X149511036Y-75823071D01*
X149505086Y-75824561D01*
X149499019Y-75825461D01*
X149492893Y-75825762D01*
X149486767Y-75825461D01*
X149480700Y-75824561D01*
X149474750Y-75823071D01*
X149468975Y-75821004D01*
X149463431Y-75818382D01*
X149458170Y-75815229D01*
X149453243Y-75811575D01*
X149448699Y-75807456D01*
X149360311Y-75719068D01*
X149356192Y-75714524D01*
X149352538Y-75709597D01*
X149349385Y-75704336D01*
X149346763Y-75698792D01*
X149344696Y-75693017D01*
X149343206Y-75687067D01*
X149342306Y-75681000D01*
X149342005Y-75674874D01*
X149342306Y-75668748D01*
X149343206Y-75662681D01*
X149344696Y-75656731D01*
X149346763Y-75650956D01*
X149349385Y-75645412D01*
X149352538Y-75640151D01*
X149356192Y-75635224D01*
X149360311Y-75630680D01*
X149890641Y-75100350D01*
X149895185Y-75096231D01*
X149900112Y-75092577D01*
X149905373Y-75089424D01*
X149910917Y-75086802D01*
X149916692Y-75084735D01*
X149922642Y-75083245D01*
X149928709Y-75082345D01*
X149934835Y-75082044D01*
X149940961Y-75082345D01*
G37*
G36*
X149587408Y-74728791D02*
G01*
X149593475Y-74729691D01*
X149599425Y-74731181D01*
X149605200Y-74733248D01*
X149610744Y-74735870D01*
X149616005Y-74739023D01*
X149620932Y-74742677D01*
X149625476Y-74746796D01*
X149713864Y-74835184D01*
X149717983Y-74839728D01*
X149721637Y-74844655D01*
X149724790Y-74849916D01*
X149727412Y-74855460D01*
X149729479Y-74861235D01*
X149730969Y-74867185D01*
X149731869Y-74873252D01*
X149732170Y-74879378D01*
X149731869Y-74885504D01*
X149730969Y-74891571D01*
X149729479Y-74897521D01*
X149727412Y-74903296D01*
X149724790Y-74908840D01*
X149721637Y-74914101D01*
X149717983Y-74919028D01*
X149713864Y-74923572D01*
X149183534Y-75453902D01*
X149178990Y-75458021D01*
X149174063Y-75461675D01*
X149168802Y-75464828D01*
X149163258Y-75467450D01*
X149157483Y-75469517D01*
X149151533Y-75471007D01*
X149145466Y-75471907D01*
X149139340Y-75472208D01*
X149133214Y-75471907D01*
X149127147Y-75471007D01*
X149121197Y-75469517D01*
X149115422Y-75467450D01*
X149109878Y-75464828D01*
X149104617Y-75461675D01*
X149099690Y-75458021D01*
X149095146Y-75453902D01*
X149006758Y-75365514D01*
X149002639Y-75360970D01*
X148998985Y-75356043D01*
X148995832Y-75350782D01*
X148993210Y-75345238D01*
X148991143Y-75339463D01*
X148989653Y-75333513D01*
X148988753Y-75327446D01*
X148988452Y-75321320D01*
X148988753Y-75315194D01*
X148989653Y-75309127D01*
X148991143Y-75303177D01*
X148993210Y-75297402D01*
X148995832Y-75291858D01*
X148998985Y-75286597D01*
X149002639Y-75281670D01*
X149006758Y-75277126D01*
X149537088Y-74746796D01*
X149541632Y-74742677D01*
X149546559Y-74739023D01*
X149551820Y-74735870D01*
X149557364Y-74733248D01*
X149563139Y-74731181D01*
X149569089Y-74729691D01*
X149575156Y-74728791D01*
X149581282Y-74728490D01*
X149587408Y-74728791D01*
G37*
G36*
X149233854Y-74375238D02*
G01*
X149239921Y-74376138D01*
X149245871Y-74377628D01*
X149251646Y-74379695D01*
X149257190Y-74382317D01*
X149262451Y-74385470D01*
X149267378Y-74389124D01*
X149271922Y-74393243D01*
X149360310Y-74481631D01*
X149364429Y-74486175D01*
X149368083Y-74491102D01*
X149371236Y-74496363D01*
X149373858Y-74501907D01*
X149375925Y-74507682D01*
X149377415Y-74513632D01*
X149378315Y-74519699D01*
X149378616Y-74525825D01*
X149378315Y-74531951D01*
X149377415Y-74538018D01*
X149375925Y-74543968D01*
X149373858Y-74549743D01*
X149371236Y-74555287D01*
X149368083Y-74560548D01*
X149364429Y-74565475D01*
X149360310Y-74570019D01*
X148829980Y-75100349D01*
X148825436Y-75104468D01*
X148820509Y-75108122D01*
X148815248Y-75111275D01*
X148809704Y-75113897D01*
X148803929Y-75115964D01*
X148797979Y-75117454D01*
X148791912Y-75118354D01*
X148785786Y-75118655D01*
X148779660Y-75118354D01*
X148773593Y-75117454D01*
X148767643Y-75115964D01*
X148761868Y-75113897D01*
X148756324Y-75111275D01*
X148751063Y-75108122D01*
X148746136Y-75104468D01*
X148741592Y-75100349D01*
X148653204Y-75011961D01*
X148649085Y-75007417D01*
X148645431Y-75002490D01*
X148642278Y-74997229D01*
X148639656Y-74991685D01*
X148637589Y-74985910D01*
X148636099Y-74979960D01*
X148635199Y-74973893D01*
X148634898Y-74967767D01*
X148635199Y-74961641D01*
X148636099Y-74955574D01*
X148637589Y-74949624D01*
X148639656Y-74943849D01*
X148642278Y-74938305D01*
X148645431Y-74933044D01*
X148649085Y-74928117D01*
X148653204Y-74923573D01*
X149183534Y-74393243D01*
X149188078Y-74389124D01*
X149193005Y-74385470D01*
X149198266Y-74382317D01*
X149203810Y-74379695D01*
X149209585Y-74377628D01*
X149215535Y-74376138D01*
X149221602Y-74375238D01*
X149227728Y-74374937D01*
X149233854Y-74375238D01*
G37*
G36*
X148880301Y-74021685D02*
G01*
X148886368Y-74022585D01*
X148892318Y-74024075D01*
X148898093Y-74026142D01*
X148903637Y-74028764D01*
X148908898Y-74031917D01*
X148913825Y-74035571D01*
X148918369Y-74039690D01*
X149006757Y-74128078D01*
X149010876Y-74132622D01*
X149014530Y-74137549D01*
X149017683Y-74142810D01*
X149020305Y-74148354D01*
X149022372Y-74154129D01*
X149023862Y-74160079D01*
X149024762Y-74166146D01*
X149025063Y-74172272D01*
X149024762Y-74178398D01*
X149023862Y-74184465D01*
X149022372Y-74190415D01*
X149020305Y-74196190D01*
X149017683Y-74201734D01*
X149014530Y-74206995D01*
X149010876Y-74211922D01*
X149006757Y-74216466D01*
X148476427Y-74746796D01*
X148471883Y-74750915D01*
X148466956Y-74754569D01*
X148461695Y-74757722D01*
X148456151Y-74760344D01*
X148450376Y-74762411D01*
X148444426Y-74763901D01*
X148438359Y-74764801D01*
X148432233Y-74765102D01*
X148426107Y-74764801D01*
X148420040Y-74763901D01*
X148414090Y-74762411D01*
X148408315Y-74760344D01*
X148402771Y-74757722D01*
X148397510Y-74754569D01*
X148392583Y-74750915D01*
X148388039Y-74746796D01*
X148299651Y-74658408D01*
X148295532Y-74653864D01*
X148291878Y-74648937D01*
X148288725Y-74643676D01*
X148286103Y-74638132D01*
X148284036Y-74632357D01*
X148282546Y-74626407D01*
X148281646Y-74620340D01*
X148281345Y-74614214D01*
X148281646Y-74608088D01*
X148282546Y-74602021D01*
X148284036Y-74596071D01*
X148286103Y-74590296D01*
X148288725Y-74584752D01*
X148291878Y-74579491D01*
X148295532Y-74574564D01*
X148299651Y-74570020D01*
X148829981Y-74039690D01*
X148834525Y-74035571D01*
X148839452Y-74031917D01*
X148844713Y-74028764D01*
X148850257Y-74026142D01*
X148856032Y-74024075D01*
X148861982Y-74022585D01*
X148868049Y-74021685D01*
X148874175Y-74021384D01*
X148880301Y-74021685D01*
G37*
G36*
X148526748Y-73668131D02*
G01*
X148532815Y-73669031D01*
X148538765Y-73670521D01*
X148544540Y-73672588D01*
X148550084Y-73675210D01*
X148555345Y-73678363D01*
X148560272Y-73682017D01*
X148564816Y-73686136D01*
X148653204Y-73774524D01*
X148657323Y-73779068D01*
X148660977Y-73783995D01*
X148664130Y-73789256D01*
X148666752Y-73794800D01*
X148668819Y-73800575D01*
X148670309Y-73806525D01*
X148671209Y-73812592D01*
X148671510Y-73818718D01*
X148671209Y-73824844D01*
X148670309Y-73830911D01*
X148668819Y-73836861D01*
X148666752Y-73842636D01*
X148664130Y-73848180D01*
X148660977Y-73853441D01*
X148657323Y-73858368D01*
X148653204Y-73862912D01*
X148122874Y-74393242D01*
X148118330Y-74397361D01*
X148113403Y-74401015D01*
X148108142Y-74404168D01*
X148102598Y-74406790D01*
X148096823Y-74408857D01*
X148090873Y-74410347D01*
X148084806Y-74411247D01*
X148078680Y-74411548D01*
X148072554Y-74411247D01*
X148066487Y-74410347D01*
X148060537Y-74408857D01*
X148054762Y-74406790D01*
X148049218Y-74404168D01*
X148043957Y-74401015D01*
X148039030Y-74397361D01*
X148034486Y-74393242D01*
X147946098Y-74304854D01*
X147941979Y-74300310D01*
X147938325Y-74295383D01*
X147935172Y-74290122D01*
X147932550Y-74284578D01*
X147930483Y-74278803D01*
X147928993Y-74272853D01*
X147928093Y-74266786D01*
X147927792Y-74260660D01*
X147928093Y-74254534D01*
X147928993Y-74248467D01*
X147930483Y-74242517D01*
X147932550Y-74236742D01*
X147935172Y-74231198D01*
X147938325Y-74225937D01*
X147941979Y-74221010D01*
X147946098Y-74216466D01*
X148476428Y-73686136D01*
X148480972Y-73682017D01*
X148485899Y-73678363D01*
X148491160Y-73675210D01*
X148496704Y-73672588D01*
X148502479Y-73670521D01*
X148508429Y-73669031D01*
X148514496Y-73668131D01*
X148520622Y-73667830D01*
X148526748Y-73668131D01*
G37*
G36*
X148173194Y-73314578D02*
G01*
X148179261Y-73315478D01*
X148185211Y-73316968D01*
X148190986Y-73319035D01*
X148196530Y-73321657D01*
X148201791Y-73324810D01*
X148206718Y-73328464D01*
X148211262Y-73332583D01*
X148299650Y-73420971D01*
X148303769Y-73425515D01*
X148307423Y-73430442D01*
X148310576Y-73435703D01*
X148313198Y-73441247D01*
X148315265Y-73447022D01*
X148316755Y-73452972D01*
X148317655Y-73459039D01*
X148317956Y-73465165D01*
X148317655Y-73471291D01*
X148316755Y-73477358D01*
X148315265Y-73483308D01*
X148313198Y-73489083D01*
X148310576Y-73494627D01*
X148307423Y-73499888D01*
X148303769Y-73504815D01*
X148299650Y-73509359D01*
X147769320Y-74039689D01*
X147764776Y-74043808D01*
X147759849Y-74047462D01*
X147754588Y-74050615D01*
X147749044Y-74053237D01*
X147743269Y-74055304D01*
X147737319Y-74056794D01*
X147731252Y-74057694D01*
X147725126Y-74057995D01*
X147719000Y-74057694D01*
X147712933Y-74056794D01*
X147706983Y-74055304D01*
X147701208Y-74053237D01*
X147695664Y-74050615D01*
X147690403Y-74047462D01*
X147685476Y-74043808D01*
X147680932Y-74039689D01*
X147592544Y-73951301D01*
X147588425Y-73946757D01*
X147584771Y-73941830D01*
X147581618Y-73936569D01*
X147578996Y-73931025D01*
X147576929Y-73925250D01*
X147575439Y-73919300D01*
X147574539Y-73913233D01*
X147574238Y-73907107D01*
X147574539Y-73900981D01*
X147575439Y-73894914D01*
X147576929Y-73888964D01*
X147578996Y-73883189D01*
X147581618Y-73877645D01*
X147584771Y-73872384D01*
X147588425Y-73867457D01*
X147592544Y-73862913D01*
X148122874Y-73332583D01*
X148127418Y-73328464D01*
X148132345Y-73324810D01*
X148137606Y-73321657D01*
X148143150Y-73319035D01*
X148148925Y-73316968D01*
X148154875Y-73315478D01*
X148160942Y-73314578D01*
X148167068Y-73314277D01*
X148173194Y-73314578D01*
G37*
G36*
X151143743Y-72505727D02*
G01*
X151168012Y-72509327D01*
X151191810Y-72515288D01*
X151214910Y-72523553D01*
X151237088Y-72534043D01*
X151258132Y-72546656D01*
X151277837Y-72561270D01*
X151296016Y-72577746D01*
X151741493Y-73023223D01*
X151757969Y-73041402D01*
X151772583Y-73061107D01*
X151785196Y-73082151D01*
X151795686Y-73104329D01*
X151803951Y-73127429D01*
X151809912Y-73151227D01*
X151813512Y-73175496D01*
X151814716Y-73200000D01*
X151813512Y-73224504D01*
X151809912Y-73248773D01*
X151803951Y-73272571D01*
X151795686Y-73295671D01*
X151785196Y-73317849D01*
X151772583Y-73338893D01*
X151757969Y-73358598D01*
X151741493Y-73376777D01*
X151296016Y-73822254D01*
X151277837Y-73838730D01*
X151258132Y-73853344D01*
X151237088Y-73865957D01*
X151214910Y-73876447D01*
X151191810Y-73884712D01*
X151168012Y-73890673D01*
X151143743Y-73894273D01*
X151119239Y-73895477D01*
X151094735Y-73894273D01*
X151070466Y-73890673D01*
X151046668Y-73884712D01*
X151023568Y-73876447D01*
X151001390Y-73865957D01*
X150980346Y-73853344D01*
X150960641Y-73838730D01*
X150942462Y-73822254D01*
X150496985Y-73376777D01*
X150480509Y-73358598D01*
X150465895Y-73338893D01*
X150453282Y-73317849D01*
X150442792Y-73295671D01*
X150434527Y-73272571D01*
X150428566Y-73248773D01*
X150424966Y-73224504D01*
X150423762Y-73200000D01*
X150424966Y-73175496D01*
X150428566Y-73151227D01*
X150434527Y-73127429D01*
X150442792Y-73104329D01*
X150453282Y-73082151D01*
X150465895Y-73061107D01*
X150480509Y-73041402D01*
X150496985Y-73023223D01*
X150942462Y-72577746D01*
X150960641Y-72561270D01*
X150980346Y-72546656D01*
X151001390Y-72534043D01*
X151023568Y-72523553D01*
X151046668Y-72515288D01*
X151070466Y-72509327D01*
X151094735Y-72505727D01*
X151119239Y-72504523D01*
X151143743Y-72505727D01*
G37*
G36*
X150224504Y-71586488D02*
G01*
X150248773Y-71590088D01*
X150272571Y-71596049D01*
X150295671Y-71604314D01*
X150317849Y-71614804D01*
X150338893Y-71627417D01*
X150358598Y-71642031D01*
X150376777Y-71658507D01*
X150822254Y-72103984D01*
X150838730Y-72122163D01*
X150853344Y-72141868D01*
X150865957Y-72162912D01*
X150876447Y-72185090D01*
X150884712Y-72208190D01*
X150890673Y-72231988D01*
X150894273Y-72256257D01*
X150895477Y-72280761D01*
X150894273Y-72305265D01*
X150890673Y-72329534D01*
X150884712Y-72353332D01*
X150876447Y-72376432D01*
X150865957Y-72398610D01*
X150853344Y-72419654D01*
X150838730Y-72439359D01*
X150822254Y-72457538D01*
X150376777Y-72903015D01*
X150358598Y-72919491D01*
X150338893Y-72934105D01*
X150317849Y-72946718D01*
X150295671Y-72957208D01*
X150272571Y-72965473D01*
X150248773Y-72971434D01*
X150224504Y-72975034D01*
X150200000Y-72976238D01*
X150175496Y-72975034D01*
X150151227Y-72971434D01*
X150127429Y-72965473D01*
X150104329Y-72957208D01*
X150082151Y-72946718D01*
X150061107Y-72934105D01*
X150041402Y-72919491D01*
X150023223Y-72903015D01*
X149577746Y-72457538D01*
X149561270Y-72439359D01*
X149546656Y-72419654D01*
X149534043Y-72398610D01*
X149523553Y-72376432D01*
X149515288Y-72353332D01*
X149509327Y-72329534D01*
X149505727Y-72305265D01*
X149504523Y-72280761D01*
X149505727Y-72256257D01*
X149509327Y-72231988D01*
X149515288Y-72208190D01*
X149523553Y-72185090D01*
X149534043Y-72162912D01*
X149546656Y-72141868D01*
X149561270Y-72122163D01*
X149577746Y-72103984D01*
X150023223Y-71658507D01*
X150041402Y-71642031D01*
X150061107Y-71627417D01*
X150082151Y-71614804D01*
X150104329Y-71604314D01*
X150127429Y-71596049D01*
X150151227Y-71590088D01*
X150175496Y-71586488D01*
X150200000Y-71585284D01*
X150224504Y-71586488D01*
G37*
G36*
X150224504Y-73424966D02*
G01*
X150248773Y-73428566D01*
X150272571Y-73434527D01*
X150295671Y-73442792D01*
X150317849Y-73453282D01*
X150338893Y-73465895D01*
X150358598Y-73480509D01*
X150376777Y-73496985D01*
X150822254Y-73942462D01*
X150838730Y-73960641D01*
X150853344Y-73980346D01*
X150865957Y-74001390D01*
X150876447Y-74023568D01*
X150884712Y-74046668D01*
X150890673Y-74070466D01*
X150894273Y-74094735D01*
X150895477Y-74119239D01*
X150894273Y-74143743D01*
X150890673Y-74168012D01*
X150884712Y-74191810D01*
X150876447Y-74214910D01*
X150865957Y-74237088D01*
X150853344Y-74258132D01*
X150838730Y-74277837D01*
X150822254Y-74296016D01*
X150376777Y-74741493D01*
X150358598Y-74757969D01*
X150338893Y-74772583D01*
X150317849Y-74785196D01*
X150295671Y-74795686D01*
X150272571Y-74803951D01*
X150248773Y-74809912D01*
X150224504Y-74813512D01*
X150200000Y-74814716D01*
X150175496Y-74813512D01*
X150151227Y-74809912D01*
X150127429Y-74803951D01*
X150104329Y-74795686D01*
X150082151Y-74785196D01*
X150061107Y-74772583D01*
X150041402Y-74757969D01*
X150023223Y-74741493D01*
X149577746Y-74296016D01*
X149561270Y-74277837D01*
X149546656Y-74258132D01*
X149534043Y-74237088D01*
X149523553Y-74214910D01*
X149515288Y-74191810D01*
X149509327Y-74168012D01*
X149505727Y-74143743D01*
X149504523Y-74119239D01*
X149505727Y-74094735D01*
X149509327Y-74070466D01*
X149515288Y-74046668D01*
X149523553Y-74023568D01*
X149534043Y-74001390D01*
X149546656Y-73980346D01*
X149561270Y-73960641D01*
X149577746Y-73942462D01*
X150023223Y-73496985D01*
X150041402Y-73480509D01*
X150061107Y-73465895D01*
X150082151Y-73453282D01*
X150104329Y-73442792D01*
X150127429Y-73434527D01*
X150151227Y-73428566D01*
X150175496Y-73424966D01*
X150200000Y-73423762D01*
X150224504Y-73424966D01*
G37*
G36*
X149305265Y-72505727D02*
G01*
X149329534Y-72509327D01*
X149353332Y-72515288D01*
X149376432Y-72523553D01*
X149398610Y-72534043D01*
X149419654Y-72546656D01*
X149439359Y-72561270D01*
X149457538Y-72577746D01*
X149903015Y-73023223D01*
X149919491Y-73041402D01*
X149934105Y-73061107D01*
X149946718Y-73082151D01*
X149957208Y-73104329D01*
X149965473Y-73127429D01*
X149971434Y-73151227D01*
X149975034Y-73175496D01*
X149976238Y-73200000D01*
X149975034Y-73224504D01*
X149971434Y-73248773D01*
X149965473Y-73272571D01*
X149957208Y-73295671D01*
X149946718Y-73317849D01*
X149934105Y-73338893D01*
X149919491Y-73358598D01*
X149903015Y-73376777D01*
X149457538Y-73822254D01*
X149439359Y-73838730D01*
X149419654Y-73853344D01*
X149398610Y-73865957D01*
X149376432Y-73876447D01*
X149353332Y-73884712D01*
X149329534Y-73890673D01*
X149305265Y-73894273D01*
X149280761Y-73895477D01*
X149256257Y-73894273D01*
X149231988Y-73890673D01*
X149208190Y-73884712D01*
X149185090Y-73876447D01*
X149162912Y-73865957D01*
X149141868Y-73853344D01*
X149122163Y-73838730D01*
X149103984Y-73822254D01*
X148658507Y-73376777D01*
X148642031Y-73358598D01*
X148627417Y-73338893D01*
X148614804Y-73317849D01*
X148604314Y-73295671D01*
X148596049Y-73272571D01*
X148590088Y-73248773D01*
X148586488Y-73224504D01*
X148585284Y-73200000D01*
X148586488Y-73175496D01*
X148590088Y-73151227D01*
X148596049Y-73127429D01*
X148604314Y-73104329D01*
X148614804Y-73082151D01*
X148627417Y-73061107D01*
X148642031Y-73041402D01*
X148658507Y-73023223D01*
X149103984Y-72577746D01*
X149122163Y-72561270D01*
X149141868Y-72546656D01*
X149162912Y-72534043D01*
X149185090Y-72523553D01*
X149208190Y-72515288D01*
X149231988Y-72509327D01*
X149256257Y-72505727D01*
X149280761Y-72504523D01*
X149305265Y-72505727D01*
G37*
G36*
X118396504Y-50537204D02*
G01*
X118420773Y-50540804D01*
X118444571Y-50546765D01*
X118467671Y-50555030D01*
X118489849Y-50565520D01*
X118510893Y-50578133D01*
X118530598Y-50592747D01*
X118548777Y-50609223D01*
X118565253Y-50627402D01*
X118579867Y-50647107D01*
X118592480Y-50668151D01*
X118602970Y-50690329D01*
X118611235Y-50713429D01*
X118617196Y-50737227D01*
X118620796Y-50761496D01*
X118622000Y-50786000D01*
X118622000Y-51711000D01*
X118620796Y-51735504D01*
X118617196Y-51759773D01*
X118611235Y-51783571D01*
X118602970Y-51806671D01*
X118592480Y-51828849D01*
X118579867Y-51849893D01*
X118565253Y-51869598D01*
X118548777Y-51887777D01*
X118530598Y-51904253D01*
X118510893Y-51918867D01*
X118489849Y-51931480D01*
X118467671Y-51941970D01*
X118444571Y-51950235D01*
X118420773Y-51956196D01*
X118396504Y-51959796D01*
X118372000Y-51961000D01*
X117122000Y-51961000D01*
X117097496Y-51959796D01*
X117073227Y-51956196D01*
X117049429Y-51950235D01*
X117026329Y-51941970D01*
X117004151Y-51931480D01*
X116983107Y-51918867D01*
X116963402Y-51904253D01*
X116945223Y-51887777D01*
X116928747Y-51869598D01*
X116914133Y-51849893D01*
X116901520Y-51828849D01*
X116891030Y-51806671D01*
X116882765Y-51783571D01*
X116876804Y-51759773D01*
X116873204Y-51735504D01*
X116872000Y-51711000D01*
X116872000Y-50786000D01*
X116873204Y-50761496D01*
X116876804Y-50737227D01*
X116882765Y-50713429D01*
X116891030Y-50690329D01*
X116901520Y-50668151D01*
X116914133Y-50647107D01*
X116928747Y-50627402D01*
X116945223Y-50609223D01*
X116963402Y-50592747D01*
X116983107Y-50578133D01*
X117004151Y-50565520D01*
X117026329Y-50555030D01*
X117049429Y-50546765D01*
X117073227Y-50540804D01*
X117097496Y-50537204D01*
X117122000Y-50536000D01*
X118372000Y-50536000D01*
X118396504Y-50537204D01*
G37*
G36*
X118396504Y-47562204D02*
G01*
X118420773Y-47565804D01*
X118444571Y-47571765D01*
X118467671Y-47580030D01*
X118489849Y-47590520D01*
X118510893Y-47603133D01*
X118530598Y-47617747D01*
X118548777Y-47634223D01*
X118565253Y-47652402D01*
X118579867Y-47672107D01*
X118592480Y-47693151D01*
X118602970Y-47715329D01*
X118611235Y-47738429D01*
X118617196Y-47762227D01*
X118620796Y-47786496D01*
X118622000Y-47811000D01*
X118622000Y-48736000D01*
X118620796Y-48760504D01*
X118617196Y-48784773D01*
X118611235Y-48808571D01*
X118602970Y-48831671D01*
X118592480Y-48853849D01*
X118579867Y-48874893D01*
X118565253Y-48894598D01*
X118548777Y-48912777D01*
X118530598Y-48929253D01*
X118510893Y-48943867D01*
X118489849Y-48956480D01*
X118467671Y-48966970D01*
X118444571Y-48975235D01*
X118420773Y-48981196D01*
X118396504Y-48984796D01*
X118372000Y-48986000D01*
X117122000Y-48986000D01*
X117097496Y-48984796D01*
X117073227Y-48981196D01*
X117049429Y-48975235D01*
X117026329Y-48966970D01*
X117004151Y-48956480D01*
X116983107Y-48943867D01*
X116963402Y-48929253D01*
X116945223Y-48912777D01*
X116928747Y-48894598D01*
X116914133Y-48874893D01*
X116901520Y-48853849D01*
X116891030Y-48831671D01*
X116882765Y-48808571D01*
X116876804Y-48784773D01*
X116873204Y-48760504D01*
X116872000Y-48736000D01*
X116872000Y-47811000D01*
X116873204Y-47786496D01*
X116876804Y-47762227D01*
X116882765Y-47738429D01*
X116891030Y-47715329D01*
X116901520Y-47693151D01*
X116914133Y-47672107D01*
X116928747Y-47652402D01*
X116945223Y-47634223D01*
X116963402Y-47617747D01*
X116983107Y-47603133D01*
X117004151Y-47590520D01*
X117026329Y-47580030D01*
X117049429Y-47571765D01*
X117073227Y-47565804D01*
X117097496Y-47562204D01*
X117122000Y-47561000D01*
X118372000Y-47561000D01*
X118396504Y-47562204D01*
G37*
G36*
X120380505Y-48162204D02*
G01*
X120404773Y-48165804D01*
X120428572Y-48171765D01*
X120451671Y-48180030D01*
X120473850Y-48190520D01*
X120494893Y-48203132D01*
X120514599Y-48217747D01*
X120532777Y-48234223D01*
X120549253Y-48252401D01*
X120563868Y-48272107D01*
X120576480Y-48293150D01*
X120586970Y-48315329D01*
X120595235Y-48338428D01*
X120601196Y-48362227D01*
X120604796Y-48386495D01*
X120606000Y-48410999D01*
X120606000Y-49061001D01*
X120604796Y-49085505D01*
X120601196Y-49109773D01*
X120595235Y-49133572D01*
X120586970Y-49156671D01*
X120576480Y-49178850D01*
X120563868Y-49199893D01*
X120549253Y-49219599D01*
X120532777Y-49237777D01*
X120514599Y-49254253D01*
X120494893Y-49268868D01*
X120473850Y-49281480D01*
X120451671Y-49291970D01*
X120428572Y-49300235D01*
X120404773Y-49306196D01*
X120380505Y-49309796D01*
X120356001Y-49311000D01*
X119455999Y-49311000D01*
X119431495Y-49309796D01*
X119407227Y-49306196D01*
X119383428Y-49300235D01*
X119360329Y-49291970D01*
X119338150Y-49281480D01*
X119317107Y-49268868D01*
X119297401Y-49254253D01*
X119279223Y-49237777D01*
X119262747Y-49219599D01*
X119248132Y-49199893D01*
X119235520Y-49178850D01*
X119225030Y-49156671D01*
X119216765Y-49133572D01*
X119210804Y-49109773D01*
X119207204Y-49085505D01*
X119206000Y-49061001D01*
X119206000Y-48410999D01*
X119207204Y-48386495D01*
X119210804Y-48362227D01*
X119216765Y-48338428D01*
X119225030Y-48315329D01*
X119235520Y-48293150D01*
X119248132Y-48272107D01*
X119262747Y-48252401D01*
X119279223Y-48234223D01*
X119297401Y-48217747D01*
X119317107Y-48203132D01*
X119338150Y-48190520D01*
X119360329Y-48180030D01*
X119383428Y-48171765D01*
X119407227Y-48165804D01*
X119431495Y-48162204D01*
X119455999Y-48161000D01*
X120356001Y-48161000D01*
X120380505Y-48162204D01*
G37*
G36*
X120380505Y-50212204D02*
G01*
X120404773Y-50215804D01*
X120428572Y-50221765D01*
X120451671Y-50230030D01*
X120473850Y-50240520D01*
X120494893Y-50253132D01*
X120514599Y-50267747D01*
X120532777Y-50284223D01*
X120549253Y-50302401D01*
X120563868Y-50322107D01*
X120576480Y-50343150D01*
X120586970Y-50365329D01*
X120595235Y-50388428D01*
X120601196Y-50412227D01*
X120604796Y-50436495D01*
X120606000Y-50460999D01*
X120606000Y-51111001D01*
X120604796Y-51135505D01*
X120601196Y-51159773D01*
X120595235Y-51183572D01*
X120586970Y-51206671D01*
X120576480Y-51228850D01*
X120563868Y-51249893D01*
X120549253Y-51269599D01*
X120532777Y-51287777D01*
X120514599Y-51304253D01*
X120494893Y-51318868D01*
X120473850Y-51331480D01*
X120451671Y-51341970D01*
X120428572Y-51350235D01*
X120404773Y-51356196D01*
X120380505Y-51359796D01*
X120356001Y-51361000D01*
X119455999Y-51361000D01*
X119431495Y-51359796D01*
X119407227Y-51356196D01*
X119383428Y-51350235D01*
X119360329Y-51341970D01*
X119338150Y-51331480D01*
X119317107Y-51318868D01*
X119297401Y-51304253D01*
X119279223Y-51287777D01*
X119262747Y-51269599D01*
X119248132Y-51249893D01*
X119235520Y-51228850D01*
X119225030Y-51206671D01*
X119216765Y-51183572D01*
X119210804Y-51159773D01*
X119207204Y-51135505D01*
X119206000Y-51111001D01*
X119206000Y-50460999D01*
X119207204Y-50436495D01*
X119210804Y-50412227D01*
X119216765Y-50388428D01*
X119225030Y-50365329D01*
X119235520Y-50343150D01*
X119248132Y-50322107D01*
X119262747Y-50302401D01*
X119279223Y-50284223D01*
X119297401Y-50267747D01*
X119317107Y-50253132D01*
X119338150Y-50240520D01*
X119360329Y-50230030D01*
X119383428Y-50221765D01*
X119407227Y-50215804D01*
X119431495Y-50212204D01*
X119455999Y-50211000D01*
X120356001Y-50211000D01*
X120380505Y-50212204D01*
G37*
G36*
X148592505Y-76936204D02*
G01*
X148616773Y-76939804D01*
X148640572Y-76945765D01*
X148663671Y-76954030D01*
X148685850Y-76964520D01*
X148706893Y-76977132D01*
X148726599Y-76991747D01*
X148744777Y-77008223D01*
X148761253Y-77026401D01*
X148775868Y-77046107D01*
X148788480Y-77067150D01*
X148798970Y-77089329D01*
X148807235Y-77112428D01*
X148813196Y-77136227D01*
X148816796Y-77160495D01*
X148818000Y-77184999D01*
X148818000Y-77835001D01*
X148816796Y-77859505D01*
X148813196Y-77883773D01*
X148807235Y-77907572D01*
X148798970Y-77930671D01*
X148788480Y-77952850D01*
X148775868Y-77973893D01*
X148761253Y-77993599D01*
X148744777Y-78011777D01*
X148726599Y-78028253D01*
X148706893Y-78042868D01*
X148685850Y-78055480D01*
X148663671Y-78065970D01*
X148640572Y-78074235D01*
X148616773Y-78080196D01*
X148592505Y-78083796D01*
X148568001Y-78085000D01*
X147667999Y-78085000D01*
X147643495Y-78083796D01*
X147619227Y-78080196D01*
X147595428Y-78074235D01*
X147572329Y-78065970D01*
X147550150Y-78055480D01*
X147529107Y-78042868D01*
X147509401Y-78028253D01*
X147491223Y-78011777D01*
X147474747Y-77993599D01*
X147460132Y-77973893D01*
X147447520Y-77952850D01*
X147437030Y-77930671D01*
X147428765Y-77907572D01*
X147422804Y-77883773D01*
X147419204Y-77859505D01*
X147418000Y-77835001D01*
X147418000Y-77184999D01*
X147419204Y-77160495D01*
X147422804Y-77136227D01*
X147428765Y-77112428D01*
X147437030Y-77089329D01*
X147447520Y-77067150D01*
X147460132Y-77046107D01*
X147474747Y-77026401D01*
X147491223Y-77008223D01*
X147509401Y-76991747D01*
X147529107Y-76977132D01*
X147550150Y-76964520D01*
X147572329Y-76954030D01*
X147595428Y-76945765D01*
X147619227Y-76939804D01*
X147643495Y-76936204D01*
X147667999Y-76935000D01*
X148568001Y-76935000D01*
X148592505Y-76936204D01*
G37*
G36*
X148592505Y-78986204D02*
G01*
X148616773Y-78989804D01*
X148640572Y-78995765D01*
X148663671Y-79004030D01*
X148685850Y-79014520D01*
X148706893Y-79027132D01*
X148726599Y-79041747D01*
X148744777Y-79058223D01*
X148761253Y-79076401D01*
X148775868Y-79096107D01*
X148788480Y-79117150D01*
X148798970Y-79139329D01*
X148807235Y-79162428D01*
X148813196Y-79186227D01*
X148816796Y-79210495D01*
X148818000Y-79234999D01*
X148818000Y-79885001D01*
X148816796Y-79909505D01*
X148813196Y-79933773D01*
X148807235Y-79957572D01*
X148798970Y-79980671D01*
X148788480Y-80002850D01*
X148775868Y-80023893D01*
X148761253Y-80043599D01*
X148744777Y-80061777D01*
X148726599Y-80078253D01*
X148706893Y-80092868D01*
X148685850Y-80105480D01*
X148663671Y-80115970D01*
X148640572Y-80124235D01*
X148616773Y-80130196D01*
X148592505Y-80133796D01*
X148568001Y-80135000D01*
X147667999Y-80135000D01*
X147643495Y-80133796D01*
X147619227Y-80130196D01*
X147595428Y-80124235D01*
X147572329Y-80115970D01*
X147550150Y-80105480D01*
X147529107Y-80092868D01*
X147509401Y-80078253D01*
X147491223Y-80061777D01*
X147474747Y-80043599D01*
X147460132Y-80023893D01*
X147447520Y-80002850D01*
X147437030Y-79980671D01*
X147428765Y-79957572D01*
X147422804Y-79933773D01*
X147419204Y-79909505D01*
X147418000Y-79885001D01*
X147418000Y-79234999D01*
X147419204Y-79210495D01*
X147422804Y-79186227D01*
X147428765Y-79162428D01*
X147437030Y-79139329D01*
X147447520Y-79117150D01*
X147460132Y-79096107D01*
X147474747Y-79076401D01*
X147491223Y-79058223D01*
X147509401Y-79041747D01*
X147529107Y-79027132D01*
X147550150Y-79014520D01*
X147572329Y-79004030D01*
X147595428Y-78995765D01*
X147619227Y-78989804D01*
X147643495Y-78986204D01*
X147667999Y-78985000D01*
X148568001Y-78985000D01*
X148592505Y-78986204D01*
G37*
G36*
X146560505Y-76936204D02*
G01*
X146584773Y-76939804D01*
X146608572Y-76945765D01*
X146631671Y-76954030D01*
X146653850Y-76964520D01*
X146674893Y-76977132D01*
X146694599Y-76991747D01*
X146712777Y-77008223D01*
X146729253Y-77026401D01*
X146743868Y-77046107D01*
X146756480Y-77067150D01*
X146766970Y-77089329D01*
X146775235Y-77112428D01*
X146781196Y-77136227D01*
X146784796Y-77160495D01*
X146786000Y-77184999D01*
X146786000Y-77835001D01*
X146784796Y-77859505D01*
X146781196Y-77883773D01*
X146775235Y-77907572D01*
X146766970Y-77930671D01*
X146756480Y-77952850D01*
X146743868Y-77973893D01*
X146729253Y-77993599D01*
X146712777Y-78011777D01*
X146694599Y-78028253D01*
X146674893Y-78042868D01*
X146653850Y-78055480D01*
X146631671Y-78065970D01*
X146608572Y-78074235D01*
X146584773Y-78080196D01*
X146560505Y-78083796D01*
X146536001Y-78085000D01*
X145635999Y-78085000D01*
X145611495Y-78083796D01*
X145587227Y-78080196D01*
X145563428Y-78074235D01*
X145540329Y-78065970D01*
X145518150Y-78055480D01*
X145497107Y-78042868D01*
X145477401Y-78028253D01*
X145459223Y-78011777D01*
X145442747Y-77993599D01*
X145428132Y-77973893D01*
X145415520Y-77952850D01*
X145405030Y-77930671D01*
X145396765Y-77907572D01*
X145390804Y-77883773D01*
X145387204Y-77859505D01*
X145386000Y-77835001D01*
X145386000Y-77184999D01*
X145387204Y-77160495D01*
X145390804Y-77136227D01*
X145396765Y-77112428D01*
X145405030Y-77089329D01*
X145415520Y-77067150D01*
X145428132Y-77046107D01*
X145442747Y-77026401D01*
X145459223Y-77008223D01*
X145477401Y-76991747D01*
X145497107Y-76977132D01*
X145518150Y-76964520D01*
X145540329Y-76954030D01*
X145563428Y-76945765D01*
X145587227Y-76939804D01*
X145611495Y-76936204D01*
X145635999Y-76935000D01*
X146536001Y-76935000D01*
X146560505Y-76936204D01*
G37*
G36*
X146560505Y-78986204D02*
G01*
X146584773Y-78989804D01*
X146608572Y-78995765D01*
X146631671Y-79004030D01*
X146653850Y-79014520D01*
X146674893Y-79027132D01*
X146694599Y-79041747D01*
X146712777Y-79058223D01*
X146729253Y-79076401D01*
X146743868Y-79096107D01*
X146756480Y-79117150D01*
X146766970Y-79139329D01*
X146775235Y-79162428D01*
X146781196Y-79186227D01*
X146784796Y-79210495D01*
X146786000Y-79234999D01*
X146786000Y-79885001D01*
X146784796Y-79909505D01*
X146781196Y-79933773D01*
X146775235Y-79957572D01*
X146766970Y-79980671D01*
X146756480Y-80002850D01*
X146743868Y-80023893D01*
X146729253Y-80043599D01*
X146712777Y-80061777D01*
X146694599Y-80078253D01*
X146674893Y-80092868D01*
X146653850Y-80105480D01*
X146631671Y-80115970D01*
X146608572Y-80124235D01*
X146584773Y-80130196D01*
X146560505Y-80133796D01*
X146536001Y-80135000D01*
X145635999Y-80135000D01*
X145611495Y-80133796D01*
X145587227Y-80130196D01*
X145563428Y-80124235D01*
X145540329Y-80115970D01*
X145518150Y-80105480D01*
X145497107Y-80092868D01*
X145477401Y-80078253D01*
X145459223Y-80061777D01*
X145442747Y-80043599D01*
X145428132Y-80023893D01*
X145415520Y-80002850D01*
X145405030Y-79980671D01*
X145396765Y-79957572D01*
X145390804Y-79933773D01*
X145387204Y-79909505D01*
X145386000Y-79885001D01*
X145386000Y-79234999D01*
X145387204Y-79210495D01*
X145390804Y-79186227D01*
X145396765Y-79162428D01*
X145405030Y-79139329D01*
X145415520Y-79117150D01*
X145428132Y-79096107D01*
X145442747Y-79076401D01*
X145459223Y-79058223D01*
X145477401Y-79041747D01*
X145497107Y-79027132D01*
X145518150Y-79014520D01*
X145540329Y-79004030D01*
X145563428Y-78995765D01*
X145587227Y-78989804D01*
X145611495Y-78986204D01*
X145635999Y-78985000D01*
X146536001Y-78985000D01*
X146560505Y-78986204D01*
G37*
G36*
X144528505Y-78986204D02*
G01*
X144552773Y-78989804D01*
X144576572Y-78995765D01*
X144599671Y-79004030D01*
X144621850Y-79014520D01*
X144642893Y-79027132D01*
X144662599Y-79041747D01*
X144680777Y-79058223D01*
X144697253Y-79076401D01*
X144711868Y-79096107D01*
X144724480Y-79117150D01*
X144734970Y-79139329D01*
X144743235Y-79162428D01*
X144749196Y-79186227D01*
X144752796Y-79210495D01*
X144754000Y-79234999D01*
X144754000Y-79885001D01*
X144752796Y-79909505D01*
X144749196Y-79933773D01*
X144743235Y-79957572D01*
X144734970Y-79980671D01*
X144724480Y-80002850D01*
X144711868Y-80023893D01*
X144697253Y-80043599D01*
X144680777Y-80061777D01*
X144662599Y-80078253D01*
X144642893Y-80092868D01*
X144621850Y-80105480D01*
X144599671Y-80115970D01*
X144576572Y-80124235D01*
X144552773Y-80130196D01*
X144528505Y-80133796D01*
X144504001Y-80135000D01*
X143603999Y-80135000D01*
X143579495Y-80133796D01*
X143555227Y-80130196D01*
X143531428Y-80124235D01*
X143508329Y-80115970D01*
X143486150Y-80105480D01*
X143465107Y-80092868D01*
X143445401Y-80078253D01*
X143427223Y-80061777D01*
X143410747Y-80043599D01*
X143396132Y-80023893D01*
X143383520Y-80002850D01*
X143373030Y-79980671D01*
X143364765Y-79957572D01*
X143358804Y-79933773D01*
X143355204Y-79909505D01*
X143354000Y-79885001D01*
X143354000Y-79234999D01*
X143355204Y-79210495D01*
X143358804Y-79186227D01*
X143364765Y-79162428D01*
X143373030Y-79139329D01*
X143383520Y-79117150D01*
X143396132Y-79096107D01*
X143410747Y-79076401D01*
X143427223Y-79058223D01*
X143445401Y-79041747D01*
X143465107Y-79027132D01*
X143486150Y-79014520D01*
X143508329Y-79004030D01*
X143531428Y-78995765D01*
X143555227Y-78989804D01*
X143579495Y-78986204D01*
X143603999Y-78985000D01*
X144504001Y-78985000D01*
X144528505Y-78986204D01*
G37*
G36*
X144528505Y-76936204D02*
G01*
X144552773Y-76939804D01*
X144576572Y-76945765D01*
X144599671Y-76954030D01*
X144621850Y-76964520D01*
X144642893Y-76977132D01*
X144662599Y-76991747D01*
X144680777Y-77008223D01*
X144697253Y-77026401D01*
X144711868Y-77046107D01*
X144724480Y-77067150D01*
X144734970Y-77089329D01*
X144743235Y-77112428D01*
X144749196Y-77136227D01*
X144752796Y-77160495D01*
X144754000Y-77184999D01*
X144754000Y-77835001D01*
X144752796Y-77859505D01*
X144749196Y-77883773D01*
X144743235Y-77907572D01*
X144734970Y-77930671D01*
X144724480Y-77952850D01*
X144711868Y-77973893D01*
X144697253Y-77993599D01*
X144680777Y-78011777D01*
X144662599Y-78028253D01*
X144642893Y-78042868D01*
X144621850Y-78055480D01*
X144599671Y-78065970D01*
X144576572Y-78074235D01*
X144552773Y-78080196D01*
X144528505Y-78083796D01*
X144504001Y-78085000D01*
X143603999Y-78085000D01*
X143579495Y-78083796D01*
X143555227Y-78080196D01*
X143531428Y-78074235D01*
X143508329Y-78065970D01*
X143486150Y-78055480D01*
X143465107Y-78042868D01*
X143445401Y-78028253D01*
X143427223Y-78011777D01*
X143410747Y-77993599D01*
X143396132Y-77973893D01*
X143383520Y-77952850D01*
X143373030Y-77930671D01*
X143364765Y-77907572D01*
X143358804Y-77883773D01*
X143355204Y-77859505D01*
X143354000Y-77835001D01*
X143354000Y-77184999D01*
X143355204Y-77160495D01*
X143358804Y-77136227D01*
X143364765Y-77112428D01*
X143373030Y-77089329D01*
X143383520Y-77067150D01*
X143396132Y-77046107D01*
X143410747Y-77026401D01*
X143427223Y-77008223D01*
X143445401Y-76991747D01*
X143465107Y-76977132D01*
X143486150Y-76964520D01*
X143508329Y-76954030D01*
X143531428Y-76945765D01*
X143555227Y-76939804D01*
X143579495Y-76936204D01*
X143603999Y-76935000D01*
X144504001Y-76935000D01*
X144528505Y-76936204D01*
G37*
G36*
X142496505Y-76936204D02*
G01*
X142520773Y-76939804D01*
X142544572Y-76945765D01*
X142567671Y-76954030D01*
X142589850Y-76964520D01*
X142610893Y-76977132D01*
X142630599Y-76991747D01*
X142648777Y-77008223D01*
X142665253Y-77026401D01*
X142679868Y-77046107D01*
X142692480Y-77067150D01*
X142702970Y-77089329D01*
X142711235Y-77112428D01*
X142717196Y-77136227D01*
X142720796Y-77160495D01*
X142722000Y-77184999D01*
X142722000Y-77835001D01*
X142720796Y-77859505D01*
X142717196Y-77883773D01*
X142711235Y-77907572D01*
X142702970Y-77930671D01*
X142692480Y-77952850D01*
X142679868Y-77973893D01*
X142665253Y-77993599D01*
X142648777Y-78011777D01*
X142630599Y-78028253D01*
X142610893Y-78042868D01*
X142589850Y-78055480D01*
X142567671Y-78065970D01*
X142544572Y-78074235D01*
X142520773Y-78080196D01*
X142496505Y-78083796D01*
X142472001Y-78085000D01*
X141571999Y-78085000D01*
X141547495Y-78083796D01*
X141523227Y-78080196D01*
X141499428Y-78074235D01*
X141476329Y-78065970D01*
X141454150Y-78055480D01*
X141433107Y-78042868D01*
X141413401Y-78028253D01*
X141395223Y-78011777D01*
X141378747Y-77993599D01*
X141364132Y-77973893D01*
X141351520Y-77952850D01*
X141341030Y-77930671D01*
X141332765Y-77907572D01*
X141326804Y-77883773D01*
X141323204Y-77859505D01*
X141322000Y-77835001D01*
X141322000Y-77184999D01*
X141323204Y-77160495D01*
X141326804Y-77136227D01*
X141332765Y-77112428D01*
X141341030Y-77089329D01*
X141351520Y-77067150D01*
X141364132Y-77046107D01*
X141378747Y-77026401D01*
X141395223Y-77008223D01*
X141413401Y-76991747D01*
X141433107Y-76977132D01*
X141454150Y-76964520D01*
X141476329Y-76954030D01*
X141499428Y-76945765D01*
X141523227Y-76939804D01*
X141547495Y-76936204D01*
X141571999Y-76935000D01*
X142472001Y-76935000D01*
X142496505Y-76936204D01*
G37*
G36*
X142496505Y-78986204D02*
G01*
X142520773Y-78989804D01*
X142544572Y-78995765D01*
X142567671Y-79004030D01*
X142589850Y-79014520D01*
X142610893Y-79027132D01*
X142630599Y-79041747D01*
X142648777Y-79058223D01*
X142665253Y-79076401D01*
X142679868Y-79096107D01*
X142692480Y-79117150D01*
X142702970Y-79139329D01*
X142711235Y-79162428D01*
X142717196Y-79186227D01*
X142720796Y-79210495D01*
X142722000Y-79234999D01*
X142722000Y-79885001D01*
X142720796Y-79909505D01*
X142717196Y-79933773D01*
X142711235Y-79957572D01*
X142702970Y-79980671D01*
X142692480Y-80002850D01*
X142679868Y-80023893D01*
X142665253Y-80043599D01*
X142648777Y-80061777D01*
X142630599Y-80078253D01*
X142610893Y-80092868D01*
X142589850Y-80105480D01*
X142567671Y-80115970D01*
X142544572Y-80124235D01*
X142520773Y-80130196D01*
X142496505Y-80133796D01*
X142472001Y-80135000D01*
X141571999Y-80135000D01*
X141547495Y-80133796D01*
X141523227Y-80130196D01*
X141499428Y-80124235D01*
X141476329Y-80115970D01*
X141454150Y-80105480D01*
X141433107Y-80092868D01*
X141413401Y-80078253D01*
X141395223Y-80061777D01*
X141378747Y-80043599D01*
X141364132Y-80023893D01*
X141351520Y-80002850D01*
X141341030Y-79980671D01*
X141332765Y-79957572D01*
X141326804Y-79933773D01*
X141323204Y-79909505D01*
X141322000Y-79885001D01*
X141322000Y-79234999D01*
X141323204Y-79210495D01*
X141326804Y-79186227D01*
X141332765Y-79162428D01*
X141341030Y-79139329D01*
X141351520Y-79117150D01*
X141364132Y-79096107D01*
X141378747Y-79076401D01*
X141395223Y-79058223D01*
X141413401Y-79041747D01*
X141433107Y-79027132D01*
X141454150Y-79014520D01*
X141476329Y-79004030D01*
X141499428Y-78995765D01*
X141523227Y-78989804D01*
X141547495Y-78986204D01*
X141571999Y-78985000D01*
X142472001Y-78985000D01*
X142496505Y-78986204D01*
G37*
G36*
X162174505Y-86351204D02*
G01*
X162198773Y-86354804D01*
X162222572Y-86360765D01*
X162245671Y-86369030D01*
X162267850Y-86379520D01*
X162288893Y-86392132D01*
X162308599Y-86406747D01*
X162326777Y-86423223D01*
X162343253Y-86441401D01*
X162357868Y-86461107D01*
X162370480Y-86482150D01*
X162380970Y-86504329D01*
X162389235Y-86527428D01*
X162395196Y-86551227D01*
X162398796Y-86575495D01*
X162400000Y-86599999D01*
X162400000Y-87250001D01*
X162398796Y-87274505D01*
X162395196Y-87298773D01*
X162389235Y-87322572D01*
X162380970Y-87345671D01*
X162370480Y-87367850D01*
X162357868Y-87388893D01*
X162343253Y-87408599D01*
X162326777Y-87426777D01*
X162308599Y-87443253D01*
X162288893Y-87457868D01*
X162267850Y-87470480D01*
X162245671Y-87480970D01*
X162222572Y-87489235D01*
X162198773Y-87495196D01*
X162174505Y-87498796D01*
X162150001Y-87500000D01*
X161249999Y-87500000D01*
X161225495Y-87498796D01*
X161201227Y-87495196D01*
X161177428Y-87489235D01*
X161154329Y-87480970D01*
X161132150Y-87470480D01*
X161111107Y-87457868D01*
X161091401Y-87443253D01*
X161073223Y-87426777D01*
X161056747Y-87408599D01*
X161042132Y-87388893D01*
X161029520Y-87367850D01*
X161019030Y-87345671D01*
X161010765Y-87322572D01*
X161004804Y-87298773D01*
X161001204Y-87274505D01*
X161000000Y-87250001D01*
X161000000Y-86599999D01*
X161001204Y-86575495D01*
X161004804Y-86551227D01*
X161010765Y-86527428D01*
X161019030Y-86504329D01*
X161029520Y-86482150D01*
X161042132Y-86461107D01*
X161056747Y-86441401D01*
X161073223Y-86423223D01*
X161091401Y-86406747D01*
X161111107Y-86392132D01*
X161132150Y-86379520D01*
X161154329Y-86369030D01*
X161177428Y-86360765D01*
X161201227Y-86354804D01*
X161225495Y-86351204D01*
X161249999Y-86350000D01*
X162150001Y-86350000D01*
X162174505Y-86351204D01*
G37*
G36*
X162174505Y-84301204D02*
G01*
X162198773Y-84304804D01*
X162222572Y-84310765D01*
X162245671Y-84319030D01*
X162267850Y-84329520D01*
X162288893Y-84342132D01*
X162308599Y-84356747D01*
X162326777Y-84373223D01*
X162343253Y-84391401D01*
X162357868Y-84411107D01*
X162370480Y-84432150D01*
X162380970Y-84454329D01*
X162389235Y-84477428D01*
X162395196Y-84501227D01*
X162398796Y-84525495D01*
X162400000Y-84549999D01*
X162400000Y-85200001D01*
X162398796Y-85224505D01*
X162395196Y-85248773D01*
X162389235Y-85272572D01*
X162380970Y-85295671D01*
X162370480Y-85317850D01*
X162357868Y-85338893D01*
X162343253Y-85358599D01*
X162326777Y-85376777D01*
X162308599Y-85393253D01*
X162288893Y-85407868D01*
X162267850Y-85420480D01*
X162245671Y-85430970D01*
X162222572Y-85439235D01*
X162198773Y-85445196D01*
X162174505Y-85448796D01*
X162150001Y-85450000D01*
X161249999Y-85450000D01*
X161225495Y-85448796D01*
X161201227Y-85445196D01*
X161177428Y-85439235D01*
X161154329Y-85430970D01*
X161132150Y-85420480D01*
X161111107Y-85407868D01*
X161091401Y-85393253D01*
X161073223Y-85376777D01*
X161056747Y-85358599D01*
X161042132Y-85338893D01*
X161029520Y-85317850D01*
X161019030Y-85295671D01*
X161010765Y-85272572D01*
X161004804Y-85248773D01*
X161001204Y-85224505D01*
X161000000Y-85200001D01*
X161000000Y-84549999D01*
X161001204Y-84525495D01*
X161004804Y-84501227D01*
X161010765Y-84477428D01*
X161019030Y-84454329D01*
X161029520Y-84432150D01*
X161042132Y-84411107D01*
X161056747Y-84391401D01*
X161073223Y-84373223D01*
X161091401Y-84356747D01*
X161111107Y-84342132D01*
X161132150Y-84329520D01*
X161154329Y-84319030D01*
X161177428Y-84310765D01*
X161201227Y-84304804D01*
X161225495Y-84301204D01*
X161249999Y-84300000D01*
X162150001Y-84300000D01*
X162174505Y-84301204D01*
G37*
G36*
X127507791Y-89920820D02*
G01*
X127532059Y-89924420D01*
X127555858Y-89930381D01*
X127578957Y-89938646D01*
X127601136Y-89949136D01*
X127622179Y-89961748D01*
X127641885Y-89976363D01*
X127660063Y-89992839D01*
X128119684Y-90452460D01*
X128136160Y-90470638D01*
X128150775Y-90490344D01*
X128163387Y-90511387D01*
X128173877Y-90533566D01*
X128182142Y-90556665D01*
X128188103Y-90580464D01*
X128191703Y-90604732D01*
X128192907Y-90629236D01*
X128191703Y-90653740D01*
X128188103Y-90678008D01*
X128182142Y-90701807D01*
X128173877Y-90724906D01*
X128163387Y-90747085D01*
X128150775Y-90768128D01*
X128136160Y-90787834D01*
X128119684Y-90806012D01*
X127483287Y-91442409D01*
X127465109Y-91458885D01*
X127445403Y-91473500D01*
X127424360Y-91486112D01*
X127402181Y-91496602D01*
X127379082Y-91504867D01*
X127355283Y-91510828D01*
X127331015Y-91514428D01*
X127306511Y-91515632D01*
X127282007Y-91514428D01*
X127257739Y-91510828D01*
X127233940Y-91504867D01*
X127210841Y-91496602D01*
X127188662Y-91486112D01*
X127167619Y-91473500D01*
X127147913Y-91458885D01*
X127129735Y-91442409D01*
X126670114Y-90982788D01*
X126653638Y-90964610D01*
X126639023Y-90944904D01*
X126626411Y-90923861D01*
X126615921Y-90901682D01*
X126607656Y-90878583D01*
X126601695Y-90854784D01*
X126598095Y-90830516D01*
X126596891Y-90806012D01*
X126598095Y-90781508D01*
X126601695Y-90757240D01*
X126607656Y-90733441D01*
X126615921Y-90710342D01*
X126626411Y-90688163D01*
X126639023Y-90667120D01*
X126653638Y-90647414D01*
X126670114Y-90629236D01*
X127306511Y-89992839D01*
X127324689Y-89976363D01*
X127344395Y-89961748D01*
X127365438Y-89949136D01*
X127387617Y-89938646D01*
X127410716Y-89930381D01*
X127434515Y-89924420D01*
X127458783Y-89920820D01*
X127483287Y-89919616D01*
X127507791Y-89920820D01*
G37*
G36*
X128957359Y-91370388D02*
G01*
X128981627Y-91373988D01*
X129005426Y-91379949D01*
X129028525Y-91388214D01*
X129050704Y-91398704D01*
X129071747Y-91411316D01*
X129091453Y-91425931D01*
X129109631Y-91442407D01*
X129569252Y-91902028D01*
X129585728Y-91920206D01*
X129600343Y-91939912D01*
X129612955Y-91960955D01*
X129623445Y-91983134D01*
X129631710Y-92006233D01*
X129637671Y-92030032D01*
X129641271Y-92054300D01*
X129642475Y-92078804D01*
X129641271Y-92103308D01*
X129637671Y-92127576D01*
X129631710Y-92151375D01*
X129623445Y-92174474D01*
X129612955Y-92196653D01*
X129600343Y-92217696D01*
X129585728Y-92237402D01*
X129569252Y-92255580D01*
X128932855Y-92891977D01*
X128914677Y-92908453D01*
X128894971Y-92923068D01*
X128873928Y-92935680D01*
X128851749Y-92946170D01*
X128828650Y-92954435D01*
X128804851Y-92960396D01*
X128780583Y-92963996D01*
X128756079Y-92965200D01*
X128731575Y-92963996D01*
X128707307Y-92960396D01*
X128683508Y-92954435D01*
X128660409Y-92946170D01*
X128638230Y-92935680D01*
X128617187Y-92923068D01*
X128597481Y-92908453D01*
X128579303Y-92891977D01*
X128119682Y-92432356D01*
X128103206Y-92414178D01*
X128088591Y-92394472D01*
X128075979Y-92373429D01*
X128065489Y-92351250D01*
X128057224Y-92328151D01*
X128051263Y-92304352D01*
X128047663Y-92280084D01*
X128046459Y-92255580D01*
X128047663Y-92231076D01*
X128051263Y-92206808D01*
X128057224Y-92183009D01*
X128065489Y-92159910D01*
X128075979Y-92137731D01*
X128088591Y-92116688D01*
X128103206Y-92096982D01*
X128119682Y-92078804D01*
X128756079Y-91442407D01*
X128774257Y-91425931D01*
X128793963Y-91411316D01*
X128815006Y-91398704D01*
X128837185Y-91388214D01*
X128860284Y-91379949D01*
X128884083Y-91373988D01*
X128908351Y-91370388D01*
X128932855Y-91369184D01*
X128957359Y-91370388D01*
G37*
G36*
X160174505Y-86351204D02*
G01*
X160198773Y-86354804D01*
X160222572Y-86360765D01*
X160245671Y-86369030D01*
X160267850Y-86379520D01*
X160288893Y-86392132D01*
X160308599Y-86406747D01*
X160326777Y-86423223D01*
X160343253Y-86441401D01*
X160357868Y-86461107D01*
X160370480Y-86482150D01*
X160380970Y-86504329D01*
X160389235Y-86527428D01*
X160395196Y-86551227D01*
X160398796Y-86575495D01*
X160400000Y-86599999D01*
X160400000Y-87250001D01*
X160398796Y-87274505D01*
X160395196Y-87298773D01*
X160389235Y-87322572D01*
X160380970Y-87345671D01*
X160370480Y-87367850D01*
X160357868Y-87388893D01*
X160343253Y-87408599D01*
X160326777Y-87426777D01*
X160308599Y-87443253D01*
X160288893Y-87457868D01*
X160267850Y-87470480D01*
X160245671Y-87480970D01*
X160222572Y-87489235D01*
X160198773Y-87495196D01*
X160174505Y-87498796D01*
X160150001Y-87500000D01*
X159249999Y-87500000D01*
X159225495Y-87498796D01*
X159201227Y-87495196D01*
X159177428Y-87489235D01*
X159154329Y-87480970D01*
X159132150Y-87470480D01*
X159111107Y-87457868D01*
X159091401Y-87443253D01*
X159073223Y-87426777D01*
X159056747Y-87408599D01*
X159042132Y-87388893D01*
X159029520Y-87367850D01*
X159019030Y-87345671D01*
X159010765Y-87322572D01*
X159004804Y-87298773D01*
X159001204Y-87274505D01*
X159000000Y-87250001D01*
X159000000Y-86599999D01*
X159001204Y-86575495D01*
X159004804Y-86551227D01*
X159010765Y-86527428D01*
X159019030Y-86504329D01*
X159029520Y-86482150D01*
X159042132Y-86461107D01*
X159056747Y-86441401D01*
X159073223Y-86423223D01*
X159091401Y-86406747D01*
X159111107Y-86392132D01*
X159132150Y-86379520D01*
X159154329Y-86369030D01*
X159177428Y-86360765D01*
X159201227Y-86354804D01*
X159225495Y-86351204D01*
X159249999Y-86350000D01*
X160150001Y-86350000D01*
X160174505Y-86351204D01*
G37*
G36*
X160174505Y-84301204D02*
G01*
X160198773Y-84304804D01*
X160222572Y-84310765D01*
X160245671Y-84319030D01*
X160267850Y-84329520D01*
X160288893Y-84342132D01*
X160308599Y-84356747D01*
X160326777Y-84373223D01*
X160343253Y-84391401D01*
X160357868Y-84411107D01*
X160370480Y-84432150D01*
X160380970Y-84454329D01*
X160389235Y-84477428D01*
X160395196Y-84501227D01*
X160398796Y-84525495D01*
X160400000Y-84549999D01*
X160400000Y-85200001D01*
X160398796Y-85224505D01*
X160395196Y-85248773D01*
X160389235Y-85272572D01*
X160380970Y-85295671D01*
X160370480Y-85317850D01*
X160357868Y-85338893D01*
X160343253Y-85358599D01*
X160326777Y-85376777D01*
X160308599Y-85393253D01*
X160288893Y-85407868D01*
X160267850Y-85420480D01*
X160245671Y-85430970D01*
X160222572Y-85439235D01*
X160198773Y-85445196D01*
X160174505Y-85448796D01*
X160150001Y-85450000D01*
X159249999Y-85450000D01*
X159225495Y-85448796D01*
X159201227Y-85445196D01*
X159177428Y-85439235D01*
X159154329Y-85430970D01*
X159132150Y-85420480D01*
X159111107Y-85407868D01*
X159091401Y-85393253D01*
X159073223Y-85376777D01*
X159056747Y-85358599D01*
X159042132Y-85338893D01*
X159029520Y-85317850D01*
X159019030Y-85295671D01*
X159010765Y-85272572D01*
X159004804Y-85248773D01*
X159001204Y-85224505D01*
X159000000Y-85200001D01*
X159000000Y-84549999D01*
X159001204Y-84525495D01*
X159004804Y-84501227D01*
X159010765Y-84477428D01*
X159019030Y-84454329D01*
X159029520Y-84432150D01*
X159042132Y-84411107D01*
X159056747Y-84391401D01*
X159073223Y-84373223D01*
X159091401Y-84356747D01*
X159111107Y-84342132D01*
X159132150Y-84329520D01*
X159154329Y-84319030D01*
X159177428Y-84310765D01*
X159201227Y-84304804D01*
X159225495Y-84301204D01*
X159249999Y-84300000D01*
X160150001Y-84300000D01*
X160174505Y-84301204D01*
G37*
G36*
X130394200Y-89933548D02*
G01*
X130418468Y-89937148D01*
X130442267Y-89943109D01*
X130465366Y-89951374D01*
X130487545Y-89961864D01*
X130508588Y-89974476D01*
X130528294Y-89989091D01*
X130546472Y-90005567D01*
X131006093Y-90465188D01*
X131022569Y-90483366D01*
X131037184Y-90503072D01*
X131049796Y-90524115D01*
X131060286Y-90546294D01*
X131068551Y-90569393D01*
X131074512Y-90593192D01*
X131078112Y-90617460D01*
X131079316Y-90641964D01*
X131078112Y-90666468D01*
X131074512Y-90690736D01*
X131068551Y-90714535D01*
X131060286Y-90737634D01*
X131049796Y-90759813D01*
X131037184Y-90780856D01*
X131022569Y-90800562D01*
X131006093Y-90818740D01*
X130369696Y-91455137D01*
X130351518Y-91471613D01*
X130331812Y-91486228D01*
X130310769Y-91498840D01*
X130288590Y-91509330D01*
X130265491Y-91517595D01*
X130241692Y-91523556D01*
X130217424Y-91527156D01*
X130192920Y-91528360D01*
X130168416Y-91527156D01*
X130144148Y-91523556D01*
X130120349Y-91517595D01*
X130097250Y-91509330D01*
X130075071Y-91498840D01*
X130054028Y-91486228D01*
X130034322Y-91471613D01*
X130016144Y-91455137D01*
X129556523Y-90995516D01*
X129540047Y-90977338D01*
X129525432Y-90957632D01*
X129512820Y-90936589D01*
X129502330Y-90914410D01*
X129494065Y-90891311D01*
X129488104Y-90867512D01*
X129484504Y-90843244D01*
X129483300Y-90818740D01*
X129484504Y-90794236D01*
X129488104Y-90769968D01*
X129494065Y-90746169D01*
X129502330Y-90723070D01*
X129512820Y-90700891D01*
X129525432Y-90679848D01*
X129540047Y-90660142D01*
X129556523Y-90641964D01*
X130192920Y-90005567D01*
X130211098Y-89989091D01*
X130230804Y-89974476D01*
X130251847Y-89961864D01*
X130274026Y-89951374D01*
X130297125Y-89943109D01*
X130320924Y-89937148D01*
X130345192Y-89933548D01*
X130369696Y-89932344D01*
X130394200Y-89933548D01*
G37*
G36*
X128944632Y-88483980D02*
G01*
X128968900Y-88487580D01*
X128992699Y-88493541D01*
X129015798Y-88501806D01*
X129037977Y-88512296D01*
X129059020Y-88524908D01*
X129078726Y-88539523D01*
X129096904Y-88555999D01*
X129556525Y-89015620D01*
X129573001Y-89033798D01*
X129587616Y-89053504D01*
X129600228Y-89074547D01*
X129610718Y-89096726D01*
X129618983Y-89119825D01*
X129624944Y-89143624D01*
X129628544Y-89167892D01*
X129629748Y-89192396D01*
X129628544Y-89216900D01*
X129624944Y-89241168D01*
X129618983Y-89264967D01*
X129610718Y-89288066D01*
X129600228Y-89310245D01*
X129587616Y-89331288D01*
X129573001Y-89350994D01*
X129556525Y-89369172D01*
X128920128Y-90005569D01*
X128901950Y-90022045D01*
X128882244Y-90036660D01*
X128861201Y-90049272D01*
X128839022Y-90059762D01*
X128815923Y-90068027D01*
X128792124Y-90073988D01*
X128767856Y-90077588D01*
X128743352Y-90078792D01*
X128718848Y-90077588D01*
X128694580Y-90073988D01*
X128670781Y-90068027D01*
X128647682Y-90059762D01*
X128625503Y-90049272D01*
X128604460Y-90036660D01*
X128584754Y-90022045D01*
X128566576Y-90005569D01*
X128106955Y-89545948D01*
X128090479Y-89527770D01*
X128075864Y-89508064D01*
X128063252Y-89487021D01*
X128052762Y-89464842D01*
X128044497Y-89441743D01*
X128038536Y-89417944D01*
X128034936Y-89393676D01*
X128033732Y-89369172D01*
X128034936Y-89344668D01*
X128038536Y-89320400D01*
X128044497Y-89296601D01*
X128052762Y-89273502D01*
X128063252Y-89251323D01*
X128075864Y-89230280D01*
X128090479Y-89210574D01*
X128106955Y-89192396D01*
X128743352Y-88555999D01*
X128761530Y-88539523D01*
X128781236Y-88524908D01*
X128802279Y-88512296D01*
X128824458Y-88501806D01*
X128847557Y-88493541D01*
X128871356Y-88487580D01*
X128895624Y-88483980D01*
X128920128Y-88482776D01*
X128944632Y-88483980D01*
G37*
G36*
X78717505Y-78168204D02*
G01*
X78741773Y-78171804D01*
X78765572Y-78177765D01*
X78788671Y-78186030D01*
X78810850Y-78196520D01*
X78831893Y-78209132D01*
X78851599Y-78223747D01*
X78869777Y-78240223D01*
X78886253Y-78258401D01*
X78900868Y-78278107D01*
X78913480Y-78299150D01*
X78923970Y-78321329D01*
X78932235Y-78344428D01*
X78938196Y-78368227D01*
X78941796Y-78392495D01*
X78943000Y-78416999D01*
X78943000Y-79317001D01*
X78941796Y-79341505D01*
X78938196Y-79365773D01*
X78932235Y-79389572D01*
X78923970Y-79412671D01*
X78913480Y-79434850D01*
X78900868Y-79455893D01*
X78886253Y-79475599D01*
X78869777Y-79493777D01*
X78851599Y-79510253D01*
X78831893Y-79524868D01*
X78810850Y-79537480D01*
X78788671Y-79547970D01*
X78765572Y-79556235D01*
X78741773Y-79562196D01*
X78717505Y-79565796D01*
X78693001Y-79567000D01*
X78042999Y-79567000D01*
X78018495Y-79565796D01*
X77994227Y-79562196D01*
X77970428Y-79556235D01*
X77947329Y-79547970D01*
X77925150Y-79537480D01*
X77904107Y-79524868D01*
X77884401Y-79510253D01*
X77866223Y-79493777D01*
X77849747Y-79475599D01*
X77835132Y-79455893D01*
X77822520Y-79434850D01*
X77812030Y-79412671D01*
X77803765Y-79389572D01*
X77797804Y-79365773D01*
X77794204Y-79341505D01*
X77793000Y-79317001D01*
X77793000Y-78416999D01*
X77794204Y-78392495D01*
X77797804Y-78368227D01*
X77803765Y-78344428D01*
X77812030Y-78321329D01*
X77822520Y-78299150D01*
X77835132Y-78278107D01*
X77849747Y-78258401D01*
X77866223Y-78240223D01*
X77884401Y-78223747D01*
X77904107Y-78209132D01*
X77925150Y-78196520D01*
X77947329Y-78186030D01*
X77970428Y-78177765D01*
X77994227Y-78171804D01*
X78018495Y-78168204D01*
X78042999Y-78167000D01*
X78693001Y-78167000D01*
X78717505Y-78168204D01*
G37*
G36*
X76667505Y-78168204D02*
G01*
X76691773Y-78171804D01*
X76715572Y-78177765D01*
X76738671Y-78186030D01*
X76760850Y-78196520D01*
X76781893Y-78209132D01*
X76801599Y-78223747D01*
X76819777Y-78240223D01*
X76836253Y-78258401D01*
X76850868Y-78278107D01*
X76863480Y-78299150D01*
X76873970Y-78321329D01*
X76882235Y-78344428D01*
X76888196Y-78368227D01*
X76891796Y-78392495D01*
X76893000Y-78416999D01*
X76893000Y-79317001D01*
X76891796Y-79341505D01*
X76888196Y-79365773D01*
X76882235Y-79389572D01*
X76873970Y-79412671D01*
X76863480Y-79434850D01*
X76850868Y-79455893D01*
X76836253Y-79475599D01*
X76819777Y-79493777D01*
X76801599Y-79510253D01*
X76781893Y-79524868D01*
X76760850Y-79537480D01*
X76738671Y-79547970D01*
X76715572Y-79556235D01*
X76691773Y-79562196D01*
X76667505Y-79565796D01*
X76643001Y-79567000D01*
X75992999Y-79567000D01*
X75968495Y-79565796D01*
X75944227Y-79562196D01*
X75920428Y-79556235D01*
X75897329Y-79547970D01*
X75875150Y-79537480D01*
X75854107Y-79524868D01*
X75834401Y-79510253D01*
X75816223Y-79493777D01*
X75799747Y-79475599D01*
X75785132Y-79455893D01*
X75772520Y-79434850D01*
X75762030Y-79412671D01*
X75753765Y-79389572D01*
X75747804Y-79365773D01*
X75744204Y-79341505D01*
X75743000Y-79317001D01*
X75743000Y-78416999D01*
X75744204Y-78392495D01*
X75747804Y-78368227D01*
X75753765Y-78344428D01*
X75762030Y-78321329D01*
X75772520Y-78299150D01*
X75785132Y-78278107D01*
X75799747Y-78258401D01*
X75816223Y-78240223D01*
X75834401Y-78223747D01*
X75854107Y-78209132D01*
X75875150Y-78196520D01*
X75897329Y-78186030D01*
X75920428Y-78177765D01*
X75944227Y-78171804D01*
X75968495Y-78168204D01*
X75992999Y-78167000D01*
X76643001Y-78167000D01*
X76667505Y-78168204D01*
G37*
G36*
X78717505Y-75628204D02*
G01*
X78741773Y-75631804D01*
X78765572Y-75637765D01*
X78788671Y-75646030D01*
X78810850Y-75656520D01*
X78831893Y-75669132D01*
X78851599Y-75683747D01*
X78869777Y-75700223D01*
X78886253Y-75718401D01*
X78900868Y-75738107D01*
X78913480Y-75759150D01*
X78923970Y-75781329D01*
X78932235Y-75804428D01*
X78938196Y-75828227D01*
X78941796Y-75852495D01*
X78943000Y-75876999D01*
X78943000Y-76777001D01*
X78941796Y-76801505D01*
X78938196Y-76825773D01*
X78932235Y-76849572D01*
X78923970Y-76872671D01*
X78913480Y-76894850D01*
X78900868Y-76915893D01*
X78886253Y-76935599D01*
X78869777Y-76953777D01*
X78851599Y-76970253D01*
X78831893Y-76984868D01*
X78810850Y-76997480D01*
X78788671Y-77007970D01*
X78765572Y-77016235D01*
X78741773Y-77022196D01*
X78717505Y-77025796D01*
X78693001Y-77027000D01*
X78042999Y-77027000D01*
X78018495Y-77025796D01*
X77994227Y-77022196D01*
X77970428Y-77016235D01*
X77947329Y-77007970D01*
X77925150Y-76997480D01*
X77904107Y-76984868D01*
X77884401Y-76970253D01*
X77866223Y-76953777D01*
X77849747Y-76935599D01*
X77835132Y-76915893D01*
X77822520Y-76894850D01*
X77812030Y-76872671D01*
X77803765Y-76849572D01*
X77797804Y-76825773D01*
X77794204Y-76801505D01*
X77793000Y-76777001D01*
X77793000Y-75876999D01*
X77794204Y-75852495D01*
X77797804Y-75828227D01*
X77803765Y-75804428D01*
X77812030Y-75781329D01*
X77822520Y-75759150D01*
X77835132Y-75738107D01*
X77849747Y-75718401D01*
X77866223Y-75700223D01*
X77884401Y-75683747D01*
X77904107Y-75669132D01*
X77925150Y-75656520D01*
X77947329Y-75646030D01*
X77970428Y-75637765D01*
X77994227Y-75631804D01*
X78018495Y-75628204D01*
X78042999Y-75627000D01*
X78693001Y-75627000D01*
X78717505Y-75628204D01*
G37*
G36*
X76667505Y-75628204D02*
G01*
X76691773Y-75631804D01*
X76715572Y-75637765D01*
X76738671Y-75646030D01*
X76760850Y-75656520D01*
X76781893Y-75669132D01*
X76801599Y-75683747D01*
X76819777Y-75700223D01*
X76836253Y-75718401D01*
X76850868Y-75738107D01*
X76863480Y-75759150D01*
X76873970Y-75781329D01*
X76882235Y-75804428D01*
X76888196Y-75828227D01*
X76891796Y-75852495D01*
X76893000Y-75876999D01*
X76893000Y-76777001D01*
X76891796Y-76801505D01*
X76888196Y-76825773D01*
X76882235Y-76849572D01*
X76873970Y-76872671D01*
X76863480Y-76894850D01*
X76850868Y-76915893D01*
X76836253Y-76935599D01*
X76819777Y-76953777D01*
X76801599Y-76970253D01*
X76781893Y-76984868D01*
X76760850Y-76997480D01*
X76738671Y-77007970D01*
X76715572Y-77016235D01*
X76691773Y-77022196D01*
X76667505Y-77025796D01*
X76643001Y-77027000D01*
X75992999Y-77027000D01*
X75968495Y-77025796D01*
X75944227Y-77022196D01*
X75920428Y-77016235D01*
X75897329Y-77007970D01*
X75875150Y-76997480D01*
X75854107Y-76984868D01*
X75834401Y-76970253D01*
X75816223Y-76953777D01*
X75799747Y-76935599D01*
X75785132Y-76915893D01*
X75772520Y-76894850D01*
X75762030Y-76872671D01*
X75753765Y-76849572D01*
X75747804Y-76825773D01*
X75744204Y-76801505D01*
X75743000Y-76777001D01*
X75743000Y-75876999D01*
X75744204Y-75852495D01*
X75747804Y-75828227D01*
X75753765Y-75804428D01*
X75762030Y-75781329D01*
X75772520Y-75759150D01*
X75785132Y-75738107D01*
X75799747Y-75718401D01*
X75816223Y-75700223D01*
X75834401Y-75683747D01*
X75854107Y-75669132D01*
X75875150Y-75656520D01*
X75897329Y-75646030D01*
X75920428Y-75637765D01*
X75944227Y-75631804D01*
X75968495Y-75628204D01*
X75992999Y-75627000D01*
X76643001Y-75627000D01*
X76667505Y-75628204D01*
G37*
D11*
X122900000Y-97900000D03*
X123700000Y-97900000D03*
X124500000Y-97900000D03*
X125300000Y-97900000D03*
X126100000Y-97900000D03*
D12*
X98305000Y-71251000D03*
X98305000Y-70401000D03*
X98305000Y-72101000D03*
X96005000Y-71251000D03*
X96005000Y-70401000D03*
X96005000Y-72101000D03*
X97155000Y-72101000D03*
X97155000Y-70401000D03*
D13*
X99035000Y-73951000D03*
X95275000Y-73951000D03*
X97755000Y-73951000D03*
D14*
X97795000Y-68231000D03*
X99065000Y-68231000D03*
X96515000Y-68231000D03*
X95245000Y-68231000D03*
D13*
X96555000Y-73951000D03*
D12*
X97155000Y-71251000D03*
X89662000Y-71305000D03*
D13*
X89062000Y-74005000D03*
D14*
X87752000Y-68285000D03*
X89022000Y-68285000D03*
X91572000Y-68285000D03*
X90302000Y-68285000D03*
D13*
X90262000Y-74005000D03*
X87782000Y-74005000D03*
X91542000Y-74005000D03*
D12*
X89662000Y-70455000D03*
X89662000Y-72155000D03*
X88512000Y-72155000D03*
X88512000Y-70455000D03*
X88512000Y-71305000D03*
X90812000Y-72155000D03*
X90812000Y-70455000D03*
X90812000Y-71305000D03*
X104140000Y-71251000D03*
D13*
X103540000Y-73951000D03*
D14*
X102230000Y-68231000D03*
X103500000Y-68231000D03*
X106050000Y-68231000D03*
X104780000Y-68231000D03*
D13*
X104740000Y-73951000D03*
X102260000Y-73951000D03*
X106020000Y-73951000D03*
D12*
X104140000Y-70401000D03*
X104140000Y-72101000D03*
X102990000Y-72101000D03*
X102990000Y-70401000D03*
X102990000Y-71251000D03*
X105290000Y-72101000D03*
X105290000Y-70401000D03*
X105290000Y-71251000D03*
X112240000Y-71341000D03*
X112240000Y-70491000D03*
X112240000Y-72191000D03*
X109940000Y-71341000D03*
X109940000Y-70491000D03*
X109940000Y-72191000D03*
X111090000Y-72191000D03*
X111090000Y-70491000D03*
D13*
X112970000Y-74041000D03*
X109210000Y-74041000D03*
X111690000Y-74041000D03*
D14*
X111730000Y-68321000D03*
X113000000Y-68321000D03*
X110450000Y-68321000D03*
X109180000Y-68321000D03*
D13*
X110490000Y-74041000D03*
D12*
X111090000Y-71341000D03*
D10*
G36*
X120137505Y-52491204D02*
G01*
X120161773Y-52494804D01*
X120185572Y-52500765D01*
X120208671Y-52509030D01*
X120230850Y-52519520D01*
X120251893Y-52532132D01*
X120271599Y-52546747D01*
X120289777Y-52563223D01*
X120306253Y-52581401D01*
X120320868Y-52601107D01*
X120333480Y-52622150D01*
X120343970Y-52644329D01*
X120352235Y-52667428D01*
X120358196Y-52691227D01*
X120361796Y-52715495D01*
X120363000Y-52739999D01*
X120363000Y-53640001D01*
X120361796Y-53664505D01*
X120358196Y-53688773D01*
X120352235Y-53712572D01*
X120343970Y-53735671D01*
X120333480Y-53757850D01*
X120320868Y-53778893D01*
X120306253Y-53798599D01*
X120289777Y-53816777D01*
X120271599Y-53833253D01*
X120251893Y-53847868D01*
X120230850Y-53860480D01*
X120208671Y-53870970D01*
X120185572Y-53879235D01*
X120161773Y-53885196D01*
X120137505Y-53888796D01*
X120113001Y-53890000D01*
X119462999Y-53890000D01*
X119438495Y-53888796D01*
X119414227Y-53885196D01*
X119390428Y-53879235D01*
X119367329Y-53870970D01*
X119345150Y-53860480D01*
X119324107Y-53847868D01*
X119304401Y-53833253D01*
X119286223Y-53816777D01*
X119269747Y-53798599D01*
X119255132Y-53778893D01*
X119242520Y-53757850D01*
X119232030Y-53735671D01*
X119223765Y-53712572D01*
X119217804Y-53688773D01*
X119214204Y-53664505D01*
X119213000Y-53640001D01*
X119213000Y-52739999D01*
X119214204Y-52715495D01*
X119217804Y-52691227D01*
X119223765Y-52667428D01*
X119232030Y-52644329D01*
X119242520Y-52622150D01*
X119255132Y-52601107D01*
X119269747Y-52581401D01*
X119286223Y-52563223D01*
X119304401Y-52546747D01*
X119324107Y-52532132D01*
X119345150Y-52519520D01*
X119367329Y-52509030D01*
X119390428Y-52500765D01*
X119414227Y-52494804D01*
X119438495Y-52491204D01*
X119462999Y-52490000D01*
X120113001Y-52490000D01*
X120137505Y-52491204D01*
G37*
G36*
X118087505Y-52491204D02*
G01*
X118111773Y-52494804D01*
X118135572Y-52500765D01*
X118158671Y-52509030D01*
X118180850Y-52519520D01*
X118201893Y-52532132D01*
X118221599Y-52546747D01*
X118239777Y-52563223D01*
X118256253Y-52581401D01*
X118270868Y-52601107D01*
X118283480Y-52622150D01*
X118293970Y-52644329D01*
X118302235Y-52667428D01*
X118308196Y-52691227D01*
X118311796Y-52715495D01*
X118313000Y-52739999D01*
X118313000Y-53640001D01*
X118311796Y-53664505D01*
X118308196Y-53688773D01*
X118302235Y-53712572D01*
X118293970Y-53735671D01*
X118283480Y-53757850D01*
X118270868Y-53778893D01*
X118256253Y-53798599D01*
X118239777Y-53816777D01*
X118221599Y-53833253D01*
X118201893Y-53847868D01*
X118180850Y-53860480D01*
X118158671Y-53870970D01*
X118135572Y-53879235D01*
X118111773Y-53885196D01*
X118087505Y-53888796D01*
X118063001Y-53890000D01*
X117412999Y-53890000D01*
X117388495Y-53888796D01*
X117364227Y-53885196D01*
X117340428Y-53879235D01*
X117317329Y-53870970D01*
X117295150Y-53860480D01*
X117274107Y-53847868D01*
X117254401Y-53833253D01*
X117236223Y-53816777D01*
X117219747Y-53798599D01*
X117205132Y-53778893D01*
X117192520Y-53757850D01*
X117182030Y-53735671D01*
X117173765Y-53712572D01*
X117167804Y-53688773D01*
X117164204Y-53664505D01*
X117163000Y-53640001D01*
X117163000Y-52739999D01*
X117164204Y-52715495D01*
X117167804Y-52691227D01*
X117173765Y-52667428D01*
X117182030Y-52644329D01*
X117192520Y-52622150D01*
X117205132Y-52601107D01*
X117219747Y-52581401D01*
X117236223Y-52563223D01*
X117254401Y-52546747D01*
X117274107Y-52532132D01*
X117295150Y-52519520D01*
X117317329Y-52509030D01*
X117340428Y-52500765D01*
X117364227Y-52494804D01*
X117388495Y-52491204D01*
X117412999Y-52490000D01*
X118063001Y-52490000D01*
X118087505Y-52491204D01*
G37*
G36*
X95082505Y-65595204D02*
G01*
X95106773Y-65598804D01*
X95130572Y-65604765D01*
X95153671Y-65613030D01*
X95175850Y-65623520D01*
X95196893Y-65636132D01*
X95216599Y-65650747D01*
X95234777Y-65667223D01*
X95251253Y-65685401D01*
X95265868Y-65705107D01*
X95278480Y-65726150D01*
X95288970Y-65748329D01*
X95297235Y-65771428D01*
X95303196Y-65795227D01*
X95306796Y-65819495D01*
X95308000Y-65843999D01*
X95308000Y-66744001D01*
X95306796Y-66768505D01*
X95303196Y-66792773D01*
X95297235Y-66816572D01*
X95288970Y-66839671D01*
X95278480Y-66861850D01*
X95265868Y-66882893D01*
X95251253Y-66902599D01*
X95234777Y-66920777D01*
X95216599Y-66937253D01*
X95196893Y-66951868D01*
X95175850Y-66964480D01*
X95153671Y-66974970D01*
X95130572Y-66983235D01*
X95106773Y-66989196D01*
X95082505Y-66992796D01*
X95058001Y-66994000D01*
X94407999Y-66994000D01*
X94383495Y-66992796D01*
X94359227Y-66989196D01*
X94335428Y-66983235D01*
X94312329Y-66974970D01*
X94290150Y-66964480D01*
X94269107Y-66951868D01*
X94249401Y-66937253D01*
X94231223Y-66920777D01*
X94214747Y-66902599D01*
X94200132Y-66882893D01*
X94187520Y-66861850D01*
X94177030Y-66839671D01*
X94168765Y-66816572D01*
X94162804Y-66792773D01*
X94159204Y-66768505D01*
X94158000Y-66744001D01*
X94158000Y-65843999D01*
X94159204Y-65819495D01*
X94162804Y-65795227D01*
X94168765Y-65771428D01*
X94177030Y-65748329D01*
X94187520Y-65726150D01*
X94200132Y-65705107D01*
X94214747Y-65685401D01*
X94231223Y-65667223D01*
X94249401Y-65650747D01*
X94269107Y-65636132D01*
X94290150Y-65623520D01*
X94312329Y-65613030D01*
X94335428Y-65604765D01*
X94359227Y-65598804D01*
X94383495Y-65595204D01*
X94407999Y-65594000D01*
X95058001Y-65594000D01*
X95082505Y-65595204D01*
G37*
G36*
X97132505Y-65595204D02*
G01*
X97156773Y-65598804D01*
X97180572Y-65604765D01*
X97203671Y-65613030D01*
X97225850Y-65623520D01*
X97246893Y-65636132D01*
X97266599Y-65650747D01*
X97284777Y-65667223D01*
X97301253Y-65685401D01*
X97315868Y-65705107D01*
X97328480Y-65726150D01*
X97338970Y-65748329D01*
X97347235Y-65771428D01*
X97353196Y-65795227D01*
X97356796Y-65819495D01*
X97358000Y-65843999D01*
X97358000Y-66744001D01*
X97356796Y-66768505D01*
X97353196Y-66792773D01*
X97347235Y-66816572D01*
X97338970Y-66839671D01*
X97328480Y-66861850D01*
X97315868Y-66882893D01*
X97301253Y-66902599D01*
X97284777Y-66920777D01*
X97266599Y-66937253D01*
X97246893Y-66951868D01*
X97225850Y-66964480D01*
X97203671Y-66974970D01*
X97180572Y-66983235D01*
X97156773Y-66989196D01*
X97132505Y-66992796D01*
X97108001Y-66994000D01*
X96457999Y-66994000D01*
X96433495Y-66992796D01*
X96409227Y-66989196D01*
X96385428Y-66983235D01*
X96362329Y-66974970D01*
X96340150Y-66964480D01*
X96319107Y-66951868D01*
X96299401Y-66937253D01*
X96281223Y-66920777D01*
X96264747Y-66902599D01*
X96250132Y-66882893D01*
X96237520Y-66861850D01*
X96227030Y-66839671D01*
X96218765Y-66816572D01*
X96212804Y-66792773D01*
X96209204Y-66768505D01*
X96208000Y-66744001D01*
X96208000Y-65843999D01*
X96209204Y-65819495D01*
X96212804Y-65795227D01*
X96218765Y-65771428D01*
X96227030Y-65748329D01*
X96237520Y-65726150D01*
X96250132Y-65705107D01*
X96264747Y-65685401D01*
X96281223Y-65667223D01*
X96299401Y-65650747D01*
X96319107Y-65636132D01*
X96340150Y-65623520D01*
X96362329Y-65613030D01*
X96385428Y-65604765D01*
X96409227Y-65598804D01*
X96433495Y-65595204D01*
X96457999Y-65594000D01*
X97108001Y-65594000D01*
X97132505Y-65595204D01*
G37*
G36*
X102194505Y-65595204D02*
G01*
X102218773Y-65598804D01*
X102242572Y-65604765D01*
X102265671Y-65613030D01*
X102287850Y-65623520D01*
X102308893Y-65636132D01*
X102328599Y-65650747D01*
X102346777Y-65667223D01*
X102363253Y-65685401D01*
X102377868Y-65705107D01*
X102390480Y-65726150D01*
X102400970Y-65748329D01*
X102409235Y-65771428D01*
X102415196Y-65795227D01*
X102418796Y-65819495D01*
X102420000Y-65843999D01*
X102420000Y-66744001D01*
X102418796Y-66768505D01*
X102415196Y-66792773D01*
X102409235Y-66816572D01*
X102400970Y-66839671D01*
X102390480Y-66861850D01*
X102377868Y-66882893D01*
X102363253Y-66902599D01*
X102346777Y-66920777D01*
X102328599Y-66937253D01*
X102308893Y-66951868D01*
X102287850Y-66964480D01*
X102265671Y-66974970D01*
X102242572Y-66983235D01*
X102218773Y-66989196D01*
X102194505Y-66992796D01*
X102170001Y-66994000D01*
X101519999Y-66994000D01*
X101495495Y-66992796D01*
X101471227Y-66989196D01*
X101447428Y-66983235D01*
X101424329Y-66974970D01*
X101402150Y-66964480D01*
X101381107Y-66951868D01*
X101361401Y-66937253D01*
X101343223Y-66920777D01*
X101326747Y-66902599D01*
X101312132Y-66882893D01*
X101299520Y-66861850D01*
X101289030Y-66839671D01*
X101280765Y-66816572D01*
X101274804Y-66792773D01*
X101271204Y-66768505D01*
X101270000Y-66744001D01*
X101270000Y-65843999D01*
X101271204Y-65819495D01*
X101274804Y-65795227D01*
X101280765Y-65771428D01*
X101289030Y-65748329D01*
X101299520Y-65726150D01*
X101312132Y-65705107D01*
X101326747Y-65685401D01*
X101343223Y-65667223D01*
X101361401Y-65650747D01*
X101381107Y-65636132D01*
X101402150Y-65623520D01*
X101424329Y-65613030D01*
X101447428Y-65604765D01*
X101471227Y-65598804D01*
X101495495Y-65595204D01*
X101519999Y-65594000D01*
X102170001Y-65594000D01*
X102194505Y-65595204D01*
G37*
G36*
X104244505Y-65595204D02*
G01*
X104268773Y-65598804D01*
X104292572Y-65604765D01*
X104315671Y-65613030D01*
X104337850Y-65623520D01*
X104358893Y-65636132D01*
X104378599Y-65650747D01*
X104396777Y-65667223D01*
X104413253Y-65685401D01*
X104427868Y-65705107D01*
X104440480Y-65726150D01*
X104450970Y-65748329D01*
X104459235Y-65771428D01*
X104465196Y-65795227D01*
X104468796Y-65819495D01*
X104470000Y-65843999D01*
X104470000Y-66744001D01*
X104468796Y-66768505D01*
X104465196Y-66792773D01*
X104459235Y-66816572D01*
X104450970Y-66839671D01*
X104440480Y-66861850D01*
X104427868Y-66882893D01*
X104413253Y-66902599D01*
X104396777Y-66920777D01*
X104378599Y-66937253D01*
X104358893Y-66951868D01*
X104337850Y-66964480D01*
X104315671Y-66974970D01*
X104292572Y-66983235D01*
X104268773Y-66989196D01*
X104244505Y-66992796D01*
X104220001Y-66994000D01*
X103569999Y-66994000D01*
X103545495Y-66992796D01*
X103521227Y-66989196D01*
X103497428Y-66983235D01*
X103474329Y-66974970D01*
X103452150Y-66964480D01*
X103431107Y-66951868D01*
X103411401Y-66937253D01*
X103393223Y-66920777D01*
X103376747Y-66902599D01*
X103362132Y-66882893D01*
X103349520Y-66861850D01*
X103339030Y-66839671D01*
X103330765Y-66816572D01*
X103324804Y-66792773D01*
X103321204Y-66768505D01*
X103320000Y-66744001D01*
X103320000Y-65843999D01*
X103321204Y-65819495D01*
X103324804Y-65795227D01*
X103330765Y-65771428D01*
X103339030Y-65748329D01*
X103349520Y-65726150D01*
X103362132Y-65705107D01*
X103376747Y-65685401D01*
X103393223Y-65667223D01*
X103411401Y-65650747D01*
X103431107Y-65636132D01*
X103452150Y-65623520D01*
X103474329Y-65613030D01*
X103497428Y-65604765D01*
X103521227Y-65598804D01*
X103545495Y-65595204D01*
X103569999Y-65594000D01*
X104220001Y-65594000D01*
X104244505Y-65595204D01*
G37*
G36*
X109052505Y-65722204D02*
G01*
X109076773Y-65725804D01*
X109100572Y-65731765D01*
X109123671Y-65740030D01*
X109145850Y-65750520D01*
X109166893Y-65763132D01*
X109186599Y-65777747D01*
X109204777Y-65794223D01*
X109221253Y-65812401D01*
X109235868Y-65832107D01*
X109248480Y-65853150D01*
X109258970Y-65875329D01*
X109267235Y-65898428D01*
X109273196Y-65922227D01*
X109276796Y-65946495D01*
X109278000Y-65970999D01*
X109278000Y-66871001D01*
X109276796Y-66895505D01*
X109273196Y-66919773D01*
X109267235Y-66943572D01*
X109258970Y-66966671D01*
X109248480Y-66988850D01*
X109235868Y-67009893D01*
X109221253Y-67029599D01*
X109204777Y-67047777D01*
X109186599Y-67064253D01*
X109166893Y-67078868D01*
X109145850Y-67091480D01*
X109123671Y-67101970D01*
X109100572Y-67110235D01*
X109076773Y-67116196D01*
X109052505Y-67119796D01*
X109028001Y-67121000D01*
X108377999Y-67121000D01*
X108353495Y-67119796D01*
X108329227Y-67116196D01*
X108305428Y-67110235D01*
X108282329Y-67101970D01*
X108260150Y-67091480D01*
X108239107Y-67078868D01*
X108219401Y-67064253D01*
X108201223Y-67047777D01*
X108184747Y-67029599D01*
X108170132Y-67009893D01*
X108157520Y-66988850D01*
X108147030Y-66966671D01*
X108138765Y-66943572D01*
X108132804Y-66919773D01*
X108129204Y-66895505D01*
X108128000Y-66871001D01*
X108128000Y-65970999D01*
X108129204Y-65946495D01*
X108132804Y-65922227D01*
X108138765Y-65898428D01*
X108147030Y-65875329D01*
X108157520Y-65853150D01*
X108170132Y-65832107D01*
X108184747Y-65812401D01*
X108201223Y-65794223D01*
X108219401Y-65777747D01*
X108239107Y-65763132D01*
X108260150Y-65750520D01*
X108282329Y-65740030D01*
X108305428Y-65731765D01*
X108329227Y-65725804D01*
X108353495Y-65722204D01*
X108377999Y-65721000D01*
X109028001Y-65721000D01*
X109052505Y-65722204D01*
G37*
G36*
X111102505Y-65722204D02*
G01*
X111126773Y-65725804D01*
X111150572Y-65731765D01*
X111173671Y-65740030D01*
X111195850Y-65750520D01*
X111216893Y-65763132D01*
X111236599Y-65777747D01*
X111254777Y-65794223D01*
X111271253Y-65812401D01*
X111285868Y-65832107D01*
X111298480Y-65853150D01*
X111308970Y-65875329D01*
X111317235Y-65898428D01*
X111323196Y-65922227D01*
X111326796Y-65946495D01*
X111328000Y-65970999D01*
X111328000Y-66871001D01*
X111326796Y-66895505D01*
X111323196Y-66919773D01*
X111317235Y-66943572D01*
X111308970Y-66966671D01*
X111298480Y-66988850D01*
X111285868Y-67009893D01*
X111271253Y-67029599D01*
X111254777Y-67047777D01*
X111236599Y-67064253D01*
X111216893Y-67078868D01*
X111195850Y-67091480D01*
X111173671Y-67101970D01*
X111150572Y-67110235D01*
X111126773Y-67116196D01*
X111102505Y-67119796D01*
X111078001Y-67121000D01*
X110427999Y-67121000D01*
X110403495Y-67119796D01*
X110379227Y-67116196D01*
X110355428Y-67110235D01*
X110332329Y-67101970D01*
X110310150Y-67091480D01*
X110289107Y-67078868D01*
X110269401Y-67064253D01*
X110251223Y-67047777D01*
X110234747Y-67029599D01*
X110220132Y-67009893D01*
X110207520Y-66988850D01*
X110197030Y-66966671D01*
X110188765Y-66943572D01*
X110182804Y-66919773D01*
X110179204Y-66895505D01*
X110178000Y-66871001D01*
X110178000Y-65970999D01*
X110179204Y-65946495D01*
X110182804Y-65922227D01*
X110188765Y-65898428D01*
X110197030Y-65875329D01*
X110207520Y-65853150D01*
X110220132Y-65832107D01*
X110234747Y-65812401D01*
X110251223Y-65794223D01*
X110269401Y-65777747D01*
X110289107Y-65763132D01*
X110310150Y-65750520D01*
X110332329Y-65740030D01*
X110355428Y-65731765D01*
X110379227Y-65725804D01*
X110403495Y-65722204D01*
X110427999Y-65721000D01*
X111078001Y-65721000D01*
X111102505Y-65722204D01*
G37*
G36*
X156302505Y-72647204D02*
G01*
X156326773Y-72650804D01*
X156350572Y-72656765D01*
X156373671Y-72665030D01*
X156395850Y-72675520D01*
X156416893Y-72688132D01*
X156436599Y-72702747D01*
X156454777Y-72719223D01*
X156471253Y-72737401D01*
X156485868Y-72757107D01*
X156498480Y-72778150D01*
X156508970Y-72800329D01*
X156517235Y-72823428D01*
X156523196Y-72847227D01*
X156526796Y-72871495D01*
X156528000Y-72895999D01*
X156528000Y-73546001D01*
X156526796Y-73570505D01*
X156523196Y-73594773D01*
X156517235Y-73618572D01*
X156508970Y-73641671D01*
X156498480Y-73663850D01*
X156485868Y-73684893D01*
X156471253Y-73704599D01*
X156454777Y-73722777D01*
X156436599Y-73739253D01*
X156416893Y-73753868D01*
X156395850Y-73766480D01*
X156373671Y-73776970D01*
X156350572Y-73785235D01*
X156326773Y-73791196D01*
X156302505Y-73794796D01*
X156278001Y-73796000D01*
X155377999Y-73796000D01*
X155353495Y-73794796D01*
X155329227Y-73791196D01*
X155305428Y-73785235D01*
X155282329Y-73776970D01*
X155260150Y-73766480D01*
X155239107Y-73753868D01*
X155219401Y-73739253D01*
X155201223Y-73722777D01*
X155184747Y-73704599D01*
X155170132Y-73684893D01*
X155157520Y-73663850D01*
X155147030Y-73641671D01*
X155138765Y-73618572D01*
X155132804Y-73594773D01*
X155129204Y-73570505D01*
X155128000Y-73546001D01*
X155128000Y-72895999D01*
X155129204Y-72871495D01*
X155132804Y-72847227D01*
X155138765Y-72823428D01*
X155147030Y-72800329D01*
X155157520Y-72778150D01*
X155170132Y-72757107D01*
X155184747Y-72737401D01*
X155201223Y-72719223D01*
X155219401Y-72702747D01*
X155239107Y-72688132D01*
X155260150Y-72675520D01*
X155282329Y-72665030D01*
X155305428Y-72656765D01*
X155329227Y-72650804D01*
X155353495Y-72647204D01*
X155377999Y-72646000D01*
X156278001Y-72646000D01*
X156302505Y-72647204D01*
G37*
G36*
X156302505Y-74697204D02*
G01*
X156326773Y-74700804D01*
X156350572Y-74706765D01*
X156373671Y-74715030D01*
X156395850Y-74725520D01*
X156416893Y-74738132D01*
X156436599Y-74752747D01*
X156454777Y-74769223D01*
X156471253Y-74787401D01*
X156485868Y-74807107D01*
X156498480Y-74828150D01*
X156508970Y-74850329D01*
X156517235Y-74873428D01*
X156523196Y-74897227D01*
X156526796Y-74921495D01*
X156528000Y-74945999D01*
X156528000Y-75596001D01*
X156526796Y-75620505D01*
X156523196Y-75644773D01*
X156517235Y-75668572D01*
X156508970Y-75691671D01*
X156498480Y-75713850D01*
X156485868Y-75734893D01*
X156471253Y-75754599D01*
X156454777Y-75772777D01*
X156436599Y-75789253D01*
X156416893Y-75803868D01*
X156395850Y-75816480D01*
X156373671Y-75826970D01*
X156350572Y-75835235D01*
X156326773Y-75841196D01*
X156302505Y-75844796D01*
X156278001Y-75846000D01*
X155377999Y-75846000D01*
X155353495Y-75844796D01*
X155329227Y-75841196D01*
X155305428Y-75835235D01*
X155282329Y-75826970D01*
X155260150Y-75816480D01*
X155239107Y-75803868D01*
X155219401Y-75789253D01*
X155201223Y-75772777D01*
X155184747Y-75754599D01*
X155170132Y-75734893D01*
X155157520Y-75713850D01*
X155147030Y-75691671D01*
X155138765Y-75668572D01*
X155132804Y-75644773D01*
X155129204Y-75620505D01*
X155128000Y-75596001D01*
X155128000Y-74945999D01*
X155129204Y-74921495D01*
X155132804Y-74897227D01*
X155138765Y-74873428D01*
X155147030Y-74850329D01*
X155157520Y-74828150D01*
X155170132Y-74807107D01*
X155184747Y-74787401D01*
X155201223Y-74769223D01*
X155219401Y-74752747D01*
X155239107Y-74738132D01*
X155260150Y-74725520D01*
X155282329Y-74715030D01*
X155305428Y-74706765D01*
X155329227Y-74700804D01*
X155353495Y-74697204D01*
X155377999Y-74696000D01*
X156278001Y-74696000D01*
X156302505Y-74697204D01*
G37*
G36*
X155160505Y-64187204D02*
G01*
X155184773Y-64190804D01*
X155208572Y-64196765D01*
X155231671Y-64205030D01*
X155253850Y-64215520D01*
X155274893Y-64228132D01*
X155294599Y-64242747D01*
X155312777Y-64259223D01*
X155329253Y-64277401D01*
X155343868Y-64297107D01*
X155356480Y-64318150D01*
X155366970Y-64340329D01*
X155375235Y-64363428D01*
X155381196Y-64387227D01*
X155384796Y-64411495D01*
X155386000Y-64435999D01*
X155386000Y-65086001D01*
X155384796Y-65110505D01*
X155381196Y-65134773D01*
X155375235Y-65158572D01*
X155366970Y-65181671D01*
X155356480Y-65203850D01*
X155343868Y-65224893D01*
X155329253Y-65244599D01*
X155312777Y-65262777D01*
X155294599Y-65279253D01*
X155274893Y-65293868D01*
X155253850Y-65306480D01*
X155231671Y-65316970D01*
X155208572Y-65325235D01*
X155184773Y-65331196D01*
X155160505Y-65334796D01*
X155136001Y-65336000D01*
X154235999Y-65336000D01*
X154211495Y-65334796D01*
X154187227Y-65331196D01*
X154163428Y-65325235D01*
X154140329Y-65316970D01*
X154118150Y-65306480D01*
X154097107Y-65293868D01*
X154077401Y-65279253D01*
X154059223Y-65262777D01*
X154042747Y-65244599D01*
X154028132Y-65224893D01*
X154015520Y-65203850D01*
X154005030Y-65181671D01*
X153996765Y-65158572D01*
X153990804Y-65134773D01*
X153987204Y-65110505D01*
X153986000Y-65086001D01*
X153986000Y-64435999D01*
X153987204Y-64411495D01*
X153990804Y-64387227D01*
X153996765Y-64363428D01*
X154005030Y-64340329D01*
X154015520Y-64318150D01*
X154028132Y-64297107D01*
X154042747Y-64277401D01*
X154059223Y-64259223D01*
X154077401Y-64242747D01*
X154097107Y-64228132D01*
X154118150Y-64215520D01*
X154140329Y-64205030D01*
X154163428Y-64196765D01*
X154187227Y-64190804D01*
X154211495Y-64187204D01*
X154235999Y-64186000D01*
X155136001Y-64186000D01*
X155160505Y-64187204D01*
G37*
G36*
X155160505Y-66237204D02*
G01*
X155184773Y-66240804D01*
X155208572Y-66246765D01*
X155231671Y-66255030D01*
X155253850Y-66265520D01*
X155274893Y-66278132D01*
X155294599Y-66292747D01*
X155312777Y-66309223D01*
X155329253Y-66327401D01*
X155343868Y-66347107D01*
X155356480Y-66368150D01*
X155366970Y-66390329D01*
X155375235Y-66413428D01*
X155381196Y-66437227D01*
X155384796Y-66461495D01*
X155386000Y-66485999D01*
X155386000Y-67136001D01*
X155384796Y-67160505D01*
X155381196Y-67184773D01*
X155375235Y-67208572D01*
X155366970Y-67231671D01*
X155356480Y-67253850D01*
X155343868Y-67274893D01*
X155329253Y-67294599D01*
X155312777Y-67312777D01*
X155294599Y-67329253D01*
X155274893Y-67343868D01*
X155253850Y-67356480D01*
X155231671Y-67366970D01*
X155208572Y-67375235D01*
X155184773Y-67381196D01*
X155160505Y-67384796D01*
X155136001Y-67386000D01*
X154235999Y-67386000D01*
X154211495Y-67384796D01*
X154187227Y-67381196D01*
X154163428Y-67375235D01*
X154140329Y-67366970D01*
X154118150Y-67356480D01*
X154097107Y-67343868D01*
X154077401Y-67329253D01*
X154059223Y-67312777D01*
X154042747Y-67294599D01*
X154028132Y-67274893D01*
X154015520Y-67253850D01*
X154005030Y-67231671D01*
X153996765Y-67208572D01*
X153990804Y-67184773D01*
X153987204Y-67160505D01*
X153986000Y-67136001D01*
X153986000Y-66485999D01*
X153987204Y-66461495D01*
X153990804Y-66437227D01*
X153996765Y-66413428D01*
X154005030Y-66390329D01*
X154015520Y-66368150D01*
X154028132Y-66347107D01*
X154042747Y-66327401D01*
X154059223Y-66309223D01*
X154077401Y-66292747D01*
X154097107Y-66278132D01*
X154118150Y-66265520D01*
X154140329Y-66255030D01*
X154163428Y-66246765D01*
X154187227Y-66240804D01*
X154211495Y-66237204D01*
X154235999Y-66236000D01*
X155136001Y-66236000D01*
X155160505Y-66237204D01*
G37*
G36*
X160494505Y-96336204D02*
G01*
X160518773Y-96339804D01*
X160542572Y-96345765D01*
X160565671Y-96354030D01*
X160587850Y-96364520D01*
X160608893Y-96377132D01*
X160628599Y-96391747D01*
X160646777Y-96408223D01*
X160663253Y-96426401D01*
X160677868Y-96446107D01*
X160690480Y-96467150D01*
X160700970Y-96489329D01*
X160709235Y-96512428D01*
X160715196Y-96536227D01*
X160718796Y-96560495D01*
X160720000Y-96584999D01*
X160720000Y-97235001D01*
X160718796Y-97259505D01*
X160715196Y-97283773D01*
X160709235Y-97307572D01*
X160700970Y-97330671D01*
X160690480Y-97352850D01*
X160677868Y-97373893D01*
X160663253Y-97393599D01*
X160646777Y-97411777D01*
X160628599Y-97428253D01*
X160608893Y-97442868D01*
X160587850Y-97455480D01*
X160565671Y-97465970D01*
X160542572Y-97474235D01*
X160518773Y-97480196D01*
X160494505Y-97483796D01*
X160470001Y-97485000D01*
X159569999Y-97485000D01*
X159545495Y-97483796D01*
X159521227Y-97480196D01*
X159497428Y-97474235D01*
X159474329Y-97465970D01*
X159452150Y-97455480D01*
X159431107Y-97442868D01*
X159411401Y-97428253D01*
X159393223Y-97411777D01*
X159376747Y-97393599D01*
X159362132Y-97373893D01*
X159349520Y-97352850D01*
X159339030Y-97330671D01*
X159330765Y-97307572D01*
X159324804Y-97283773D01*
X159321204Y-97259505D01*
X159320000Y-97235001D01*
X159320000Y-96584999D01*
X159321204Y-96560495D01*
X159324804Y-96536227D01*
X159330765Y-96512428D01*
X159339030Y-96489329D01*
X159349520Y-96467150D01*
X159362132Y-96446107D01*
X159376747Y-96426401D01*
X159393223Y-96408223D01*
X159411401Y-96391747D01*
X159431107Y-96377132D01*
X159452150Y-96364520D01*
X159474329Y-96354030D01*
X159497428Y-96345765D01*
X159521227Y-96339804D01*
X159545495Y-96336204D01*
X159569999Y-96335000D01*
X160470001Y-96335000D01*
X160494505Y-96336204D01*
G37*
G36*
X160494505Y-94286204D02*
G01*
X160518773Y-94289804D01*
X160542572Y-94295765D01*
X160565671Y-94304030D01*
X160587850Y-94314520D01*
X160608893Y-94327132D01*
X160628599Y-94341747D01*
X160646777Y-94358223D01*
X160663253Y-94376401D01*
X160677868Y-94396107D01*
X160690480Y-94417150D01*
X160700970Y-94439329D01*
X160709235Y-94462428D01*
X160715196Y-94486227D01*
X160718796Y-94510495D01*
X160720000Y-94534999D01*
X160720000Y-95185001D01*
X160718796Y-95209505D01*
X160715196Y-95233773D01*
X160709235Y-95257572D01*
X160700970Y-95280671D01*
X160690480Y-95302850D01*
X160677868Y-95323893D01*
X160663253Y-95343599D01*
X160646777Y-95361777D01*
X160628599Y-95378253D01*
X160608893Y-95392868D01*
X160587850Y-95405480D01*
X160565671Y-95415970D01*
X160542572Y-95424235D01*
X160518773Y-95430196D01*
X160494505Y-95433796D01*
X160470001Y-95435000D01*
X159569999Y-95435000D01*
X159545495Y-95433796D01*
X159521227Y-95430196D01*
X159497428Y-95424235D01*
X159474329Y-95415970D01*
X159452150Y-95405480D01*
X159431107Y-95392868D01*
X159411401Y-95378253D01*
X159393223Y-95361777D01*
X159376747Y-95343599D01*
X159362132Y-95323893D01*
X159349520Y-95302850D01*
X159339030Y-95280671D01*
X159330765Y-95257572D01*
X159324804Y-95233773D01*
X159321204Y-95209505D01*
X159320000Y-95185001D01*
X159320000Y-94534999D01*
X159321204Y-94510495D01*
X159324804Y-94486227D01*
X159330765Y-94462428D01*
X159339030Y-94439329D01*
X159349520Y-94417150D01*
X159362132Y-94396107D01*
X159376747Y-94376401D01*
X159393223Y-94358223D01*
X159411401Y-94341747D01*
X159431107Y-94327132D01*
X159452150Y-94314520D01*
X159474329Y-94304030D01*
X159497428Y-94295765D01*
X159521227Y-94289804D01*
X159545495Y-94286204D01*
X159569999Y-94285000D01*
X160470001Y-94285000D01*
X160494505Y-94286204D01*
G37*
G36*
X140936505Y-96336204D02*
G01*
X140960773Y-96339804D01*
X140984572Y-96345765D01*
X141007671Y-96354030D01*
X141029850Y-96364520D01*
X141050893Y-96377132D01*
X141070599Y-96391747D01*
X141088777Y-96408223D01*
X141105253Y-96426401D01*
X141119868Y-96446107D01*
X141132480Y-96467150D01*
X141142970Y-96489329D01*
X141151235Y-96512428D01*
X141157196Y-96536227D01*
X141160796Y-96560495D01*
X141162000Y-96584999D01*
X141162000Y-97235001D01*
X141160796Y-97259505D01*
X141157196Y-97283773D01*
X141151235Y-97307572D01*
X141142970Y-97330671D01*
X141132480Y-97352850D01*
X141119868Y-97373893D01*
X141105253Y-97393599D01*
X141088777Y-97411777D01*
X141070599Y-97428253D01*
X141050893Y-97442868D01*
X141029850Y-97455480D01*
X141007671Y-97465970D01*
X140984572Y-97474235D01*
X140960773Y-97480196D01*
X140936505Y-97483796D01*
X140912001Y-97485000D01*
X140011999Y-97485000D01*
X139987495Y-97483796D01*
X139963227Y-97480196D01*
X139939428Y-97474235D01*
X139916329Y-97465970D01*
X139894150Y-97455480D01*
X139873107Y-97442868D01*
X139853401Y-97428253D01*
X139835223Y-97411777D01*
X139818747Y-97393599D01*
X139804132Y-97373893D01*
X139791520Y-97352850D01*
X139781030Y-97330671D01*
X139772765Y-97307572D01*
X139766804Y-97283773D01*
X139763204Y-97259505D01*
X139762000Y-97235001D01*
X139762000Y-96584999D01*
X139763204Y-96560495D01*
X139766804Y-96536227D01*
X139772765Y-96512428D01*
X139781030Y-96489329D01*
X139791520Y-96467150D01*
X139804132Y-96446107D01*
X139818747Y-96426401D01*
X139835223Y-96408223D01*
X139853401Y-96391747D01*
X139873107Y-96377132D01*
X139894150Y-96364520D01*
X139916329Y-96354030D01*
X139939428Y-96345765D01*
X139963227Y-96339804D01*
X139987495Y-96336204D01*
X140011999Y-96335000D01*
X140912001Y-96335000D01*
X140936505Y-96336204D01*
G37*
G36*
X140936505Y-94286204D02*
G01*
X140960773Y-94289804D01*
X140984572Y-94295765D01*
X141007671Y-94304030D01*
X141029850Y-94314520D01*
X141050893Y-94327132D01*
X141070599Y-94341747D01*
X141088777Y-94358223D01*
X141105253Y-94376401D01*
X141119868Y-94396107D01*
X141132480Y-94417150D01*
X141142970Y-94439329D01*
X141151235Y-94462428D01*
X141157196Y-94486227D01*
X141160796Y-94510495D01*
X141162000Y-94534999D01*
X141162000Y-95185001D01*
X141160796Y-95209505D01*
X141157196Y-95233773D01*
X141151235Y-95257572D01*
X141142970Y-95280671D01*
X141132480Y-95302850D01*
X141119868Y-95323893D01*
X141105253Y-95343599D01*
X141088777Y-95361777D01*
X141070599Y-95378253D01*
X141050893Y-95392868D01*
X141029850Y-95405480D01*
X141007671Y-95415970D01*
X140984572Y-95424235D01*
X140960773Y-95430196D01*
X140936505Y-95433796D01*
X140912001Y-95435000D01*
X140011999Y-95435000D01*
X139987495Y-95433796D01*
X139963227Y-95430196D01*
X139939428Y-95424235D01*
X139916329Y-95415970D01*
X139894150Y-95405480D01*
X139873107Y-95392868D01*
X139853401Y-95378253D01*
X139835223Y-95361777D01*
X139818747Y-95343599D01*
X139804132Y-95323893D01*
X139791520Y-95302850D01*
X139781030Y-95280671D01*
X139772765Y-95257572D01*
X139766804Y-95233773D01*
X139763204Y-95209505D01*
X139762000Y-95185001D01*
X139762000Y-94534999D01*
X139763204Y-94510495D01*
X139766804Y-94486227D01*
X139772765Y-94462428D01*
X139781030Y-94439329D01*
X139791520Y-94417150D01*
X139804132Y-94396107D01*
X139818747Y-94376401D01*
X139835223Y-94358223D01*
X139853401Y-94341747D01*
X139873107Y-94327132D01*
X139894150Y-94314520D01*
X139916329Y-94304030D01*
X139939428Y-94295765D01*
X139963227Y-94289804D01*
X139987495Y-94286204D01*
X140011999Y-94285000D01*
X140912001Y-94285000D01*
X140936505Y-94286204D01*
G37*
G36*
X132381505Y-85491204D02*
G01*
X132405773Y-85494804D01*
X132429572Y-85500765D01*
X132452671Y-85509030D01*
X132474850Y-85519520D01*
X132495893Y-85532132D01*
X132515599Y-85546747D01*
X132533777Y-85563223D01*
X132550253Y-85581401D01*
X132564868Y-85601107D01*
X132577480Y-85622150D01*
X132587970Y-85644329D01*
X132596235Y-85667428D01*
X132602196Y-85691227D01*
X132605796Y-85715495D01*
X132607000Y-85739999D01*
X132607000Y-86390001D01*
X132605796Y-86414505D01*
X132602196Y-86438773D01*
X132596235Y-86462572D01*
X132587970Y-86485671D01*
X132577480Y-86507850D01*
X132564868Y-86528893D01*
X132550253Y-86548599D01*
X132533777Y-86566777D01*
X132515599Y-86583253D01*
X132495893Y-86597868D01*
X132474850Y-86610480D01*
X132452671Y-86620970D01*
X132429572Y-86629235D01*
X132405773Y-86635196D01*
X132381505Y-86638796D01*
X132357001Y-86640000D01*
X131456999Y-86640000D01*
X131432495Y-86638796D01*
X131408227Y-86635196D01*
X131384428Y-86629235D01*
X131361329Y-86620970D01*
X131339150Y-86610480D01*
X131318107Y-86597868D01*
X131298401Y-86583253D01*
X131280223Y-86566777D01*
X131263747Y-86548599D01*
X131249132Y-86528893D01*
X131236520Y-86507850D01*
X131226030Y-86485671D01*
X131217765Y-86462572D01*
X131211804Y-86438773D01*
X131208204Y-86414505D01*
X131207000Y-86390001D01*
X131207000Y-85739999D01*
X131208204Y-85715495D01*
X131211804Y-85691227D01*
X131217765Y-85667428D01*
X131226030Y-85644329D01*
X131236520Y-85622150D01*
X131249132Y-85601107D01*
X131263747Y-85581401D01*
X131280223Y-85563223D01*
X131298401Y-85546747D01*
X131318107Y-85532132D01*
X131339150Y-85519520D01*
X131361329Y-85509030D01*
X131384428Y-85500765D01*
X131408227Y-85494804D01*
X131432495Y-85491204D01*
X131456999Y-85490000D01*
X132357001Y-85490000D01*
X132381505Y-85491204D01*
G37*
G36*
X132381505Y-87541204D02*
G01*
X132405773Y-87544804D01*
X132429572Y-87550765D01*
X132452671Y-87559030D01*
X132474850Y-87569520D01*
X132495893Y-87582132D01*
X132515599Y-87596747D01*
X132533777Y-87613223D01*
X132550253Y-87631401D01*
X132564868Y-87651107D01*
X132577480Y-87672150D01*
X132587970Y-87694329D01*
X132596235Y-87717428D01*
X132602196Y-87741227D01*
X132605796Y-87765495D01*
X132607000Y-87789999D01*
X132607000Y-88440001D01*
X132605796Y-88464505D01*
X132602196Y-88488773D01*
X132596235Y-88512572D01*
X132587970Y-88535671D01*
X132577480Y-88557850D01*
X132564868Y-88578893D01*
X132550253Y-88598599D01*
X132533777Y-88616777D01*
X132515599Y-88633253D01*
X132495893Y-88647868D01*
X132474850Y-88660480D01*
X132452671Y-88670970D01*
X132429572Y-88679235D01*
X132405773Y-88685196D01*
X132381505Y-88688796D01*
X132357001Y-88690000D01*
X131456999Y-88690000D01*
X131432495Y-88688796D01*
X131408227Y-88685196D01*
X131384428Y-88679235D01*
X131361329Y-88670970D01*
X131339150Y-88660480D01*
X131318107Y-88647868D01*
X131298401Y-88633253D01*
X131280223Y-88616777D01*
X131263747Y-88598599D01*
X131249132Y-88578893D01*
X131236520Y-88557850D01*
X131226030Y-88535671D01*
X131217765Y-88512572D01*
X131211804Y-88488773D01*
X131208204Y-88464505D01*
X131207000Y-88440001D01*
X131207000Y-87789999D01*
X131208204Y-87765495D01*
X131211804Y-87741227D01*
X131217765Y-87717428D01*
X131226030Y-87694329D01*
X131236520Y-87672150D01*
X131249132Y-87651107D01*
X131263747Y-87631401D01*
X131280223Y-87613223D01*
X131298401Y-87596747D01*
X131318107Y-87582132D01*
X131339150Y-87569520D01*
X131361329Y-87559030D01*
X131384428Y-87550765D01*
X131408227Y-87544804D01*
X131432495Y-87541204D01*
X131456999Y-87540000D01*
X132357001Y-87540000D01*
X132381505Y-87541204D01*
G37*
G36*
X134374505Y-85501204D02*
G01*
X134398773Y-85504804D01*
X134422572Y-85510765D01*
X134445671Y-85519030D01*
X134467850Y-85529520D01*
X134488893Y-85542132D01*
X134508599Y-85556747D01*
X134526777Y-85573223D01*
X134543253Y-85591401D01*
X134557868Y-85611107D01*
X134570480Y-85632150D01*
X134580970Y-85654329D01*
X134589235Y-85677428D01*
X134595196Y-85701227D01*
X134598796Y-85725495D01*
X134600000Y-85749999D01*
X134600000Y-86400001D01*
X134598796Y-86424505D01*
X134595196Y-86448773D01*
X134589235Y-86472572D01*
X134580970Y-86495671D01*
X134570480Y-86517850D01*
X134557868Y-86538893D01*
X134543253Y-86558599D01*
X134526777Y-86576777D01*
X134508599Y-86593253D01*
X134488893Y-86607868D01*
X134467850Y-86620480D01*
X134445671Y-86630970D01*
X134422572Y-86639235D01*
X134398773Y-86645196D01*
X134374505Y-86648796D01*
X134350001Y-86650000D01*
X133449999Y-86650000D01*
X133425495Y-86648796D01*
X133401227Y-86645196D01*
X133377428Y-86639235D01*
X133354329Y-86630970D01*
X133332150Y-86620480D01*
X133311107Y-86607868D01*
X133291401Y-86593253D01*
X133273223Y-86576777D01*
X133256747Y-86558599D01*
X133242132Y-86538893D01*
X133229520Y-86517850D01*
X133219030Y-86495671D01*
X133210765Y-86472572D01*
X133204804Y-86448773D01*
X133201204Y-86424505D01*
X133200000Y-86400001D01*
X133200000Y-85749999D01*
X133201204Y-85725495D01*
X133204804Y-85701227D01*
X133210765Y-85677428D01*
X133219030Y-85654329D01*
X133229520Y-85632150D01*
X133242132Y-85611107D01*
X133256747Y-85591401D01*
X133273223Y-85573223D01*
X133291401Y-85556747D01*
X133311107Y-85542132D01*
X133332150Y-85529520D01*
X133354329Y-85519030D01*
X133377428Y-85510765D01*
X133401227Y-85504804D01*
X133425495Y-85501204D01*
X133449999Y-85500000D01*
X134350001Y-85500000D01*
X134374505Y-85501204D01*
G37*
G36*
X134374505Y-87551204D02*
G01*
X134398773Y-87554804D01*
X134422572Y-87560765D01*
X134445671Y-87569030D01*
X134467850Y-87579520D01*
X134488893Y-87592132D01*
X134508599Y-87606747D01*
X134526777Y-87623223D01*
X134543253Y-87641401D01*
X134557868Y-87661107D01*
X134570480Y-87682150D01*
X134580970Y-87704329D01*
X134589235Y-87727428D01*
X134595196Y-87751227D01*
X134598796Y-87775495D01*
X134600000Y-87799999D01*
X134600000Y-88450001D01*
X134598796Y-88474505D01*
X134595196Y-88498773D01*
X134589235Y-88522572D01*
X134580970Y-88545671D01*
X134570480Y-88567850D01*
X134557868Y-88588893D01*
X134543253Y-88608599D01*
X134526777Y-88626777D01*
X134508599Y-88643253D01*
X134488893Y-88657868D01*
X134467850Y-88670480D01*
X134445671Y-88680970D01*
X134422572Y-88689235D01*
X134398773Y-88695196D01*
X134374505Y-88698796D01*
X134350001Y-88700000D01*
X133449999Y-88700000D01*
X133425495Y-88698796D01*
X133401227Y-88695196D01*
X133377428Y-88689235D01*
X133354329Y-88680970D01*
X133332150Y-88670480D01*
X133311107Y-88657868D01*
X133291401Y-88643253D01*
X133273223Y-88626777D01*
X133256747Y-88608599D01*
X133242132Y-88588893D01*
X133229520Y-88567850D01*
X133219030Y-88545671D01*
X133210765Y-88522572D01*
X133204804Y-88498773D01*
X133201204Y-88474505D01*
X133200000Y-88450001D01*
X133200000Y-87799999D01*
X133201204Y-87775495D01*
X133204804Y-87751227D01*
X133210765Y-87727428D01*
X133219030Y-87704329D01*
X133229520Y-87682150D01*
X133242132Y-87661107D01*
X133256747Y-87641401D01*
X133273223Y-87623223D01*
X133291401Y-87606747D01*
X133311107Y-87592132D01*
X133332150Y-87579520D01*
X133354329Y-87569030D01*
X133377428Y-87560765D01*
X133401227Y-87554804D01*
X133425495Y-87551204D01*
X133449999Y-87550000D01*
X134350001Y-87550000D01*
X134374505Y-87551204D01*
G37*
G36*
X130374505Y-84301204D02*
G01*
X130398773Y-84304804D01*
X130422572Y-84310765D01*
X130445671Y-84319030D01*
X130467850Y-84329520D01*
X130488893Y-84342132D01*
X130508599Y-84356747D01*
X130526777Y-84373223D01*
X130543253Y-84391401D01*
X130557868Y-84411107D01*
X130570480Y-84432150D01*
X130580970Y-84454329D01*
X130589235Y-84477428D01*
X130595196Y-84501227D01*
X130598796Y-84525495D01*
X130600000Y-84549999D01*
X130600000Y-85200001D01*
X130598796Y-85224505D01*
X130595196Y-85248773D01*
X130589235Y-85272572D01*
X130580970Y-85295671D01*
X130570480Y-85317850D01*
X130557868Y-85338893D01*
X130543253Y-85358599D01*
X130526777Y-85376777D01*
X130508599Y-85393253D01*
X130488893Y-85407868D01*
X130467850Y-85420480D01*
X130445671Y-85430970D01*
X130422572Y-85439235D01*
X130398773Y-85445196D01*
X130374505Y-85448796D01*
X130350001Y-85450000D01*
X129449999Y-85450000D01*
X129425495Y-85448796D01*
X129401227Y-85445196D01*
X129377428Y-85439235D01*
X129354329Y-85430970D01*
X129332150Y-85420480D01*
X129311107Y-85407868D01*
X129291401Y-85393253D01*
X129273223Y-85376777D01*
X129256747Y-85358599D01*
X129242132Y-85338893D01*
X129229520Y-85317850D01*
X129219030Y-85295671D01*
X129210765Y-85272572D01*
X129204804Y-85248773D01*
X129201204Y-85224505D01*
X129200000Y-85200001D01*
X129200000Y-84549999D01*
X129201204Y-84525495D01*
X129204804Y-84501227D01*
X129210765Y-84477428D01*
X129219030Y-84454329D01*
X129229520Y-84432150D01*
X129242132Y-84411107D01*
X129256747Y-84391401D01*
X129273223Y-84373223D01*
X129291401Y-84356747D01*
X129311107Y-84342132D01*
X129332150Y-84329520D01*
X129354329Y-84319030D01*
X129377428Y-84310765D01*
X129401227Y-84304804D01*
X129425495Y-84301204D01*
X129449999Y-84300000D01*
X130350001Y-84300000D01*
X130374505Y-84301204D01*
G37*
G36*
X130374505Y-86351204D02*
G01*
X130398773Y-86354804D01*
X130422572Y-86360765D01*
X130445671Y-86369030D01*
X130467850Y-86379520D01*
X130488893Y-86392132D01*
X130508599Y-86406747D01*
X130526777Y-86423223D01*
X130543253Y-86441401D01*
X130557868Y-86461107D01*
X130570480Y-86482150D01*
X130580970Y-86504329D01*
X130589235Y-86527428D01*
X130595196Y-86551227D01*
X130598796Y-86575495D01*
X130600000Y-86599999D01*
X130600000Y-87250001D01*
X130598796Y-87274505D01*
X130595196Y-87298773D01*
X130589235Y-87322572D01*
X130580970Y-87345671D01*
X130570480Y-87367850D01*
X130557868Y-87388893D01*
X130543253Y-87408599D01*
X130526777Y-87426777D01*
X130508599Y-87443253D01*
X130488893Y-87457868D01*
X130467850Y-87470480D01*
X130445671Y-87480970D01*
X130422572Y-87489235D01*
X130398773Y-87495196D01*
X130374505Y-87498796D01*
X130350001Y-87500000D01*
X129449999Y-87500000D01*
X129425495Y-87498796D01*
X129401227Y-87495196D01*
X129377428Y-87489235D01*
X129354329Y-87480970D01*
X129332150Y-87470480D01*
X129311107Y-87457868D01*
X129291401Y-87443253D01*
X129273223Y-87426777D01*
X129256747Y-87408599D01*
X129242132Y-87388893D01*
X129229520Y-87367850D01*
X129219030Y-87345671D01*
X129210765Y-87322572D01*
X129204804Y-87298773D01*
X129201204Y-87274505D01*
X129200000Y-87250001D01*
X129200000Y-86599999D01*
X129201204Y-86575495D01*
X129204804Y-86551227D01*
X129210765Y-86527428D01*
X129219030Y-86504329D01*
X129229520Y-86482150D01*
X129242132Y-86461107D01*
X129256747Y-86441401D01*
X129273223Y-86423223D01*
X129291401Y-86406747D01*
X129311107Y-86392132D01*
X129332150Y-86379520D01*
X129354329Y-86369030D01*
X129377428Y-86360765D01*
X129401227Y-86354804D01*
X129425495Y-86351204D01*
X129449999Y-86350000D01*
X130350001Y-86350000D01*
X130374505Y-86351204D01*
G37*
D15*
X130005000Y-57130000D03*
D16*
X122505000Y-49630000D03*
X122505000Y-50900000D03*
X122505000Y-52170000D03*
X122505000Y-53440000D03*
X122505000Y-54710000D03*
X122505000Y-55980000D03*
X122505000Y-57250000D03*
X122505000Y-58520000D03*
X122505000Y-59790000D03*
X122505000Y-61060000D03*
X122505000Y-62330000D03*
X122505000Y-63600000D03*
X122505000Y-64870000D03*
X122505000Y-66140000D03*
D17*
X125290000Y-67140000D03*
X126560000Y-67140000D03*
X127830000Y-67140000D03*
X129100000Y-67140000D03*
X130370000Y-67140000D03*
X131640000Y-67140000D03*
X132910000Y-67140000D03*
X134180000Y-67140000D03*
X135450000Y-67140000D03*
X136720000Y-67140000D03*
D16*
X139505000Y-66140000D03*
X139505000Y-64870000D03*
X139505000Y-63600000D03*
X139505000Y-62330000D03*
X139505000Y-61060000D03*
X139505000Y-59790000D03*
X139505000Y-58520000D03*
X139505000Y-57250000D03*
X139505000Y-55980000D03*
X139505000Y-54710000D03*
X139505000Y-53440000D03*
X139505000Y-52170000D03*
X139505000Y-50900000D03*
X139505000Y-49630000D03*
D18*
X78613000Y-66827000D03*
D19*
X78613000Y-73127000D03*
X80913000Y-73127000D03*
X76313000Y-73127000D03*
D10*
G36*
X123719504Y-85936204D02*
G01*
X123743773Y-85939804D01*
X123767571Y-85945765D01*
X123790671Y-85954030D01*
X123812849Y-85964520D01*
X123833893Y-85977133D01*
X123853598Y-85991747D01*
X123871777Y-86008223D01*
X123888253Y-86026402D01*
X123902867Y-86046107D01*
X123915480Y-86067151D01*
X123925970Y-86089329D01*
X123934235Y-86112429D01*
X123940196Y-86136227D01*
X123943796Y-86160496D01*
X123945000Y-86185000D01*
X123945000Y-86815000D01*
X123943796Y-86839504D01*
X123940196Y-86863773D01*
X123934235Y-86887571D01*
X123925970Y-86910671D01*
X123915480Y-86932849D01*
X123902867Y-86953893D01*
X123888253Y-86973598D01*
X123871777Y-86991777D01*
X123853598Y-87008253D01*
X123833893Y-87022867D01*
X123812849Y-87035480D01*
X123790671Y-87045970D01*
X123767571Y-87054235D01*
X123743773Y-87060196D01*
X123719504Y-87063796D01*
X123695000Y-87065000D01*
X123065000Y-87065000D01*
X123040496Y-87063796D01*
X123016227Y-87060196D01*
X122992429Y-87054235D01*
X122969329Y-87045970D01*
X122947151Y-87035480D01*
X122926107Y-87022867D01*
X122906402Y-87008253D01*
X122888223Y-86991777D01*
X122871747Y-86973598D01*
X122857133Y-86953893D01*
X122844520Y-86932849D01*
X122834030Y-86910671D01*
X122825765Y-86887571D01*
X122819804Y-86863773D01*
X122816204Y-86839504D01*
X122815000Y-86815000D01*
X122815000Y-86185000D01*
X122816204Y-86160496D01*
X122819804Y-86136227D01*
X122825765Y-86112429D01*
X122834030Y-86089329D01*
X122844520Y-86067151D01*
X122857133Y-86046107D01*
X122871747Y-86026402D01*
X122888223Y-86008223D01*
X122906402Y-85991747D01*
X122926107Y-85977133D01*
X122947151Y-85964520D01*
X122969329Y-85954030D01*
X122992429Y-85945765D01*
X123016227Y-85939804D01*
X123040496Y-85936204D01*
X123065000Y-85935000D01*
X123695000Y-85935000D01*
X123719504Y-85936204D01*
G37*
G36*
X125019504Y-85936204D02*
G01*
X125043773Y-85939804D01*
X125067571Y-85945765D01*
X125090671Y-85954030D01*
X125112849Y-85964520D01*
X125133893Y-85977133D01*
X125153598Y-85991747D01*
X125171777Y-86008223D01*
X125188253Y-86026402D01*
X125202867Y-86046107D01*
X125215480Y-86067151D01*
X125225970Y-86089329D01*
X125234235Y-86112429D01*
X125240196Y-86136227D01*
X125243796Y-86160496D01*
X125245000Y-86185000D01*
X125245000Y-86815000D01*
X125243796Y-86839504D01*
X125240196Y-86863773D01*
X125234235Y-86887571D01*
X125225970Y-86910671D01*
X125215480Y-86932849D01*
X125202867Y-86953893D01*
X125188253Y-86973598D01*
X125171777Y-86991777D01*
X125153598Y-87008253D01*
X125133893Y-87022867D01*
X125112849Y-87035480D01*
X125090671Y-87045970D01*
X125067571Y-87054235D01*
X125043773Y-87060196D01*
X125019504Y-87063796D01*
X124995000Y-87065000D01*
X124365000Y-87065000D01*
X124340496Y-87063796D01*
X124316227Y-87060196D01*
X124292429Y-87054235D01*
X124269329Y-87045970D01*
X124247151Y-87035480D01*
X124226107Y-87022867D01*
X124206402Y-87008253D01*
X124188223Y-86991777D01*
X124171747Y-86973598D01*
X124157133Y-86953893D01*
X124144520Y-86932849D01*
X124134030Y-86910671D01*
X124125765Y-86887571D01*
X124119804Y-86863773D01*
X124116204Y-86839504D01*
X124115000Y-86815000D01*
X124115000Y-86185000D01*
X124116204Y-86160496D01*
X124119804Y-86136227D01*
X124125765Y-86112429D01*
X124134030Y-86089329D01*
X124144520Y-86067151D01*
X124157133Y-86046107D01*
X124171747Y-86026402D01*
X124188223Y-86008223D01*
X124206402Y-85991747D01*
X124226107Y-85977133D01*
X124247151Y-85964520D01*
X124269329Y-85954030D01*
X124292429Y-85945765D01*
X124316227Y-85939804D01*
X124340496Y-85936204D01*
X124365000Y-85935000D01*
X124995000Y-85935000D01*
X125019504Y-85936204D01*
G37*
G36*
X123719504Y-84636204D02*
G01*
X123743773Y-84639804D01*
X123767571Y-84645765D01*
X123790671Y-84654030D01*
X123812849Y-84664520D01*
X123833893Y-84677133D01*
X123853598Y-84691747D01*
X123871777Y-84708223D01*
X123888253Y-84726402D01*
X123902867Y-84746107D01*
X123915480Y-84767151D01*
X123925970Y-84789329D01*
X123934235Y-84812429D01*
X123940196Y-84836227D01*
X123943796Y-84860496D01*
X123945000Y-84885000D01*
X123945000Y-85515000D01*
X123943796Y-85539504D01*
X123940196Y-85563773D01*
X123934235Y-85587571D01*
X123925970Y-85610671D01*
X123915480Y-85632849D01*
X123902867Y-85653893D01*
X123888253Y-85673598D01*
X123871777Y-85691777D01*
X123853598Y-85708253D01*
X123833893Y-85722867D01*
X123812849Y-85735480D01*
X123790671Y-85745970D01*
X123767571Y-85754235D01*
X123743773Y-85760196D01*
X123719504Y-85763796D01*
X123695000Y-85765000D01*
X123065000Y-85765000D01*
X123040496Y-85763796D01*
X123016227Y-85760196D01*
X122992429Y-85754235D01*
X122969329Y-85745970D01*
X122947151Y-85735480D01*
X122926107Y-85722867D01*
X122906402Y-85708253D01*
X122888223Y-85691777D01*
X122871747Y-85673598D01*
X122857133Y-85653893D01*
X122844520Y-85632849D01*
X122834030Y-85610671D01*
X122825765Y-85587571D01*
X122819804Y-85563773D01*
X122816204Y-85539504D01*
X122815000Y-85515000D01*
X122815000Y-84885000D01*
X122816204Y-84860496D01*
X122819804Y-84836227D01*
X122825765Y-84812429D01*
X122834030Y-84789329D01*
X122844520Y-84767151D01*
X122857133Y-84746107D01*
X122871747Y-84726402D01*
X122888223Y-84708223D01*
X122906402Y-84691747D01*
X122926107Y-84677133D01*
X122947151Y-84664520D01*
X122969329Y-84654030D01*
X122992429Y-84645765D01*
X123016227Y-84639804D01*
X123040496Y-84636204D01*
X123065000Y-84635000D01*
X123695000Y-84635000D01*
X123719504Y-84636204D01*
G37*
G36*
X125019504Y-84636204D02*
G01*
X125043773Y-84639804D01*
X125067571Y-84645765D01*
X125090671Y-84654030D01*
X125112849Y-84664520D01*
X125133893Y-84677133D01*
X125153598Y-84691747D01*
X125171777Y-84708223D01*
X125188253Y-84726402D01*
X125202867Y-84746107D01*
X125215480Y-84767151D01*
X125225970Y-84789329D01*
X125234235Y-84812429D01*
X125240196Y-84836227D01*
X125243796Y-84860496D01*
X125245000Y-84885000D01*
X125245000Y-85515000D01*
X125243796Y-85539504D01*
X125240196Y-85563773D01*
X125234235Y-85587571D01*
X125225970Y-85610671D01*
X125215480Y-85632849D01*
X125202867Y-85653893D01*
X125188253Y-85673598D01*
X125171777Y-85691777D01*
X125153598Y-85708253D01*
X125133893Y-85722867D01*
X125112849Y-85735480D01*
X125090671Y-85745970D01*
X125067571Y-85754235D01*
X125043773Y-85760196D01*
X125019504Y-85763796D01*
X124995000Y-85765000D01*
X124365000Y-85765000D01*
X124340496Y-85763796D01*
X124316227Y-85760196D01*
X124292429Y-85754235D01*
X124269329Y-85745970D01*
X124247151Y-85735480D01*
X124226107Y-85722867D01*
X124206402Y-85708253D01*
X124188223Y-85691777D01*
X124171747Y-85673598D01*
X124157133Y-85653893D01*
X124144520Y-85632849D01*
X124134030Y-85610671D01*
X124125765Y-85587571D01*
X124119804Y-85563773D01*
X124116204Y-85539504D01*
X124115000Y-85515000D01*
X124115000Y-84885000D01*
X124116204Y-84860496D01*
X124119804Y-84836227D01*
X124125765Y-84812429D01*
X124134030Y-84789329D01*
X124144520Y-84767151D01*
X124157133Y-84746107D01*
X124171747Y-84726402D01*
X124188223Y-84708223D01*
X124206402Y-84691747D01*
X124226107Y-84677133D01*
X124247151Y-84664520D01*
X124269329Y-84654030D01*
X124292429Y-84645765D01*
X124316227Y-84639804D01*
X124340496Y-84636204D01*
X124365000Y-84635000D01*
X124995000Y-84635000D01*
X125019504Y-84636204D01*
G37*
G36*
X122848626Y-87375301D02*
G01*
X122854693Y-87376201D01*
X122860643Y-87377691D01*
X122866418Y-87379758D01*
X122871962Y-87382380D01*
X122877223Y-87385533D01*
X122882150Y-87389187D01*
X122886694Y-87393306D01*
X122890813Y-87397850D01*
X122894467Y-87402777D01*
X122897620Y-87408038D01*
X122900242Y-87413582D01*
X122902309Y-87419357D01*
X122903799Y-87425307D01*
X122904699Y-87431374D01*
X122905000Y-87437500D01*
X122905000Y-88137500D01*
X122904699Y-88143626D01*
X122903799Y-88149693D01*
X122902309Y-88155643D01*
X122900242Y-88161418D01*
X122897620Y-88166962D01*
X122894467Y-88172223D01*
X122890813Y-88177150D01*
X122886694Y-88181694D01*
X122882150Y-88185813D01*
X122877223Y-88189467D01*
X122871962Y-88192620D01*
X122866418Y-88195242D01*
X122860643Y-88197309D01*
X122854693Y-88198799D01*
X122848626Y-88199699D01*
X122842500Y-88200000D01*
X122717500Y-88200000D01*
X122711374Y-88199699D01*
X122705307Y-88198799D01*
X122699357Y-88197309D01*
X122693582Y-88195242D01*
X122688038Y-88192620D01*
X122682777Y-88189467D01*
X122677850Y-88185813D01*
X122673306Y-88181694D01*
X122669187Y-88177150D01*
X122665533Y-88172223D01*
X122662380Y-88166962D01*
X122659758Y-88161418D01*
X122657691Y-88155643D01*
X122656201Y-88149693D01*
X122655301Y-88143626D01*
X122655000Y-88137500D01*
X122655000Y-87437500D01*
X122655301Y-87431374D01*
X122656201Y-87425307D01*
X122657691Y-87419357D01*
X122659758Y-87413582D01*
X122662380Y-87408038D01*
X122665533Y-87402777D01*
X122669187Y-87397850D01*
X122673306Y-87393306D01*
X122677850Y-87389187D01*
X122682777Y-87385533D01*
X122688038Y-87382380D01*
X122693582Y-87379758D01*
X122699357Y-87377691D01*
X122705307Y-87376201D01*
X122711374Y-87375301D01*
X122717500Y-87375000D01*
X122842500Y-87375000D01*
X122848626Y-87375301D01*
G37*
G36*
X123348626Y-87375301D02*
G01*
X123354693Y-87376201D01*
X123360643Y-87377691D01*
X123366418Y-87379758D01*
X123371962Y-87382380D01*
X123377223Y-87385533D01*
X123382150Y-87389187D01*
X123386694Y-87393306D01*
X123390813Y-87397850D01*
X123394467Y-87402777D01*
X123397620Y-87408038D01*
X123400242Y-87413582D01*
X123402309Y-87419357D01*
X123403799Y-87425307D01*
X123404699Y-87431374D01*
X123405000Y-87437500D01*
X123405000Y-88137500D01*
X123404699Y-88143626D01*
X123403799Y-88149693D01*
X123402309Y-88155643D01*
X123400242Y-88161418D01*
X123397620Y-88166962D01*
X123394467Y-88172223D01*
X123390813Y-88177150D01*
X123386694Y-88181694D01*
X123382150Y-88185813D01*
X123377223Y-88189467D01*
X123371962Y-88192620D01*
X123366418Y-88195242D01*
X123360643Y-88197309D01*
X123354693Y-88198799D01*
X123348626Y-88199699D01*
X123342500Y-88200000D01*
X123217500Y-88200000D01*
X123211374Y-88199699D01*
X123205307Y-88198799D01*
X123199357Y-88197309D01*
X123193582Y-88195242D01*
X123188038Y-88192620D01*
X123182777Y-88189467D01*
X123177850Y-88185813D01*
X123173306Y-88181694D01*
X123169187Y-88177150D01*
X123165533Y-88172223D01*
X123162380Y-88166962D01*
X123159758Y-88161418D01*
X123157691Y-88155643D01*
X123156201Y-88149693D01*
X123155301Y-88143626D01*
X123155000Y-88137500D01*
X123155000Y-87437500D01*
X123155301Y-87431374D01*
X123156201Y-87425307D01*
X123157691Y-87419357D01*
X123159758Y-87413582D01*
X123162380Y-87408038D01*
X123165533Y-87402777D01*
X123169187Y-87397850D01*
X123173306Y-87393306D01*
X123177850Y-87389187D01*
X123182777Y-87385533D01*
X123188038Y-87382380D01*
X123193582Y-87379758D01*
X123199357Y-87377691D01*
X123205307Y-87376201D01*
X123211374Y-87375301D01*
X123217500Y-87375000D01*
X123342500Y-87375000D01*
X123348626Y-87375301D01*
G37*
G36*
X123848626Y-87375301D02*
G01*
X123854693Y-87376201D01*
X123860643Y-87377691D01*
X123866418Y-87379758D01*
X123871962Y-87382380D01*
X123877223Y-87385533D01*
X123882150Y-87389187D01*
X123886694Y-87393306D01*
X123890813Y-87397850D01*
X123894467Y-87402777D01*
X123897620Y-87408038D01*
X123900242Y-87413582D01*
X123902309Y-87419357D01*
X123903799Y-87425307D01*
X123904699Y-87431374D01*
X123905000Y-87437500D01*
X123905000Y-88137500D01*
X123904699Y-88143626D01*
X123903799Y-88149693D01*
X123902309Y-88155643D01*
X123900242Y-88161418D01*
X123897620Y-88166962D01*
X123894467Y-88172223D01*
X123890813Y-88177150D01*
X123886694Y-88181694D01*
X123882150Y-88185813D01*
X123877223Y-88189467D01*
X123871962Y-88192620D01*
X123866418Y-88195242D01*
X123860643Y-88197309D01*
X123854693Y-88198799D01*
X123848626Y-88199699D01*
X123842500Y-88200000D01*
X123717500Y-88200000D01*
X123711374Y-88199699D01*
X123705307Y-88198799D01*
X123699357Y-88197309D01*
X123693582Y-88195242D01*
X123688038Y-88192620D01*
X123682777Y-88189467D01*
X123677850Y-88185813D01*
X123673306Y-88181694D01*
X123669187Y-88177150D01*
X123665533Y-88172223D01*
X123662380Y-88166962D01*
X123659758Y-88161418D01*
X123657691Y-88155643D01*
X123656201Y-88149693D01*
X123655301Y-88143626D01*
X123655000Y-88137500D01*
X123655000Y-87437500D01*
X123655301Y-87431374D01*
X123656201Y-87425307D01*
X123657691Y-87419357D01*
X123659758Y-87413582D01*
X123662380Y-87408038D01*
X123665533Y-87402777D01*
X123669187Y-87397850D01*
X123673306Y-87393306D01*
X123677850Y-87389187D01*
X123682777Y-87385533D01*
X123688038Y-87382380D01*
X123693582Y-87379758D01*
X123699357Y-87377691D01*
X123705307Y-87376201D01*
X123711374Y-87375301D01*
X123717500Y-87375000D01*
X123842500Y-87375000D01*
X123848626Y-87375301D01*
G37*
G36*
X124348626Y-87375301D02*
G01*
X124354693Y-87376201D01*
X124360643Y-87377691D01*
X124366418Y-87379758D01*
X124371962Y-87382380D01*
X124377223Y-87385533D01*
X124382150Y-87389187D01*
X124386694Y-87393306D01*
X124390813Y-87397850D01*
X124394467Y-87402777D01*
X124397620Y-87408038D01*
X124400242Y-87413582D01*
X124402309Y-87419357D01*
X124403799Y-87425307D01*
X124404699Y-87431374D01*
X124405000Y-87437500D01*
X124405000Y-88137500D01*
X124404699Y-88143626D01*
X124403799Y-88149693D01*
X124402309Y-88155643D01*
X124400242Y-88161418D01*
X124397620Y-88166962D01*
X124394467Y-88172223D01*
X124390813Y-88177150D01*
X124386694Y-88181694D01*
X124382150Y-88185813D01*
X124377223Y-88189467D01*
X124371962Y-88192620D01*
X124366418Y-88195242D01*
X124360643Y-88197309D01*
X124354693Y-88198799D01*
X124348626Y-88199699D01*
X124342500Y-88200000D01*
X124217500Y-88200000D01*
X124211374Y-88199699D01*
X124205307Y-88198799D01*
X124199357Y-88197309D01*
X124193582Y-88195242D01*
X124188038Y-88192620D01*
X124182777Y-88189467D01*
X124177850Y-88185813D01*
X124173306Y-88181694D01*
X124169187Y-88177150D01*
X124165533Y-88172223D01*
X124162380Y-88166962D01*
X124159758Y-88161418D01*
X124157691Y-88155643D01*
X124156201Y-88149693D01*
X124155301Y-88143626D01*
X124155000Y-88137500D01*
X124155000Y-87437500D01*
X124155301Y-87431374D01*
X124156201Y-87425307D01*
X124157691Y-87419357D01*
X124159758Y-87413582D01*
X124162380Y-87408038D01*
X124165533Y-87402777D01*
X124169187Y-87397850D01*
X124173306Y-87393306D01*
X124177850Y-87389187D01*
X124182777Y-87385533D01*
X124188038Y-87382380D01*
X124193582Y-87379758D01*
X124199357Y-87377691D01*
X124205307Y-87376201D01*
X124211374Y-87375301D01*
X124217500Y-87375000D01*
X124342500Y-87375000D01*
X124348626Y-87375301D01*
G37*
G36*
X124848626Y-87375301D02*
G01*
X124854693Y-87376201D01*
X124860643Y-87377691D01*
X124866418Y-87379758D01*
X124871962Y-87382380D01*
X124877223Y-87385533D01*
X124882150Y-87389187D01*
X124886694Y-87393306D01*
X124890813Y-87397850D01*
X124894467Y-87402777D01*
X124897620Y-87408038D01*
X124900242Y-87413582D01*
X124902309Y-87419357D01*
X124903799Y-87425307D01*
X124904699Y-87431374D01*
X124905000Y-87437500D01*
X124905000Y-88137500D01*
X124904699Y-88143626D01*
X124903799Y-88149693D01*
X124902309Y-88155643D01*
X124900242Y-88161418D01*
X124897620Y-88166962D01*
X124894467Y-88172223D01*
X124890813Y-88177150D01*
X124886694Y-88181694D01*
X124882150Y-88185813D01*
X124877223Y-88189467D01*
X124871962Y-88192620D01*
X124866418Y-88195242D01*
X124860643Y-88197309D01*
X124854693Y-88198799D01*
X124848626Y-88199699D01*
X124842500Y-88200000D01*
X124717500Y-88200000D01*
X124711374Y-88199699D01*
X124705307Y-88198799D01*
X124699357Y-88197309D01*
X124693582Y-88195242D01*
X124688038Y-88192620D01*
X124682777Y-88189467D01*
X124677850Y-88185813D01*
X124673306Y-88181694D01*
X124669187Y-88177150D01*
X124665533Y-88172223D01*
X124662380Y-88166962D01*
X124659758Y-88161418D01*
X124657691Y-88155643D01*
X124656201Y-88149693D01*
X124655301Y-88143626D01*
X124655000Y-88137500D01*
X124655000Y-87437500D01*
X124655301Y-87431374D01*
X124656201Y-87425307D01*
X124657691Y-87419357D01*
X124659758Y-87413582D01*
X124662380Y-87408038D01*
X124665533Y-87402777D01*
X124669187Y-87397850D01*
X124673306Y-87393306D01*
X124677850Y-87389187D01*
X124682777Y-87385533D01*
X124688038Y-87382380D01*
X124693582Y-87379758D01*
X124699357Y-87377691D01*
X124705307Y-87376201D01*
X124711374Y-87375301D01*
X124717500Y-87375000D01*
X124842500Y-87375000D01*
X124848626Y-87375301D01*
G37*
G36*
X125348626Y-87375301D02*
G01*
X125354693Y-87376201D01*
X125360643Y-87377691D01*
X125366418Y-87379758D01*
X125371962Y-87382380D01*
X125377223Y-87385533D01*
X125382150Y-87389187D01*
X125386694Y-87393306D01*
X125390813Y-87397850D01*
X125394467Y-87402777D01*
X125397620Y-87408038D01*
X125400242Y-87413582D01*
X125402309Y-87419357D01*
X125403799Y-87425307D01*
X125404699Y-87431374D01*
X125405000Y-87437500D01*
X125405000Y-88137500D01*
X125404699Y-88143626D01*
X125403799Y-88149693D01*
X125402309Y-88155643D01*
X125400242Y-88161418D01*
X125397620Y-88166962D01*
X125394467Y-88172223D01*
X125390813Y-88177150D01*
X125386694Y-88181694D01*
X125382150Y-88185813D01*
X125377223Y-88189467D01*
X125371962Y-88192620D01*
X125366418Y-88195242D01*
X125360643Y-88197309D01*
X125354693Y-88198799D01*
X125348626Y-88199699D01*
X125342500Y-88200000D01*
X125217500Y-88200000D01*
X125211374Y-88199699D01*
X125205307Y-88198799D01*
X125199357Y-88197309D01*
X125193582Y-88195242D01*
X125188038Y-88192620D01*
X125182777Y-88189467D01*
X125177850Y-88185813D01*
X125173306Y-88181694D01*
X125169187Y-88177150D01*
X125165533Y-88172223D01*
X125162380Y-88166962D01*
X125159758Y-88161418D01*
X125157691Y-88155643D01*
X125156201Y-88149693D01*
X125155301Y-88143626D01*
X125155000Y-88137500D01*
X125155000Y-87437500D01*
X125155301Y-87431374D01*
X125156201Y-87425307D01*
X125157691Y-87419357D01*
X125159758Y-87413582D01*
X125162380Y-87408038D01*
X125165533Y-87402777D01*
X125169187Y-87397850D01*
X125173306Y-87393306D01*
X125177850Y-87389187D01*
X125182777Y-87385533D01*
X125188038Y-87382380D01*
X125193582Y-87379758D01*
X125199357Y-87377691D01*
X125205307Y-87376201D01*
X125211374Y-87375301D01*
X125217500Y-87375000D01*
X125342500Y-87375000D01*
X125348626Y-87375301D01*
G37*
G36*
X126323626Y-86975301D02*
G01*
X126329693Y-86976201D01*
X126335643Y-86977691D01*
X126341418Y-86979758D01*
X126346962Y-86982380D01*
X126352223Y-86985533D01*
X126357150Y-86989187D01*
X126361694Y-86993306D01*
X126365813Y-86997850D01*
X126369467Y-87002777D01*
X126372620Y-87008038D01*
X126375242Y-87013582D01*
X126377309Y-87019357D01*
X126378799Y-87025307D01*
X126379699Y-87031374D01*
X126380000Y-87037500D01*
X126380000Y-87162500D01*
X126379699Y-87168626D01*
X126378799Y-87174693D01*
X126377309Y-87180643D01*
X126375242Y-87186418D01*
X126372620Y-87191962D01*
X126369467Y-87197223D01*
X126365813Y-87202150D01*
X126361694Y-87206694D01*
X126357150Y-87210813D01*
X126352223Y-87214467D01*
X126346962Y-87217620D01*
X126341418Y-87220242D01*
X126335643Y-87222309D01*
X126329693Y-87223799D01*
X126323626Y-87224699D01*
X126317500Y-87225000D01*
X125617500Y-87225000D01*
X125611374Y-87224699D01*
X125605307Y-87223799D01*
X125599357Y-87222309D01*
X125593582Y-87220242D01*
X125588038Y-87217620D01*
X125582777Y-87214467D01*
X125577850Y-87210813D01*
X125573306Y-87206694D01*
X125569187Y-87202150D01*
X125565533Y-87197223D01*
X125562380Y-87191962D01*
X125559758Y-87186418D01*
X125557691Y-87180643D01*
X125556201Y-87174693D01*
X125555301Y-87168626D01*
X125555000Y-87162500D01*
X125555000Y-87037500D01*
X125555301Y-87031374D01*
X125556201Y-87025307D01*
X125557691Y-87019357D01*
X125559758Y-87013582D01*
X125562380Y-87008038D01*
X125565533Y-87002777D01*
X125569187Y-86997850D01*
X125573306Y-86993306D01*
X125577850Y-86989187D01*
X125582777Y-86985533D01*
X125588038Y-86982380D01*
X125593582Y-86979758D01*
X125599357Y-86977691D01*
X125605307Y-86976201D01*
X125611374Y-86975301D01*
X125617500Y-86975000D01*
X126317500Y-86975000D01*
X126323626Y-86975301D01*
G37*
G36*
X126323626Y-86475301D02*
G01*
X126329693Y-86476201D01*
X126335643Y-86477691D01*
X126341418Y-86479758D01*
X126346962Y-86482380D01*
X126352223Y-86485533D01*
X126357150Y-86489187D01*
X126361694Y-86493306D01*
X126365813Y-86497850D01*
X126369467Y-86502777D01*
X126372620Y-86508038D01*
X126375242Y-86513582D01*
X126377309Y-86519357D01*
X126378799Y-86525307D01*
X126379699Y-86531374D01*
X126380000Y-86537500D01*
X126380000Y-86662500D01*
X126379699Y-86668626D01*
X126378799Y-86674693D01*
X126377309Y-86680643D01*
X126375242Y-86686418D01*
X126372620Y-86691962D01*
X126369467Y-86697223D01*
X126365813Y-86702150D01*
X126361694Y-86706694D01*
X126357150Y-86710813D01*
X126352223Y-86714467D01*
X126346962Y-86717620D01*
X126341418Y-86720242D01*
X126335643Y-86722309D01*
X126329693Y-86723799D01*
X126323626Y-86724699D01*
X126317500Y-86725000D01*
X125617500Y-86725000D01*
X125611374Y-86724699D01*
X125605307Y-86723799D01*
X125599357Y-86722309D01*
X125593582Y-86720242D01*
X125588038Y-86717620D01*
X125582777Y-86714467D01*
X125577850Y-86710813D01*
X125573306Y-86706694D01*
X125569187Y-86702150D01*
X125565533Y-86697223D01*
X125562380Y-86691962D01*
X125559758Y-86686418D01*
X125557691Y-86680643D01*
X125556201Y-86674693D01*
X125555301Y-86668626D01*
X125555000Y-86662500D01*
X125555000Y-86537500D01*
X125555301Y-86531374D01*
X125556201Y-86525307D01*
X125557691Y-86519357D01*
X125559758Y-86513582D01*
X125562380Y-86508038D01*
X125565533Y-86502777D01*
X125569187Y-86497850D01*
X125573306Y-86493306D01*
X125577850Y-86489187D01*
X125582777Y-86485533D01*
X125588038Y-86482380D01*
X125593582Y-86479758D01*
X125599357Y-86477691D01*
X125605307Y-86476201D01*
X125611374Y-86475301D01*
X125617500Y-86475000D01*
X126317500Y-86475000D01*
X126323626Y-86475301D01*
G37*
G36*
X126323626Y-85975301D02*
G01*
X126329693Y-85976201D01*
X126335643Y-85977691D01*
X126341418Y-85979758D01*
X126346962Y-85982380D01*
X126352223Y-85985533D01*
X126357150Y-85989187D01*
X126361694Y-85993306D01*
X126365813Y-85997850D01*
X126369467Y-86002777D01*
X126372620Y-86008038D01*
X126375242Y-86013582D01*
X126377309Y-86019357D01*
X126378799Y-86025307D01*
X126379699Y-86031374D01*
X126380000Y-86037500D01*
X126380000Y-86162500D01*
X126379699Y-86168626D01*
X126378799Y-86174693D01*
X126377309Y-86180643D01*
X126375242Y-86186418D01*
X126372620Y-86191962D01*
X126369467Y-86197223D01*
X126365813Y-86202150D01*
X126361694Y-86206694D01*
X126357150Y-86210813D01*
X126352223Y-86214467D01*
X126346962Y-86217620D01*
X126341418Y-86220242D01*
X126335643Y-86222309D01*
X126329693Y-86223799D01*
X126323626Y-86224699D01*
X126317500Y-86225000D01*
X125617500Y-86225000D01*
X125611374Y-86224699D01*
X125605307Y-86223799D01*
X125599357Y-86222309D01*
X125593582Y-86220242D01*
X125588038Y-86217620D01*
X125582777Y-86214467D01*
X125577850Y-86210813D01*
X125573306Y-86206694D01*
X125569187Y-86202150D01*
X125565533Y-86197223D01*
X125562380Y-86191962D01*
X125559758Y-86186418D01*
X125557691Y-86180643D01*
X125556201Y-86174693D01*
X125555301Y-86168626D01*
X125555000Y-86162500D01*
X125555000Y-86037500D01*
X125555301Y-86031374D01*
X125556201Y-86025307D01*
X125557691Y-86019357D01*
X125559758Y-86013582D01*
X125562380Y-86008038D01*
X125565533Y-86002777D01*
X125569187Y-85997850D01*
X125573306Y-85993306D01*
X125577850Y-85989187D01*
X125582777Y-85985533D01*
X125588038Y-85982380D01*
X125593582Y-85979758D01*
X125599357Y-85977691D01*
X125605307Y-85976201D01*
X125611374Y-85975301D01*
X125617500Y-85975000D01*
X126317500Y-85975000D01*
X126323626Y-85975301D01*
G37*
G36*
X126323626Y-85475301D02*
G01*
X126329693Y-85476201D01*
X126335643Y-85477691D01*
X126341418Y-85479758D01*
X126346962Y-85482380D01*
X126352223Y-85485533D01*
X126357150Y-85489187D01*
X126361694Y-85493306D01*
X126365813Y-85497850D01*
X126369467Y-85502777D01*
X126372620Y-85508038D01*
X126375242Y-85513582D01*
X126377309Y-85519357D01*
X126378799Y-85525307D01*
X126379699Y-85531374D01*
X126380000Y-85537500D01*
X126380000Y-85662500D01*
X126379699Y-85668626D01*
X126378799Y-85674693D01*
X126377309Y-85680643D01*
X126375242Y-85686418D01*
X126372620Y-85691962D01*
X126369467Y-85697223D01*
X126365813Y-85702150D01*
X126361694Y-85706694D01*
X126357150Y-85710813D01*
X126352223Y-85714467D01*
X126346962Y-85717620D01*
X126341418Y-85720242D01*
X126335643Y-85722309D01*
X126329693Y-85723799D01*
X126323626Y-85724699D01*
X126317500Y-85725000D01*
X125617500Y-85725000D01*
X125611374Y-85724699D01*
X125605307Y-85723799D01*
X125599357Y-85722309D01*
X125593582Y-85720242D01*
X125588038Y-85717620D01*
X125582777Y-85714467D01*
X125577850Y-85710813D01*
X125573306Y-85706694D01*
X125569187Y-85702150D01*
X125565533Y-85697223D01*
X125562380Y-85691962D01*
X125559758Y-85686418D01*
X125557691Y-85680643D01*
X125556201Y-85674693D01*
X125555301Y-85668626D01*
X125555000Y-85662500D01*
X125555000Y-85537500D01*
X125555301Y-85531374D01*
X125556201Y-85525307D01*
X125557691Y-85519357D01*
X125559758Y-85513582D01*
X125562380Y-85508038D01*
X125565533Y-85502777D01*
X125569187Y-85497850D01*
X125573306Y-85493306D01*
X125577850Y-85489187D01*
X125582777Y-85485533D01*
X125588038Y-85482380D01*
X125593582Y-85479758D01*
X125599357Y-85477691D01*
X125605307Y-85476201D01*
X125611374Y-85475301D01*
X125617500Y-85475000D01*
X126317500Y-85475000D01*
X126323626Y-85475301D01*
G37*
G36*
X126323626Y-84975301D02*
G01*
X126329693Y-84976201D01*
X126335643Y-84977691D01*
X126341418Y-84979758D01*
X126346962Y-84982380D01*
X126352223Y-84985533D01*
X126357150Y-84989187D01*
X126361694Y-84993306D01*
X126365813Y-84997850D01*
X126369467Y-85002777D01*
X126372620Y-85008038D01*
X126375242Y-85013582D01*
X126377309Y-85019357D01*
X126378799Y-85025307D01*
X126379699Y-85031374D01*
X126380000Y-85037500D01*
X126380000Y-85162500D01*
X126379699Y-85168626D01*
X126378799Y-85174693D01*
X126377309Y-85180643D01*
X126375242Y-85186418D01*
X126372620Y-85191962D01*
X126369467Y-85197223D01*
X126365813Y-85202150D01*
X126361694Y-85206694D01*
X126357150Y-85210813D01*
X126352223Y-85214467D01*
X126346962Y-85217620D01*
X126341418Y-85220242D01*
X126335643Y-85222309D01*
X126329693Y-85223799D01*
X126323626Y-85224699D01*
X126317500Y-85225000D01*
X125617500Y-85225000D01*
X125611374Y-85224699D01*
X125605307Y-85223799D01*
X125599357Y-85222309D01*
X125593582Y-85220242D01*
X125588038Y-85217620D01*
X125582777Y-85214467D01*
X125577850Y-85210813D01*
X125573306Y-85206694D01*
X125569187Y-85202150D01*
X125565533Y-85197223D01*
X125562380Y-85191962D01*
X125559758Y-85186418D01*
X125557691Y-85180643D01*
X125556201Y-85174693D01*
X125555301Y-85168626D01*
X125555000Y-85162500D01*
X125555000Y-85037500D01*
X125555301Y-85031374D01*
X125556201Y-85025307D01*
X125557691Y-85019357D01*
X125559758Y-85013582D01*
X125562380Y-85008038D01*
X125565533Y-85002777D01*
X125569187Y-84997850D01*
X125573306Y-84993306D01*
X125577850Y-84989187D01*
X125582777Y-84985533D01*
X125588038Y-84982380D01*
X125593582Y-84979758D01*
X125599357Y-84977691D01*
X125605307Y-84976201D01*
X125611374Y-84975301D01*
X125617500Y-84975000D01*
X126317500Y-84975000D01*
X126323626Y-84975301D01*
G37*
G36*
X126323626Y-84475301D02*
G01*
X126329693Y-84476201D01*
X126335643Y-84477691D01*
X126341418Y-84479758D01*
X126346962Y-84482380D01*
X126352223Y-84485533D01*
X126357150Y-84489187D01*
X126361694Y-84493306D01*
X126365813Y-84497850D01*
X126369467Y-84502777D01*
X126372620Y-84508038D01*
X126375242Y-84513582D01*
X126377309Y-84519357D01*
X126378799Y-84525307D01*
X126379699Y-84531374D01*
X126380000Y-84537500D01*
X126380000Y-84662500D01*
X126379699Y-84668626D01*
X126378799Y-84674693D01*
X126377309Y-84680643D01*
X126375242Y-84686418D01*
X126372620Y-84691962D01*
X126369467Y-84697223D01*
X126365813Y-84702150D01*
X126361694Y-84706694D01*
X126357150Y-84710813D01*
X126352223Y-84714467D01*
X126346962Y-84717620D01*
X126341418Y-84720242D01*
X126335643Y-84722309D01*
X126329693Y-84723799D01*
X126323626Y-84724699D01*
X126317500Y-84725000D01*
X125617500Y-84725000D01*
X125611374Y-84724699D01*
X125605307Y-84723799D01*
X125599357Y-84722309D01*
X125593582Y-84720242D01*
X125588038Y-84717620D01*
X125582777Y-84714467D01*
X125577850Y-84710813D01*
X125573306Y-84706694D01*
X125569187Y-84702150D01*
X125565533Y-84697223D01*
X125562380Y-84691962D01*
X125559758Y-84686418D01*
X125557691Y-84680643D01*
X125556201Y-84674693D01*
X125555301Y-84668626D01*
X125555000Y-84662500D01*
X125555000Y-84537500D01*
X125555301Y-84531374D01*
X125556201Y-84525307D01*
X125557691Y-84519357D01*
X125559758Y-84513582D01*
X125562380Y-84508038D01*
X125565533Y-84502777D01*
X125569187Y-84497850D01*
X125573306Y-84493306D01*
X125577850Y-84489187D01*
X125582777Y-84485533D01*
X125588038Y-84482380D01*
X125593582Y-84479758D01*
X125599357Y-84477691D01*
X125605307Y-84476201D01*
X125611374Y-84475301D01*
X125617500Y-84475000D01*
X126317500Y-84475000D01*
X126323626Y-84475301D01*
G37*
G36*
X125348626Y-83500301D02*
G01*
X125354693Y-83501201D01*
X125360643Y-83502691D01*
X125366418Y-83504758D01*
X125371962Y-83507380D01*
X125377223Y-83510533D01*
X125382150Y-83514187D01*
X125386694Y-83518306D01*
X125390813Y-83522850D01*
X125394467Y-83527777D01*
X125397620Y-83533038D01*
X125400242Y-83538582D01*
X125402309Y-83544357D01*
X125403799Y-83550307D01*
X125404699Y-83556374D01*
X125405000Y-83562500D01*
X125405000Y-84262500D01*
X125404699Y-84268626D01*
X125403799Y-84274693D01*
X125402309Y-84280643D01*
X125400242Y-84286418D01*
X125397620Y-84291962D01*
X125394467Y-84297223D01*
X125390813Y-84302150D01*
X125386694Y-84306694D01*
X125382150Y-84310813D01*
X125377223Y-84314467D01*
X125371962Y-84317620D01*
X125366418Y-84320242D01*
X125360643Y-84322309D01*
X125354693Y-84323799D01*
X125348626Y-84324699D01*
X125342500Y-84325000D01*
X125217500Y-84325000D01*
X125211374Y-84324699D01*
X125205307Y-84323799D01*
X125199357Y-84322309D01*
X125193582Y-84320242D01*
X125188038Y-84317620D01*
X125182777Y-84314467D01*
X125177850Y-84310813D01*
X125173306Y-84306694D01*
X125169187Y-84302150D01*
X125165533Y-84297223D01*
X125162380Y-84291962D01*
X125159758Y-84286418D01*
X125157691Y-84280643D01*
X125156201Y-84274693D01*
X125155301Y-84268626D01*
X125155000Y-84262500D01*
X125155000Y-83562500D01*
X125155301Y-83556374D01*
X125156201Y-83550307D01*
X125157691Y-83544357D01*
X125159758Y-83538582D01*
X125162380Y-83533038D01*
X125165533Y-83527777D01*
X125169187Y-83522850D01*
X125173306Y-83518306D01*
X125177850Y-83514187D01*
X125182777Y-83510533D01*
X125188038Y-83507380D01*
X125193582Y-83504758D01*
X125199357Y-83502691D01*
X125205307Y-83501201D01*
X125211374Y-83500301D01*
X125217500Y-83500000D01*
X125342500Y-83500000D01*
X125348626Y-83500301D01*
G37*
G36*
X124848626Y-83500301D02*
G01*
X124854693Y-83501201D01*
X124860643Y-83502691D01*
X124866418Y-83504758D01*
X124871962Y-83507380D01*
X124877223Y-83510533D01*
X124882150Y-83514187D01*
X124886694Y-83518306D01*
X124890813Y-83522850D01*
X124894467Y-83527777D01*
X124897620Y-83533038D01*
X124900242Y-83538582D01*
X124902309Y-83544357D01*
X124903799Y-83550307D01*
X124904699Y-83556374D01*
X124905000Y-83562500D01*
X124905000Y-84262500D01*
X124904699Y-84268626D01*
X124903799Y-84274693D01*
X124902309Y-84280643D01*
X124900242Y-84286418D01*
X124897620Y-84291962D01*
X124894467Y-84297223D01*
X124890813Y-84302150D01*
X124886694Y-84306694D01*
X124882150Y-84310813D01*
X124877223Y-84314467D01*
X124871962Y-84317620D01*
X124866418Y-84320242D01*
X124860643Y-84322309D01*
X124854693Y-84323799D01*
X124848626Y-84324699D01*
X124842500Y-84325000D01*
X124717500Y-84325000D01*
X124711374Y-84324699D01*
X124705307Y-84323799D01*
X124699357Y-84322309D01*
X124693582Y-84320242D01*
X124688038Y-84317620D01*
X124682777Y-84314467D01*
X124677850Y-84310813D01*
X124673306Y-84306694D01*
X124669187Y-84302150D01*
X124665533Y-84297223D01*
X124662380Y-84291962D01*
X124659758Y-84286418D01*
X124657691Y-84280643D01*
X124656201Y-84274693D01*
X124655301Y-84268626D01*
X124655000Y-84262500D01*
X124655000Y-83562500D01*
X124655301Y-83556374D01*
X124656201Y-83550307D01*
X124657691Y-83544357D01*
X124659758Y-83538582D01*
X124662380Y-83533038D01*
X124665533Y-83527777D01*
X124669187Y-83522850D01*
X124673306Y-83518306D01*
X124677850Y-83514187D01*
X124682777Y-83510533D01*
X124688038Y-83507380D01*
X124693582Y-83504758D01*
X124699357Y-83502691D01*
X124705307Y-83501201D01*
X124711374Y-83500301D01*
X124717500Y-83500000D01*
X124842500Y-83500000D01*
X124848626Y-83500301D01*
G37*
G36*
X124348626Y-83500301D02*
G01*
X124354693Y-83501201D01*
X124360643Y-83502691D01*
X124366418Y-83504758D01*
X124371962Y-83507380D01*
X124377223Y-83510533D01*
X124382150Y-83514187D01*
X124386694Y-83518306D01*
X124390813Y-83522850D01*
X124394467Y-83527777D01*
X124397620Y-83533038D01*
X124400242Y-83538582D01*
X124402309Y-83544357D01*
X124403799Y-83550307D01*
X124404699Y-83556374D01*
X124405000Y-83562500D01*
X124405000Y-84262500D01*
X124404699Y-84268626D01*
X124403799Y-84274693D01*
X124402309Y-84280643D01*
X124400242Y-84286418D01*
X124397620Y-84291962D01*
X124394467Y-84297223D01*
X124390813Y-84302150D01*
X124386694Y-84306694D01*
X124382150Y-84310813D01*
X124377223Y-84314467D01*
X124371962Y-84317620D01*
X124366418Y-84320242D01*
X124360643Y-84322309D01*
X124354693Y-84323799D01*
X124348626Y-84324699D01*
X124342500Y-84325000D01*
X124217500Y-84325000D01*
X124211374Y-84324699D01*
X124205307Y-84323799D01*
X124199357Y-84322309D01*
X124193582Y-84320242D01*
X124188038Y-84317620D01*
X124182777Y-84314467D01*
X124177850Y-84310813D01*
X124173306Y-84306694D01*
X124169187Y-84302150D01*
X124165533Y-84297223D01*
X124162380Y-84291962D01*
X124159758Y-84286418D01*
X124157691Y-84280643D01*
X124156201Y-84274693D01*
X124155301Y-84268626D01*
X124155000Y-84262500D01*
X124155000Y-83562500D01*
X124155301Y-83556374D01*
X124156201Y-83550307D01*
X124157691Y-83544357D01*
X124159758Y-83538582D01*
X124162380Y-83533038D01*
X124165533Y-83527777D01*
X124169187Y-83522850D01*
X124173306Y-83518306D01*
X124177850Y-83514187D01*
X124182777Y-83510533D01*
X124188038Y-83507380D01*
X124193582Y-83504758D01*
X124199357Y-83502691D01*
X124205307Y-83501201D01*
X124211374Y-83500301D01*
X124217500Y-83500000D01*
X124342500Y-83500000D01*
X124348626Y-83500301D01*
G37*
G36*
X123848626Y-83500301D02*
G01*
X123854693Y-83501201D01*
X123860643Y-83502691D01*
X123866418Y-83504758D01*
X123871962Y-83507380D01*
X123877223Y-83510533D01*
X123882150Y-83514187D01*
X123886694Y-83518306D01*
X123890813Y-83522850D01*
X123894467Y-83527777D01*
X123897620Y-83533038D01*
X123900242Y-83538582D01*
X123902309Y-83544357D01*
X123903799Y-83550307D01*
X123904699Y-83556374D01*
X123905000Y-83562500D01*
X123905000Y-84262500D01*
X123904699Y-84268626D01*
X123903799Y-84274693D01*
X123902309Y-84280643D01*
X123900242Y-84286418D01*
X123897620Y-84291962D01*
X123894467Y-84297223D01*
X123890813Y-84302150D01*
X123886694Y-84306694D01*
X123882150Y-84310813D01*
X123877223Y-84314467D01*
X123871962Y-84317620D01*
X123866418Y-84320242D01*
X123860643Y-84322309D01*
X123854693Y-84323799D01*
X123848626Y-84324699D01*
X123842500Y-84325000D01*
X123717500Y-84325000D01*
X123711374Y-84324699D01*
X123705307Y-84323799D01*
X123699357Y-84322309D01*
X123693582Y-84320242D01*
X123688038Y-84317620D01*
X123682777Y-84314467D01*
X123677850Y-84310813D01*
X123673306Y-84306694D01*
X123669187Y-84302150D01*
X123665533Y-84297223D01*
X123662380Y-84291962D01*
X123659758Y-84286418D01*
X123657691Y-84280643D01*
X123656201Y-84274693D01*
X123655301Y-84268626D01*
X123655000Y-84262500D01*
X123655000Y-83562500D01*
X123655301Y-83556374D01*
X123656201Y-83550307D01*
X123657691Y-83544357D01*
X123659758Y-83538582D01*
X123662380Y-83533038D01*
X123665533Y-83527777D01*
X123669187Y-83522850D01*
X123673306Y-83518306D01*
X123677850Y-83514187D01*
X123682777Y-83510533D01*
X123688038Y-83507380D01*
X123693582Y-83504758D01*
X123699357Y-83502691D01*
X123705307Y-83501201D01*
X123711374Y-83500301D01*
X123717500Y-83500000D01*
X123842500Y-83500000D01*
X123848626Y-83500301D01*
G37*
G36*
X123348626Y-83500301D02*
G01*
X123354693Y-83501201D01*
X123360643Y-83502691D01*
X123366418Y-83504758D01*
X123371962Y-83507380D01*
X123377223Y-83510533D01*
X123382150Y-83514187D01*
X123386694Y-83518306D01*
X123390813Y-83522850D01*
X123394467Y-83527777D01*
X123397620Y-83533038D01*
X123400242Y-83538582D01*
X123402309Y-83544357D01*
X123403799Y-83550307D01*
X123404699Y-83556374D01*
X123405000Y-83562500D01*
X123405000Y-84262500D01*
X123404699Y-84268626D01*
X123403799Y-84274693D01*
X123402309Y-84280643D01*
X123400242Y-84286418D01*
X123397620Y-84291962D01*
X123394467Y-84297223D01*
X123390813Y-84302150D01*
X123386694Y-84306694D01*
X123382150Y-84310813D01*
X123377223Y-84314467D01*
X123371962Y-84317620D01*
X123366418Y-84320242D01*
X123360643Y-84322309D01*
X123354693Y-84323799D01*
X123348626Y-84324699D01*
X123342500Y-84325000D01*
X123217500Y-84325000D01*
X123211374Y-84324699D01*
X123205307Y-84323799D01*
X123199357Y-84322309D01*
X123193582Y-84320242D01*
X123188038Y-84317620D01*
X123182777Y-84314467D01*
X123177850Y-84310813D01*
X123173306Y-84306694D01*
X123169187Y-84302150D01*
X123165533Y-84297223D01*
X123162380Y-84291962D01*
X123159758Y-84286418D01*
X123157691Y-84280643D01*
X123156201Y-84274693D01*
X123155301Y-84268626D01*
X123155000Y-84262500D01*
X123155000Y-83562500D01*
X123155301Y-83556374D01*
X123156201Y-83550307D01*
X123157691Y-83544357D01*
X123159758Y-83538582D01*
X123162380Y-83533038D01*
X123165533Y-83527777D01*
X123169187Y-83522850D01*
X123173306Y-83518306D01*
X123177850Y-83514187D01*
X123182777Y-83510533D01*
X123188038Y-83507380D01*
X123193582Y-83504758D01*
X123199357Y-83502691D01*
X123205307Y-83501201D01*
X123211374Y-83500301D01*
X123217500Y-83500000D01*
X123342500Y-83500000D01*
X123348626Y-83500301D01*
G37*
G36*
X122848626Y-83500301D02*
G01*
X122854693Y-83501201D01*
X122860643Y-83502691D01*
X122866418Y-83504758D01*
X122871962Y-83507380D01*
X122877223Y-83510533D01*
X122882150Y-83514187D01*
X122886694Y-83518306D01*
X122890813Y-83522850D01*
X122894467Y-83527777D01*
X122897620Y-83533038D01*
X122900242Y-83538582D01*
X122902309Y-83544357D01*
X122903799Y-83550307D01*
X122904699Y-83556374D01*
X122905000Y-83562500D01*
X122905000Y-84262500D01*
X122904699Y-84268626D01*
X122903799Y-84274693D01*
X122902309Y-84280643D01*
X122900242Y-84286418D01*
X122897620Y-84291962D01*
X122894467Y-84297223D01*
X122890813Y-84302150D01*
X122886694Y-84306694D01*
X122882150Y-84310813D01*
X122877223Y-84314467D01*
X122871962Y-84317620D01*
X122866418Y-84320242D01*
X122860643Y-84322309D01*
X122854693Y-84323799D01*
X122848626Y-84324699D01*
X122842500Y-84325000D01*
X122717500Y-84325000D01*
X122711374Y-84324699D01*
X122705307Y-84323799D01*
X122699357Y-84322309D01*
X122693582Y-84320242D01*
X122688038Y-84317620D01*
X122682777Y-84314467D01*
X122677850Y-84310813D01*
X122673306Y-84306694D01*
X122669187Y-84302150D01*
X122665533Y-84297223D01*
X122662380Y-84291962D01*
X122659758Y-84286418D01*
X122657691Y-84280643D01*
X122656201Y-84274693D01*
X122655301Y-84268626D01*
X122655000Y-84262500D01*
X122655000Y-83562500D01*
X122655301Y-83556374D01*
X122656201Y-83550307D01*
X122657691Y-83544357D01*
X122659758Y-83538582D01*
X122662380Y-83533038D01*
X122665533Y-83527777D01*
X122669187Y-83522850D01*
X122673306Y-83518306D01*
X122677850Y-83514187D01*
X122682777Y-83510533D01*
X122688038Y-83507380D01*
X122693582Y-83504758D01*
X122699357Y-83502691D01*
X122705307Y-83501201D01*
X122711374Y-83500301D01*
X122717500Y-83500000D01*
X122842500Y-83500000D01*
X122848626Y-83500301D01*
G37*
G36*
X122448626Y-84475301D02*
G01*
X122454693Y-84476201D01*
X122460643Y-84477691D01*
X122466418Y-84479758D01*
X122471962Y-84482380D01*
X122477223Y-84485533D01*
X122482150Y-84489187D01*
X122486694Y-84493306D01*
X122490813Y-84497850D01*
X122494467Y-84502777D01*
X122497620Y-84508038D01*
X122500242Y-84513582D01*
X122502309Y-84519357D01*
X122503799Y-84525307D01*
X122504699Y-84531374D01*
X122505000Y-84537500D01*
X122505000Y-84662500D01*
X122504699Y-84668626D01*
X122503799Y-84674693D01*
X122502309Y-84680643D01*
X122500242Y-84686418D01*
X122497620Y-84691962D01*
X122494467Y-84697223D01*
X122490813Y-84702150D01*
X122486694Y-84706694D01*
X122482150Y-84710813D01*
X122477223Y-84714467D01*
X122471962Y-84717620D01*
X122466418Y-84720242D01*
X122460643Y-84722309D01*
X122454693Y-84723799D01*
X122448626Y-84724699D01*
X122442500Y-84725000D01*
X121742500Y-84725000D01*
X121736374Y-84724699D01*
X121730307Y-84723799D01*
X121724357Y-84722309D01*
X121718582Y-84720242D01*
X121713038Y-84717620D01*
X121707777Y-84714467D01*
X121702850Y-84710813D01*
X121698306Y-84706694D01*
X121694187Y-84702150D01*
X121690533Y-84697223D01*
X121687380Y-84691962D01*
X121684758Y-84686418D01*
X121682691Y-84680643D01*
X121681201Y-84674693D01*
X121680301Y-84668626D01*
X121680000Y-84662500D01*
X121680000Y-84537500D01*
X121680301Y-84531374D01*
X121681201Y-84525307D01*
X121682691Y-84519357D01*
X121684758Y-84513582D01*
X121687380Y-84508038D01*
X121690533Y-84502777D01*
X121694187Y-84497850D01*
X121698306Y-84493306D01*
X121702850Y-84489187D01*
X121707777Y-84485533D01*
X121713038Y-84482380D01*
X121718582Y-84479758D01*
X121724357Y-84477691D01*
X121730307Y-84476201D01*
X121736374Y-84475301D01*
X121742500Y-84475000D01*
X122442500Y-84475000D01*
X122448626Y-84475301D01*
G37*
G36*
X122448626Y-84975301D02*
G01*
X122454693Y-84976201D01*
X122460643Y-84977691D01*
X122466418Y-84979758D01*
X122471962Y-84982380D01*
X122477223Y-84985533D01*
X122482150Y-84989187D01*
X122486694Y-84993306D01*
X122490813Y-84997850D01*
X122494467Y-85002777D01*
X122497620Y-85008038D01*
X122500242Y-85013582D01*
X122502309Y-85019357D01*
X122503799Y-85025307D01*
X122504699Y-85031374D01*
X122505000Y-85037500D01*
X122505000Y-85162500D01*
X122504699Y-85168626D01*
X122503799Y-85174693D01*
X122502309Y-85180643D01*
X122500242Y-85186418D01*
X122497620Y-85191962D01*
X122494467Y-85197223D01*
X122490813Y-85202150D01*
X122486694Y-85206694D01*
X122482150Y-85210813D01*
X122477223Y-85214467D01*
X122471962Y-85217620D01*
X122466418Y-85220242D01*
X122460643Y-85222309D01*
X122454693Y-85223799D01*
X122448626Y-85224699D01*
X122442500Y-85225000D01*
X121742500Y-85225000D01*
X121736374Y-85224699D01*
X121730307Y-85223799D01*
X121724357Y-85222309D01*
X121718582Y-85220242D01*
X121713038Y-85217620D01*
X121707777Y-85214467D01*
X121702850Y-85210813D01*
X121698306Y-85206694D01*
X121694187Y-85202150D01*
X121690533Y-85197223D01*
X121687380Y-85191962D01*
X121684758Y-85186418D01*
X121682691Y-85180643D01*
X121681201Y-85174693D01*
X121680301Y-85168626D01*
X121680000Y-85162500D01*
X121680000Y-85037500D01*
X121680301Y-85031374D01*
X121681201Y-85025307D01*
X121682691Y-85019357D01*
X121684758Y-85013582D01*
X121687380Y-85008038D01*
X121690533Y-85002777D01*
X121694187Y-84997850D01*
X121698306Y-84993306D01*
X121702850Y-84989187D01*
X121707777Y-84985533D01*
X121713038Y-84982380D01*
X121718582Y-84979758D01*
X121724357Y-84977691D01*
X121730307Y-84976201D01*
X121736374Y-84975301D01*
X121742500Y-84975000D01*
X122442500Y-84975000D01*
X122448626Y-84975301D01*
G37*
G36*
X122448626Y-85475301D02*
G01*
X122454693Y-85476201D01*
X122460643Y-85477691D01*
X122466418Y-85479758D01*
X122471962Y-85482380D01*
X122477223Y-85485533D01*
X122482150Y-85489187D01*
X122486694Y-85493306D01*
X122490813Y-85497850D01*
X122494467Y-85502777D01*
X122497620Y-85508038D01*
X122500242Y-85513582D01*
X122502309Y-85519357D01*
X122503799Y-85525307D01*
X122504699Y-85531374D01*
X122505000Y-85537500D01*
X122505000Y-85662500D01*
X122504699Y-85668626D01*
X122503799Y-85674693D01*
X122502309Y-85680643D01*
X122500242Y-85686418D01*
X122497620Y-85691962D01*
X122494467Y-85697223D01*
X122490813Y-85702150D01*
X122486694Y-85706694D01*
X122482150Y-85710813D01*
X122477223Y-85714467D01*
X122471962Y-85717620D01*
X122466418Y-85720242D01*
X122460643Y-85722309D01*
X122454693Y-85723799D01*
X122448626Y-85724699D01*
X122442500Y-85725000D01*
X121742500Y-85725000D01*
X121736374Y-85724699D01*
X121730307Y-85723799D01*
X121724357Y-85722309D01*
X121718582Y-85720242D01*
X121713038Y-85717620D01*
X121707777Y-85714467D01*
X121702850Y-85710813D01*
X121698306Y-85706694D01*
X121694187Y-85702150D01*
X121690533Y-85697223D01*
X121687380Y-85691962D01*
X121684758Y-85686418D01*
X121682691Y-85680643D01*
X121681201Y-85674693D01*
X121680301Y-85668626D01*
X121680000Y-85662500D01*
X121680000Y-85537500D01*
X121680301Y-85531374D01*
X121681201Y-85525307D01*
X121682691Y-85519357D01*
X121684758Y-85513582D01*
X121687380Y-85508038D01*
X121690533Y-85502777D01*
X121694187Y-85497850D01*
X121698306Y-85493306D01*
X121702850Y-85489187D01*
X121707777Y-85485533D01*
X121713038Y-85482380D01*
X121718582Y-85479758D01*
X121724357Y-85477691D01*
X121730307Y-85476201D01*
X121736374Y-85475301D01*
X121742500Y-85475000D01*
X122442500Y-85475000D01*
X122448626Y-85475301D01*
G37*
G36*
X122448626Y-85975301D02*
G01*
X122454693Y-85976201D01*
X122460643Y-85977691D01*
X122466418Y-85979758D01*
X122471962Y-85982380D01*
X122477223Y-85985533D01*
X122482150Y-85989187D01*
X122486694Y-85993306D01*
X122490813Y-85997850D01*
X122494467Y-86002777D01*
X122497620Y-86008038D01*
X122500242Y-86013582D01*
X122502309Y-86019357D01*
X122503799Y-86025307D01*
X122504699Y-86031374D01*
X122505000Y-86037500D01*
X122505000Y-86162500D01*
X122504699Y-86168626D01*
X122503799Y-86174693D01*
X122502309Y-86180643D01*
X122500242Y-86186418D01*
X122497620Y-86191962D01*
X122494467Y-86197223D01*
X122490813Y-86202150D01*
X122486694Y-86206694D01*
X122482150Y-86210813D01*
X122477223Y-86214467D01*
X122471962Y-86217620D01*
X122466418Y-86220242D01*
X122460643Y-86222309D01*
X122454693Y-86223799D01*
X122448626Y-86224699D01*
X122442500Y-86225000D01*
X121742500Y-86225000D01*
X121736374Y-86224699D01*
X121730307Y-86223799D01*
X121724357Y-86222309D01*
X121718582Y-86220242D01*
X121713038Y-86217620D01*
X121707777Y-86214467D01*
X121702850Y-86210813D01*
X121698306Y-86206694D01*
X121694187Y-86202150D01*
X121690533Y-86197223D01*
X121687380Y-86191962D01*
X121684758Y-86186418D01*
X121682691Y-86180643D01*
X121681201Y-86174693D01*
X121680301Y-86168626D01*
X121680000Y-86162500D01*
X121680000Y-86037500D01*
X121680301Y-86031374D01*
X121681201Y-86025307D01*
X121682691Y-86019357D01*
X121684758Y-86013582D01*
X121687380Y-86008038D01*
X121690533Y-86002777D01*
X121694187Y-85997850D01*
X121698306Y-85993306D01*
X121702850Y-85989187D01*
X121707777Y-85985533D01*
X121713038Y-85982380D01*
X121718582Y-85979758D01*
X121724357Y-85977691D01*
X121730307Y-85976201D01*
X121736374Y-85975301D01*
X121742500Y-85975000D01*
X122442500Y-85975000D01*
X122448626Y-85975301D01*
G37*
G36*
X122448626Y-86475301D02*
G01*
X122454693Y-86476201D01*
X122460643Y-86477691D01*
X122466418Y-86479758D01*
X122471962Y-86482380D01*
X122477223Y-86485533D01*
X122482150Y-86489187D01*
X122486694Y-86493306D01*
X122490813Y-86497850D01*
X122494467Y-86502777D01*
X122497620Y-86508038D01*
X122500242Y-86513582D01*
X122502309Y-86519357D01*
X122503799Y-86525307D01*
X122504699Y-86531374D01*
X122505000Y-86537500D01*
X122505000Y-86662500D01*
X122504699Y-86668626D01*
X122503799Y-86674693D01*
X122502309Y-86680643D01*
X122500242Y-86686418D01*
X122497620Y-86691962D01*
X122494467Y-86697223D01*
X122490813Y-86702150D01*
X122486694Y-86706694D01*
X122482150Y-86710813D01*
X122477223Y-86714467D01*
X122471962Y-86717620D01*
X122466418Y-86720242D01*
X122460643Y-86722309D01*
X122454693Y-86723799D01*
X122448626Y-86724699D01*
X122442500Y-86725000D01*
X121742500Y-86725000D01*
X121736374Y-86724699D01*
X121730307Y-86723799D01*
X121724357Y-86722309D01*
X121718582Y-86720242D01*
X121713038Y-86717620D01*
X121707777Y-86714467D01*
X121702850Y-86710813D01*
X121698306Y-86706694D01*
X121694187Y-86702150D01*
X121690533Y-86697223D01*
X121687380Y-86691962D01*
X121684758Y-86686418D01*
X121682691Y-86680643D01*
X121681201Y-86674693D01*
X121680301Y-86668626D01*
X121680000Y-86662500D01*
X121680000Y-86537500D01*
X121680301Y-86531374D01*
X121681201Y-86525307D01*
X121682691Y-86519357D01*
X121684758Y-86513582D01*
X121687380Y-86508038D01*
X121690533Y-86502777D01*
X121694187Y-86497850D01*
X121698306Y-86493306D01*
X121702850Y-86489187D01*
X121707777Y-86485533D01*
X121713038Y-86482380D01*
X121718582Y-86479758D01*
X121724357Y-86477691D01*
X121730307Y-86476201D01*
X121736374Y-86475301D01*
X121742500Y-86475000D01*
X122442500Y-86475000D01*
X122448626Y-86475301D01*
G37*
G36*
X122448626Y-86975301D02*
G01*
X122454693Y-86976201D01*
X122460643Y-86977691D01*
X122466418Y-86979758D01*
X122471962Y-86982380D01*
X122477223Y-86985533D01*
X122482150Y-86989187D01*
X122486694Y-86993306D01*
X122490813Y-86997850D01*
X122494467Y-87002777D01*
X122497620Y-87008038D01*
X122500242Y-87013582D01*
X122502309Y-87019357D01*
X122503799Y-87025307D01*
X122504699Y-87031374D01*
X122505000Y-87037500D01*
X122505000Y-87162500D01*
X122504699Y-87168626D01*
X122503799Y-87174693D01*
X122502309Y-87180643D01*
X122500242Y-87186418D01*
X122497620Y-87191962D01*
X122494467Y-87197223D01*
X122490813Y-87202150D01*
X122486694Y-87206694D01*
X122482150Y-87210813D01*
X122477223Y-87214467D01*
X122471962Y-87217620D01*
X122466418Y-87220242D01*
X122460643Y-87222309D01*
X122454693Y-87223799D01*
X122448626Y-87224699D01*
X122442500Y-87225000D01*
X121742500Y-87225000D01*
X121736374Y-87224699D01*
X121730307Y-87223799D01*
X121724357Y-87222309D01*
X121718582Y-87220242D01*
X121713038Y-87217620D01*
X121707777Y-87214467D01*
X121702850Y-87210813D01*
X121698306Y-87206694D01*
X121694187Y-87202150D01*
X121690533Y-87197223D01*
X121687380Y-87191962D01*
X121684758Y-87186418D01*
X121682691Y-87180643D01*
X121681201Y-87174693D01*
X121680301Y-87168626D01*
X121680000Y-87162500D01*
X121680000Y-87037500D01*
X121680301Y-87031374D01*
X121681201Y-87025307D01*
X121682691Y-87019357D01*
X121684758Y-87013582D01*
X121687380Y-87008038D01*
X121690533Y-87002777D01*
X121694187Y-86997850D01*
X121698306Y-86993306D01*
X121702850Y-86989187D01*
X121707777Y-86985533D01*
X121713038Y-86982380D01*
X121718582Y-86979758D01*
X121724357Y-86977691D01*
X121730307Y-86976201D01*
X121736374Y-86975301D01*
X121742500Y-86975000D01*
X122442500Y-86975000D01*
X122448626Y-86975301D01*
G37*
G36*
X87716505Y-65722204D02*
G01*
X87740773Y-65725804D01*
X87764572Y-65731765D01*
X87787671Y-65740030D01*
X87809850Y-65750520D01*
X87830893Y-65763132D01*
X87850599Y-65777747D01*
X87868777Y-65794223D01*
X87885253Y-65812401D01*
X87899868Y-65832107D01*
X87912480Y-65853150D01*
X87922970Y-65875329D01*
X87931235Y-65898428D01*
X87937196Y-65922227D01*
X87940796Y-65946495D01*
X87942000Y-65970999D01*
X87942000Y-66871001D01*
X87940796Y-66895505D01*
X87937196Y-66919773D01*
X87931235Y-66943572D01*
X87922970Y-66966671D01*
X87912480Y-66988850D01*
X87899868Y-67009893D01*
X87885253Y-67029599D01*
X87868777Y-67047777D01*
X87850599Y-67064253D01*
X87830893Y-67078868D01*
X87809850Y-67091480D01*
X87787671Y-67101970D01*
X87764572Y-67110235D01*
X87740773Y-67116196D01*
X87716505Y-67119796D01*
X87692001Y-67121000D01*
X87041999Y-67121000D01*
X87017495Y-67119796D01*
X86993227Y-67116196D01*
X86969428Y-67110235D01*
X86946329Y-67101970D01*
X86924150Y-67091480D01*
X86903107Y-67078868D01*
X86883401Y-67064253D01*
X86865223Y-67047777D01*
X86848747Y-67029599D01*
X86834132Y-67009893D01*
X86821520Y-66988850D01*
X86811030Y-66966671D01*
X86802765Y-66943572D01*
X86796804Y-66919773D01*
X86793204Y-66895505D01*
X86792000Y-66871001D01*
X86792000Y-65970999D01*
X86793204Y-65946495D01*
X86796804Y-65922227D01*
X86802765Y-65898428D01*
X86811030Y-65875329D01*
X86821520Y-65853150D01*
X86834132Y-65832107D01*
X86848747Y-65812401D01*
X86865223Y-65794223D01*
X86883401Y-65777747D01*
X86903107Y-65763132D01*
X86924150Y-65750520D01*
X86946329Y-65740030D01*
X86969428Y-65731765D01*
X86993227Y-65725804D01*
X87017495Y-65722204D01*
X87041999Y-65721000D01*
X87692001Y-65721000D01*
X87716505Y-65722204D01*
G37*
G36*
X89766505Y-65722204D02*
G01*
X89790773Y-65725804D01*
X89814572Y-65731765D01*
X89837671Y-65740030D01*
X89859850Y-65750520D01*
X89880893Y-65763132D01*
X89900599Y-65777747D01*
X89918777Y-65794223D01*
X89935253Y-65812401D01*
X89949868Y-65832107D01*
X89962480Y-65853150D01*
X89972970Y-65875329D01*
X89981235Y-65898428D01*
X89987196Y-65922227D01*
X89990796Y-65946495D01*
X89992000Y-65970999D01*
X89992000Y-66871001D01*
X89990796Y-66895505D01*
X89987196Y-66919773D01*
X89981235Y-66943572D01*
X89972970Y-66966671D01*
X89962480Y-66988850D01*
X89949868Y-67009893D01*
X89935253Y-67029599D01*
X89918777Y-67047777D01*
X89900599Y-67064253D01*
X89880893Y-67078868D01*
X89859850Y-67091480D01*
X89837671Y-67101970D01*
X89814572Y-67110235D01*
X89790773Y-67116196D01*
X89766505Y-67119796D01*
X89742001Y-67121000D01*
X89091999Y-67121000D01*
X89067495Y-67119796D01*
X89043227Y-67116196D01*
X89019428Y-67110235D01*
X88996329Y-67101970D01*
X88974150Y-67091480D01*
X88953107Y-67078868D01*
X88933401Y-67064253D01*
X88915223Y-67047777D01*
X88898747Y-67029599D01*
X88884132Y-67009893D01*
X88871520Y-66988850D01*
X88861030Y-66966671D01*
X88852765Y-66943572D01*
X88846804Y-66919773D01*
X88843204Y-66895505D01*
X88842000Y-66871001D01*
X88842000Y-65970999D01*
X88843204Y-65946495D01*
X88846804Y-65922227D01*
X88852765Y-65898428D01*
X88861030Y-65875329D01*
X88871520Y-65853150D01*
X88884132Y-65832107D01*
X88898747Y-65812401D01*
X88915223Y-65794223D01*
X88933401Y-65777747D01*
X88953107Y-65763132D01*
X88974150Y-65750520D01*
X88996329Y-65740030D01*
X89019428Y-65731765D01*
X89043227Y-65725804D01*
X89067495Y-65722204D01*
X89091999Y-65721000D01*
X89742001Y-65721000D01*
X89766505Y-65722204D01*
G37*
M02*
