%TF.GenerationSoftware,KiCad,Pcbnew,(5.1.8)-1*%
%TF.CreationDate,2021-03-24T17:30:23-04:00*%
%TF.ProjectId,davis-receiver,64617669-732d-4726-9563-65697665722e,rev?*%
%TF.SameCoordinates,Original*%
%TF.FileFunction,Paste,Top*%
%TF.FilePolarity,Positive*%
%FSLAX46Y46*%
G04 Gerber Fmt 4.6, Leading zero omitted, Abs format (unit mm)*
G04 Created by KiCad (PCBNEW (5.1.8)-1) date 2021-03-24 17:30:23*
%MOMM*%
%LPD*%
G01*
G04 APERTURE LIST*
%ADD10C,0.152400*%
%ADD11R,3.450001X3.450001*%
%ADD12R,0.849884X0.279908*%
%ADD13R,0.279908X0.849884*%
%ADD14R,1.200000X1.400000*%
%ADD15R,0.800000X0.900000*%
%ADD16R,1.300000X1.500000*%
%ADD17R,2.100000X1.550000*%
%ADD18R,0.600000X1.100000*%
%ADD19C,0.100000*%
%ADD20R,2.600000X2.600000*%
%ADD21R,0.925000X0.600000*%
%ADD22R,0.600000X0.925000*%
%ADD23C,0.249999*%
%ADD24R,2.030000X1.270000*%
%ADD25R,1.000000X0.700000*%
%ADD26R,1.800000X2.400000*%
%ADD27R,4.960000X3.800000*%
%ADD28R,1.440000X1.800000*%
%ADD29R,1.400000X2.000000*%
%ADD30R,1.800000X2.100000*%
%ADD31R,0.800000X1.000000*%
G04 APERTURE END LIST*
D10*
%TO.C,U2*%
X61718900Y-47835530D02*
X61718900Y-48063079D01*
X62087870Y-47835530D02*
X61718900Y-47835530D01*
X62087870Y-48204500D02*
X62087870Y-47835530D01*
X61860321Y-48204500D02*
X62087870Y-48204500D01*
X61860321Y-48204500D02*
X61860321Y-48204500D01*
X61718900Y-48063079D02*
X61860321Y-48204500D01*
X61718900Y-48063079D02*
X61718900Y-48063079D01*
X60931500Y-47835530D02*
X60931500Y-48063079D01*
X61518900Y-47835530D02*
X60931500Y-47835530D01*
X61518900Y-48063079D02*
X61518900Y-47835530D01*
X61518900Y-48063079D02*
X61518900Y-48063079D01*
X61377479Y-48204500D02*
X61518900Y-48063079D01*
X61377479Y-48204500D02*
X61377479Y-48204500D01*
X61072921Y-48204500D02*
X61377479Y-48204500D01*
X61072921Y-48204500D02*
X61072921Y-48204500D01*
X60931500Y-48063079D02*
X61072921Y-48204500D01*
X60931500Y-48063079D02*
X60931500Y-48063079D01*
X60144100Y-47835530D02*
X60144100Y-48063079D01*
X60731500Y-47835530D02*
X60144100Y-47835530D01*
X60731500Y-48063079D02*
X60731500Y-47835530D01*
X60731500Y-48063079D02*
X60731500Y-48063079D01*
X60590079Y-48204500D02*
X60731500Y-48063079D01*
X60590079Y-48204500D02*
X60590079Y-48204500D01*
X60285521Y-48204500D02*
X60590079Y-48204500D01*
X60285521Y-48204500D02*
X60285521Y-48204500D01*
X60144100Y-48063079D02*
X60285521Y-48204500D01*
X60144100Y-48063079D02*
X60144100Y-48063079D01*
X59356700Y-47835530D02*
X59356700Y-48063079D01*
X59944100Y-47835530D02*
X59356700Y-47835530D01*
X59944100Y-48063079D02*
X59944100Y-47835530D01*
X59944100Y-48063079D02*
X59944100Y-48063079D01*
X59802679Y-48204500D02*
X59944100Y-48063079D01*
X59802679Y-48204500D02*
X59802679Y-48204500D01*
X59498121Y-48204500D02*
X59802679Y-48204500D01*
X59498121Y-48204500D02*
X59498121Y-48204500D01*
X59356700Y-48063079D02*
X59498121Y-48204500D01*
X59356700Y-48063079D02*
X59356700Y-48063079D01*
X58787730Y-47835530D02*
X58787730Y-48204500D01*
X59156700Y-47835530D02*
X58787730Y-47835530D01*
X59156700Y-48063079D02*
X59156700Y-47835530D01*
X59156700Y-48063079D02*
X59156700Y-48063079D01*
X59015279Y-48204500D02*
X59156700Y-48063079D01*
X59015279Y-48204500D02*
X59015279Y-48204500D01*
X58787730Y-48204500D02*
X59015279Y-48204500D01*
X61718900Y-48545921D02*
X61718900Y-48850479D01*
X61718900Y-48545921D02*
X61718900Y-48545921D01*
X61860321Y-48404500D02*
X61718900Y-48545921D01*
X61860321Y-48404500D02*
X61860321Y-48404500D01*
X62087870Y-48404500D02*
X61860321Y-48404500D01*
X62087870Y-48991900D02*
X62087870Y-48404500D01*
X61860321Y-48991900D02*
X62087870Y-48991900D01*
X61860321Y-48991900D02*
X61860321Y-48991900D01*
X61718900Y-48850479D02*
X61860321Y-48991900D01*
X61718900Y-48850479D02*
X61718900Y-48850479D01*
X60931500Y-48545921D02*
X60931500Y-48850479D01*
X60931500Y-48545921D02*
X60931500Y-48545921D01*
X61072921Y-48404500D02*
X60931500Y-48545921D01*
X61072921Y-48404500D02*
X61072921Y-48404500D01*
X61377479Y-48404500D02*
X61072921Y-48404500D01*
X61377479Y-48404500D02*
X61377479Y-48404500D01*
X61518900Y-48545921D02*
X61377479Y-48404500D01*
X61518900Y-48545921D02*
X61518900Y-48545921D01*
X61518900Y-48850479D02*
X61518900Y-48545921D01*
X61518900Y-48850479D02*
X61518900Y-48850479D01*
X61377479Y-48991900D02*
X61518900Y-48850479D01*
X61377479Y-48991900D02*
X61377479Y-48991900D01*
X61072921Y-48991900D02*
X61377479Y-48991900D01*
X61072921Y-48991900D02*
X61072921Y-48991900D01*
X60931500Y-48850479D02*
X61072921Y-48991900D01*
X60931500Y-48850479D02*
X60931500Y-48850479D01*
X60144100Y-48545921D02*
X60144100Y-48850479D01*
X60144100Y-48545921D02*
X60144100Y-48545921D01*
X60285521Y-48404500D02*
X60144100Y-48545921D01*
X60285521Y-48404500D02*
X60285521Y-48404500D01*
X60590079Y-48404500D02*
X60285521Y-48404500D01*
X60590079Y-48404500D02*
X60590079Y-48404500D01*
X60731500Y-48545921D02*
X60590079Y-48404500D01*
X60731500Y-48545921D02*
X60731500Y-48545921D01*
X60731500Y-48850479D02*
X60731500Y-48545921D01*
X60731500Y-48850479D02*
X60731500Y-48850479D01*
X60590079Y-48991900D02*
X60731500Y-48850479D01*
X60590079Y-48991900D02*
X60590079Y-48991900D01*
X60285521Y-48991900D02*
X60590079Y-48991900D01*
X60285521Y-48991900D02*
X60285521Y-48991900D01*
X60144100Y-48850479D02*
X60285521Y-48991900D01*
X60144100Y-48850479D02*
X60144100Y-48850479D01*
X59356700Y-48545921D02*
X59356700Y-48850479D01*
X59356700Y-48545921D02*
X59356700Y-48545921D01*
X59498121Y-48404500D02*
X59356700Y-48545921D01*
X59498121Y-48404500D02*
X59498121Y-48404500D01*
X59802679Y-48404500D02*
X59498121Y-48404500D01*
X59802679Y-48404500D02*
X59802679Y-48404500D01*
X59944100Y-48545921D02*
X59802679Y-48404500D01*
X59944100Y-48545921D02*
X59944100Y-48545921D01*
X59944100Y-48850479D02*
X59944100Y-48545921D01*
X59944100Y-48850479D02*
X59944100Y-48850479D01*
X59802679Y-48991900D02*
X59944100Y-48850479D01*
X59802679Y-48991900D02*
X59802679Y-48991900D01*
X59498121Y-48991900D02*
X59802679Y-48991900D01*
X59498121Y-48991900D02*
X59498121Y-48991900D01*
X59356700Y-48850479D02*
X59498121Y-48991900D01*
X59356700Y-48850479D02*
X59356700Y-48850479D01*
X58787730Y-48404500D02*
X58787730Y-48991900D01*
X59015279Y-48404500D02*
X58787730Y-48404500D01*
X59015279Y-48404500D02*
X59015279Y-48404500D01*
X59156700Y-48545921D02*
X59015279Y-48404500D01*
X59156700Y-48545921D02*
X59156700Y-48545921D01*
X59156700Y-48850479D02*
X59156700Y-48545921D01*
X59156700Y-48850479D02*
X59156700Y-48850479D01*
X59015279Y-48991900D02*
X59156700Y-48850479D01*
X59015279Y-48991900D02*
X59015279Y-48991900D01*
X58787730Y-48991900D02*
X59015279Y-48991900D01*
X61718900Y-49333321D02*
X61718900Y-49637879D01*
X61718900Y-49333321D02*
X61718900Y-49333321D01*
X61860321Y-49191900D02*
X61718900Y-49333321D01*
X61860321Y-49191900D02*
X61860321Y-49191900D01*
X62087870Y-49191900D02*
X61860321Y-49191900D01*
X62087870Y-49779300D02*
X62087870Y-49191900D01*
X61860321Y-49779300D02*
X62087870Y-49779300D01*
X61860321Y-49779300D02*
X61860321Y-49779300D01*
X61718900Y-49637879D02*
X61860321Y-49779300D01*
X61718900Y-49637879D02*
X61718900Y-49637879D01*
X60931500Y-49333321D02*
X60931500Y-49637879D01*
X60931500Y-49333321D02*
X60931500Y-49333321D01*
X61072921Y-49191900D02*
X60931500Y-49333321D01*
X61072921Y-49191900D02*
X61072921Y-49191900D01*
X61377479Y-49191900D02*
X61072921Y-49191900D01*
X61377479Y-49191900D02*
X61377479Y-49191900D01*
X61518900Y-49333321D02*
X61377479Y-49191900D01*
X61518900Y-49333321D02*
X61518900Y-49333321D01*
X61518900Y-49637879D02*
X61518900Y-49333321D01*
X61518900Y-49637879D02*
X61518900Y-49637879D01*
X61377479Y-49779300D02*
X61518900Y-49637879D01*
X61377479Y-49779300D02*
X61377479Y-49779300D01*
X61072921Y-49779300D02*
X61377479Y-49779300D01*
X61072921Y-49779300D02*
X61072921Y-49779300D01*
X60931500Y-49637879D02*
X61072921Y-49779300D01*
X60931500Y-49637879D02*
X60931500Y-49637879D01*
X60144100Y-49333321D02*
X60144100Y-49637879D01*
X60144100Y-49333321D02*
X60144100Y-49333321D01*
X60285521Y-49191900D02*
X60144100Y-49333321D01*
X60285521Y-49191900D02*
X60285521Y-49191900D01*
X60590079Y-49191900D02*
X60285521Y-49191900D01*
X60590079Y-49191900D02*
X60590079Y-49191900D01*
X60731500Y-49333321D02*
X60590079Y-49191900D01*
X60731500Y-49333321D02*
X60731500Y-49333321D01*
X60731500Y-49637879D02*
X60731500Y-49333321D01*
X60731500Y-49637879D02*
X60731500Y-49637879D01*
X60590079Y-49779300D02*
X60731500Y-49637879D01*
X60590079Y-49779300D02*
X60590079Y-49779300D01*
X60285521Y-49779300D02*
X60590079Y-49779300D01*
X60285521Y-49779300D02*
X60285521Y-49779300D01*
X60144100Y-49637879D02*
X60285521Y-49779300D01*
X60144100Y-49637879D02*
X60144100Y-49637879D01*
X59356700Y-49333321D02*
X59356700Y-49637879D01*
X59356700Y-49333321D02*
X59356700Y-49333321D01*
X59498121Y-49191900D02*
X59356700Y-49333321D01*
X59498121Y-49191900D02*
X59498121Y-49191900D01*
X59802679Y-49191900D02*
X59498121Y-49191900D01*
X59802679Y-49191900D02*
X59802679Y-49191900D01*
X59944100Y-49333321D02*
X59802679Y-49191900D01*
X59944100Y-49333321D02*
X59944100Y-49333321D01*
X59944100Y-49637879D02*
X59944100Y-49333321D01*
X59944100Y-49637879D02*
X59944100Y-49637879D01*
X59802679Y-49779300D02*
X59944100Y-49637879D01*
X59802679Y-49779300D02*
X59802679Y-49779300D01*
X59498121Y-49779300D02*
X59802679Y-49779300D01*
X59498121Y-49779300D02*
X59498121Y-49779300D01*
X59356700Y-49637879D02*
X59498121Y-49779300D01*
X59356700Y-49637879D02*
X59356700Y-49637879D01*
X58787730Y-49191900D02*
X58787730Y-49779300D01*
X59015279Y-49191900D02*
X58787730Y-49191900D01*
X59015279Y-49191900D02*
X59015279Y-49191900D01*
X59156700Y-49333321D02*
X59015279Y-49191900D01*
X59156700Y-49333321D02*
X59156700Y-49333321D01*
X59156700Y-49637879D02*
X59156700Y-49333321D01*
X59156700Y-49637879D02*
X59156700Y-49637879D01*
X59015279Y-49779300D02*
X59156700Y-49637879D01*
X59015279Y-49779300D02*
X59015279Y-49779300D01*
X58787730Y-49779300D02*
X59015279Y-49779300D01*
X61718900Y-50120721D02*
X61718900Y-50425279D01*
X61718900Y-50120721D02*
X61718900Y-50120721D01*
X61860321Y-49979300D02*
X61718900Y-50120721D01*
X61860321Y-49979300D02*
X61860321Y-49979300D01*
X62087870Y-49979300D02*
X61860321Y-49979300D01*
X62087870Y-50566700D02*
X62087870Y-49979300D01*
X61860321Y-50566700D02*
X62087870Y-50566700D01*
X61860321Y-50566700D02*
X61860321Y-50566700D01*
X61718900Y-50425279D02*
X61860321Y-50566700D01*
X61718900Y-50425279D02*
X61718900Y-50425279D01*
X60931500Y-50120721D02*
X60931500Y-50425279D01*
X60931500Y-50120721D02*
X60931500Y-50120721D01*
X61072921Y-49979300D02*
X60931500Y-50120721D01*
X61072921Y-49979300D02*
X61072921Y-49979300D01*
X61377479Y-49979300D02*
X61072921Y-49979300D01*
X61377479Y-49979300D02*
X61377479Y-49979300D01*
X61518900Y-50120721D02*
X61377479Y-49979300D01*
X61518900Y-50120721D02*
X61518900Y-50120721D01*
X61518900Y-50425279D02*
X61518900Y-50120721D01*
X61518900Y-50425279D02*
X61518900Y-50425279D01*
X61377479Y-50566700D02*
X61518900Y-50425279D01*
X61377479Y-50566700D02*
X61377479Y-50566700D01*
X61072921Y-50566700D02*
X61377479Y-50566700D01*
X61072921Y-50566700D02*
X61072921Y-50566700D01*
X60931500Y-50425279D02*
X61072921Y-50566700D01*
X60931500Y-50425279D02*
X60931500Y-50425279D01*
X60144100Y-50120721D02*
X60144100Y-50425279D01*
X60144100Y-50120721D02*
X60144100Y-50120721D01*
X60285521Y-49979300D02*
X60144100Y-50120721D01*
X60285521Y-49979300D02*
X60285521Y-49979300D01*
X60590079Y-49979300D02*
X60285521Y-49979300D01*
X60590079Y-49979300D02*
X60590079Y-49979300D01*
X60731500Y-50120721D02*
X60590079Y-49979300D01*
X60731500Y-50120721D02*
X60731500Y-50120721D01*
X60731500Y-50425279D02*
X60731500Y-50120721D01*
X60731500Y-50425279D02*
X60731500Y-50425279D01*
X60590079Y-50566700D02*
X60731500Y-50425279D01*
X60590079Y-50566700D02*
X60590079Y-50566700D01*
X60285521Y-50566700D02*
X60590079Y-50566700D01*
X60285521Y-50566700D02*
X60285521Y-50566700D01*
X60144100Y-50425279D02*
X60285521Y-50566700D01*
X60144100Y-50425279D02*
X60144100Y-50425279D01*
X59356700Y-50120721D02*
X59356700Y-50425279D01*
X59356700Y-50120721D02*
X59356700Y-50120721D01*
X59498121Y-49979300D02*
X59356700Y-50120721D01*
X59498121Y-49979300D02*
X59498121Y-49979300D01*
X59802679Y-49979300D02*
X59498121Y-49979300D01*
X59802679Y-49979300D02*
X59802679Y-49979300D01*
X59944100Y-50120721D02*
X59802679Y-49979300D01*
X59944100Y-50120721D02*
X59944100Y-50120721D01*
X59944100Y-50425279D02*
X59944100Y-50120721D01*
X59944100Y-50425279D02*
X59944100Y-50425279D01*
X59802679Y-50566700D02*
X59944100Y-50425279D01*
X59802679Y-50566700D02*
X59802679Y-50566700D01*
X59498121Y-50566700D02*
X59802679Y-50566700D01*
X59498121Y-50566700D02*
X59498121Y-50566700D01*
X59356700Y-50425279D02*
X59498121Y-50566700D01*
X59356700Y-50425279D02*
X59356700Y-50425279D01*
X58787730Y-49979300D02*
X58787730Y-50566700D01*
X59015279Y-49979300D02*
X58787730Y-49979300D01*
X59015279Y-49979300D02*
X59015279Y-49979300D01*
X59156700Y-50120721D02*
X59015279Y-49979300D01*
X59156700Y-50120721D02*
X59156700Y-50120721D01*
X59156700Y-50425279D02*
X59156700Y-50120721D01*
X59156700Y-50425279D02*
X59156700Y-50425279D01*
X59015279Y-50566700D02*
X59156700Y-50425279D01*
X59015279Y-50566700D02*
X59015279Y-50566700D01*
X58787730Y-50566700D02*
X59015279Y-50566700D01*
X61718900Y-50908121D02*
X61718900Y-51135670D01*
X61718900Y-50908121D02*
X61718900Y-50908121D01*
X61860321Y-50766700D02*
X61718900Y-50908121D01*
X61860321Y-50766700D02*
X61860321Y-50766700D01*
X62087870Y-50766700D02*
X61860321Y-50766700D01*
X62087870Y-51135670D02*
X62087870Y-50766700D01*
X61718900Y-51135670D02*
X62087870Y-51135670D01*
X60931500Y-50908121D02*
X60931500Y-51135670D01*
X60931500Y-50908121D02*
X60931500Y-50908121D01*
X61072921Y-50766700D02*
X60931500Y-50908121D01*
X61072921Y-50766700D02*
X61072921Y-50766700D01*
X61377479Y-50766700D02*
X61072921Y-50766700D01*
X61377479Y-50766700D02*
X61377479Y-50766700D01*
X61518900Y-50908121D02*
X61377479Y-50766700D01*
X61518900Y-50908121D02*
X61518900Y-50908121D01*
X61518900Y-51135670D02*
X61518900Y-50908121D01*
X60931500Y-51135670D02*
X61518900Y-51135670D01*
X60144100Y-50908121D02*
X60144100Y-51135670D01*
X60144100Y-50908121D02*
X60144100Y-50908121D01*
X60285521Y-50766700D02*
X60144100Y-50908121D01*
X60285521Y-50766700D02*
X60285521Y-50766700D01*
X60590079Y-50766700D02*
X60285521Y-50766700D01*
X60590079Y-50766700D02*
X60590079Y-50766700D01*
X60731500Y-50908121D02*
X60590079Y-50766700D01*
X60731500Y-50908121D02*
X60731500Y-50908121D01*
X60731500Y-51135670D02*
X60731500Y-50908121D01*
X60144100Y-51135670D02*
X60731500Y-51135670D01*
X59356700Y-50908121D02*
X59356700Y-51135670D01*
X59356700Y-50908121D02*
X59356700Y-50908121D01*
X59498121Y-50766700D02*
X59356700Y-50908121D01*
X59498121Y-50766700D02*
X59498121Y-50766700D01*
X59802679Y-50766700D02*
X59498121Y-50766700D01*
X59802679Y-50766700D02*
X59802679Y-50766700D01*
X59944100Y-50908121D02*
X59802679Y-50766700D01*
X59944100Y-50908121D02*
X59944100Y-50908121D01*
X59944100Y-51135670D02*
X59944100Y-50908121D01*
X59356700Y-51135670D02*
X59944100Y-51135670D01*
X58787730Y-50766700D02*
X58787730Y-51135670D01*
X59015279Y-50766700D02*
X58787730Y-50766700D01*
X59015279Y-50766700D02*
X59015279Y-50766700D01*
X59156700Y-50908121D02*
X59015279Y-50766700D01*
X59156700Y-50908121D02*
X59156700Y-50908121D01*
X59156700Y-51135670D02*
X59156700Y-50908121D01*
X58787730Y-51135670D02*
X59156700Y-51135670D01*
%TD*%
D11*
%TO.C,U2*%
X60437800Y-49485600D03*
D12*
X57962801Y-51236041D03*
X57962801Y-50735915D03*
X57962801Y-50235789D03*
X57962801Y-49735663D03*
X57962801Y-49235537D03*
X57962801Y-48735411D03*
X57962801Y-48235285D03*
X57962801Y-47735159D03*
D13*
X58687801Y-47010601D03*
X59187800Y-47010601D03*
X59687799Y-47010601D03*
X60187800Y-47010601D03*
X60687800Y-47010601D03*
X61187801Y-47010601D03*
X61687800Y-47010601D03*
X62187799Y-47010601D03*
D12*
X62912799Y-47735159D03*
X62912799Y-48235285D03*
X62912799Y-48735411D03*
X62912799Y-49235537D03*
X62912799Y-49735663D03*
X62912799Y-50235789D03*
X62912799Y-50735915D03*
X62912799Y-51236041D03*
D13*
X62187799Y-51960599D03*
X61687800Y-51960599D03*
X61187801Y-51960599D03*
X60687800Y-51960599D03*
X60187800Y-51960599D03*
X59687799Y-51960599D03*
X59187800Y-51960599D03*
X58687801Y-51960599D03*
%TD*%
D14*
%TO.C,Y1*%
X119179800Y-68446300D03*
X119179800Y-70646300D03*
X120779800Y-70646300D03*
X120779800Y-68446300D03*
%TD*%
%TO.C,X1*%
G36*
G01*
X55032880Y-55283680D02*
X55032880Y-54783680D01*
G75*
G02*
X55232880Y-54583680I200000J0D01*
G01*
X55632880Y-54583680D01*
G75*
G02*
X55832880Y-54783680I0J-200000D01*
G01*
X55832880Y-55283680D01*
G75*
G02*
X55632880Y-55483680I-200000J0D01*
G01*
X55232880Y-55483680D01*
G75*
G02*
X55032880Y-55283680I0J200000D01*
G01*
G37*
G36*
G01*
X53582880Y-55283680D02*
X53582880Y-54783680D01*
G75*
G02*
X53782880Y-54583680I200000J0D01*
G01*
X54182880Y-54583680D01*
G75*
G02*
X54382880Y-54783680I0J-200000D01*
G01*
X54382880Y-55283680D01*
G75*
G02*
X54182880Y-55483680I-200000J0D01*
G01*
X53782880Y-55483680D01*
G75*
G02*
X53582880Y-55283680I0J200000D01*
G01*
G37*
G36*
G01*
X55032880Y-53433680D02*
X55032880Y-52933680D01*
G75*
G02*
X55232880Y-52733680I200000J0D01*
G01*
X55632880Y-52733680D01*
G75*
G02*
X55832880Y-52933680I0J-200000D01*
G01*
X55832880Y-53433680D01*
G75*
G02*
X55632880Y-53633680I-200000J0D01*
G01*
X55232880Y-53633680D01*
G75*
G02*
X55032880Y-53433680I0J200000D01*
G01*
G37*
G36*
G01*
X53582880Y-53433680D02*
X53582880Y-52933680D01*
G75*
G02*
X53782880Y-52733680I200000J0D01*
G01*
X54182880Y-52733680D01*
G75*
G02*
X54382880Y-52933680I0J-200000D01*
G01*
X54382880Y-53433680D01*
G75*
G02*
X54182880Y-53633680I-200000J0D01*
G01*
X53782880Y-53633680D01*
G75*
G02*
X53582880Y-53433680I0J200000D01*
G01*
G37*
%TD*%
D15*
%TO.C,U9*%
X42455200Y-84811300D03*
X43405200Y-86811300D03*
X41505200Y-86811300D03*
%TD*%
D16*
%TO.C,U8*%
X48975200Y-82061300D03*
X58175200Y-82061300D03*
X48975200Y-79521300D03*
X58175200Y-79521300D03*
%TD*%
%TO.C,U7*%
G36*
G01*
X73910200Y-83171300D02*
X73910200Y-82971300D01*
G75*
G02*
X74010200Y-82871300I100000J0D01*
G01*
X75285200Y-82871300D01*
G75*
G02*
X75385200Y-82971300I0J-100000D01*
G01*
X75385200Y-83171300D01*
G75*
G02*
X75285200Y-83271300I-100000J0D01*
G01*
X74010200Y-83271300D01*
G75*
G02*
X73910200Y-83171300I0J100000D01*
G01*
G37*
G36*
G01*
X73910200Y-83821300D02*
X73910200Y-83621300D01*
G75*
G02*
X74010200Y-83521300I100000J0D01*
G01*
X75285200Y-83521300D01*
G75*
G02*
X75385200Y-83621300I0J-100000D01*
G01*
X75385200Y-83821300D01*
G75*
G02*
X75285200Y-83921300I-100000J0D01*
G01*
X74010200Y-83921300D01*
G75*
G02*
X73910200Y-83821300I0J100000D01*
G01*
G37*
G36*
G01*
X73910200Y-84471300D02*
X73910200Y-84271300D01*
G75*
G02*
X74010200Y-84171300I100000J0D01*
G01*
X75285200Y-84171300D01*
G75*
G02*
X75385200Y-84271300I0J-100000D01*
G01*
X75385200Y-84471300D01*
G75*
G02*
X75285200Y-84571300I-100000J0D01*
G01*
X74010200Y-84571300D01*
G75*
G02*
X73910200Y-84471300I0J100000D01*
G01*
G37*
G36*
G01*
X73910200Y-85121300D02*
X73910200Y-84921300D01*
G75*
G02*
X74010200Y-84821300I100000J0D01*
G01*
X75285200Y-84821300D01*
G75*
G02*
X75385200Y-84921300I0J-100000D01*
G01*
X75385200Y-85121300D01*
G75*
G02*
X75285200Y-85221300I-100000J0D01*
G01*
X74010200Y-85221300D01*
G75*
G02*
X73910200Y-85121300I0J100000D01*
G01*
G37*
G36*
G01*
X73910200Y-85771300D02*
X73910200Y-85571300D01*
G75*
G02*
X74010200Y-85471300I100000J0D01*
G01*
X75285200Y-85471300D01*
G75*
G02*
X75385200Y-85571300I0J-100000D01*
G01*
X75385200Y-85771300D01*
G75*
G02*
X75285200Y-85871300I-100000J0D01*
G01*
X74010200Y-85871300D01*
G75*
G02*
X73910200Y-85771300I0J100000D01*
G01*
G37*
G36*
G01*
X73910200Y-86421300D02*
X73910200Y-86221300D01*
G75*
G02*
X74010200Y-86121300I100000J0D01*
G01*
X75285200Y-86121300D01*
G75*
G02*
X75385200Y-86221300I0J-100000D01*
G01*
X75385200Y-86421300D01*
G75*
G02*
X75285200Y-86521300I-100000J0D01*
G01*
X74010200Y-86521300D01*
G75*
G02*
X73910200Y-86421300I0J100000D01*
G01*
G37*
G36*
G01*
X73910200Y-87071300D02*
X73910200Y-86871300D01*
G75*
G02*
X74010200Y-86771300I100000J0D01*
G01*
X75285200Y-86771300D01*
G75*
G02*
X75385200Y-86871300I0J-100000D01*
G01*
X75385200Y-87071300D01*
G75*
G02*
X75285200Y-87171300I-100000J0D01*
G01*
X74010200Y-87171300D01*
G75*
G02*
X73910200Y-87071300I0J100000D01*
G01*
G37*
G36*
G01*
X68185200Y-87071300D02*
X68185200Y-86871300D01*
G75*
G02*
X68285200Y-86771300I100000J0D01*
G01*
X69560200Y-86771300D01*
G75*
G02*
X69660200Y-86871300I0J-100000D01*
G01*
X69660200Y-87071300D01*
G75*
G02*
X69560200Y-87171300I-100000J0D01*
G01*
X68285200Y-87171300D01*
G75*
G02*
X68185200Y-87071300I0J100000D01*
G01*
G37*
G36*
G01*
X68185200Y-86421300D02*
X68185200Y-86221300D01*
G75*
G02*
X68285200Y-86121300I100000J0D01*
G01*
X69560200Y-86121300D01*
G75*
G02*
X69660200Y-86221300I0J-100000D01*
G01*
X69660200Y-86421300D01*
G75*
G02*
X69560200Y-86521300I-100000J0D01*
G01*
X68285200Y-86521300D01*
G75*
G02*
X68185200Y-86421300I0J100000D01*
G01*
G37*
G36*
G01*
X68185200Y-85771300D02*
X68185200Y-85571300D01*
G75*
G02*
X68285200Y-85471300I100000J0D01*
G01*
X69560200Y-85471300D01*
G75*
G02*
X69660200Y-85571300I0J-100000D01*
G01*
X69660200Y-85771300D01*
G75*
G02*
X69560200Y-85871300I-100000J0D01*
G01*
X68285200Y-85871300D01*
G75*
G02*
X68185200Y-85771300I0J100000D01*
G01*
G37*
G36*
G01*
X68185200Y-85121300D02*
X68185200Y-84921300D01*
G75*
G02*
X68285200Y-84821300I100000J0D01*
G01*
X69560200Y-84821300D01*
G75*
G02*
X69660200Y-84921300I0J-100000D01*
G01*
X69660200Y-85121300D01*
G75*
G02*
X69560200Y-85221300I-100000J0D01*
G01*
X68285200Y-85221300D01*
G75*
G02*
X68185200Y-85121300I0J100000D01*
G01*
G37*
G36*
G01*
X68185200Y-84471300D02*
X68185200Y-84271300D01*
G75*
G02*
X68285200Y-84171300I100000J0D01*
G01*
X69560200Y-84171300D01*
G75*
G02*
X69660200Y-84271300I0J-100000D01*
G01*
X69660200Y-84471300D01*
G75*
G02*
X69560200Y-84571300I-100000J0D01*
G01*
X68285200Y-84571300D01*
G75*
G02*
X68185200Y-84471300I0J100000D01*
G01*
G37*
G36*
G01*
X68185200Y-83821300D02*
X68185200Y-83621300D01*
G75*
G02*
X68285200Y-83521300I100000J0D01*
G01*
X69560200Y-83521300D01*
G75*
G02*
X69660200Y-83621300I0J-100000D01*
G01*
X69660200Y-83821300D01*
G75*
G02*
X69560200Y-83921300I-100000J0D01*
G01*
X68285200Y-83921300D01*
G75*
G02*
X68185200Y-83821300I0J100000D01*
G01*
G37*
G36*
G01*
X68185200Y-83171300D02*
X68185200Y-82971300D01*
G75*
G02*
X68285200Y-82871300I100000J0D01*
G01*
X69560200Y-82871300D01*
G75*
G02*
X69660200Y-82971300I0J-100000D01*
G01*
X69660200Y-83171300D01*
G75*
G02*
X69560200Y-83271300I-100000J0D01*
G01*
X68285200Y-83271300D01*
G75*
G02*
X68185200Y-83171300I0J100000D01*
G01*
G37*
%TD*%
D17*
%TO.C,U6*%
X83545200Y-100481300D03*
X90045200Y-100481300D03*
X83545200Y-97941300D03*
X90045200Y-97941300D03*
%TD*%
%TO.C,U5*%
X83575200Y-93191300D03*
X90075200Y-93191300D03*
X83575200Y-90651300D03*
X90075200Y-90651300D03*
%TD*%
D18*
%TO.C,U4*%
X51832120Y-60525940D03*
X53732120Y-60525940D03*
X53732120Y-63225940D03*
X52782120Y-63225940D03*
X51832120Y-63225940D03*
%TD*%
D19*
%TO.C,U3*%
G36*
X95208996Y-68945296D02*
G01*
X95408996Y-68745296D01*
X95408998Y-68745295D01*
X95809002Y-68745295D01*
X95809005Y-68745298D01*
X95809005Y-69665302D01*
X95809002Y-69665305D01*
X95208998Y-69665305D01*
X95208995Y-69665302D01*
X95208995Y-68945298D01*
X95208996Y-68945296D01*
G37*
G36*
X94978504Y-65714796D02*
G01*
X95178504Y-65914796D01*
X95178505Y-65914798D01*
X95178505Y-66314802D01*
X95178502Y-66314805D01*
X94258498Y-66314805D01*
X94258495Y-66314802D01*
X94258495Y-65714798D01*
X94258498Y-65714795D01*
X94978502Y-65714795D01*
X94978504Y-65714796D01*
G37*
G36*
X98209004Y-65484304D02*
G01*
X98009004Y-65684304D01*
X98009002Y-65684305D01*
X97608998Y-65684305D01*
X97608995Y-65684302D01*
X97608995Y-64764298D01*
X97608998Y-64764295D01*
X98209002Y-64764295D01*
X98209005Y-64764298D01*
X98209005Y-65484302D01*
X98209004Y-65484304D01*
G37*
G36*
X95208998Y-64764295D02*
G01*
X95809002Y-64764295D01*
X95809005Y-64764298D01*
X95809005Y-65684302D01*
X95809002Y-65684305D01*
X95408998Y-65684305D01*
X95408996Y-65684304D01*
X95208996Y-65484304D01*
X95208995Y-65484302D01*
X95208995Y-64764298D01*
X95208998Y-64764295D01*
G37*
G36*
X94258495Y-68714802D02*
G01*
X94258495Y-68114798D01*
X94258498Y-68114795D01*
X95178502Y-68114795D01*
X95178505Y-68114798D01*
X95178505Y-68514802D01*
X95178504Y-68514804D01*
X94978504Y-68714804D01*
X94978502Y-68714805D01*
X94258498Y-68714805D01*
X94258495Y-68714802D01*
G37*
G36*
X99159505Y-65714798D02*
G01*
X99159505Y-66314802D01*
X99159502Y-66314805D01*
X98239498Y-66314805D01*
X98239495Y-66314802D01*
X98239495Y-65914798D01*
X98239496Y-65914796D01*
X98439496Y-65714796D01*
X98439498Y-65714795D01*
X99159502Y-65714795D01*
X99159505Y-65714798D01*
G37*
G36*
X98439496Y-68714804D02*
G01*
X98239496Y-68514804D01*
X98239495Y-68514802D01*
X98239495Y-68114798D01*
X98239498Y-68114795D01*
X99159502Y-68114795D01*
X99159505Y-68114798D01*
X99159505Y-68714802D01*
X99159502Y-68714805D01*
X98439498Y-68714805D01*
X98439496Y-68714804D01*
G37*
G36*
X98209002Y-69665305D02*
G01*
X97608998Y-69665305D01*
X97608995Y-69665302D01*
X97608995Y-68745298D01*
X97608998Y-68745295D01*
X98009002Y-68745295D01*
X98009004Y-68745296D01*
X98209004Y-68945296D01*
X98209005Y-68945298D01*
X98209005Y-69665302D01*
X98209002Y-69665305D01*
G37*
D20*
X96709000Y-67214800D03*
D21*
X94721000Y-66814800D03*
X94721000Y-67614800D03*
D22*
X96309000Y-69202800D03*
X97109000Y-69202800D03*
D21*
X98697000Y-67614800D03*
X98697000Y-66814800D03*
D22*
X97109000Y-65226800D03*
X96309000Y-65226800D03*
%TD*%
D23*
%TO.C,U1*%
X116694799Y-71965399D03*
X116194800Y-71965399D03*
X115194799Y-71965399D03*
X114694800Y-71965399D03*
X113694800Y-71965399D03*
X113194798Y-71965399D03*
X112194800Y-71965399D03*
X111694798Y-71965399D03*
X110694798Y-71965399D03*
X110194799Y-71965399D03*
X109194798Y-71965399D03*
X108694799Y-71965399D03*
X108194798Y-71965399D03*
X107694799Y-71965399D03*
X116694799Y-71465400D03*
X116194800Y-71465400D03*
X115694798Y-71465400D03*
X115194799Y-71465400D03*
X114694800Y-71465400D03*
X114194799Y-71465400D03*
X113694800Y-71465400D03*
X113194798Y-71465400D03*
X112694799Y-71465400D03*
X112194800Y-71465400D03*
X111694798Y-71465400D03*
X111194799Y-71465400D03*
X110694798Y-71465400D03*
X110194799Y-71465400D03*
X109694800Y-71465400D03*
X109194798Y-71465400D03*
X108694799Y-71465400D03*
X108194798Y-71465400D03*
X107694799Y-71465400D03*
X116694799Y-70965398D03*
X116194800Y-70965398D03*
X114694800Y-70965398D03*
X114194799Y-70965398D03*
X113194798Y-70965398D03*
X112194800Y-70965398D03*
X111194799Y-70965398D03*
X110194799Y-70965398D03*
X109694800Y-70965398D03*
X108194798Y-70965398D03*
X116694799Y-70465399D03*
X116194800Y-70465399D03*
X114194799Y-70465399D03*
X113694800Y-70465399D03*
X113194798Y-70465399D03*
X111194799Y-70465399D03*
X110694798Y-70465399D03*
X110194799Y-70465399D03*
X108194798Y-70465399D03*
X107694799Y-70465399D03*
X116194800Y-69965400D03*
X115694798Y-69965400D03*
X113694800Y-69965400D03*
X112194800Y-69965400D03*
X110694798Y-69965400D03*
X108694799Y-69965400D03*
X108194798Y-69965400D03*
X107694799Y-69965400D03*
X116694799Y-69465399D03*
X116194800Y-69465399D03*
X115694798Y-69465399D03*
X115194799Y-69465399D03*
X112194800Y-69465399D03*
X109194798Y-69465399D03*
X108694799Y-69465399D03*
X108194798Y-69465399D03*
X116694799Y-68965400D03*
X116194800Y-68965400D03*
X115194799Y-68965400D03*
X114694800Y-68965400D03*
X112194800Y-68965400D03*
X109694800Y-68965400D03*
X109194798Y-68965400D03*
X108194798Y-68965400D03*
X107694799Y-68965400D03*
X116194800Y-68465398D03*
X115694798Y-68465398D03*
X115194799Y-68465398D03*
X113194798Y-68465398D03*
X112694799Y-68465398D03*
X112194800Y-68465398D03*
X111694798Y-68465398D03*
X111194799Y-68465398D03*
X109194798Y-68465398D03*
X108694799Y-68465398D03*
X108194798Y-68465398D03*
X107694799Y-68465398D03*
X116694799Y-67965399D03*
X116194800Y-67965399D03*
X113194798Y-67965399D03*
X112694799Y-67965399D03*
X112194800Y-67965399D03*
X111694798Y-67965399D03*
X111194799Y-67965399D03*
X108194798Y-67965399D03*
X116694799Y-67465400D03*
X116194800Y-67465400D03*
X115694798Y-67465400D03*
X114694800Y-67465400D03*
X114194799Y-67465400D03*
X113694800Y-67465400D03*
X113194798Y-67465400D03*
X112694799Y-67465400D03*
X112194800Y-67465400D03*
X111694798Y-67465400D03*
X111194799Y-67465400D03*
X110694798Y-67465400D03*
X110194799Y-67465400D03*
X109694800Y-67465400D03*
X108694799Y-67465400D03*
X108194798Y-67465400D03*
X107694799Y-67465400D03*
X116194800Y-66965398D03*
X113194798Y-66965398D03*
X112694799Y-66965398D03*
X112194800Y-66965398D03*
X111694798Y-66965398D03*
X111194799Y-66965398D03*
X108194798Y-66965398D03*
X107694799Y-66965398D03*
X116694799Y-66465399D03*
X116194800Y-66465399D03*
X115694798Y-66465399D03*
X115194799Y-66465399D03*
X113194798Y-66465399D03*
X112694799Y-66465399D03*
X112194800Y-66465399D03*
X111694798Y-66465399D03*
X109194798Y-66465399D03*
X108694799Y-66465399D03*
X108194798Y-66465399D03*
X116694799Y-65965398D03*
X116194800Y-65965398D03*
X115194799Y-65965398D03*
X114694800Y-65965398D03*
X112194800Y-65965398D03*
X109694800Y-65965398D03*
X109194798Y-65965398D03*
X108194798Y-65965398D03*
X107694799Y-65965398D03*
X116194800Y-65465399D03*
X115694798Y-65465399D03*
X115194799Y-65465399D03*
X112194800Y-65465399D03*
X109194798Y-65465399D03*
X108694799Y-65465399D03*
X108194798Y-65465399D03*
X107694799Y-65465399D03*
X116694799Y-64965400D03*
X116194800Y-64965400D03*
X115694798Y-64965400D03*
X113694800Y-64965400D03*
X112194800Y-64965400D03*
X110694798Y-64965400D03*
X108694799Y-64965400D03*
X108194798Y-64965400D03*
X116694799Y-64465398D03*
X116194800Y-64465398D03*
X114194799Y-64465398D03*
X113694800Y-64465398D03*
X113194798Y-64465398D03*
X111194799Y-64465398D03*
X110694798Y-64465398D03*
X110194799Y-64465398D03*
X108194798Y-64465398D03*
X107694799Y-64465398D03*
X116194800Y-63965399D03*
X114694800Y-63965399D03*
X114194799Y-63965399D03*
X113194798Y-63965399D03*
X112194800Y-63965399D03*
X111194799Y-63965399D03*
X110194799Y-63965399D03*
X109694800Y-63965399D03*
X108194798Y-63965399D03*
X107694799Y-63965399D03*
X116694799Y-63465398D03*
X116194800Y-63465398D03*
X115694798Y-63465398D03*
X115194799Y-63465398D03*
X114694800Y-63465398D03*
X114194799Y-63465398D03*
X113694800Y-63465398D03*
X113194798Y-63465398D03*
X112694799Y-63465398D03*
X112194800Y-63465398D03*
X111694798Y-63465398D03*
X111194799Y-63465398D03*
X110694798Y-63465398D03*
X110194799Y-63465398D03*
X109694800Y-63465398D03*
X109194798Y-63465398D03*
X108694799Y-63465398D03*
X108194798Y-63465398D03*
X107694799Y-63465398D03*
X116694799Y-62965399D03*
X116194800Y-62965399D03*
X115694798Y-62965399D03*
X115194799Y-62965399D03*
X114194799Y-62965399D03*
X113694800Y-62965399D03*
X112694799Y-62965399D03*
X112194800Y-62965399D03*
X111194799Y-62965399D03*
X110694798Y-62965399D03*
X109694800Y-62965399D03*
X109194798Y-62965399D03*
X108194798Y-62965399D03*
X107694799Y-62965399D03*
%TD*%
D24*
%TO.C,T1*%
X49820200Y-91051300D03*
X49820200Y-93551300D03*
X49820200Y-96051300D03*
X49820200Y-98551300D03*
X49820200Y-101051300D03*
X64810200Y-101051300D03*
X64810200Y-98551300D03*
X64810200Y-96051300D03*
X64810200Y-93551300D03*
X64810200Y-91051300D03*
%TD*%
%TO.C,R30*%
G36*
G01*
X120591300Y-79988601D02*
X120591300Y-79088599D01*
G75*
G02*
X120841299Y-78838600I249999J0D01*
G01*
X121366301Y-78838600D01*
G75*
G02*
X121616300Y-79088599I0J-249999D01*
G01*
X121616300Y-79988601D01*
G75*
G02*
X121366301Y-80238600I-249999J0D01*
G01*
X120841299Y-80238600D01*
G75*
G02*
X120591300Y-79988601I0J249999D01*
G01*
G37*
G36*
G01*
X118766300Y-79988601D02*
X118766300Y-79088599D01*
G75*
G02*
X119016299Y-78838600I249999J0D01*
G01*
X119541301Y-78838600D01*
G75*
G02*
X119791300Y-79088599I0J-249999D01*
G01*
X119791300Y-79988601D01*
G75*
G02*
X119541301Y-80238600I-249999J0D01*
G01*
X119016299Y-80238600D01*
G75*
G02*
X118766300Y-79988601I0J249999D01*
G01*
G37*
%TD*%
%TO.C,R29*%
G36*
G01*
X39275199Y-86613800D02*
X40175201Y-86613800D01*
G75*
G02*
X40425200Y-86863799I0J-249999D01*
G01*
X40425200Y-87388801D01*
G75*
G02*
X40175201Y-87638800I-249999J0D01*
G01*
X39275199Y-87638800D01*
G75*
G02*
X39025200Y-87388801I0J249999D01*
G01*
X39025200Y-86863799D01*
G75*
G02*
X39275199Y-86613800I249999J0D01*
G01*
G37*
G36*
G01*
X39275199Y-84788800D02*
X40175201Y-84788800D01*
G75*
G02*
X40425200Y-85038799I0J-249999D01*
G01*
X40425200Y-85563801D01*
G75*
G02*
X40175201Y-85813800I-249999J0D01*
G01*
X39275199Y-85813800D01*
G75*
G02*
X39025200Y-85563801I0J249999D01*
G01*
X39025200Y-85038799D01*
G75*
G02*
X39275199Y-84788800I249999J0D01*
G01*
G37*
%TD*%
%TO.C,R28*%
G36*
G01*
X39275199Y-90021300D02*
X40175201Y-90021300D01*
G75*
G02*
X40425200Y-90271299I0J-249999D01*
G01*
X40425200Y-90796301D01*
G75*
G02*
X40175201Y-91046300I-249999J0D01*
G01*
X39275199Y-91046300D01*
G75*
G02*
X39025200Y-90796301I0J249999D01*
G01*
X39025200Y-90271299D01*
G75*
G02*
X39275199Y-90021300I249999J0D01*
G01*
G37*
G36*
G01*
X39275199Y-88196300D02*
X40175201Y-88196300D01*
G75*
G02*
X40425200Y-88446299I0J-249999D01*
G01*
X40425200Y-88971301D01*
G75*
G02*
X40175201Y-89221300I-249999J0D01*
G01*
X39275199Y-89221300D01*
G75*
G02*
X39025200Y-88971301I0J249999D01*
G01*
X39025200Y-88446299D01*
G75*
G02*
X39275199Y-88196300I249999J0D01*
G01*
G37*
%TD*%
%TO.C,R27*%
G36*
G01*
X45645201Y-89461300D02*
X44745199Y-89461300D01*
G75*
G02*
X44495200Y-89211301I0J249999D01*
G01*
X44495200Y-88686299D01*
G75*
G02*
X44745199Y-88436300I249999J0D01*
G01*
X45645201Y-88436300D01*
G75*
G02*
X45895200Y-88686299I0J-249999D01*
G01*
X45895200Y-89211301D01*
G75*
G02*
X45645201Y-89461300I-249999J0D01*
G01*
G37*
G36*
G01*
X45645201Y-91286300D02*
X44745199Y-91286300D01*
G75*
G02*
X44495200Y-91036301I0J249999D01*
G01*
X44495200Y-90511299D01*
G75*
G02*
X44745199Y-90261300I249999J0D01*
G01*
X45645201Y-90261300D01*
G75*
G02*
X45895200Y-90511299I0J-249999D01*
G01*
X45895200Y-91036301D01*
G75*
G02*
X45645201Y-91286300I-249999J0D01*
G01*
G37*
%TD*%
%TO.C,R26*%
G36*
G01*
X37285199Y-90041300D02*
X38185201Y-90041300D01*
G75*
G02*
X38435200Y-90291299I0J-249999D01*
G01*
X38435200Y-90816301D01*
G75*
G02*
X38185201Y-91066300I-249999J0D01*
G01*
X37285199Y-91066300D01*
G75*
G02*
X37035200Y-90816301I0J249999D01*
G01*
X37035200Y-90291299D01*
G75*
G02*
X37285199Y-90041300I249999J0D01*
G01*
G37*
G36*
G01*
X37285199Y-88216300D02*
X38185201Y-88216300D01*
G75*
G02*
X38435200Y-88466299I0J-249999D01*
G01*
X38435200Y-88991301D01*
G75*
G02*
X38185201Y-89241300I-249999J0D01*
G01*
X37285199Y-89241300D01*
G75*
G02*
X37035200Y-88991301I0J249999D01*
G01*
X37035200Y-88466299D01*
G75*
G02*
X37285199Y-88216300I249999J0D01*
G01*
G37*
%TD*%
%TO.C,R25*%
G36*
G01*
X35305199Y-90041300D02*
X36205201Y-90041300D01*
G75*
G02*
X36455200Y-90291299I0J-249999D01*
G01*
X36455200Y-90816301D01*
G75*
G02*
X36205201Y-91066300I-249999J0D01*
G01*
X35305199Y-91066300D01*
G75*
G02*
X35055200Y-90816301I0J249999D01*
G01*
X35055200Y-90291299D01*
G75*
G02*
X35305199Y-90041300I249999J0D01*
G01*
G37*
G36*
G01*
X35305199Y-88216300D02*
X36205201Y-88216300D01*
G75*
G02*
X36455200Y-88466299I0J-249999D01*
G01*
X36455200Y-88991301D01*
G75*
G02*
X36205201Y-89241300I-249999J0D01*
G01*
X35305199Y-89241300D01*
G75*
G02*
X35055200Y-88991301I0J249999D01*
G01*
X35055200Y-88466299D01*
G75*
G02*
X35305199Y-88216300I249999J0D01*
G01*
G37*
%TD*%
%TO.C,R24*%
G36*
G01*
X71645200Y-100371299D02*
X71645200Y-101271301D01*
G75*
G02*
X71395201Y-101521300I-249999J0D01*
G01*
X70870199Y-101521300D01*
G75*
G02*
X70620200Y-101271301I0J249999D01*
G01*
X70620200Y-100371299D01*
G75*
G02*
X70870199Y-100121300I249999J0D01*
G01*
X71395201Y-100121300D01*
G75*
G02*
X71645200Y-100371299I0J-249999D01*
G01*
G37*
G36*
G01*
X73470200Y-100371299D02*
X73470200Y-101271301D01*
G75*
G02*
X73220201Y-101521300I-249999J0D01*
G01*
X72695199Y-101521300D01*
G75*
G02*
X72445200Y-101271301I0J249999D01*
G01*
X72445200Y-100371299D01*
G75*
G02*
X72695199Y-100121300I249999J0D01*
G01*
X73220201Y-100121300D01*
G75*
G02*
X73470200Y-100371299I0J-249999D01*
G01*
G37*
%TD*%
%TO.C,R23*%
G36*
G01*
X64505199Y-88461300D02*
X65405201Y-88461300D01*
G75*
G02*
X65655200Y-88711299I0J-249999D01*
G01*
X65655200Y-89236301D01*
G75*
G02*
X65405201Y-89486300I-249999J0D01*
G01*
X64505199Y-89486300D01*
G75*
G02*
X64255200Y-89236301I0J249999D01*
G01*
X64255200Y-88711299D01*
G75*
G02*
X64505199Y-88461300I249999J0D01*
G01*
G37*
G36*
G01*
X64505199Y-86636300D02*
X65405201Y-86636300D01*
G75*
G02*
X65655200Y-86886299I0J-249999D01*
G01*
X65655200Y-87411301D01*
G75*
G02*
X65405201Y-87661300I-249999J0D01*
G01*
X64505199Y-87661300D01*
G75*
G02*
X64255200Y-87411301I0J249999D01*
G01*
X64255200Y-86886299D01*
G75*
G02*
X64505199Y-86636300I249999J0D01*
G01*
G37*
%TD*%
%TO.C,R22*%
G36*
G01*
X67795200Y-102371299D02*
X67795200Y-103271301D01*
G75*
G02*
X67545201Y-103521300I-249999J0D01*
G01*
X67020199Y-103521300D01*
G75*
G02*
X66770200Y-103271301I0J249999D01*
G01*
X66770200Y-102371299D01*
G75*
G02*
X67020199Y-102121300I249999J0D01*
G01*
X67545201Y-102121300D01*
G75*
G02*
X67795200Y-102371299I0J-249999D01*
G01*
G37*
G36*
G01*
X69620200Y-102371299D02*
X69620200Y-103271301D01*
G75*
G02*
X69370201Y-103521300I-249999J0D01*
G01*
X68845199Y-103521300D01*
G75*
G02*
X68595200Y-103271301I0J249999D01*
G01*
X68595200Y-102371299D01*
G75*
G02*
X68845199Y-102121300I249999J0D01*
G01*
X69370201Y-102121300D01*
G75*
G02*
X69620200Y-102371299I0J-249999D01*
G01*
G37*
%TD*%
%TO.C,R21*%
G36*
G01*
X104486901Y-106057800D02*
X103586899Y-106057800D01*
G75*
G02*
X103336900Y-105807801I0J249999D01*
G01*
X103336900Y-105282799D01*
G75*
G02*
X103586899Y-105032800I249999J0D01*
G01*
X104486901Y-105032800D01*
G75*
G02*
X104736900Y-105282799I0J-249999D01*
G01*
X104736900Y-105807801D01*
G75*
G02*
X104486901Y-106057800I-249999J0D01*
G01*
G37*
G36*
G01*
X104486901Y-107882800D02*
X103586899Y-107882800D01*
G75*
G02*
X103336900Y-107632801I0J249999D01*
G01*
X103336900Y-107107799D01*
G75*
G02*
X103586899Y-106857800I249999J0D01*
G01*
X104486901Y-106857800D01*
G75*
G02*
X104736900Y-107107799I0J-249999D01*
G01*
X104736900Y-107632801D01*
G75*
G02*
X104486901Y-107882800I-249999J0D01*
G01*
G37*
%TD*%
%TO.C,R20*%
G36*
G01*
X123498801Y-106108600D02*
X122598799Y-106108600D01*
G75*
G02*
X122348800Y-105858601I0J249999D01*
G01*
X122348800Y-105333599D01*
G75*
G02*
X122598799Y-105083600I249999J0D01*
G01*
X123498801Y-105083600D01*
G75*
G02*
X123748800Y-105333599I0J-249999D01*
G01*
X123748800Y-105858601D01*
G75*
G02*
X123498801Y-106108600I-249999J0D01*
G01*
G37*
G36*
G01*
X123498801Y-107933600D02*
X122598799Y-107933600D01*
G75*
G02*
X122348800Y-107683601I0J249999D01*
G01*
X122348800Y-107158599D01*
G75*
G02*
X122598799Y-106908600I249999J0D01*
G01*
X123498801Y-106908600D01*
G75*
G02*
X123748800Y-107158599I0J-249999D01*
G01*
X123748800Y-107683601D01*
G75*
G02*
X123498801Y-107933600I-249999J0D01*
G01*
G37*
%TD*%
%TO.C,R19*%
G36*
G01*
X60845200Y-79121299D02*
X60845200Y-80021301D01*
G75*
G02*
X60595201Y-80271300I-249999J0D01*
G01*
X60070199Y-80271300D01*
G75*
G02*
X59820200Y-80021301I0J249999D01*
G01*
X59820200Y-79121299D01*
G75*
G02*
X60070199Y-78871300I249999J0D01*
G01*
X60595201Y-78871300D01*
G75*
G02*
X60845200Y-79121299I0J-249999D01*
G01*
G37*
G36*
G01*
X62670200Y-79121299D02*
X62670200Y-80021301D01*
G75*
G02*
X62420201Y-80271300I-249999J0D01*
G01*
X61895199Y-80271300D01*
G75*
G02*
X61645200Y-80021301I0J249999D01*
G01*
X61645200Y-79121299D01*
G75*
G02*
X61895199Y-78871300I249999J0D01*
G01*
X62420201Y-78871300D01*
G75*
G02*
X62670200Y-79121299I0J-249999D01*
G01*
G37*
%TD*%
%TO.C,R18*%
G36*
G01*
X57745200Y-105741299D02*
X57745200Y-106641301D01*
G75*
G02*
X57495201Y-106891300I-249999J0D01*
G01*
X56970199Y-106891300D01*
G75*
G02*
X56720200Y-106641301I0J249999D01*
G01*
X56720200Y-105741299D01*
G75*
G02*
X56970199Y-105491300I249999J0D01*
G01*
X57495201Y-105491300D01*
G75*
G02*
X57745200Y-105741299I0J-249999D01*
G01*
G37*
G36*
G01*
X59570200Y-105741299D02*
X59570200Y-106641301D01*
G75*
G02*
X59320201Y-106891300I-249999J0D01*
G01*
X58795199Y-106891300D01*
G75*
G02*
X58545200Y-106641301I0J249999D01*
G01*
X58545200Y-105741299D01*
G75*
G02*
X58795199Y-105491300I249999J0D01*
G01*
X59320201Y-105491300D01*
G75*
G02*
X59570200Y-105741299I0J-249999D01*
G01*
G37*
%TD*%
%TO.C,R17*%
G36*
G01*
X117149600Y-78007401D02*
X117149600Y-77107399D01*
G75*
G02*
X117399599Y-76857400I249999J0D01*
G01*
X117924601Y-76857400D01*
G75*
G02*
X118174600Y-77107399I0J-249999D01*
G01*
X118174600Y-78007401D01*
G75*
G02*
X117924601Y-78257400I-249999J0D01*
G01*
X117399599Y-78257400D01*
G75*
G02*
X117149600Y-78007401I0J249999D01*
G01*
G37*
G36*
G01*
X115324600Y-78007401D02*
X115324600Y-77107399D01*
G75*
G02*
X115574599Y-76857400I249999J0D01*
G01*
X116099601Y-76857400D01*
G75*
G02*
X116349600Y-77107399I0J-249999D01*
G01*
X116349600Y-78007401D01*
G75*
G02*
X116099601Y-78257400I-249999J0D01*
G01*
X115574599Y-78257400D01*
G75*
G02*
X115324600Y-78007401I0J249999D01*
G01*
G37*
%TD*%
%TO.C,R16*%
G36*
G01*
X109161300Y-90156501D02*
X109161300Y-89256499D01*
G75*
G02*
X109411299Y-89006500I249999J0D01*
G01*
X109936301Y-89006500D01*
G75*
G02*
X110186300Y-89256499I0J-249999D01*
G01*
X110186300Y-90156501D01*
G75*
G02*
X109936301Y-90406500I-249999J0D01*
G01*
X109411299Y-90406500D01*
G75*
G02*
X109161300Y-90156501I0J249999D01*
G01*
G37*
G36*
G01*
X107336300Y-90156501D02*
X107336300Y-89256499D01*
G75*
G02*
X107586299Y-89006500I249999J0D01*
G01*
X108111301Y-89006500D01*
G75*
G02*
X108361300Y-89256499I0J-249999D01*
G01*
X108361300Y-90156501D01*
G75*
G02*
X108111301Y-90406500I-249999J0D01*
G01*
X107586299Y-90406500D01*
G75*
G02*
X107336300Y-90156501I0J249999D01*
G01*
G37*
%TD*%
%TO.C,R15*%
G36*
G01*
X111764900Y-89256499D02*
X111764900Y-90156501D01*
G75*
G02*
X111514901Y-90406500I-249999J0D01*
G01*
X110989899Y-90406500D01*
G75*
G02*
X110739900Y-90156501I0J249999D01*
G01*
X110739900Y-89256499D01*
G75*
G02*
X110989899Y-89006500I249999J0D01*
G01*
X111514901Y-89006500D01*
G75*
G02*
X111764900Y-89256499I0J-249999D01*
G01*
G37*
G36*
G01*
X113589900Y-89256499D02*
X113589900Y-90156501D01*
G75*
G02*
X113339901Y-90406500I-249999J0D01*
G01*
X112814899Y-90406500D01*
G75*
G02*
X112564900Y-90156501I0J249999D01*
G01*
X112564900Y-89256499D01*
G75*
G02*
X112814899Y-89006500I249999J0D01*
G01*
X113339901Y-89006500D01*
G75*
G02*
X113589900Y-89256499I0J-249999D01*
G01*
G37*
%TD*%
%TO.C,R14*%
G36*
G01*
X64302700Y-81211299D02*
X64302700Y-82111301D01*
G75*
G02*
X64052701Y-82361300I-249999J0D01*
G01*
X63527699Y-82361300D01*
G75*
G02*
X63277700Y-82111301I0J249999D01*
G01*
X63277700Y-81211299D01*
G75*
G02*
X63527699Y-80961300I249999J0D01*
G01*
X64052701Y-80961300D01*
G75*
G02*
X64302700Y-81211299I0J-249999D01*
G01*
G37*
G36*
G01*
X66127700Y-81211299D02*
X66127700Y-82111301D01*
G75*
G02*
X65877701Y-82361300I-249999J0D01*
G01*
X65352699Y-82361300D01*
G75*
G02*
X65102700Y-82111301I0J249999D01*
G01*
X65102700Y-81211299D01*
G75*
G02*
X65352699Y-80961300I249999J0D01*
G01*
X65877701Y-80961300D01*
G75*
G02*
X66127700Y-81211299I0J-249999D01*
G01*
G37*
%TD*%
%TO.C,R13*%
G36*
G01*
X115981200Y-90156501D02*
X115981200Y-89256499D01*
G75*
G02*
X116231199Y-89006500I249999J0D01*
G01*
X116756201Y-89006500D01*
G75*
G02*
X117006200Y-89256499I0J-249999D01*
G01*
X117006200Y-90156501D01*
G75*
G02*
X116756201Y-90406500I-249999J0D01*
G01*
X116231199Y-90406500D01*
G75*
G02*
X115981200Y-90156501I0J249999D01*
G01*
G37*
G36*
G01*
X114156200Y-90156501D02*
X114156200Y-89256499D01*
G75*
G02*
X114406199Y-89006500I249999J0D01*
G01*
X114931201Y-89006500D01*
G75*
G02*
X115181200Y-89256499I0J-249999D01*
G01*
X115181200Y-90156501D01*
G75*
G02*
X114931201Y-90406500I-249999J0D01*
G01*
X114406199Y-90406500D01*
G75*
G02*
X114156200Y-90156501I0J249999D01*
G01*
G37*
%TD*%
%TO.C,R12*%
G36*
G01*
X118584800Y-89256499D02*
X118584800Y-90156501D01*
G75*
G02*
X118334801Y-90406500I-249999J0D01*
G01*
X117809799Y-90406500D01*
G75*
G02*
X117559800Y-90156501I0J249999D01*
G01*
X117559800Y-89256499D01*
G75*
G02*
X117809799Y-89006500I249999J0D01*
G01*
X118334801Y-89006500D01*
G75*
G02*
X118584800Y-89256499I0J-249999D01*
G01*
G37*
G36*
G01*
X120409800Y-89256499D02*
X120409800Y-90156501D01*
G75*
G02*
X120159801Y-90406500I-249999J0D01*
G01*
X119634799Y-90406500D01*
G75*
G02*
X119384800Y-90156501I0J249999D01*
G01*
X119384800Y-89256499D01*
G75*
G02*
X119634799Y-89006500I249999J0D01*
G01*
X120159801Y-89006500D01*
G75*
G02*
X120409800Y-89256499I0J-249999D01*
G01*
G37*
%TD*%
%TO.C,R11*%
G36*
G01*
X77825201Y-85821300D02*
X76925199Y-85821300D01*
G75*
G02*
X76675200Y-85571301I0J249999D01*
G01*
X76675200Y-85046299D01*
G75*
G02*
X76925199Y-84796300I249999J0D01*
G01*
X77825201Y-84796300D01*
G75*
G02*
X78075200Y-85046299I0J-249999D01*
G01*
X78075200Y-85571301D01*
G75*
G02*
X77825201Y-85821300I-249999J0D01*
G01*
G37*
G36*
G01*
X77825201Y-87646300D02*
X76925199Y-87646300D01*
G75*
G02*
X76675200Y-87396301I0J249999D01*
G01*
X76675200Y-86871299D01*
G75*
G02*
X76925199Y-86621300I249999J0D01*
G01*
X77825201Y-86621300D01*
G75*
G02*
X78075200Y-86871299I0J-249999D01*
G01*
X78075200Y-87396301D01*
G75*
G02*
X77825201Y-87646300I-249999J0D01*
G01*
G37*
%TD*%
%TO.C,R10*%
G36*
G01*
X71185200Y-88611299D02*
X71185200Y-89511301D01*
G75*
G02*
X70935201Y-89761300I-249999J0D01*
G01*
X70410199Y-89761300D01*
G75*
G02*
X70160200Y-89511301I0J249999D01*
G01*
X70160200Y-88611299D01*
G75*
G02*
X70410199Y-88361300I249999J0D01*
G01*
X70935201Y-88361300D01*
G75*
G02*
X71185200Y-88611299I0J-249999D01*
G01*
G37*
G36*
G01*
X73010200Y-88611299D02*
X73010200Y-89511301D01*
G75*
G02*
X72760201Y-89761300I-249999J0D01*
G01*
X72235199Y-89761300D01*
G75*
G02*
X71985200Y-89511301I0J249999D01*
G01*
X71985200Y-88611299D01*
G75*
G02*
X72235199Y-88361300I249999J0D01*
G01*
X72760201Y-88361300D01*
G75*
G02*
X73010200Y-88611299I0J-249999D01*
G01*
G37*
%TD*%
%TO.C,R9*%
G36*
G01*
X78885199Y-83201300D02*
X79785201Y-83201300D01*
G75*
G02*
X80035200Y-83451299I0J-249999D01*
G01*
X80035200Y-83976301D01*
G75*
G02*
X79785201Y-84226300I-249999J0D01*
G01*
X78885199Y-84226300D01*
G75*
G02*
X78635200Y-83976301I0J249999D01*
G01*
X78635200Y-83451299D01*
G75*
G02*
X78885199Y-83201300I249999J0D01*
G01*
G37*
G36*
G01*
X78885199Y-81376300D02*
X79785201Y-81376300D01*
G75*
G02*
X80035200Y-81626299I0J-249999D01*
G01*
X80035200Y-82151301D01*
G75*
G02*
X79785201Y-82401300I-249999J0D01*
G01*
X78885199Y-82401300D01*
G75*
G02*
X78635200Y-82151301I0J249999D01*
G01*
X78635200Y-81626299D01*
G75*
G02*
X78885199Y-81376300I249999J0D01*
G01*
G37*
%TD*%
%TO.C,R8*%
G36*
G01*
X76925199Y-83201300D02*
X77825201Y-83201300D01*
G75*
G02*
X78075200Y-83451299I0J-249999D01*
G01*
X78075200Y-83976301D01*
G75*
G02*
X77825201Y-84226300I-249999J0D01*
G01*
X76925199Y-84226300D01*
G75*
G02*
X76675200Y-83976301I0J249999D01*
G01*
X76675200Y-83451299D01*
G75*
G02*
X76925199Y-83201300I249999J0D01*
G01*
G37*
G36*
G01*
X76925199Y-81376300D02*
X77825201Y-81376300D01*
G75*
G02*
X78075200Y-81626299I0J-249999D01*
G01*
X78075200Y-82151301D01*
G75*
G02*
X77825201Y-82401300I-249999J0D01*
G01*
X76925199Y-82401300D01*
G75*
G02*
X76675200Y-82151301I0J249999D01*
G01*
X76675200Y-81626299D01*
G75*
G02*
X76925199Y-81376300I249999J0D01*
G01*
G37*
%TD*%
%TO.C,R7*%
G36*
G01*
X129049500Y-75805501D02*
X129049500Y-74905499D01*
G75*
G02*
X129299499Y-74655500I249999J0D01*
G01*
X129824501Y-74655500D01*
G75*
G02*
X130074500Y-74905499I0J-249999D01*
G01*
X130074500Y-75805501D01*
G75*
G02*
X129824501Y-76055500I-249999J0D01*
G01*
X129299499Y-76055500D01*
G75*
G02*
X129049500Y-75805501I0J249999D01*
G01*
G37*
G36*
G01*
X127224500Y-75805501D02*
X127224500Y-74905499D01*
G75*
G02*
X127474499Y-74655500I249999J0D01*
G01*
X127999501Y-74655500D01*
G75*
G02*
X128249500Y-74905499I0J-249999D01*
G01*
X128249500Y-75805501D01*
G75*
G02*
X127999501Y-76055500I-249999J0D01*
G01*
X127474499Y-76055500D01*
G75*
G02*
X127224500Y-75805501I0J249999D01*
G01*
G37*
%TD*%
%TO.C,R6*%
G36*
G01*
X70012280Y-45218821D02*
X70012280Y-44318819D01*
G75*
G02*
X70262279Y-44068820I249999J0D01*
G01*
X70787281Y-44068820D01*
G75*
G02*
X71037280Y-44318819I0J-249999D01*
G01*
X71037280Y-45218821D01*
G75*
G02*
X70787281Y-45468820I-249999J0D01*
G01*
X70262279Y-45468820D01*
G75*
G02*
X70012280Y-45218821I0J249999D01*
G01*
G37*
G36*
G01*
X68187280Y-45218821D02*
X68187280Y-44318819D01*
G75*
G02*
X68437279Y-44068820I249999J0D01*
G01*
X68962281Y-44068820D01*
G75*
G02*
X69212280Y-44318819I0J-249999D01*
G01*
X69212280Y-45218821D01*
G75*
G02*
X68962281Y-45468820I-249999J0D01*
G01*
X68437279Y-45468820D01*
G75*
G02*
X68187280Y-45218821I0J249999D01*
G01*
G37*
%TD*%
%TO.C,R5*%
G36*
G01*
X132478500Y-75805501D02*
X132478500Y-74905499D01*
G75*
G02*
X132728499Y-74655500I249999J0D01*
G01*
X133253501Y-74655500D01*
G75*
G02*
X133503500Y-74905499I0J-249999D01*
G01*
X133503500Y-75805501D01*
G75*
G02*
X133253501Y-76055500I-249999J0D01*
G01*
X132728499Y-76055500D01*
G75*
G02*
X132478500Y-75805501I0J249999D01*
G01*
G37*
G36*
G01*
X130653500Y-75805501D02*
X130653500Y-74905499D01*
G75*
G02*
X130903499Y-74655500I249999J0D01*
G01*
X131428501Y-74655500D01*
G75*
G02*
X131678500Y-74905499I0J-249999D01*
G01*
X131678500Y-75805501D01*
G75*
G02*
X131428501Y-76055500I-249999J0D01*
G01*
X130903499Y-76055500D01*
G75*
G02*
X130653500Y-75805501I0J249999D01*
G01*
G37*
%TD*%
%TO.C,R4*%
G36*
G01*
X68351120Y-52475601D02*
X68351120Y-51575599D01*
G75*
G02*
X68601119Y-51325600I249999J0D01*
G01*
X69126121Y-51325600D01*
G75*
G02*
X69376120Y-51575599I0J-249999D01*
G01*
X69376120Y-52475601D01*
G75*
G02*
X69126121Y-52725600I-249999J0D01*
G01*
X68601119Y-52725600D01*
G75*
G02*
X68351120Y-52475601I0J249999D01*
G01*
G37*
G36*
G01*
X66526120Y-52475601D02*
X66526120Y-51575599D01*
G75*
G02*
X66776119Y-51325600I249999J0D01*
G01*
X67301121Y-51325600D01*
G75*
G02*
X67551120Y-51575599I0J-249999D01*
G01*
X67551120Y-52475601D01*
G75*
G02*
X67301121Y-52725600I-249999J0D01*
G01*
X66776119Y-52725600D01*
G75*
G02*
X66526120Y-52475601I0J249999D01*
G01*
G37*
%TD*%
%TO.C,R3*%
G36*
G01*
X110189201Y-78282900D02*
X109289199Y-78282900D01*
G75*
G02*
X109039200Y-78032901I0J249999D01*
G01*
X109039200Y-77507899D01*
G75*
G02*
X109289199Y-77257900I249999J0D01*
G01*
X110189201Y-77257900D01*
G75*
G02*
X110439200Y-77507899I0J-249999D01*
G01*
X110439200Y-78032901D01*
G75*
G02*
X110189201Y-78282900I-249999J0D01*
G01*
G37*
G36*
G01*
X110189201Y-80107900D02*
X109289199Y-80107900D01*
G75*
G02*
X109039200Y-79857901I0J249999D01*
G01*
X109039200Y-79332899D01*
G75*
G02*
X109289199Y-79082900I249999J0D01*
G01*
X110189201Y-79082900D01*
G75*
G02*
X110439200Y-79332899I0J-249999D01*
G01*
X110439200Y-79857901D01*
G75*
G02*
X110189201Y-80107900I-249999J0D01*
G01*
G37*
%TD*%
%TO.C,R2*%
G36*
G01*
X114126201Y-78270200D02*
X113226199Y-78270200D01*
G75*
G02*
X112976200Y-78020201I0J249999D01*
G01*
X112976200Y-77495199D01*
G75*
G02*
X113226199Y-77245200I249999J0D01*
G01*
X114126201Y-77245200D01*
G75*
G02*
X114376200Y-77495199I0J-249999D01*
G01*
X114376200Y-78020201D01*
G75*
G02*
X114126201Y-78270200I-249999J0D01*
G01*
G37*
G36*
G01*
X114126201Y-80095200D02*
X113226199Y-80095200D01*
G75*
G02*
X112976200Y-79845201I0J249999D01*
G01*
X112976200Y-79320199D01*
G75*
G02*
X113226199Y-79070200I249999J0D01*
G01*
X114126201Y-79070200D01*
G75*
G02*
X114376200Y-79320199I0J-249999D01*
G01*
X114376200Y-79845201D01*
G75*
G02*
X114126201Y-80095200I-249999J0D01*
G01*
G37*
%TD*%
%TO.C,R1*%
G36*
G01*
X112170401Y-78270200D02*
X111270399Y-78270200D01*
G75*
G02*
X111020400Y-78020201I0J249999D01*
G01*
X111020400Y-77495199D01*
G75*
G02*
X111270399Y-77245200I249999J0D01*
G01*
X112170401Y-77245200D01*
G75*
G02*
X112420400Y-77495199I0J-249999D01*
G01*
X112420400Y-78020201D01*
G75*
G02*
X112170401Y-78270200I-249999J0D01*
G01*
G37*
G36*
G01*
X112170401Y-80095200D02*
X111270399Y-80095200D01*
G75*
G02*
X111020400Y-79845201I0J249999D01*
G01*
X111020400Y-79320199D01*
G75*
G02*
X111270399Y-79070200I249999J0D01*
G01*
X112170401Y-79070200D01*
G75*
G02*
X112420400Y-79320199I0J-249999D01*
G01*
X112420400Y-79845201D01*
G75*
G02*
X112170401Y-80095200I-249999J0D01*
G01*
G37*
%TD*%
D25*
%TO.C,Q1*%
X69475200Y-100081300D03*
X69475200Y-99131300D03*
X69475200Y-101031300D03*
X66875200Y-101031300D03*
X66875200Y-100081300D03*
X66875200Y-99131300D03*
%TD*%
D26*
%TO.C,L9*%
X71435200Y-95671300D03*
X77435200Y-95671300D03*
%TD*%
%TO.C,L8*%
G36*
G01*
X67476390Y-30267800D02*
X66713890Y-30267800D01*
G75*
G02*
X66495140Y-30049050I0J218750D01*
G01*
X66495140Y-29611550D01*
G75*
G02*
X66713890Y-29392800I218750J0D01*
G01*
X67476390Y-29392800D01*
G75*
G02*
X67695140Y-29611550I0J-218750D01*
G01*
X67695140Y-30049050D01*
G75*
G02*
X67476390Y-30267800I-218750J0D01*
G01*
G37*
G36*
G01*
X67476390Y-32392800D02*
X66713890Y-32392800D01*
G75*
G02*
X66495140Y-32174050I0J218750D01*
G01*
X66495140Y-31736550D01*
G75*
G02*
X66713890Y-31517800I218750J0D01*
G01*
X67476390Y-31517800D01*
G75*
G02*
X67695140Y-31736550I0J-218750D01*
G01*
X67695140Y-32174050D01*
G75*
G02*
X67476390Y-32392800I-218750J0D01*
G01*
G37*
%TD*%
%TO.C,L7*%
G36*
G01*
X67473850Y-35840560D02*
X66711350Y-35840560D01*
G75*
G02*
X66492600Y-35621810I0J218750D01*
G01*
X66492600Y-35184310D01*
G75*
G02*
X66711350Y-34965560I218750J0D01*
G01*
X67473850Y-34965560D01*
G75*
G02*
X67692600Y-35184310I0J-218750D01*
G01*
X67692600Y-35621810D01*
G75*
G02*
X67473850Y-35840560I-218750J0D01*
G01*
G37*
G36*
G01*
X67473850Y-37965560D02*
X66711350Y-37965560D01*
G75*
G02*
X66492600Y-37746810I0J218750D01*
G01*
X66492600Y-37309310D01*
G75*
G02*
X66711350Y-37090560I218750J0D01*
G01*
X67473850Y-37090560D01*
G75*
G02*
X67692600Y-37309310I0J-218750D01*
G01*
X67692600Y-37746810D01*
G75*
G02*
X67473850Y-37965560I-218750J0D01*
G01*
G37*
%TD*%
%TO.C,L6*%
G36*
G01*
X61545400Y-39437610D02*
X61545400Y-38675110D01*
G75*
G02*
X61764150Y-38456360I218750J0D01*
G01*
X62201650Y-38456360D01*
G75*
G02*
X62420400Y-38675110I0J-218750D01*
G01*
X62420400Y-39437610D01*
G75*
G02*
X62201650Y-39656360I-218750J0D01*
G01*
X61764150Y-39656360D01*
G75*
G02*
X61545400Y-39437610I0J218750D01*
G01*
G37*
G36*
G01*
X59420400Y-39437610D02*
X59420400Y-38675110D01*
G75*
G02*
X59639150Y-38456360I218750J0D01*
G01*
X60076650Y-38456360D01*
G75*
G02*
X60295400Y-38675110I0J-218750D01*
G01*
X60295400Y-39437610D01*
G75*
G02*
X60076650Y-39656360I-218750J0D01*
G01*
X59639150Y-39656360D01*
G75*
G02*
X59420400Y-39437610I0J218750D01*
G01*
G37*
%TD*%
%TO.C,L5*%
G36*
G01*
X67476390Y-39444820D02*
X66713890Y-39444820D01*
G75*
G02*
X66495140Y-39226070I0J218750D01*
G01*
X66495140Y-38788570D01*
G75*
G02*
X66713890Y-38569820I218750J0D01*
G01*
X67476390Y-38569820D01*
G75*
G02*
X67695140Y-38788570I0J-218750D01*
G01*
X67695140Y-39226070D01*
G75*
G02*
X67476390Y-39444820I-218750J0D01*
G01*
G37*
G36*
G01*
X67476390Y-41569820D02*
X66713890Y-41569820D01*
G75*
G02*
X66495140Y-41351070I0J218750D01*
G01*
X66495140Y-40913570D01*
G75*
G02*
X66713890Y-40694820I218750J0D01*
G01*
X67476390Y-40694820D01*
G75*
G02*
X67695140Y-40913570I0J-218750D01*
G01*
X67695140Y-41351070D01*
G75*
G02*
X67476390Y-41569820I-218750J0D01*
G01*
G37*
%TD*%
%TO.C,L4*%
G36*
G01*
X58406050Y-41075500D02*
X57643550Y-41075500D01*
G75*
G02*
X57424800Y-40856750I0J218750D01*
G01*
X57424800Y-40419250D01*
G75*
G02*
X57643550Y-40200500I218750J0D01*
G01*
X58406050Y-40200500D01*
G75*
G02*
X58624800Y-40419250I0J-218750D01*
G01*
X58624800Y-40856750D01*
G75*
G02*
X58406050Y-41075500I-218750J0D01*
G01*
G37*
G36*
G01*
X58406050Y-43200500D02*
X57643550Y-43200500D01*
G75*
G02*
X57424800Y-42981750I0J218750D01*
G01*
X57424800Y-42544250D01*
G75*
G02*
X57643550Y-42325500I218750J0D01*
G01*
X58406050Y-42325500D01*
G75*
G02*
X58624800Y-42544250I0J-218750D01*
G01*
X58624800Y-42981750D01*
G75*
G02*
X58406050Y-43200500I-218750J0D01*
G01*
G37*
%TD*%
%TO.C,L3*%
G36*
G01*
X62208430Y-41098360D02*
X61445930Y-41098360D01*
G75*
G02*
X61227180Y-40879610I0J218750D01*
G01*
X61227180Y-40442110D01*
G75*
G02*
X61445930Y-40223360I218750J0D01*
G01*
X62208430Y-40223360D01*
G75*
G02*
X62427180Y-40442110I0J-218750D01*
G01*
X62427180Y-40879610D01*
G75*
G02*
X62208430Y-41098360I-218750J0D01*
G01*
G37*
G36*
G01*
X62208430Y-43223360D02*
X61445930Y-43223360D01*
G75*
G02*
X61227180Y-43004610I0J218750D01*
G01*
X61227180Y-42567110D01*
G75*
G02*
X61445930Y-42348360I218750J0D01*
G01*
X62208430Y-42348360D01*
G75*
G02*
X62427180Y-42567110I0J-218750D01*
G01*
X62427180Y-43004610D01*
G75*
G02*
X62208430Y-43223360I-218750J0D01*
G01*
G37*
%TD*%
%TO.C,L2*%
G36*
G01*
X59790260Y-44753830D02*
X59790260Y-43991330D01*
G75*
G02*
X60009010Y-43772580I218750J0D01*
G01*
X60446510Y-43772580D01*
G75*
G02*
X60665260Y-43991330I0J-218750D01*
G01*
X60665260Y-44753830D01*
G75*
G02*
X60446510Y-44972580I-218750J0D01*
G01*
X60009010Y-44972580D01*
G75*
G02*
X59790260Y-44753830I0J218750D01*
G01*
G37*
G36*
G01*
X57665260Y-44753830D02*
X57665260Y-43991330D01*
G75*
G02*
X57884010Y-43772580I218750J0D01*
G01*
X58321510Y-43772580D01*
G75*
G02*
X58540260Y-43991330I0J-218750D01*
G01*
X58540260Y-44753830D01*
G75*
G02*
X58321510Y-44972580I-218750J0D01*
G01*
X57884010Y-44972580D01*
G75*
G02*
X57665260Y-44753830I0J218750D01*
G01*
G37*
%TD*%
%TO.C,L1*%
G36*
G01*
X66719380Y-45139910D02*
X66719380Y-44377410D01*
G75*
G02*
X66938130Y-44158660I218750J0D01*
G01*
X67375630Y-44158660D01*
G75*
G02*
X67594380Y-44377410I0J-218750D01*
G01*
X67594380Y-45139910D01*
G75*
G02*
X67375630Y-45358660I-218750J0D01*
G01*
X66938130Y-45358660D01*
G75*
G02*
X66719380Y-45139910I0J218750D01*
G01*
G37*
G36*
G01*
X64594380Y-45139910D02*
X64594380Y-44377410D01*
G75*
G02*
X64813130Y-44158660I218750J0D01*
G01*
X65250630Y-44158660D01*
G75*
G02*
X65469380Y-44377410I0J-218750D01*
G01*
X65469380Y-45139910D01*
G75*
G02*
X65250630Y-45358660I-218750J0D01*
G01*
X64813130Y-45358660D01*
G75*
G02*
X64594380Y-45139910I0J218750D01*
G01*
G37*
%TD*%
D27*
%TO.C,D6*%
X43775200Y-97291300D03*
D28*
X47575200Y-98256300D03*
X47575200Y-96326300D03*
%TD*%
D29*
%TO.C,D5*%
X43355200Y-82491300D03*
X38955200Y-82491300D03*
%TD*%
%TO.C,D4*%
X61715200Y-103761300D03*
X57315200Y-103761300D03*
%TD*%
%TO.C,D3*%
X65255200Y-84881300D03*
X60855200Y-84881300D03*
%TD*%
D30*
%TO.C,D2*%
X80335200Y-94101300D03*
X80335200Y-98501300D03*
%TD*%
D31*
%TO.C,D1*%
X112219600Y-82874600D03*
X112219600Y-81374600D03*
X111119600Y-81374600D03*
X111119600Y-82874600D03*
%TD*%
%TO.C,C70*%
G36*
G01*
X119741300Y-77082400D02*
X119741300Y-78032400D01*
G75*
G02*
X119491300Y-78282400I-250000J0D01*
G01*
X118991300Y-78282400D01*
G75*
G02*
X118741300Y-78032400I0J250000D01*
G01*
X118741300Y-77082400D01*
G75*
G02*
X118991300Y-76832400I250000J0D01*
G01*
X119491300Y-76832400D01*
G75*
G02*
X119741300Y-77082400I0J-250000D01*
G01*
G37*
G36*
G01*
X121641300Y-77082400D02*
X121641300Y-78032400D01*
G75*
G02*
X121391300Y-78282400I-250000J0D01*
G01*
X120891300Y-78282400D01*
G75*
G02*
X120641300Y-78032400I0J250000D01*
G01*
X120641300Y-77082400D01*
G75*
G02*
X120891300Y-76832400I250000J0D01*
G01*
X121391300Y-76832400D01*
G75*
G02*
X121641300Y-77082400I0J-250000D01*
G01*
G37*
%TD*%
%TO.C,C69*%
G36*
G01*
X128375600Y-72299900D02*
X128375600Y-71349900D01*
G75*
G02*
X128625600Y-71099900I250000J0D01*
G01*
X129125600Y-71099900D01*
G75*
G02*
X129375600Y-71349900I0J-250000D01*
G01*
X129375600Y-72299900D01*
G75*
G02*
X129125600Y-72549900I-250000J0D01*
G01*
X128625600Y-72549900D01*
G75*
G02*
X128375600Y-72299900I0J250000D01*
G01*
G37*
G36*
G01*
X126475600Y-72299900D02*
X126475600Y-71349900D01*
G75*
G02*
X126725600Y-71099900I250000J0D01*
G01*
X127225600Y-71099900D01*
G75*
G02*
X127475600Y-71349900I0J-250000D01*
G01*
X127475600Y-72299900D01*
G75*
G02*
X127225600Y-72549900I-250000J0D01*
G01*
X126725600Y-72549900D01*
G75*
G02*
X126475600Y-72299900I0J250000D01*
G01*
G37*
%TD*%
%TO.C,C68*%
G36*
G01*
X110760300Y-58497100D02*
X109810300Y-58497100D01*
G75*
G02*
X109560300Y-58247100I0J250000D01*
G01*
X109560300Y-57747100D01*
G75*
G02*
X109810300Y-57497100I250000J0D01*
G01*
X110760300Y-57497100D01*
G75*
G02*
X111010300Y-57747100I0J-250000D01*
G01*
X111010300Y-58247100D01*
G75*
G02*
X110760300Y-58497100I-250000J0D01*
G01*
G37*
G36*
G01*
X110760300Y-60397100D02*
X109810300Y-60397100D01*
G75*
G02*
X109560300Y-60147100I0J250000D01*
G01*
X109560300Y-59647100D01*
G75*
G02*
X109810300Y-59397100I250000J0D01*
G01*
X110760300Y-59397100D01*
G75*
G02*
X111010300Y-59647100I0J-250000D01*
G01*
X111010300Y-60147100D01*
G75*
G02*
X110760300Y-60397100I-250000J0D01*
G01*
G37*
%TD*%
%TO.C,C67*%
G36*
G01*
X122838000Y-58497100D02*
X121888000Y-58497100D01*
G75*
G02*
X121638000Y-58247100I0J250000D01*
G01*
X121638000Y-57747100D01*
G75*
G02*
X121888000Y-57497100I250000J0D01*
G01*
X122838000Y-57497100D01*
G75*
G02*
X123088000Y-57747100I0J-250000D01*
G01*
X123088000Y-58247100D01*
G75*
G02*
X122838000Y-58497100I-250000J0D01*
G01*
G37*
G36*
G01*
X122838000Y-60397100D02*
X121888000Y-60397100D01*
G75*
G02*
X121638000Y-60147100I0J250000D01*
G01*
X121638000Y-59647100D01*
G75*
G02*
X121888000Y-59397100I250000J0D01*
G01*
X122838000Y-59397100D01*
G75*
G02*
X123088000Y-59647100I0J-250000D01*
G01*
X123088000Y-60147100D01*
G75*
G02*
X122838000Y-60397100I-250000J0D01*
G01*
G37*
%TD*%
%TO.C,C66*%
G36*
G01*
X102012100Y-73610500D02*
X102012100Y-74560500D01*
G75*
G02*
X101762100Y-74810500I-250000J0D01*
G01*
X101262100Y-74810500D01*
G75*
G02*
X101012100Y-74560500I0J250000D01*
G01*
X101012100Y-73610500D01*
G75*
G02*
X101262100Y-73360500I250000J0D01*
G01*
X101762100Y-73360500D01*
G75*
G02*
X102012100Y-73610500I0J-250000D01*
G01*
G37*
G36*
G01*
X103912100Y-73610500D02*
X103912100Y-74560500D01*
G75*
G02*
X103662100Y-74810500I-250000J0D01*
G01*
X103162100Y-74810500D01*
G75*
G02*
X102912100Y-74560500I0J250000D01*
G01*
X102912100Y-73610500D01*
G75*
G02*
X103162100Y-73360500I250000J0D01*
G01*
X103662100Y-73360500D01*
G75*
G02*
X103912100Y-73610500I0J-250000D01*
G01*
G37*
%TD*%
%TO.C,C65*%
G36*
G01*
X128375600Y-70267900D02*
X128375600Y-69317900D01*
G75*
G02*
X128625600Y-69067900I250000J0D01*
G01*
X129125600Y-69067900D01*
G75*
G02*
X129375600Y-69317900I0J-250000D01*
G01*
X129375600Y-70267900D01*
G75*
G02*
X129125600Y-70517900I-250000J0D01*
G01*
X128625600Y-70517900D01*
G75*
G02*
X128375600Y-70267900I0J250000D01*
G01*
G37*
G36*
G01*
X126475600Y-70267900D02*
X126475600Y-69317900D01*
G75*
G02*
X126725600Y-69067900I250000J0D01*
G01*
X127225600Y-69067900D01*
G75*
G02*
X127475600Y-69317900I0J-250000D01*
G01*
X127475600Y-70267900D01*
G75*
G02*
X127225600Y-70517900I-250000J0D01*
G01*
X126725600Y-70517900D01*
G75*
G02*
X126475600Y-70267900I0J250000D01*
G01*
G37*
%TD*%
%TO.C,C64*%
G36*
G01*
X108741000Y-58497100D02*
X107791000Y-58497100D01*
G75*
G02*
X107541000Y-58247100I0J250000D01*
G01*
X107541000Y-57747100D01*
G75*
G02*
X107791000Y-57497100I250000J0D01*
G01*
X108741000Y-57497100D01*
G75*
G02*
X108991000Y-57747100I0J-250000D01*
G01*
X108991000Y-58247100D01*
G75*
G02*
X108741000Y-58497100I-250000J0D01*
G01*
G37*
G36*
G01*
X108741000Y-60397100D02*
X107791000Y-60397100D01*
G75*
G02*
X107541000Y-60147100I0J250000D01*
G01*
X107541000Y-59647100D01*
G75*
G02*
X107791000Y-59397100I250000J0D01*
G01*
X108741000Y-59397100D01*
G75*
G02*
X108991000Y-59647100I0J-250000D01*
G01*
X108991000Y-60147100D01*
G75*
G02*
X108741000Y-60397100I-250000J0D01*
G01*
G37*
%TD*%
%TO.C,C63*%
G36*
G01*
X120818700Y-58497100D02*
X119868700Y-58497100D01*
G75*
G02*
X119618700Y-58247100I0J250000D01*
G01*
X119618700Y-57747100D01*
G75*
G02*
X119868700Y-57497100I250000J0D01*
G01*
X120818700Y-57497100D01*
G75*
G02*
X121068700Y-57747100I0J-250000D01*
G01*
X121068700Y-58247100D01*
G75*
G02*
X120818700Y-58497100I-250000J0D01*
G01*
G37*
G36*
G01*
X120818700Y-60397100D02*
X119868700Y-60397100D01*
G75*
G02*
X119618700Y-60147100I0J250000D01*
G01*
X119618700Y-59647100D01*
G75*
G02*
X119868700Y-59397100I250000J0D01*
G01*
X120818700Y-59397100D01*
G75*
G02*
X121068700Y-59647100I0J-250000D01*
G01*
X121068700Y-60147100D01*
G75*
G02*
X120818700Y-60397100I-250000J0D01*
G01*
G37*
%TD*%
%TO.C,C62*%
G36*
G01*
X102012100Y-75642500D02*
X102012100Y-76592500D01*
G75*
G02*
X101762100Y-76842500I-250000J0D01*
G01*
X101262100Y-76842500D01*
G75*
G02*
X101012100Y-76592500I0J250000D01*
G01*
X101012100Y-75642500D01*
G75*
G02*
X101262100Y-75392500I250000J0D01*
G01*
X101762100Y-75392500D01*
G75*
G02*
X102012100Y-75642500I0J-250000D01*
G01*
G37*
G36*
G01*
X103912100Y-75642500D02*
X103912100Y-76592500D01*
G75*
G02*
X103662100Y-76842500I-250000J0D01*
G01*
X103162100Y-76842500D01*
G75*
G02*
X102912100Y-76592500I0J250000D01*
G01*
X102912100Y-75642500D01*
G75*
G02*
X103162100Y-75392500I250000J0D01*
G01*
X103662100Y-75392500D01*
G75*
G02*
X103912100Y-75642500I0J-250000D01*
G01*
G37*
%TD*%
%TO.C,C61*%
G36*
G01*
X128375600Y-68235900D02*
X128375600Y-67285900D01*
G75*
G02*
X128625600Y-67035900I250000J0D01*
G01*
X129125600Y-67035900D01*
G75*
G02*
X129375600Y-67285900I0J-250000D01*
G01*
X129375600Y-68235900D01*
G75*
G02*
X129125600Y-68485900I-250000J0D01*
G01*
X128625600Y-68485900D01*
G75*
G02*
X128375600Y-68235900I0J250000D01*
G01*
G37*
G36*
G01*
X126475600Y-68235900D02*
X126475600Y-67285900D01*
G75*
G02*
X126725600Y-67035900I250000J0D01*
G01*
X127225600Y-67035900D01*
G75*
G02*
X127475600Y-67285900I0J-250000D01*
G01*
X127475600Y-68235900D01*
G75*
G02*
X127225600Y-68485900I-250000J0D01*
G01*
X126725600Y-68485900D01*
G75*
G02*
X126475600Y-68235900I0J250000D01*
G01*
G37*
%TD*%
%TO.C,C60*%
G36*
G01*
X106709000Y-58497100D02*
X105759000Y-58497100D01*
G75*
G02*
X105509000Y-58247100I0J250000D01*
G01*
X105509000Y-57747100D01*
G75*
G02*
X105759000Y-57497100I250000J0D01*
G01*
X106709000Y-57497100D01*
G75*
G02*
X106959000Y-57747100I0J-250000D01*
G01*
X106959000Y-58247100D01*
G75*
G02*
X106709000Y-58497100I-250000J0D01*
G01*
G37*
G36*
G01*
X106709000Y-60397100D02*
X105759000Y-60397100D01*
G75*
G02*
X105509000Y-60147100I0J250000D01*
G01*
X105509000Y-59647100D01*
G75*
G02*
X105759000Y-59397100I250000J0D01*
G01*
X106709000Y-59397100D01*
G75*
G02*
X106959000Y-59647100I0J-250000D01*
G01*
X106959000Y-60147100D01*
G75*
G02*
X106709000Y-60397100I-250000J0D01*
G01*
G37*
%TD*%
%TO.C,C59*%
G36*
G01*
X118799400Y-58497100D02*
X117849400Y-58497100D01*
G75*
G02*
X117599400Y-58247100I0J250000D01*
G01*
X117599400Y-57747100D01*
G75*
G02*
X117849400Y-57497100I250000J0D01*
G01*
X118799400Y-57497100D01*
G75*
G02*
X119049400Y-57747100I0J-250000D01*
G01*
X119049400Y-58247100D01*
G75*
G02*
X118799400Y-58497100I-250000J0D01*
G01*
G37*
G36*
G01*
X118799400Y-60397100D02*
X117849400Y-60397100D01*
G75*
G02*
X117599400Y-60147100I0J250000D01*
G01*
X117599400Y-59647100D01*
G75*
G02*
X117849400Y-59397100I250000J0D01*
G01*
X118799400Y-59397100D01*
G75*
G02*
X119049400Y-59647100I0J-250000D01*
G01*
X119049400Y-60147100D01*
G75*
G02*
X118799400Y-60397100I-250000J0D01*
G01*
G37*
%TD*%
%TO.C,C58*%
G36*
G01*
X102012100Y-77674500D02*
X102012100Y-78624500D01*
G75*
G02*
X101762100Y-78874500I-250000J0D01*
G01*
X101262100Y-78874500D01*
G75*
G02*
X101012100Y-78624500I0J250000D01*
G01*
X101012100Y-77674500D01*
G75*
G02*
X101262100Y-77424500I250000J0D01*
G01*
X101762100Y-77424500D01*
G75*
G02*
X102012100Y-77674500I0J-250000D01*
G01*
G37*
G36*
G01*
X103912100Y-77674500D02*
X103912100Y-78624500D01*
G75*
G02*
X103662100Y-78874500I-250000J0D01*
G01*
X103162100Y-78874500D01*
G75*
G02*
X102912100Y-78624500I0J250000D01*
G01*
X102912100Y-77674500D01*
G75*
G02*
X103162100Y-77424500I250000J0D01*
G01*
X103662100Y-77424500D01*
G75*
G02*
X103912100Y-77674500I0J-250000D01*
G01*
G37*
%TD*%
%TO.C,C57*%
G36*
G01*
X38975200Y-96816300D02*
X38975200Y-97766300D01*
G75*
G02*
X38725200Y-98016300I-250000J0D01*
G01*
X38225200Y-98016300D01*
G75*
G02*
X37975200Y-97766300I0J250000D01*
G01*
X37975200Y-96816300D01*
G75*
G02*
X38225200Y-96566300I250000J0D01*
G01*
X38725200Y-96566300D01*
G75*
G02*
X38975200Y-96816300I0J-250000D01*
G01*
G37*
G36*
G01*
X40875200Y-96816300D02*
X40875200Y-97766300D01*
G75*
G02*
X40625200Y-98016300I-250000J0D01*
G01*
X40125200Y-98016300D01*
G75*
G02*
X39875200Y-97766300I0J250000D01*
G01*
X39875200Y-96816300D01*
G75*
G02*
X40125200Y-96566300I250000J0D01*
G01*
X40625200Y-96566300D01*
G75*
G02*
X40875200Y-96816300I0J-250000D01*
G01*
G37*
%TD*%
%TO.C,C56*%
G36*
G01*
X104689700Y-58497100D02*
X103739700Y-58497100D01*
G75*
G02*
X103489700Y-58247100I0J250000D01*
G01*
X103489700Y-57747100D01*
G75*
G02*
X103739700Y-57497100I250000J0D01*
G01*
X104689700Y-57497100D01*
G75*
G02*
X104939700Y-57747100I0J-250000D01*
G01*
X104939700Y-58247100D01*
G75*
G02*
X104689700Y-58497100I-250000J0D01*
G01*
G37*
G36*
G01*
X104689700Y-60397100D02*
X103739700Y-60397100D01*
G75*
G02*
X103489700Y-60147100I0J250000D01*
G01*
X103489700Y-59647100D01*
G75*
G02*
X103739700Y-59397100I250000J0D01*
G01*
X104689700Y-59397100D01*
G75*
G02*
X104939700Y-59647100I0J-250000D01*
G01*
X104939700Y-60147100D01*
G75*
G02*
X104689700Y-60397100I-250000J0D01*
G01*
G37*
%TD*%
%TO.C,C55*%
G36*
G01*
X116767400Y-58497100D02*
X115817400Y-58497100D01*
G75*
G02*
X115567400Y-58247100I0J250000D01*
G01*
X115567400Y-57747100D01*
G75*
G02*
X115817400Y-57497100I250000J0D01*
G01*
X116767400Y-57497100D01*
G75*
G02*
X117017400Y-57747100I0J-250000D01*
G01*
X117017400Y-58247100D01*
G75*
G02*
X116767400Y-58497100I-250000J0D01*
G01*
G37*
G36*
G01*
X116767400Y-60397100D02*
X115817400Y-60397100D01*
G75*
G02*
X115567400Y-60147100I0J250000D01*
G01*
X115567400Y-59647100D01*
G75*
G02*
X115817400Y-59397100I250000J0D01*
G01*
X116767400Y-59397100D01*
G75*
G02*
X117017400Y-59647100I0J-250000D01*
G01*
X117017400Y-60147100D01*
G75*
G02*
X116767400Y-60397100I-250000J0D01*
G01*
G37*
%TD*%
%TO.C,C54*%
G36*
G01*
X102012100Y-79706500D02*
X102012100Y-80656500D01*
G75*
G02*
X101762100Y-80906500I-250000J0D01*
G01*
X101262100Y-80906500D01*
G75*
G02*
X101012100Y-80656500I0J250000D01*
G01*
X101012100Y-79706500D01*
G75*
G02*
X101262100Y-79456500I250000J0D01*
G01*
X101762100Y-79456500D01*
G75*
G02*
X102012100Y-79706500I0J-250000D01*
G01*
G37*
G36*
G01*
X103912100Y-79706500D02*
X103912100Y-80656500D01*
G75*
G02*
X103662100Y-80906500I-250000J0D01*
G01*
X103162100Y-80906500D01*
G75*
G02*
X102912100Y-80656500I0J250000D01*
G01*
X102912100Y-79706500D01*
G75*
G02*
X103162100Y-79456500I250000J0D01*
G01*
X103662100Y-79456500D01*
G75*
G02*
X103912100Y-79706500I0J-250000D01*
G01*
G37*
%TD*%
%TO.C,C53*%
G36*
G01*
X38975200Y-94806300D02*
X38975200Y-95756300D01*
G75*
G02*
X38725200Y-96006300I-250000J0D01*
G01*
X38225200Y-96006300D01*
G75*
G02*
X37975200Y-95756300I0J250000D01*
G01*
X37975200Y-94806300D01*
G75*
G02*
X38225200Y-94556300I250000J0D01*
G01*
X38725200Y-94556300D01*
G75*
G02*
X38975200Y-94806300I0J-250000D01*
G01*
G37*
G36*
G01*
X40875200Y-94806300D02*
X40875200Y-95756300D01*
G75*
G02*
X40625200Y-96006300I-250000J0D01*
G01*
X40125200Y-96006300D01*
G75*
G02*
X39875200Y-95756300I0J250000D01*
G01*
X39875200Y-94806300D01*
G75*
G02*
X40125200Y-94556300I250000J0D01*
G01*
X40625200Y-94556300D01*
G75*
G02*
X40875200Y-94806300I0J-250000D01*
G01*
G37*
%TD*%
%TO.C,C52*%
G36*
G01*
X41995200Y-90096300D02*
X41995200Y-91046300D01*
G75*
G02*
X41745200Y-91296300I-250000J0D01*
G01*
X41245200Y-91296300D01*
G75*
G02*
X40995200Y-91046300I0J250000D01*
G01*
X40995200Y-90096300D01*
G75*
G02*
X41245200Y-89846300I250000J0D01*
G01*
X41745200Y-89846300D01*
G75*
G02*
X41995200Y-90096300I0J-250000D01*
G01*
G37*
G36*
G01*
X43895200Y-90096300D02*
X43895200Y-91046300D01*
G75*
G02*
X43645200Y-91296300I-250000J0D01*
G01*
X43145200Y-91296300D01*
G75*
G02*
X42895200Y-91046300I0J250000D01*
G01*
X42895200Y-90096300D01*
G75*
G02*
X43145200Y-89846300I250000J0D01*
G01*
X43645200Y-89846300D01*
G75*
G02*
X43895200Y-90096300I0J-250000D01*
G01*
G37*
%TD*%
%TO.C,C51*%
G36*
G01*
X38975200Y-98826300D02*
X38975200Y-99776300D01*
G75*
G02*
X38725200Y-100026300I-250000J0D01*
G01*
X38225200Y-100026300D01*
G75*
G02*
X37975200Y-99776300I0J250000D01*
G01*
X37975200Y-98826300D01*
G75*
G02*
X38225200Y-98576300I250000J0D01*
G01*
X38725200Y-98576300D01*
G75*
G02*
X38975200Y-98826300I0J-250000D01*
G01*
G37*
G36*
G01*
X40875200Y-98826300D02*
X40875200Y-99776300D01*
G75*
G02*
X40625200Y-100026300I-250000J0D01*
G01*
X40125200Y-100026300D01*
G75*
G02*
X39875200Y-99776300I0J250000D01*
G01*
X39875200Y-98826300D01*
G75*
G02*
X40125200Y-98576300I250000J0D01*
G01*
X40625200Y-98576300D01*
G75*
G02*
X40875200Y-98826300I0J-250000D01*
G01*
G37*
%TD*%
%TO.C,C50*%
G36*
G01*
X102670400Y-58497100D02*
X101720400Y-58497100D01*
G75*
G02*
X101470400Y-58247100I0J250000D01*
G01*
X101470400Y-57747100D01*
G75*
G02*
X101720400Y-57497100I250000J0D01*
G01*
X102670400Y-57497100D01*
G75*
G02*
X102920400Y-57747100I0J-250000D01*
G01*
X102920400Y-58247100D01*
G75*
G02*
X102670400Y-58497100I-250000J0D01*
G01*
G37*
G36*
G01*
X102670400Y-60397100D02*
X101720400Y-60397100D01*
G75*
G02*
X101470400Y-60147100I0J250000D01*
G01*
X101470400Y-59647100D01*
G75*
G02*
X101720400Y-59397100I250000J0D01*
G01*
X102670400Y-59397100D01*
G75*
G02*
X102920400Y-59647100I0J-250000D01*
G01*
X102920400Y-60147100D01*
G75*
G02*
X102670400Y-60397100I-250000J0D01*
G01*
G37*
%TD*%
%TO.C,C49*%
G36*
G01*
X114735400Y-58497100D02*
X113785400Y-58497100D01*
G75*
G02*
X113535400Y-58247100I0J250000D01*
G01*
X113535400Y-57747100D01*
G75*
G02*
X113785400Y-57497100I250000J0D01*
G01*
X114735400Y-57497100D01*
G75*
G02*
X114985400Y-57747100I0J-250000D01*
G01*
X114985400Y-58247100D01*
G75*
G02*
X114735400Y-58497100I-250000J0D01*
G01*
G37*
G36*
G01*
X114735400Y-60397100D02*
X113785400Y-60397100D01*
G75*
G02*
X113535400Y-60147100I0J250000D01*
G01*
X113535400Y-59647100D01*
G75*
G02*
X113785400Y-59397100I250000J0D01*
G01*
X114735400Y-59397100D01*
G75*
G02*
X114985400Y-59647100I0J-250000D01*
G01*
X114985400Y-60147100D01*
G75*
G02*
X114735400Y-60397100I-250000J0D01*
G01*
G37*
%TD*%
%TO.C,C48*%
G36*
G01*
X102012100Y-81738500D02*
X102012100Y-82688500D01*
G75*
G02*
X101762100Y-82938500I-250000J0D01*
G01*
X101262100Y-82938500D01*
G75*
G02*
X101012100Y-82688500I0J250000D01*
G01*
X101012100Y-81738500D01*
G75*
G02*
X101262100Y-81488500I250000J0D01*
G01*
X101762100Y-81488500D01*
G75*
G02*
X102012100Y-81738500I0J-250000D01*
G01*
G37*
G36*
G01*
X103912100Y-81738500D02*
X103912100Y-82688500D01*
G75*
G02*
X103662100Y-82938500I-250000J0D01*
G01*
X103162100Y-82938500D01*
G75*
G02*
X102912100Y-82688500I0J250000D01*
G01*
X102912100Y-81738500D01*
G75*
G02*
X103162100Y-81488500I250000J0D01*
G01*
X103662100Y-81488500D01*
G75*
G02*
X103912100Y-81738500I0J-250000D01*
G01*
G37*
%TD*%
%TO.C,C47*%
G36*
G01*
X41995200Y-88086300D02*
X41995200Y-89036300D01*
G75*
G02*
X41745200Y-89286300I-250000J0D01*
G01*
X41245200Y-89286300D01*
G75*
G02*
X40995200Y-89036300I0J250000D01*
G01*
X40995200Y-88086300D01*
G75*
G02*
X41245200Y-87836300I250000J0D01*
G01*
X41745200Y-87836300D01*
G75*
G02*
X41995200Y-88086300I0J-250000D01*
G01*
G37*
G36*
G01*
X43895200Y-88086300D02*
X43895200Y-89036300D01*
G75*
G02*
X43645200Y-89286300I-250000J0D01*
G01*
X43145200Y-89286300D01*
G75*
G02*
X42895200Y-89036300I0J250000D01*
G01*
X42895200Y-88086300D01*
G75*
G02*
X43145200Y-87836300I250000J0D01*
G01*
X43645200Y-87836300D01*
G75*
G02*
X43895200Y-88086300I0J-250000D01*
G01*
G37*
%TD*%
%TO.C,C46*%
G36*
G01*
X39335200Y-79496300D02*
X39335200Y-80446300D01*
G75*
G02*
X39085200Y-80696300I-250000J0D01*
G01*
X38585200Y-80696300D01*
G75*
G02*
X38335200Y-80446300I0J250000D01*
G01*
X38335200Y-79496300D01*
G75*
G02*
X38585200Y-79246300I250000J0D01*
G01*
X39085200Y-79246300D01*
G75*
G02*
X39335200Y-79496300I0J-250000D01*
G01*
G37*
G36*
G01*
X41235200Y-79496300D02*
X41235200Y-80446300D01*
G75*
G02*
X40985200Y-80696300I-250000J0D01*
G01*
X40485200Y-80696300D01*
G75*
G02*
X40235200Y-80446300I0J250000D01*
G01*
X40235200Y-79496300D01*
G75*
G02*
X40485200Y-79246300I250000J0D01*
G01*
X40985200Y-79246300D01*
G75*
G02*
X41235200Y-79496300I0J-250000D01*
G01*
G37*
%TD*%
%TO.C,C45*%
G36*
G01*
X54425200Y-89131301D02*
X54425200Y-87831299D01*
G75*
G02*
X54675199Y-87581300I249999J0D01*
G01*
X55325201Y-87581300D01*
G75*
G02*
X55575200Y-87831299I0J-249999D01*
G01*
X55575200Y-89131301D01*
G75*
G02*
X55325201Y-89381300I-249999J0D01*
G01*
X54675199Y-89381300D01*
G75*
G02*
X54425200Y-89131301I0J249999D01*
G01*
G37*
G36*
G01*
X51475200Y-89131301D02*
X51475200Y-87831299D01*
G75*
G02*
X51725199Y-87581300I249999J0D01*
G01*
X52375201Y-87581300D01*
G75*
G02*
X52625200Y-87831299I0J-249999D01*
G01*
X52625200Y-89131301D01*
G75*
G02*
X52375201Y-89381300I-249999J0D01*
G01*
X51725199Y-89381300D01*
G75*
G02*
X51475200Y-89131301I0J249999D01*
G01*
G37*
%TD*%
%TO.C,C44*%
G36*
G01*
X125503600Y-94226400D02*
X126453600Y-94226400D01*
G75*
G02*
X126703600Y-94476400I0J-250000D01*
G01*
X126703600Y-94976400D01*
G75*
G02*
X126453600Y-95226400I-250000J0D01*
G01*
X125503600Y-95226400D01*
G75*
G02*
X125253600Y-94976400I0J250000D01*
G01*
X125253600Y-94476400D01*
G75*
G02*
X125503600Y-94226400I250000J0D01*
G01*
G37*
G36*
G01*
X125503600Y-92326400D02*
X126453600Y-92326400D01*
G75*
G02*
X126703600Y-92576400I0J-250000D01*
G01*
X126703600Y-93076400D01*
G75*
G02*
X126453600Y-93326400I-250000J0D01*
G01*
X125503600Y-93326400D01*
G75*
G02*
X125253600Y-93076400I0J250000D01*
G01*
X125253600Y-92576400D01*
G75*
G02*
X125503600Y-92326400I250000J0D01*
G01*
G37*
%TD*%
%TO.C,C43*%
G36*
G01*
X60480200Y-88531300D02*
X61430200Y-88531300D01*
G75*
G02*
X61680200Y-88781300I0J-250000D01*
G01*
X61680200Y-89281300D01*
G75*
G02*
X61430200Y-89531300I-250000J0D01*
G01*
X60480200Y-89531300D01*
G75*
G02*
X60230200Y-89281300I0J250000D01*
G01*
X60230200Y-88781300D01*
G75*
G02*
X60480200Y-88531300I250000J0D01*
G01*
G37*
G36*
G01*
X60480200Y-86631300D02*
X61430200Y-86631300D01*
G75*
G02*
X61680200Y-86881300I0J-250000D01*
G01*
X61680200Y-87381300D01*
G75*
G02*
X61430200Y-87631300I-250000J0D01*
G01*
X60480200Y-87631300D01*
G75*
G02*
X60230200Y-87381300I0J250000D01*
G01*
X60230200Y-86881300D01*
G75*
G02*
X60480200Y-86631300I250000J0D01*
G01*
G37*
%TD*%
%TO.C,C42*%
G36*
G01*
X57715200Y-107716300D02*
X57715200Y-108666300D01*
G75*
G02*
X57465200Y-108916300I-250000J0D01*
G01*
X56965200Y-108916300D01*
G75*
G02*
X56715200Y-108666300I0J250000D01*
G01*
X56715200Y-107716300D01*
G75*
G02*
X56965200Y-107466300I250000J0D01*
G01*
X57465200Y-107466300D01*
G75*
G02*
X57715200Y-107716300I0J-250000D01*
G01*
G37*
G36*
G01*
X59615200Y-107716300D02*
X59615200Y-108666300D01*
G75*
G02*
X59365200Y-108916300I-250000J0D01*
G01*
X58865200Y-108916300D01*
G75*
G02*
X58615200Y-108666300I0J250000D01*
G01*
X58615200Y-107716300D01*
G75*
G02*
X58865200Y-107466300I250000J0D01*
G01*
X59365200Y-107466300D01*
G75*
G02*
X59615200Y-107716300I0J-250000D01*
G01*
G37*
%TD*%
%TO.C,C41*%
G36*
G01*
X126444800Y-96825700D02*
X125494800Y-96825700D01*
G75*
G02*
X125244800Y-96575700I0J250000D01*
G01*
X125244800Y-96075700D01*
G75*
G02*
X125494800Y-95825700I250000J0D01*
G01*
X126444800Y-95825700D01*
G75*
G02*
X126694800Y-96075700I0J-250000D01*
G01*
X126694800Y-96575700D01*
G75*
G02*
X126444800Y-96825700I-250000J0D01*
G01*
G37*
G36*
G01*
X126444800Y-98725700D02*
X125494800Y-98725700D01*
G75*
G02*
X125244800Y-98475700I0J250000D01*
G01*
X125244800Y-97975700D01*
G75*
G02*
X125494800Y-97725700I250000J0D01*
G01*
X126444800Y-97725700D01*
G75*
G02*
X126694800Y-97975700I0J-250000D01*
G01*
X126694800Y-98475700D01*
G75*
G02*
X126444800Y-98725700I-250000J0D01*
G01*
G37*
%TD*%
%TO.C,C40*%
G36*
G01*
X62490200Y-88531300D02*
X63440200Y-88531300D01*
G75*
G02*
X63690200Y-88781300I0J-250000D01*
G01*
X63690200Y-89281300D01*
G75*
G02*
X63440200Y-89531300I-250000J0D01*
G01*
X62490200Y-89531300D01*
G75*
G02*
X62240200Y-89281300I0J250000D01*
G01*
X62240200Y-88781300D01*
G75*
G02*
X62490200Y-88531300I250000J0D01*
G01*
G37*
G36*
G01*
X62490200Y-86631300D02*
X63440200Y-86631300D01*
G75*
G02*
X63690200Y-86881300I0J-250000D01*
G01*
X63690200Y-87381300D01*
G75*
G02*
X63440200Y-87631300I-250000J0D01*
G01*
X62490200Y-87631300D01*
G75*
G02*
X62240200Y-87381300I0J250000D01*
G01*
X62240200Y-86881300D01*
G75*
G02*
X62490200Y-86631300I250000J0D01*
G01*
G37*
%TD*%
%TO.C,C39*%
G36*
G01*
X60815200Y-81176300D02*
X60815200Y-82126300D01*
G75*
G02*
X60565200Y-82376300I-250000J0D01*
G01*
X60065200Y-82376300D01*
G75*
G02*
X59815200Y-82126300I0J250000D01*
G01*
X59815200Y-81176300D01*
G75*
G02*
X60065200Y-80926300I250000J0D01*
G01*
X60565200Y-80926300D01*
G75*
G02*
X60815200Y-81176300I0J-250000D01*
G01*
G37*
G36*
G01*
X62715200Y-81176300D02*
X62715200Y-82126300D01*
G75*
G02*
X62465200Y-82376300I-250000J0D01*
G01*
X61965200Y-82376300D01*
G75*
G02*
X61715200Y-82126300I0J250000D01*
G01*
X61715200Y-81176300D01*
G75*
G02*
X61965200Y-80926300I250000J0D01*
G01*
X62465200Y-80926300D01*
G75*
G02*
X62715200Y-81176300I0J-250000D01*
G01*
G37*
%TD*%
%TO.C,C38*%
G36*
G01*
X64225200Y-79096300D02*
X64225200Y-80046300D01*
G75*
G02*
X63975200Y-80296300I-250000J0D01*
G01*
X63475200Y-80296300D01*
G75*
G02*
X63225200Y-80046300I0J250000D01*
G01*
X63225200Y-79096300D01*
G75*
G02*
X63475200Y-78846300I250000J0D01*
G01*
X63975200Y-78846300D01*
G75*
G02*
X64225200Y-79096300I0J-250000D01*
G01*
G37*
G36*
G01*
X66125200Y-79096300D02*
X66125200Y-80046300D01*
G75*
G02*
X65875200Y-80296300I-250000J0D01*
G01*
X65375200Y-80296300D01*
G75*
G02*
X65125200Y-80046300I0J250000D01*
G01*
X65125200Y-79096300D01*
G75*
G02*
X65375200Y-78846300I250000J0D01*
G01*
X65875200Y-78846300D01*
G75*
G02*
X66125200Y-79096300I0J-250000D01*
G01*
G37*
%TD*%
%TO.C,C37*%
G36*
G01*
X104793400Y-89193400D02*
X104793400Y-90143400D01*
G75*
G02*
X104543400Y-90393400I-250000J0D01*
G01*
X104043400Y-90393400D01*
G75*
G02*
X103793400Y-90143400I0J250000D01*
G01*
X103793400Y-89193400D01*
G75*
G02*
X104043400Y-88943400I250000J0D01*
G01*
X104543400Y-88943400D01*
G75*
G02*
X104793400Y-89193400I0J-250000D01*
G01*
G37*
G36*
G01*
X106693400Y-89193400D02*
X106693400Y-90143400D01*
G75*
G02*
X106443400Y-90393400I-250000J0D01*
G01*
X105943400Y-90393400D01*
G75*
G02*
X105693400Y-90143400I0J250000D01*
G01*
X105693400Y-89193400D01*
G75*
G02*
X105943400Y-88943400I250000J0D01*
G01*
X106443400Y-88943400D01*
G75*
G02*
X106693400Y-89193400I0J-250000D01*
G01*
G37*
%TD*%
%TO.C,C36*%
G36*
G01*
X68650200Y-94541300D02*
X67700200Y-94541300D01*
G75*
G02*
X67450200Y-94291300I0J250000D01*
G01*
X67450200Y-93791300D01*
G75*
G02*
X67700200Y-93541300I250000J0D01*
G01*
X68650200Y-93541300D01*
G75*
G02*
X68900200Y-93791300I0J-250000D01*
G01*
X68900200Y-94291300D01*
G75*
G02*
X68650200Y-94541300I-250000J0D01*
G01*
G37*
G36*
G01*
X68650200Y-96441300D02*
X67700200Y-96441300D01*
G75*
G02*
X67450200Y-96191300I0J250000D01*
G01*
X67450200Y-95691300D01*
G75*
G02*
X67700200Y-95441300I250000J0D01*
G01*
X68650200Y-95441300D01*
G75*
G02*
X68900200Y-95691300I0J-250000D01*
G01*
X68900200Y-96191300D01*
G75*
G02*
X68650200Y-96441300I-250000J0D01*
G01*
G37*
%TD*%
%TO.C,C35*%
G36*
G01*
X122901900Y-90181500D02*
X122901900Y-89231500D01*
G75*
G02*
X123151900Y-88981500I250000J0D01*
G01*
X123651900Y-88981500D01*
G75*
G02*
X123901900Y-89231500I0J-250000D01*
G01*
X123901900Y-90181500D01*
G75*
G02*
X123651900Y-90431500I-250000J0D01*
G01*
X123151900Y-90431500D01*
G75*
G02*
X122901900Y-90181500I0J250000D01*
G01*
G37*
G36*
G01*
X121001900Y-90181500D02*
X121001900Y-89231500D01*
G75*
G02*
X121251900Y-88981500I250000J0D01*
G01*
X121751900Y-88981500D01*
G75*
G02*
X122001900Y-89231500I0J-250000D01*
G01*
X122001900Y-90181500D01*
G75*
G02*
X121751900Y-90431500I-250000J0D01*
G01*
X121251900Y-90431500D01*
G75*
G02*
X121001900Y-90181500I0J250000D01*
G01*
G37*
%TD*%
%TO.C,C34*%
G36*
G01*
X76625200Y-100411300D02*
X76625200Y-105311300D01*
G75*
G02*
X76375200Y-105561300I-250000J0D01*
G01*
X75075200Y-105561300D01*
G75*
G02*
X74825200Y-105311300I0J250000D01*
G01*
X74825200Y-100411300D01*
G75*
G02*
X75075200Y-100161300I250000J0D01*
G01*
X76375200Y-100161300D01*
G75*
G02*
X76625200Y-100411300I0J-250000D01*
G01*
G37*
G36*
G01*
X81725200Y-100411300D02*
X81725200Y-105311300D01*
G75*
G02*
X81475200Y-105561300I-250000J0D01*
G01*
X80175200Y-105561300D01*
G75*
G02*
X79925200Y-105311300I0J250000D01*
G01*
X79925200Y-100411300D01*
G75*
G02*
X80175200Y-100161300I250000J0D01*
G01*
X81475200Y-100161300D01*
G75*
G02*
X81725200Y-100411300I0J-250000D01*
G01*
G37*
%TD*%
%TO.C,C33*%
G36*
G01*
X68495100Y-34154180D02*
X68495100Y-33204180D01*
G75*
G02*
X68745100Y-32954180I250000J0D01*
G01*
X69245100Y-32954180D01*
G75*
G02*
X69495100Y-33204180I0J-250000D01*
G01*
X69495100Y-34154180D01*
G75*
G02*
X69245100Y-34404180I-250000J0D01*
G01*
X68745100Y-34404180D01*
G75*
G02*
X68495100Y-34154180I0J250000D01*
G01*
G37*
G36*
G01*
X66595100Y-34154180D02*
X66595100Y-33204180D01*
G75*
G02*
X66845100Y-32954180I250000J0D01*
G01*
X67345100Y-32954180D01*
G75*
G02*
X67595100Y-33204180I0J-250000D01*
G01*
X67595100Y-34154180D01*
G75*
G02*
X67345100Y-34404180I-250000J0D01*
G01*
X66845100Y-34404180D01*
G75*
G02*
X66595100Y-34154180I0J250000D01*
G01*
G37*
%TD*%
%TO.C,C32*%
G36*
G01*
X49991200Y-45825480D02*
X49991200Y-44875480D01*
G75*
G02*
X50241200Y-44625480I250000J0D01*
G01*
X50741200Y-44625480D01*
G75*
G02*
X50991200Y-44875480I0J-250000D01*
G01*
X50991200Y-45825480D01*
G75*
G02*
X50741200Y-46075480I-250000J0D01*
G01*
X50241200Y-46075480D01*
G75*
G02*
X49991200Y-45825480I0J250000D01*
G01*
G37*
G36*
G01*
X48091200Y-45825480D02*
X48091200Y-44875480D01*
G75*
G02*
X48341200Y-44625480I250000J0D01*
G01*
X48841200Y-44625480D01*
G75*
G02*
X49091200Y-44875480I0J-250000D01*
G01*
X49091200Y-45825480D01*
G75*
G02*
X48841200Y-46075480I-250000J0D01*
G01*
X48341200Y-46075480D01*
G75*
G02*
X48091200Y-45825480I0J250000D01*
G01*
G37*
%TD*%
%TO.C,C31*%
G36*
G01*
X49998820Y-47849860D02*
X49998820Y-46899860D01*
G75*
G02*
X50248820Y-46649860I250000J0D01*
G01*
X50748820Y-46649860D01*
G75*
G02*
X50998820Y-46899860I0J-250000D01*
G01*
X50998820Y-47849860D01*
G75*
G02*
X50748820Y-48099860I-250000J0D01*
G01*
X50248820Y-48099860D01*
G75*
G02*
X49998820Y-47849860I0J250000D01*
G01*
G37*
G36*
G01*
X48098820Y-47849860D02*
X48098820Y-46899860D01*
G75*
G02*
X48348820Y-46649860I250000J0D01*
G01*
X48848820Y-46649860D01*
G75*
G02*
X49098820Y-46899860I0J-250000D01*
G01*
X49098820Y-47849860D01*
G75*
G02*
X48848820Y-48099860I-250000J0D01*
G01*
X48348820Y-48099860D01*
G75*
G02*
X48098820Y-47849860I0J250000D01*
G01*
G37*
%TD*%
%TO.C,C30*%
G36*
G01*
X64895920Y-39528820D02*
X64895920Y-38578820D01*
G75*
G02*
X65145920Y-38328820I250000J0D01*
G01*
X65645920Y-38328820D01*
G75*
G02*
X65895920Y-38578820I0J-250000D01*
G01*
X65895920Y-39528820D01*
G75*
G02*
X65645920Y-39778820I-250000J0D01*
G01*
X65145920Y-39778820D01*
G75*
G02*
X64895920Y-39528820I0J250000D01*
G01*
G37*
G36*
G01*
X62995920Y-39528820D02*
X62995920Y-38578820D01*
G75*
G02*
X63245920Y-38328820I250000J0D01*
G01*
X63745920Y-38328820D01*
G75*
G02*
X63995920Y-38578820I0J-250000D01*
G01*
X63995920Y-39528820D01*
G75*
G02*
X63745920Y-39778820I-250000J0D01*
G01*
X63245920Y-39778820D01*
G75*
G02*
X62995920Y-39528820I0J250000D01*
G01*
G37*
%TD*%
%TO.C,C29*%
G36*
G01*
X51604100Y-43580120D02*
X51604100Y-42630120D01*
G75*
G02*
X51854100Y-42380120I250000J0D01*
G01*
X52354100Y-42380120D01*
G75*
G02*
X52604100Y-42630120I0J-250000D01*
G01*
X52604100Y-43580120D01*
G75*
G02*
X52354100Y-43830120I-250000J0D01*
G01*
X51854100Y-43830120D01*
G75*
G02*
X51604100Y-43580120I0J250000D01*
G01*
G37*
G36*
G01*
X49704100Y-43580120D02*
X49704100Y-42630120D01*
G75*
G02*
X49954100Y-42380120I250000J0D01*
G01*
X50454100Y-42380120D01*
G75*
G02*
X50704100Y-42630120I0J-250000D01*
G01*
X50704100Y-43580120D01*
G75*
G02*
X50454100Y-43830120I-250000J0D01*
G01*
X49954100Y-43830120D01*
G75*
G02*
X49704100Y-43580120I0J250000D01*
G01*
G37*
%TD*%
%TO.C,C28*%
G36*
G01*
X49998820Y-49874240D02*
X49998820Y-48924240D01*
G75*
G02*
X50248820Y-48674240I250000J0D01*
G01*
X50748820Y-48674240D01*
G75*
G02*
X50998820Y-48924240I0J-250000D01*
G01*
X50998820Y-49874240D01*
G75*
G02*
X50748820Y-50124240I-250000J0D01*
G01*
X50248820Y-50124240D01*
G75*
G02*
X49998820Y-49874240I0J250000D01*
G01*
G37*
G36*
G01*
X48098820Y-49874240D02*
X48098820Y-48924240D01*
G75*
G02*
X48348820Y-48674240I250000J0D01*
G01*
X48848820Y-48674240D01*
G75*
G02*
X49098820Y-48924240I0J-250000D01*
G01*
X49098820Y-49874240D01*
G75*
G02*
X48848820Y-50124240I-250000J0D01*
G01*
X48348820Y-50124240D01*
G75*
G02*
X48098820Y-49874240I0J250000D01*
G01*
G37*
%TD*%
%TO.C,C27*%
G36*
G01*
X69464980Y-39602040D02*
X68514980Y-39602040D01*
G75*
G02*
X68264980Y-39352040I0J250000D01*
G01*
X68264980Y-38852040D01*
G75*
G02*
X68514980Y-38602040I250000J0D01*
G01*
X69464980Y-38602040D01*
G75*
G02*
X69714980Y-38852040I0J-250000D01*
G01*
X69714980Y-39352040D01*
G75*
G02*
X69464980Y-39602040I-250000J0D01*
G01*
G37*
G36*
G01*
X69464980Y-41502040D02*
X68514980Y-41502040D01*
G75*
G02*
X68264980Y-41252040I0J250000D01*
G01*
X68264980Y-40752040D01*
G75*
G02*
X68514980Y-40502040I250000J0D01*
G01*
X69464980Y-40502040D01*
G75*
G02*
X69714980Y-40752040I0J-250000D01*
G01*
X69714980Y-41252040D01*
G75*
G02*
X69464980Y-41502040I-250000J0D01*
G01*
G37*
%TD*%
%TO.C,C26*%
G36*
G01*
X60404800Y-41303840D02*
X59454800Y-41303840D01*
G75*
G02*
X59204800Y-41053840I0J250000D01*
G01*
X59204800Y-40553840D01*
G75*
G02*
X59454800Y-40303840I250000J0D01*
G01*
X60404800Y-40303840D01*
G75*
G02*
X60654800Y-40553840I0J-250000D01*
G01*
X60654800Y-41053840D01*
G75*
G02*
X60404800Y-41303840I-250000J0D01*
G01*
G37*
G36*
G01*
X60404800Y-43203840D02*
X59454800Y-43203840D01*
G75*
G02*
X59204800Y-42953840I0J250000D01*
G01*
X59204800Y-42453840D01*
G75*
G02*
X59454800Y-42203840I250000J0D01*
G01*
X60404800Y-42203840D01*
G75*
G02*
X60654800Y-42453840I0J-250000D01*
G01*
X60654800Y-42953840D01*
G75*
G02*
X60404800Y-43203840I-250000J0D01*
G01*
G37*
%TD*%
%TO.C,C25*%
G36*
G01*
X50001360Y-51903700D02*
X50001360Y-50953700D01*
G75*
G02*
X50251360Y-50703700I250000J0D01*
G01*
X50751360Y-50703700D01*
G75*
G02*
X51001360Y-50953700I0J-250000D01*
G01*
X51001360Y-51903700D01*
G75*
G02*
X50751360Y-52153700I-250000J0D01*
G01*
X50251360Y-52153700D01*
G75*
G02*
X50001360Y-51903700I0J250000D01*
G01*
G37*
G36*
G01*
X48101360Y-51903700D02*
X48101360Y-50953700D01*
G75*
G02*
X48351360Y-50703700I250000J0D01*
G01*
X48851360Y-50703700D01*
G75*
G02*
X49101360Y-50953700I0J-250000D01*
G01*
X49101360Y-51903700D01*
G75*
G02*
X48851360Y-52153700I-250000J0D01*
G01*
X48351360Y-52153700D01*
G75*
G02*
X48101360Y-51903700I0J250000D01*
G01*
G37*
%TD*%
%TO.C,C24*%
G36*
G01*
X54484060Y-41278440D02*
X53534060Y-41278440D01*
G75*
G02*
X53284060Y-41028440I0J250000D01*
G01*
X53284060Y-40528440D01*
G75*
G02*
X53534060Y-40278440I250000J0D01*
G01*
X54484060Y-40278440D01*
G75*
G02*
X54734060Y-40528440I0J-250000D01*
G01*
X54734060Y-41028440D01*
G75*
G02*
X54484060Y-41278440I-250000J0D01*
G01*
G37*
G36*
G01*
X54484060Y-43178440D02*
X53534060Y-43178440D01*
G75*
G02*
X53284060Y-42928440I0J250000D01*
G01*
X53284060Y-42428440D01*
G75*
G02*
X53534060Y-42178440I250000J0D01*
G01*
X54484060Y-42178440D01*
G75*
G02*
X54734060Y-42428440I0J-250000D01*
G01*
X54734060Y-42928440D01*
G75*
G02*
X54484060Y-43178440I-250000J0D01*
G01*
G37*
%TD*%
%TO.C,C23*%
G36*
G01*
X56604960Y-41298760D02*
X55654960Y-41298760D01*
G75*
G02*
X55404960Y-41048760I0J250000D01*
G01*
X55404960Y-40548760D01*
G75*
G02*
X55654960Y-40298760I250000J0D01*
G01*
X56604960Y-40298760D01*
G75*
G02*
X56854960Y-40548760I0J-250000D01*
G01*
X56854960Y-41048760D01*
G75*
G02*
X56604960Y-41298760I-250000J0D01*
G01*
G37*
G36*
G01*
X56604960Y-43198760D02*
X55654960Y-43198760D01*
G75*
G02*
X55404960Y-42948760I0J250000D01*
G01*
X55404960Y-42448760D01*
G75*
G02*
X55654960Y-42198760I250000J0D01*
G01*
X56604960Y-42198760D01*
G75*
G02*
X56854960Y-42448760I0J-250000D01*
G01*
X56854960Y-42948760D01*
G75*
G02*
X56604960Y-43198760I-250000J0D01*
G01*
G37*
%TD*%
%TO.C,C22*%
G36*
G01*
X50001360Y-53925540D02*
X50001360Y-52975540D01*
G75*
G02*
X50251360Y-52725540I250000J0D01*
G01*
X50751360Y-52725540D01*
G75*
G02*
X51001360Y-52975540I0J-250000D01*
G01*
X51001360Y-53925540D01*
G75*
G02*
X50751360Y-54175540I-250000J0D01*
G01*
X50251360Y-54175540D01*
G75*
G02*
X50001360Y-53925540I0J250000D01*
G01*
G37*
G36*
G01*
X48101360Y-53925540D02*
X48101360Y-52975540D01*
G75*
G02*
X48351360Y-52725540I250000J0D01*
G01*
X48851360Y-52725540D01*
G75*
G02*
X49101360Y-52975540I0J-250000D01*
G01*
X49101360Y-53925540D01*
G75*
G02*
X48851360Y-54175540I-250000J0D01*
G01*
X48351360Y-54175540D01*
G75*
G02*
X48101360Y-53925540I0J250000D01*
G01*
G37*
%TD*%
%TO.C,C21*%
G36*
G01*
X55169420Y-44055060D02*
X55169420Y-45005060D01*
G75*
G02*
X54919420Y-45255060I-250000J0D01*
G01*
X54419420Y-45255060D01*
G75*
G02*
X54169420Y-45005060I0J250000D01*
G01*
X54169420Y-44055060D01*
G75*
G02*
X54419420Y-43805060I250000J0D01*
G01*
X54919420Y-43805060D01*
G75*
G02*
X55169420Y-44055060I0J-250000D01*
G01*
G37*
G36*
G01*
X57069420Y-44055060D02*
X57069420Y-45005060D01*
G75*
G02*
X56819420Y-45255060I-250000J0D01*
G01*
X56319420Y-45255060D01*
G75*
G02*
X56069420Y-45005060I0J250000D01*
G01*
X56069420Y-44055060D01*
G75*
G02*
X56319420Y-43805060I250000J0D01*
G01*
X56819420Y-43805060D01*
G75*
G02*
X57069420Y-44055060I0J-250000D01*
G01*
G37*
%TD*%
%TO.C,C20*%
G36*
G01*
X65657520Y-41674680D02*
X64707520Y-41674680D01*
G75*
G02*
X64457520Y-41424680I0J250000D01*
G01*
X64457520Y-40924680D01*
G75*
G02*
X64707520Y-40674680I250000J0D01*
G01*
X65657520Y-40674680D01*
G75*
G02*
X65907520Y-40924680I0J-250000D01*
G01*
X65907520Y-41424680D01*
G75*
G02*
X65657520Y-41674680I-250000J0D01*
G01*
G37*
G36*
G01*
X65657520Y-43574680D02*
X64707520Y-43574680D01*
G75*
G02*
X64457520Y-43324680I0J250000D01*
G01*
X64457520Y-42824680D01*
G75*
G02*
X64707520Y-42574680I250000J0D01*
G01*
X65657520Y-42574680D01*
G75*
G02*
X65907520Y-42824680I0J-250000D01*
G01*
X65907520Y-43324680D01*
G75*
G02*
X65657520Y-43574680I-250000J0D01*
G01*
G37*
%TD*%
%TO.C,C19*%
G36*
G01*
X73516680Y-47291060D02*
X73516680Y-46341060D01*
G75*
G02*
X73766680Y-46091060I250000J0D01*
G01*
X74266680Y-46091060D01*
G75*
G02*
X74516680Y-46341060I0J-250000D01*
G01*
X74516680Y-47291060D01*
G75*
G02*
X74266680Y-47541060I-250000J0D01*
G01*
X73766680Y-47541060D01*
G75*
G02*
X73516680Y-47291060I0J250000D01*
G01*
G37*
G36*
G01*
X71616680Y-47291060D02*
X71616680Y-46341060D01*
G75*
G02*
X71866680Y-46091060I250000J0D01*
G01*
X72366680Y-46091060D01*
G75*
G02*
X72616680Y-46341060I0J-250000D01*
G01*
X72616680Y-47291060D01*
G75*
G02*
X72366680Y-47541060I-250000J0D01*
G01*
X71866680Y-47541060D01*
G75*
G02*
X71616680Y-47291060I0J250000D01*
G01*
G37*
%TD*%
%TO.C,C18*%
G36*
G01*
X70031800Y-47288520D02*
X70031800Y-46338520D01*
G75*
G02*
X70281800Y-46088520I250000J0D01*
G01*
X70781800Y-46088520D01*
G75*
G02*
X71031800Y-46338520I0J-250000D01*
G01*
X71031800Y-47288520D01*
G75*
G02*
X70781800Y-47538520I-250000J0D01*
G01*
X70281800Y-47538520D01*
G75*
G02*
X70031800Y-47288520I0J250000D01*
G01*
G37*
G36*
G01*
X68131800Y-47288520D02*
X68131800Y-46338520D01*
G75*
G02*
X68381800Y-46088520I250000J0D01*
G01*
X68881800Y-46088520D01*
G75*
G02*
X69131800Y-46338520I0J-250000D01*
G01*
X69131800Y-47288520D01*
G75*
G02*
X68881800Y-47538520I-250000J0D01*
G01*
X68381800Y-47538520D01*
G75*
G02*
X68131800Y-47288520I0J250000D01*
G01*
G37*
%TD*%
%TO.C,C17*%
G36*
G01*
X128174100Y-76874400D02*
X128174100Y-77824400D01*
G75*
G02*
X127924100Y-78074400I-250000J0D01*
G01*
X127424100Y-78074400D01*
G75*
G02*
X127174100Y-77824400I0J250000D01*
G01*
X127174100Y-76874400D01*
G75*
G02*
X127424100Y-76624400I250000J0D01*
G01*
X127924100Y-76624400D01*
G75*
G02*
X128174100Y-76874400I0J-250000D01*
G01*
G37*
G36*
G01*
X130074100Y-76874400D02*
X130074100Y-77824400D01*
G75*
G02*
X129824100Y-78074400I-250000J0D01*
G01*
X129324100Y-78074400D01*
G75*
G02*
X129074100Y-77824400I0J250000D01*
G01*
X129074100Y-76874400D01*
G75*
G02*
X129324100Y-76624400I250000J0D01*
G01*
X129824100Y-76624400D01*
G75*
G02*
X130074100Y-76874400I0J-250000D01*
G01*
G37*
%TD*%
%TO.C,C16*%
G36*
G01*
X120439800Y-73011300D02*
X120439800Y-72061300D01*
G75*
G02*
X120689800Y-71811300I250000J0D01*
G01*
X121189800Y-71811300D01*
G75*
G02*
X121439800Y-72061300I0J-250000D01*
G01*
X121439800Y-73011300D01*
G75*
G02*
X121189800Y-73261300I-250000J0D01*
G01*
X120689800Y-73261300D01*
G75*
G02*
X120439800Y-73011300I0J250000D01*
G01*
G37*
G36*
G01*
X118539800Y-73011300D02*
X118539800Y-72061300D01*
G75*
G02*
X118789800Y-71811300I250000J0D01*
G01*
X119289800Y-71811300D01*
G75*
G02*
X119539800Y-72061300I0J-250000D01*
G01*
X119539800Y-73011300D01*
G75*
G02*
X119289800Y-73261300I-250000J0D01*
G01*
X118789800Y-73261300D01*
G75*
G02*
X118539800Y-73011300I0J250000D01*
G01*
G37*
%TD*%
%TO.C,C15*%
G36*
G01*
X73511600Y-45253980D02*
X73511600Y-44303980D01*
G75*
G02*
X73761600Y-44053980I250000J0D01*
G01*
X74261600Y-44053980D01*
G75*
G02*
X74511600Y-44303980I0J-250000D01*
G01*
X74511600Y-45253980D01*
G75*
G02*
X74261600Y-45503980I-250000J0D01*
G01*
X73761600Y-45503980D01*
G75*
G02*
X73511600Y-45253980I0J250000D01*
G01*
G37*
G36*
G01*
X71611600Y-45253980D02*
X71611600Y-44303980D01*
G75*
G02*
X71861600Y-44053980I250000J0D01*
G01*
X72361600Y-44053980D01*
G75*
G02*
X72611600Y-44303980I0J-250000D01*
G01*
X72611600Y-45253980D01*
G75*
G02*
X72361600Y-45503980I-250000J0D01*
G01*
X71861600Y-45503980D01*
G75*
G02*
X71611600Y-45253980I0J250000D01*
G01*
G37*
%TD*%
%TO.C,C14*%
G36*
G01*
X84415200Y-96096300D02*
X84415200Y-95146300D01*
G75*
G02*
X84665200Y-94896300I250000J0D01*
G01*
X85165200Y-94896300D01*
G75*
G02*
X85415200Y-95146300I0J-250000D01*
G01*
X85415200Y-96096300D01*
G75*
G02*
X85165200Y-96346300I-250000J0D01*
G01*
X84665200Y-96346300D01*
G75*
G02*
X84415200Y-96096300I0J250000D01*
G01*
G37*
G36*
G01*
X82515200Y-96096300D02*
X82515200Y-95146300D01*
G75*
G02*
X82765200Y-94896300I250000J0D01*
G01*
X83265200Y-94896300D01*
G75*
G02*
X83515200Y-95146300I0J-250000D01*
G01*
X83515200Y-96096300D01*
G75*
G02*
X83265200Y-96346300I-250000J0D01*
G01*
X82765200Y-96346300D01*
G75*
G02*
X82515200Y-96096300I0J250000D01*
G01*
G37*
%TD*%
%TO.C,C13*%
G36*
G01*
X119519800Y-66071300D02*
X119519800Y-67021300D01*
G75*
G02*
X119269800Y-67271300I-250000J0D01*
G01*
X118769800Y-67271300D01*
G75*
G02*
X118519800Y-67021300I0J250000D01*
G01*
X118519800Y-66071300D01*
G75*
G02*
X118769800Y-65821300I250000J0D01*
G01*
X119269800Y-65821300D01*
G75*
G02*
X119519800Y-66071300I0J-250000D01*
G01*
G37*
G36*
G01*
X121419800Y-66071300D02*
X121419800Y-67021300D01*
G75*
G02*
X121169800Y-67271300I-250000J0D01*
G01*
X120669800Y-67271300D01*
G75*
G02*
X120419800Y-67021300I0J250000D01*
G01*
X120419800Y-66071300D01*
G75*
G02*
X120669800Y-65821300I250000J0D01*
G01*
X121169800Y-65821300D01*
G75*
G02*
X121419800Y-66071300I0J-250000D01*
G01*
G37*
%TD*%
%TO.C,C12*%
G36*
G01*
X68406200Y-50494000D02*
X68406200Y-49544000D01*
G75*
G02*
X68656200Y-49294000I250000J0D01*
G01*
X69156200Y-49294000D01*
G75*
G02*
X69406200Y-49544000I0J-250000D01*
G01*
X69406200Y-50494000D01*
G75*
G02*
X69156200Y-50744000I-250000J0D01*
G01*
X68656200Y-50744000D01*
G75*
G02*
X68406200Y-50494000I0J250000D01*
G01*
G37*
G36*
G01*
X66506200Y-50494000D02*
X66506200Y-49544000D01*
G75*
G02*
X66756200Y-49294000I250000J0D01*
G01*
X67256200Y-49294000D01*
G75*
G02*
X67506200Y-49544000I0J-250000D01*
G01*
X67506200Y-50494000D01*
G75*
G02*
X67256200Y-50744000I-250000J0D01*
G01*
X66756200Y-50744000D01*
G75*
G02*
X66506200Y-50494000I0J250000D01*
G01*
G37*
%TD*%
%TO.C,C11*%
G36*
G01*
X68383340Y-54509740D02*
X68383340Y-53559740D01*
G75*
G02*
X68633340Y-53309740I250000J0D01*
G01*
X69133340Y-53309740D01*
G75*
G02*
X69383340Y-53559740I0J-250000D01*
G01*
X69383340Y-54509740D01*
G75*
G02*
X69133340Y-54759740I-250000J0D01*
G01*
X68633340Y-54759740D01*
G75*
G02*
X68383340Y-54509740I0J250000D01*
G01*
G37*
G36*
G01*
X66483340Y-54509740D02*
X66483340Y-53559740D01*
G75*
G02*
X66733340Y-53309740I250000J0D01*
G01*
X67233340Y-53309740D01*
G75*
G02*
X67483340Y-53559740I0J-250000D01*
G01*
X67483340Y-54509740D01*
G75*
G02*
X67233340Y-54759740I-250000J0D01*
G01*
X66733340Y-54759740D01*
G75*
G02*
X66483340Y-54509740I0J250000D01*
G01*
G37*
%TD*%
%TO.C,C10*%
G36*
G01*
X49697120Y-61495940D02*
X50647120Y-61495940D01*
G75*
G02*
X50897120Y-61745940I0J-250000D01*
G01*
X50897120Y-62245940D01*
G75*
G02*
X50647120Y-62495940I-250000J0D01*
G01*
X49697120Y-62495940D01*
G75*
G02*
X49447120Y-62245940I0J250000D01*
G01*
X49447120Y-61745940D01*
G75*
G02*
X49697120Y-61495940I250000J0D01*
G01*
G37*
G36*
G01*
X49697120Y-59595940D02*
X50647120Y-59595940D01*
G75*
G02*
X50897120Y-59845940I0J-250000D01*
G01*
X50897120Y-60345940D01*
G75*
G02*
X50647120Y-60595940I-250000J0D01*
G01*
X49697120Y-60595940D01*
G75*
G02*
X49447120Y-60345940I0J250000D01*
G01*
X49447120Y-59845940D01*
G75*
G02*
X49697120Y-59595940I250000J0D01*
G01*
G37*
%TD*%
%TO.C,C9*%
G36*
G01*
X54903120Y-60631540D02*
X55853120Y-60631540D01*
G75*
G02*
X56103120Y-60881540I0J-250000D01*
G01*
X56103120Y-61381540D01*
G75*
G02*
X55853120Y-61631540I-250000J0D01*
G01*
X54903120Y-61631540D01*
G75*
G02*
X54653120Y-61381540I0J250000D01*
G01*
X54653120Y-60881540D01*
G75*
G02*
X54903120Y-60631540I250000J0D01*
G01*
G37*
G36*
G01*
X54903120Y-58731540D02*
X55853120Y-58731540D01*
G75*
G02*
X56103120Y-58981540I0J-250000D01*
G01*
X56103120Y-59481540D01*
G75*
G02*
X55853120Y-59731540I-250000J0D01*
G01*
X54903120Y-59731540D01*
G75*
G02*
X54653120Y-59481540I0J250000D01*
G01*
X54653120Y-58981540D01*
G75*
G02*
X54903120Y-58731540I250000J0D01*
G01*
G37*
%TD*%
%TO.C,C8*%
G36*
G01*
X68388420Y-56539200D02*
X68388420Y-55589200D01*
G75*
G02*
X68638420Y-55339200I250000J0D01*
G01*
X69138420Y-55339200D01*
G75*
G02*
X69388420Y-55589200I0J-250000D01*
G01*
X69388420Y-56539200D01*
G75*
G02*
X69138420Y-56789200I-250000J0D01*
G01*
X68638420Y-56789200D01*
G75*
G02*
X68388420Y-56539200I0J250000D01*
G01*
G37*
G36*
G01*
X66488420Y-56539200D02*
X66488420Y-55589200D01*
G75*
G02*
X66738420Y-55339200I250000J0D01*
G01*
X67238420Y-55339200D01*
G75*
G02*
X67488420Y-55589200I0J-250000D01*
G01*
X67488420Y-56539200D01*
G75*
G02*
X67238420Y-56789200I-250000J0D01*
G01*
X66738420Y-56789200D01*
G75*
G02*
X66488420Y-56539200I0J250000D01*
G01*
G37*
%TD*%
%TO.C,C7*%
G36*
G01*
X93526400Y-67163300D02*
X92576400Y-67163300D01*
G75*
G02*
X92326400Y-66913300I0J250000D01*
G01*
X92326400Y-66413300D01*
G75*
G02*
X92576400Y-66163300I250000J0D01*
G01*
X93526400Y-66163300D01*
G75*
G02*
X93776400Y-66413300I0J-250000D01*
G01*
X93776400Y-66913300D01*
G75*
G02*
X93526400Y-67163300I-250000J0D01*
G01*
G37*
G36*
G01*
X93526400Y-69063300D02*
X92576400Y-69063300D01*
G75*
G02*
X92326400Y-68813300I0J250000D01*
G01*
X92326400Y-68313300D01*
G75*
G02*
X92576400Y-68063300I250000J0D01*
G01*
X93526400Y-68063300D01*
G75*
G02*
X93776400Y-68313300I0J-250000D01*
G01*
X93776400Y-68813300D01*
G75*
G02*
X93526400Y-69063300I-250000J0D01*
G01*
G37*
%TD*%
%TO.C,C6*%
G36*
G01*
X57612880Y-53708680D02*
X56662880Y-53708680D01*
G75*
G02*
X56412880Y-53458680I0J250000D01*
G01*
X56412880Y-52958680D01*
G75*
G02*
X56662880Y-52708680I250000J0D01*
G01*
X57612880Y-52708680D01*
G75*
G02*
X57862880Y-52958680I0J-250000D01*
G01*
X57862880Y-53458680D01*
G75*
G02*
X57612880Y-53708680I-250000J0D01*
G01*
G37*
G36*
G01*
X57612880Y-55608680D02*
X56662880Y-55608680D01*
G75*
G02*
X56412880Y-55358680I0J250000D01*
G01*
X56412880Y-54858680D01*
G75*
G02*
X56662880Y-54608680I250000J0D01*
G01*
X57612880Y-54608680D01*
G75*
G02*
X57862880Y-54858680I0J-250000D01*
G01*
X57862880Y-55358680D01*
G75*
G02*
X57612880Y-55608680I-250000J0D01*
G01*
G37*
%TD*%
%TO.C,C5*%
G36*
G01*
X61303920Y-58076300D02*
X62253920Y-58076300D01*
G75*
G02*
X62503920Y-58326300I0J-250000D01*
G01*
X62503920Y-58826300D01*
G75*
G02*
X62253920Y-59076300I-250000J0D01*
G01*
X61303920Y-59076300D01*
G75*
G02*
X61053920Y-58826300I0J250000D01*
G01*
X61053920Y-58326300D01*
G75*
G02*
X61303920Y-58076300I250000J0D01*
G01*
G37*
G36*
G01*
X61303920Y-56176300D02*
X62253920Y-56176300D01*
G75*
G02*
X62503920Y-56426300I0J-250000D01*
G01*
X62503920Y-56926300D01*
G75*
G02*
X62253920Y-57176300I-250000J0D01*
G01*
X61303920Y-57176300D01*
G75*
G02*
X61053920Y-56926300I0J250000D01*
G01*
X61053920Y-56426300D01*
G75*
G02*
X61303920Y-56176300I250000J0D01*
G01*
G37*
%TD*%
%TO.C,C4*%
G36*
G01*
X63320680Y-58071220D02*
X64270680Y-58071220D01*
G75*
G02*
X64520680Y-58321220I0J-250000D01*
G01*
X64520680Y-58821220D01*
G75*
G02*
X64270680Y-59071220I-250000J0D01*
G01*
X63320680Y-59071220D01*
G75*
G02*
X63070680Y-58821220I0J250000D01*
G01*
X63070680Y-58321220D01*
G75*
G02*
X63320680Y-58071220I250000J0D01*
G01*
G37*
G36*
G01*
X63320680Y-56171220D02*
X64270680Y-56171220D01*
G75*
G02*
X64520680Y-56421220I0J-250000D01*
G01*
X64520680Y-56921220D01*
G75*
G02*
X64270680Y-57171220I-250000J0D01*
G01*
X63320680Y-57171220D01*
G75*
G02*
X63070680Y-56921220I0J250000D01*
G01*
X63070680Y-56421220D01*
G75*
G02*
X63320680Y-56171220I250000J0D01*
G01*
G37*
%TD*%
%TO.C,C3*%
G36*
G01*
X59284620Y-58081380D02*
X60234620Y-58081380D01*
G75*
G02*
X60484620Y-58331380I0J-250000D01*
G01*
X60484620Y-58831380D01*
G75*
G02*
X60234620Y-59081380I-250000J0D01*
G01*
X59284620Y-59081380D01*
G75*
G02*
X59034620Y-58831380I0J250000D01*
G01*
X59034620Y-58331380D01*
G75*
G02*
X59284620Y-58081380I250000J0D01*
G01*
G37*
G36*
G01*
X59284620Y-56181380D02*
X60234620Y-56181380D01*
G75*
G02*
X60484620Y-56431380I0J-250000D01*
G01*
X60484620Y-56931380D01*
G75*
G02*
X60234620Y-57181380I-250000J0D01*
G01*
X59284620Y-57181380D01*
G75*
G02*
X59034620Y-56931380I0J250000D01*
G01*
X59034620Y-56431380D01*
G75*
G02*
X59284620Y-56181380I250000J0D01*
G01*
G37*
%TD*%
%TO.C,C2*%
G36*
G01*
X55850580Y-63183400D02*
X54900580Y-63183400D01*
G75*
G02*
X54650580Y-62933400I0J250000D01*
G01*
X54650580Y-62433400D01*
G75*
G02*
X54900580Y-62183400I250000J0D01*
G01*
X55850580Y-62183400D01*
G75*
G02*
X56100580Y-62433400I0J-250000D01*
G01*
X56100580Y-62933400D01*
G75*
G02*
X55850580Y-63183400I-250000J0D01*
G01*
G37*
G36*
G01*
X55850580Y-65083400D02*
X54900580Y-65083400D01*
G75*
G02*
X54650580Y-64833400I0J250000D01*
G01*
X54650580Y-64333400D01*
G75*
G02*
X54900580Y-64083400I250000J0D01*
G01*
X55850580Y-64083400D01*
G75*
G02*
X56100580Y-64333400I0J-250000D01*
G01*
X56100580Y-64833400D01*
G75*
G02*
X55850580Y-65083400I-250000J0D01*
G01*
G37*
%TD*%
%TO.C,C1*%
G36*
G01*
X51812880Y-54608680D02*
X52762880Y-54608680D01*
G75*
G02*
X53012880Y-54858680I0J-250000D01*
G01*
X53012880Y-55358680D01*
G75*
G02*
X52762880Y-55608680I-250000J0D01*
G01*
X51812880Y-55608680D01*
G75*
G02*
X51562880Y-55358680I0J250000D01*
G01*
X51562880Y-54858680D01*
G75*
G02*
X51812880Y-54608680I250000J0D01*
G01*
G37*
G36*
G01*
X51812880Y-52708680D02*
X52762880Y-52708680D01*
G75*
G02*
X53012880Y-52958680I0J-250000D01*
G01*
X53012880Y-53458680D01*
G75*
G02*
X52762880Y-53708680I-250000J0D01*
G01*
X51812880Y-53708680D01*
G75*
G02*
X51562880Y-53458680I0J250000D01*
G01*
X51562880Y-52958680D01*
G75*
G02*
X51812880Y-52708680I250000J0D01*
G01*
G37*
%TD*%
M02*
