%TF.GenerationSoftware,KiCad,Pcbnew,(5.99.0-13288-g9941a52e75)*%
%TF.CreationDate,2021-11-14T22:41:22-05:00*%
%TF.ProjectId,davis-receiver-kc6,64617669-732d-4726-9563-65697665722d,rev?*%
%TF.SameCoordinates,Original*%
%TF.FileFunction,Soldermask,Bot*%
%TF.FilePolarity,Negative*%
%FSLAX46Y46*%
G04 Gerber Fmt 4.6, Leading zero omitted, Abs format (unit mm)*
G04 Created by KiCad (PCBNEW (5.99.0-13288-g9941a52e75)) date 2021-11-14 22:41:22*
%MOMM*%
%LPD*%
G01*
G04 APERTURE LIST*
%ADD10C,8.600000*%
%ADD11C,0.900000*%
%ADD12C,0.991000*%
%ADD13C,2.374900*%
%ADD14R,4.060000X1.520000*%
%ADD15R,2.000000X2.000000*%
%ADD16C,2.000000*%
%ADD17C,3.200000*%
%ADD18R,1.524000X1.524000*%
%ADD19C,1.524000*%
%ADD20C,2.500000*%
%ADD21C,0.508000*%
G04 APERTURE END LIST*
D10*
%TO.C,H3*%
X122000000Y-22000000D03*
D11*
X122000000Y-25225000D03*
X125225000Y-22000000D03*
X124280419Y-24280419D03*
X124280419Y-19719581D03*
X119719581Y-24280419D03*
X119719581Y-19719581D03*
X118775000Y-22000000D03*
X122000000Y-18775000D03*
%TD*%
%TO.C,H2*%
X22000000Y-78775000D03*
D10*
X22000000Y-82000000D03*
D11*
X25225000Y-82000000D03*
X18775000Y-82000000D03*
X24280419Y-84280419D03*
X22000000Y-85225000D03*
X24280419Y-79719581D03*
X19719581Y-79719581D03*
X19719581Y-84280419D03*
%TD*%
D12*
%TO.C,J3*%
X59877400Y-32790800D03*
X52257400Y-31775800D03*
X52257400Y-33805800D03*
D13*
X54162400Y-35330800D03*
X59877400Y-35330800D03*
X59877400Y-30250800D03*
X54162400Y-30250800D03*
%TD*%
%TO.C,J6*%
X44781900Y-40931500D03*
X44781900Y-46011500D03*
D12*
X42876900Y-42456500D03*
X42876900Y-44486500D03*
D13*
X47956900Y-46011500D03*
X47956900Y-40931500D03*
D12*
X47956900Y-43471500D03*
%TD*%
D13*
%TO.C,J4*%
X37030100Y-35343500D03*
X37030100Y-30263500D03*
D12*
X31950100Y-31788500D03*
D13*
X33855100Y-30263500D03*
X33855100Y-35343500D03*
D12*
X37030100Y-32803500D03*
X31950100Y-33818500D03*
%TD*%
D13*
%TO.C,J5*%
X44777100Y-30327000D03*
D12*
X42872100Y-31852000D03*
X47952100Y-32867000D03*
X42872100Y-33882000D03*
D13*
X44777100Y-35407000D03*
X47952100Y-35407000D03*
X47952100Y-30327000D03*
%TD*%
D14*
%TO.C,J1*%
X19280580Y-57238040D03*
X19280580Y-62318040D03*
%TD*%
D15*
%TO.C,SW1*%
X93481600Y-38073600D03*
D16*
X93481600Y-31673600D03*
%TD*%
D17*
%TO.C,J2*%
X113763500Y-45157800D03*
X113763500Y-33727800D03*
D18*
X107413500Y-33702800D03*
D19*
X104873500Y-34702800D03*
X107413500Y-36252800D03*
X104873500Y-37512800D03*
X107413500Y-38802800D03*
X107413500Y-41342800D03*
X104873500Y-42592800D03*
X107413500Y-43882800D03*
X104873500Y-45132800D03*
X116303500Y-32717800D03*
X118333500Y-32717800D03*
X116303500Y-46167800D03*
X118333500Y-46167800D03*
D20*
X110713500Y-47317800D03*
X110713500Y-31567800D03*
%TD*%
D12*
%TO.C,J7*%
X31954900Y-44499200D03*
X31954900Y-42469200D03*
D13*
X37034900Y-40944200D03*
X33859900Y-40944200D03*
X37034900Y-46024200D03*
X33859900Y-46024200D03*
D12*
X37034900Y-43484200D03*
%TD*%
D21*
%TO.C,U2*%
X41614800Y-67611400D03*
X43189600Y-67611400D03*
X43189600Y-66036600D03*
X43189600Y-66824000D03*
X40827400Y-66824000D03*
X42402200Y-67611400D03*
X40827400Y-66036600D03*
X42402200Y-66036600D03*
X41614800Y-66036600D03*
X40827400Y-67611400D03*
X40827400Y-65249200D03*
X42402200Y-66824000D03*
X41614800Y-66824000D03*
X43189600Y-65249200D03*
X41614800Y-65249200D03*
X42402200Y-65249200D03*
%TD*%
D11*
%TO.C,H4*%
X22000000Y-25225000D03*
X22000000Y-18775000D03*
X19719581Y-24280419D03*
X24280419Y-19719581D03*
D10*
X22000000Y-22000000D03*
D11*
X18775000Y-22000000D03*
X24280419Y-24280419D03*
X19719581Y-19719581D03*
X25225000Y-22000000D03*
%TD*%
%TO.C,H1*%
X119719581Y-84280419D03*
X119719581Y-79719581D03*
X122000000Y-85225000D03*
X118775000Y-82000000D03*
X124280419Y-79719581D03*
X124280419Y-84280419D03*
X122000000Y-78775000D03*
X125225000Y-82000000D03*
D10*
X122000000Y-82000000D03*
%TD*%
M02*
