M48
; DRILL file {KiCad (5.99.0-13288-g9941a52e75)} date Sun Nov 14 22:54:03 2021
; FORMAT={-:-/ absolute / inch / decimal}
; #@! TF.CreationDate,2021-11-14T22:54:03-05:00
; #@! TF.GenerationSoftware,Kicad,Pcbnew,(5.99.0-13288-g9941a52e75)
; #@! TF.FileFunction,NonPlated,1,4,NPTH
FMAT,2
INCH
; #@! TA.AperFunction,NonPlated,NPTH,ComponentDrill
T1C0.0390
; #@! TA.AperFunction,NonPlated,NPTH,ComponentDrill
T2C0.0935
; #@! TA.AperFunction,NonPlated,NPTH,ComponentDrill
T3C0.1260
%
G90
G05
T1
X1.2579Y-1.2515
X1.2579Y-1.3314
X1.2581Y-1.672
X1.2581Y-1.7519
X1.4579Y-1.2915
X1.4581Y-1.712
X1.6879Y-1.254
X1.6879Y-1.3339
X1.6881Y-1.6715
X1.6881Y-1.7514
X1.8879Y-1.294
X1.8881Y-1.7115
X2.0574Y-1.251
X2.0574Y-1.3309
X2.3574Y-1.291
T2
X1.3329Y-1.1915
X1.3329Y-1.3915
X1.3331Y-1.612
X1.3331Y-1.812
X1.4579Y-1.1915
X1.4579Y-1.3915
X1.4581Y-1.612
X1.4581Y-1.812
X1.7629Y-1.194
X1.7629Y-1.394
X1.7631Y-1.6115
X1.7631Y-1.8115
X1.8879Y-1.194
X1.8879Y-1.394
X1.8881Y-1.6115
X1.8881Y-1.8115
X2.1324Y-1.191
X2.1324Y-1.391
X2.3574Y-1.191
X2.3574Y-1.391
T3
X4.4789Y-1.3279
X4.4789Y-1.7779
T0
M30
