M48
; DRILL file {KiCad (5.99.0-13288-g9941a52e75)} date Sun Nov 14 22:41:25 2021
; FORMAT={-:-/ absolute / inch / decimal}
; #@! TF.CreationDate,2021-11-14T22:41:25-05:00
; #@! TF.GenerationSoftware,Kicad,Pcbnew,(5.99.0-13288-g9941a52e75)
; #@! TF.FileFunction,Plated,1,4,PTH
FMAT,2
INCH
; #@! TA.AperFunction,Plated,PTH,ViaDrill
T1C0.0100
; #@! TA.AperFunction,Plated,PTH,ComponentDrill
T2C0.0100
; #@! TA.AperFunction,Plated,PTH,ViaDrill
T3C0.0118
; #@! TA.AperFunction,Plated,PTH,ViaDrill
T4C0.0157
; #@! TA.AperFunction,Plated,PTH,ViaDrill
T5C0.0197
; #@! TA.AperFunction,Plated,PTH,ComponentDrill
T6C0.0236
; #@! TA.AperFunction,Plated,PTH,ComponentDrill
T7C0.0350
; #@! TA.AperFunction,Plated,PTH,ComponentDrill
T8C0.0472
; #@! TA.AperFunction,Plated,PTH,ComponentDrill
T9C0.0669
; #@! TA.AperFunction,Plated,PTH,ComponentDrill
T10C0.1693
%
G90
G05
T1
X0.7176Y-2.0062
X0.7176Y-2.0456
X0.7176Y-2.0849
X0.7176Y-2.1243
X0.7176Y-2.1637
X0.7176Y-2.5574
X0.7176Y-2.5968
X0.7176Y-2.6361
X0.7176Y-2.6755
X0.7176Y-2.7149
X0.7176Y-2.7542
X0.7176Y-2.7936
X0.7176Y-2.833
X0.7176Y-2.8723
X0.7176Y-2.9117
X0.7176Y-2.9511
X0.7176Y-2.9905
X0.7569Y-2.0062
X0.7569Y-2.9905
X0.7963Y-2.0062
X0.7963Y-2.9905
X0.8357Y-2.0062
X0.8357Y-2.9905
X0.875Y-2.0062
X0.875Y-2.9905
X0.9144Y-2.0062
X0.9144Y-2.9905
X0.9538Y-2.0062
X0.9538Y-2.9905
X0.9931Y-2.0062
X0.9931Y-2.9905
X1.0131Y-2.2374
X1.0325Y-2.0062
X1.0325Y-2.9905
X1.0531Y-2.2374
X1.0719Y-2.0062
X1.0719Y-2.9905
X1.1113Y-2.0062
X1.1113Y-2.9905
X1.1113Y-3.0298
X1.1113Y-3.0692
X1.1113Y-3.1086
X1.1113Y-3.1479
X1.1113Y-3.1873
X1.1113Y-3.2267
X1.1113Y-3.266
X1.1113Y-3.3054
X1.1113Y-3.3448
X1.1113Y-3.3842
X1.1506Y-2.0062
X1.1506Y-3.3842
X1.19Y-2.0062
X1.19Y-3.3842
X1.2294Y-2.0062
X1.2294Y-3.3842
X1.2569Y-1.3881
X1.2681Y-2.7674
X1.2681Y-2.8024
X1.2681Y-2.8524
X1.2681Y-2.8874
X1.2687Y-2.0062
X1.2687Y-3.3842
X1.2766Y-1.4235
X1.3081Y-2.5174
X1.3081Y-2.0062
X1.3081Y-3.3842
X1.3475Y-2.0062
X1.3475Y-3.3842
X1.3481Y-2.5624
X1.3869Y-2.0062
X1.3869Y-3.3842
X1.3908Y-1.8645
X1.3947Y-1.1582
X1.4262Y-2.0062
X1.4262Y-3.3842
X1.4311Y-2.6649
X1.4341Y-1.9393
X1.4391Y-2.0344
X1.4426Y-2.9114
X1.4431Y-2.8074
X1.4656Y-2.0062
X1.4656Y-3.3842
X1.4731Y-2.8074
X1.4731Y-3.1224
X1.4741Y-2.0344
X1.4931Y-1.6668
X1.4931Y-1.7542
X1.4959Y-1.2456
X1.505Y-2.0062
X1.505Y-3.3842
X1.5081Y-3.1224
X1.5191Y-2.0344
X1.5286Y-1.9038
X1.5356Y-2.9564
X1.5443Y-2.0062
X1.5443Y-3.3842
X1.5531Y-3.1224
X1.5541Y-2.0344
X1.568Y-1.7542
X1.5719Y-1.5928
X1.5837Y-2.0062
X1.5837Y-3.3842
X1.5876Y-1.9432
X1.5881Y-3.1224
X1.5986Y-2.9364
X1.6113Y-1.8487
X1.6231Y-2.0062
X1.6231Y-3.3842
X1.6331Y-3.1224
X1.6546Y-2.9649
X1.6624Y-2.0456
X1.6624Y-3.3842
X1.6681Y-3.1224
X1.6743Y-2.2385
X1.6979Y-1.9275
X1.7018Y-2.0849
X1.7018Y-3.3842
X1.7031Y-2.9394
X1.7036Y-2.7784
X1.7066Y-2.8619
X1.7131Y-3.1224
X1.7256Y-2.4607
X1.7412Y-2.0849
X1.7412Y-3.3842
X1.7451Y-2.4786
X1.7452Y-2.5179
X1.7466Y-2.8264
X1.7481Y-3.1224
X1.7511Y-2.9064
X1.7569Y-2.2424
X1.7648Y-2.4393
X1.7727Y-1.9353
X1.7806Y-2.0849
X1.7806Y-3.3842
X1.7895Y-2.5506
X1.792Y-2.6083
X1.7924Y-2.5259
X1.7931Y-3.1224
X1.7941Y-2.6435
X1.812Y-2.6637
X1.8199Y-2.0849
X1.8199Y-3.3842
X1.8281Y-3.1224
X1.8317Y-2.4393
X1.8357Y-2.2424
X1.8593Y-2.0849
X1.8593Y-3.3842
X1.8672Y-2.6322
X1.8869Y-1.9353
X1.8987Y-2.0849
X1.8987Y-3.3842
X1.9131Y-2.2424
X1.9141Y-2.9169
X1.9251Y-2.7109
X1.9258Y-1.3255
X1.9261Y-2.7864
X1.9274Y-1.2566
X1.9276Y-2.8684
X1.9302Y-1.6676
X1.9302Y-1.7582
X1.938Y-2.0849
X1.938Y-3.3842
X1.9774Y-2.1243
X1.9774Y-3.3842
X2.005Y-1.9393
X2.0168Y-2.1637
X2.0168Y-3.3842
X2.0531Y-2.4674
X2.0531Y-2.4974
X2.0531Y-2.5474
X2.0531Y-2.5774
X2.0531Y-2.6274
X2.0531Y-2.6574
X2.0561Y-2.2031
X2.0561Y-3.3842
X2.0601Y-1.3861
X2.068Y-1.9865
X2.0955Y-3.3842
X2.1031Y-2.7624
X2.1033Y-2.1557
X2.1181Y-2.8724
X2.1231Y-2.9624
X2.1231Y-3.0724
X2.1349Y-3.3842
X2.1481Y-2.8724
X2.1481Y-2.9174
X2.1481Y-2.9624
X2.1481Y-3.0724
X2.1607Y-2.149
X2.161Y-2.1234
X2.161Y-2.174
X2.1618Y-2.1985
X2.1631Y-2.7624
X2.1743Y-2.3212
X2.1743Y-2.3605
X2.1743Y-2.3999
X2.1743Y-2.4393
X2.1743Y-2.4786
X2.1743Y-2.518
X2.1743Y-2.5574
X2.1743Y-2.5968
X2.1743Y-2.6361
X2.1743Y-2.6755
X2.1743Y-2.7149
X2.1743Y-3.0692
X2.1743Y-3.1086
X2.1743Y-3.1479
X2.1743Y-3.1873
X2.1743Y-3.2267
X2.1743Y-3.266
X2.1743Y-3.3054
X2.1743Y-3.3448
X2.1743Y-3.3842
X2.1959Y-1.1999
X2.2006Y-2.2104
X2.2021Y-1.725
X2.2021Y-1.7505
X2.2026Y-1.699
X2.2032Y-2.1825
X2.2036Y-1.6725
X2.2117Y-1.3822
X2.2281Y-1.724
X2.2281Y-1.7495
X2.2286Y-1.698
X2.229Y-1.2003
X2.2296Y-1.6715
X2.2521Y-1.724
X2.2521Y-1.7495
X2.2526Y-1.698
X2.253Y-1.8369
X2.2536Y-1.6715
X2.2617Y-1.2
X2.2751Y-1.723
X2.2751Y-1.7485
X2.2756Y-1.697
X2.2766Y-1.6705
X2.2884Y-1.5928
X2.2924Y-1.9038
X2.3208Y-1.5481
X2.3317Y-1.8369
X2.3317Y-1.8684
X2.3536Y-1.5237
X2.3554Y-1.5613
X2.379Y-1.5416
X2.5404Y-1.4865
X2.7057Y-1.4865
X2.7176Y-1.4232
X2.7375Y-2.3295
X2.7375Y-2.4124
X2.7412Y-1.1991
X2.7845Y-1.3566
X2.7845Y-1.6597
X2.7845Y-1.7218
X2.7845Y-1.7434
X2.7852Y-1.6827
X2.7884Y-2.9905
X2.7884Y-3.018
X2.7884Y-3.0928
X2.7884Y-3.1204
X2.8081Y-1.1991
X2.8357Y-1.3566
X2.8546Y-1.7027
X2.8554Y-1.2031
X2.8554Y-1.4353
X2.8751Y-1.4747
X2.8758Y-1.7117
X2.8768Y-1.6731
X2.8947Y-1.4944
X2.8947Y-1.6912
X2.8947Y-1.7503
X2.9065Y-2.9905
X2.9065Y-3.018
X2.9065Y-3.0889
X2.9065Y-3.1164
X2.9183Y-1.3566
X2.9223Y-1.2031
X2.9341Y-1.5534
X2.9341Y-1.5928
X2.9341Y-1.7109
X2.9349Y-1.4361
X2.9538Y-1.3566
X2.9695Y-1.2031
X2.9728Y-1.7115
X3.0207Y-1.7936
X3.0365Y-1.207
X3.0402Y-1.6553
X3.0425Y-1.7848
X3.0522Y-1.4353
X3.0522Y-1.7109
X3.0628Y-1.7957
X3.068Y-1.6479
X3.0727Y-1.7503
X3.0739Y-1.6724
X3.0916Y-1.396
X3.1013Y-2.4926
X3.1013Y-2.5226
X3.1013Y-2.5526
X3.1015Y-1.6904
X3.1037Y-1.3556
X3.1213Y-2.2426
X3.1213Y-2.2726
X3.1213Y-2.3026
X3.1309Y-1.455
X3.1309Y-1.5141
X3.1318Y-1.696
X3.1467Y-1.3566
X3.1703Y-1.4944
X3.1821Y-1.7779
X3.19Y-1.5141
X3.2227Y-1.7845
X3.2463Y-2.3076
X3.2713Y-2.5826
X3.2763Y-2.3076
X3.2813Y-2.8726
X3.2813Y-2.9026
X3.2813Y-2.9326
X3.3063Y-2.5826
X3.3113Y-2.8726
X3.3113Y-2.9026
X3.3113Y-2.9326
X3.3513Y-2.5826
X3.3711Y-2.7385
X3.3863Y-2.5826
X3.3993Y-2.4086
X3.4798Y-1.8223
X3.5013Y-2.6526
X3.5313Y-2.4626
X3.5325Y-1.8487
X3.5413Y-2.5826
X3.5443Y-1.5259
X3.5719Y-1.5259
X3.6113Y-1.8487
X3.6613Y-2.5526
X3.6861Y-1.8487
X3.7135Y-3.1434
X3.7139Y-3.202
X3.7213Y-2.3926
X3.7213Y-2.9226
X3.7313Y-2.7026
X3.7713Y-2.8026
X3.7913Y-2.9126
X3.8042Y-2.2149
X3.8213Y-3.2326
X3.8213Y-3.2626
X3.8213Y-3.2926
X3.8317Y-2.2621
X3.8513Y-3.2326
X3.8513Y-3.2626
X3.8513Y-3.2926
X3.8813Y-2.3426
X3.8857Y-2.5194
X3.8913Y-2.6926
X3.9013Y-2.5826
X3.9221Y-3.0075
X3.9221Y-3.028
X3.9221Y-3.0484
X3.9221Y-3.0693
X3.9225Y-3.0898
X3.9225Y-3.1106
X3.9225Y-3.174
X3.9229Y-3.1315
X3.9229Y-3.1528
X3.9243Y-1.3886
X3.9243Y-1.6586
X3.9249Y-1.4242
X3.9249Y-1.6942
X3.9353Y-2.8826
X3.9501Y-2.1566
X3.9617Y-1.1204
X3.9621Y-1.9614
X3.9892Y-1.1201
X3.9913Y-2.3826
X4.0138Y-1.1949
X4.0211Y-3.3006
X4.0213Y-2.4426
X4.0213Y-2.5326
X4.0286Y-2.8251
X4.0313Y-2.3826
X4.0374Y-1.1949
X4.0457Y-2.16
X4.0876Y-2.8251
X4.1013Y-2.2826
X4.1113Y-2.6597
X4.1313Y-3.0826
X4.1357Y-2.1618
X4.2213Y-2.2926
X4.2213Y-2.4026
X4.2213Y-2.5226
X4.2243Y-2.1734
X4.2313Y-3.1726
X4.2373Y-3.2418
X4.2713Y-3.2726
X4.2813Y-3.0026
X4.2845Y-2.7149
X4.3099Y-2.2484
X4.312Y-1.144
X4.3331Y-2.479
X4.3331Y-2.775
X4.3331Y-2.9826
X4.4413Y-2.8026
T2
X1.6074Y-2.5689
X1.6074Y-2.5999
X1.6074Y-2.6309
X1.6074Y-2.6619
X1.6384Y-2.5689
X1.6384Y-2.5999
X1.6384Y-2.6309
X1.6384Y-2.6619
X1.6694Y-2.5689
X1.6694Y-2.5999
X1.6694Y-2.6309
X1.6694Y-2.6619
X1.7004Y-2.5689
X1.7004Y-2.5999
X1.7004Y-2.6309
X1.7004Y-2.6619
T3
X1.7097Y-1.0928
X1.8554Y-1.0889
X1.9774Y-1.6755
X1.9853Y-1.7739
X1.9892Y-1.5771
X2.005Y-1.459
X2.0483Y-1.8369
X2.0758Y-1.5771
X2.1506Y-1.9156
X2.1703Y-1.5731
X2.2057Y-2.0574
X2.2687Y-2.2188
X2.2687Y-2.3369
X2.7451Y-1.9826
X2.8278Y-1.9826
X2.9065Y-1.9826
X2.9853Y-1.9826
X3.064Y-1.1991
X3.068Y-1.9826
X3.1467Y-1.1991
X3.1467Y-1.9826
X3.2254Y-1.1991
X3.2254Y-1.8251
X3.2294Y-1.5771
X3.253Y-1.4905
X3.3042Y-1.1991
X3.3081Y-1.6125
X3.3081Y-1.7503
X3.6476Y-3.3228
T4
X2.379Y-2.27
X2.3947Y-2.1282
X2.4341Y-2.4156
X2.5325Y-1.2739
X2.5325Y-1.3527
X2.5325Y-1.5928
X2.5325Y-1.6716
X2.5325Y-1.9826
X2.5518Y-3.0601
X2.564Y-2.0849
X2.6498Y-3.0611
X2.6613Y-2.7121
X2.6782Y-2.2506
X2.6799Y-2.2999
X2.6853Y-2.1726
X2.7176Y-2.0771
X2.7373Y-3.0606
X2.7593Y-2.7121
X2.8475Y-3.1676
X2.9617Y-1.4944
X3.0438Y-2.0626
X3.0438Y-2.2026
X3.0438Y-2.3426
X3.0438Y-2.5926
X3.0438Y-2.7426
X3.0438Y-3.1626
X3.0438Y-3.2526
X3.0438Y-3.3868
X3.0601Y-1.5416
X3.068Y-1.6046
X3.1938Y-2.0626
X3.2138Y-3.3868
X3.2638Y-2.7426
X3.2638Y-2.9826
X3.2638Y-3.1626
X3.3672Y-2.0613
X3.4138Y-3.3868
X3.5128Y-1.7464
X3.5138Y-2.0626
X3.5438Y-3.3868
X3.6838Y-2.0626
X3.7138Y-3.3868
X3.8438Y-2.0626
X3.8938Y-3.3868
X4.0238Y-2.0626
X4.0638Y-3.3868
X4.1938Y-2.0626
X4.2338Y-3.3868
X4.3938Y-3.3868
X4.497Y-3.3865
X4.5238Y-2.0626
X4.5856Y-3.2297
X4.5945Y-2.0622
X4.5945Y-2.1947
X4.5945Y-2.3222
X4.5945Y-2.4547
X4.5945Y-2.5822
X4.5945Y-2.7047
X4.5945Y-2.8222
X4.5945Y-2.9497
X4.5945Y-3.0772
X4.5945Y-3.3865
T5
X2.7254Y-1.5918
X2.9459Y-1.8144
T6
X0.7392Y-0.8661
X0.7392Y-3.2283
X0.7764Y-0.7764
X0.7764Y-0.9559
X0.7764Y-3.1386
X0.7764Y-3.3181
X0.8661Y-0.7392
X0.8661Y-0.9931
X0.8661Y-3.1014
X0.8661Y-3.3553
X0.9559Y-0.7764
X0.9559Y-0.9559
X0.9559Y-3.1386
X0.9559Y-3.3181
X0.9931Y-0.8661
X0.9931Y-3.2283
X4.6762Y-0.8661
X4.6762Y-3.2283
X4.7134Y-0.7764
X4.7134Y-0.9559
X4.7134Y-3.1386
X4.7134Y-3.3181
X4.8031Y-0.7392
X4.8031Y-0.9931
X4.8031Y-3.1014
X4.8031Y-3.3553
X4.8929Y-0.7764
X4.8929Y-0.9559
X4.8929Y-3.1386
X4.8929Y-3.3181
X4.9301Y-0.8661
X4.9301Y-3.2283
T7
X4.1289Y-1.3663
X4.1289Y-1.4769
X4.1289Y-1.6769
X4.1289Y-1.7769
X4.2289Y-1.3269
X4.2289Y-1.4273
X4.2289Y-1.5277
X4.2289Y-1.6277
X4.2289Y-1.7277
X4.5789Y-1.2881
X4.5789Y-1.8176
X4.6588Y-1.2881
X4.6588Y-1.8176
T8
X3.6804Y-1.247
X3.6804Y-1.499
T9
X4.3588Y-1.2428
X4.3588Y-1.8629
T10
X0.8661Y-0.8661
X0.8661Y-3.2283
X4.8031Y-0.8661
X4.8031Y-3.2283
T0
M30
