%TF.GenerationSoftware,KiCad,Pcbnew,(5.99.0-13288-g9941a52e75)*%
%TF.CreationDate,2021-11-14T22:41:22-05:00*%
%TF.ProjectId,davis-receiver-kc6,64617669-732d-4726-9563-65697665722d,rev?*%
%TF.SameCoordinates,Original*%
%TF.FileFunction,Soldermask,Top*%
%TF.FilePolarity,Negative*%
%FSLAX46Y46*%
G04 Gerber Fmt 4.6, Leading zero omitted, Abs format (unit mm)*
G04 Created by KiCad (PCBNEW (5.99.0-13288-g9941a52e75)) date 2021-11-14 22:41:22*
%MOMM*%
%LPD*%
G01*
G04 APERTURE LIST*
G04 Aperture macros list*
%AMRoundRect*
0 Rectangle with rounded corners*
0 $1 Rounding radius*
0 $2 $3 $4 $5 $6 $7 $8 $9 X,Y pos of 4 corners*
0 Add a 4 corners polygon primitive as box body*
4,1,4,$2,$3,$4,$5,$6,$7,$8,$9,$2,$3,0*
0 Add four circle primitives for the rounded corners*
1,1,$1+$1,$2,$3*
1,1,$1+$1,$4,$5*
1,1,$1+$1,$6,$7*
1,1,$1+$1,$8,$9*
0 Add four rect primitives between the rounded corners*
20,1,$1+$1,$2,$3,$4,$5,0*
20,1,$1+$1,$4,$5,$6,$7,0*
20,1,$1+$1,$6,$7,$8,$9,0*
20,1,$1+$1,$8,$9,$2,$3,0*%
%AMFreePoly0*
4,1,18,-0.257498,0.300005,0.462500,0.300005,0.462504,0.300004,0.462505,0.300000,0.462505,-0.300000,0.462504,-0.300004,0.462500,-0.300005,-0.457500,-0.300005,-0.457504,-0.300004,-0.457505,-0.300000,-0.457505,0.099998,-0.457506,0.100000,-0.457504,0.100004,-0.257504,0.300003,-0.257504,0.300004,-0.257502,0.300004,-0.257500,0.300006,-0.257498,0.300005,-0.257498,0.300005,$1*%
%AMFreePoly1*
4,1,18,0.257504,0.300004,0.457503,0.100004,0.457504,0.100004,0.457504,0.100003,0.457506,0.100000,0.457505,0.099998,0.457505,-0.300000,0.457504,-0.300004,0.457500,-0.300005,-0.462500,-0.300005,-0.462504,-0.300004,-0.462505,-0.300000,-0.462505,0.300000,-0.462504,0.300004,-0.462500,0.300005,0.257498,0.300005,0.257500,0.300006,0.257504,0.300004,0.257504,0.300004,$1*%
G04 Aperture macros list end*
%ADD10C,0.875000*%
%ADD11C,0.152400*%
%ADD12R,0.925000X0.600000*%
%ADD13R,0.600000X0.925000*%
%ADD14R,2.600000X2.600000*%
%ADD15FreePoly0,0.000000*%
%ADD16FreePoly1,270.000000*%
%ADD17FreePoly0,90.000000*%
%ADD18FreePoly0,270.000000*%
%ADD19FreePoly0,180.000000*%
%ADD20FreePoly1,0.000000*%
%ADD21FreePoly1,90.000000*%
%ADD22FreePoly1,180.000000*%
%ADD23C,8.600000*%
%ADD24C,0.900000*%
%ADD25RoundRect,0.250000X0.250000X0.475000X-0.250000X0.475000X-0.250000X-0.475000X0.250000X-0.475000X0*%
%ADD26RoundRect,0.250000X0.475000X-0.250000X0.475000X0.250000X-0.475000X0.250000X-0.475000X-0.250000X0*%
%ADD27R,1.800000X2.100000*%
%ADD28R,4.960000X3.800000*%
%ADD29R,1.440000X1.800000*%
%ADD30R,1.400000X2.000000*%
%ADD31C,0.991000*%
%ADD32C,2.374900*%
%ADD33C,0.787000*%
%ADD34RoundRect,0.250000X-0.475000X0.250000X-0.475000X-0.250000X0.475000X-0.250000X0.475000X0.250000X0*%
%ADD35R,2.000000X1.400000*%
%ADD36RoundRect,0.249999X-0.450001X0.262501X-0.450001X-0.262501X0.450001X-0.262501X0.450001X0.262501X0*%
%ADD37RoundRect,0.218750X0.381250X-0.218750X0.381250X0.218750X-0.381250X0.218750X-0.381250X-0.218750X0*%
%ADD38RoundRect,0.218750X0.218750X0.381250X-0.218750X0.381250X-0.218750X-0.381250X0.218750X-0.381250X0*%
%ADD39RoundRect,0.249999X0.450001X-0.262501X0.450001X0.262501X-0.450001X0.262501X-0.450001X-0.262501X0*%
%ADD40R,1.800000X2.400000*%
%ADD41R,1.000000X0.700000*%
%ADD42RoundRect,0.249999X0.262501X0.450001X-0.262501X0.450001X-0.262501X-0.450001X0.262501X-0.450001X0*%
%ADD43C,2.000000*%
%ADD44R,1.100000X0.600000*%
%ADD45RoundRect,0.200000X0.250000X-0.200000X0.250000X0.200000X-0.250000X0.200000X-0.250000X-0.200000X0*%
%ADD46R,0.800000X0.900000*%
%ADD47R,2.100000X1.550000*%
%ADD48R,4.060000X1.520000*%
%ADD49R,1.300000X1.500000*%
%ADD50RoundRect,0.100000X-0.637500X-0.100000X0.637500X-0.100000X0.637500X0.100000X-0.637500X0.100000X0*%
%ADD51R,2.000000X2.000000*%
%ADD52RoundRect,0.250000X-0.250000X-0.475000X0.250000X-0.475000X0.250000X0.475000X-0.250000X0.475000X0*%
%ADD53RoundRect,0.250000X0.650000X2.450000X-0.650000X2.450000X-0.650000X-2.450000X0.650000X-2.450000X0*%
%ADD54RoundRect,0.249999X-0.325001X-0.650001X0.325001X-0.650001X0.325001X0.650001X-0.325001X0.650001X0*%
%ADD55R,1.400000X1.200000*%
%ADD56C,3.200000*%
%ADD57R,1.524000X1.524000*%
%ADD58C,1.524000*%
%ADD59C,2.500000*%
%ADD60R,0.800000X1.000000*%
%ADD61RoundRect,0.250000X-0.625000X0.375000X-0.625000X-0.375000X0.625000X-0.375000X0.625000X0.375000X0*%
%ADD62RoundRect,0.250000X-0.450000X0.262500X-0.450000X-0.262500X0.450000X-0.262500X0.450000X0.262500X0*%
%ADD63C,1.000000*%
%ADD64R,0.849884X0.279908*%
%ADD65R,0.279908X0.849884*%
%ADD66C,0.508000*%
%ADD67R,3.450001X3.450001*%
%ADD68R,2.030000X1.270000*%
%ADD69C,0.249999*%
G04 APERTURE END LIST*
D10*
X43688988Y-24961904D02*
X44313988Y-19961904D01*
X45504464Y-19961904D01*
X46188988Y-20200000D01*
X46605654Y-20676190D01*
X46784226Y-21152380D01*
X46903273Y-22104761D01*
X46813988Y-22819047D01*
X46456845Y-23771428D01*
X46159226Y-24247619D01*
X45623511Y-24723809D01*
X44879464Y-24961904D01*
X43688988Y-24961904D01*
X50831845Y-24961904D02*
X51159226Y-22342857D01*
X50980654Y-21866666D01*
X50534226Y-21628571D01*
X49581845Y-21628571D01*
X49075892Y-21866666D01*
X50861607Y-24723809D02*
X50355654Y-24961904D01*
X49165178Y-24961904D01*
X48718750Y-24723809D01*
X48540178Y-24247619D01*
X48599702Y-23771428D01*
X48897321Y-23295238D01*
X49403273Y-23057142D01*
X50593750Y-23057142D01*
X51099702Y-22819047D01*
X53153273Y-21628571D02*
X53927083Y-24961904D01*
X55534226Y-21628571D01*
X57022321Y-24961904D02*
X57438988Y-21628571D01*
X57647321Y-19961904D02*
X57379464Y-20200000D01*
X57587797Y-20438095D01*
X57855654Y-20200000D01*
X57647321Y-19961904D01*
X57587797Y-20438095D01*
X59194940Y-24723809D02*
X59641369Y-24961904D01*
X60593750Y-24961904D01*
X61099702Y-24723809D01*
X61397321Y-24247619D01*
X61427083Y-24009523D01*
X61248511Y-23533333D01*
X60802083Y-23295238D01*
X60087797Y-23295238D01*
X59641369Y-23057142D01*
X59462797Y-22580952D01*
X59492559Y-22342857D01*
X59790178Y-21866666D01*
X60296130Y-21628571D01*
X61010416Y-21628571D01*
X61456845Y-21866666D01*
X70117559Y-24961904D02*
X68748511Y-22580952D01*
X67260416Y-24961904D02*
X67885416Y-19961904D01*
X69790178Y-19961904D01*
X70236607Y-20200000D01*
X70444940Y-20438095D01*
X70623511Y-20914285D01*
X70534226Y-21628571D01*
X70236607Y-22104761D01*
X69968750Y-22342857D01*
X69462797Y-22580952D01*
X67558035Y-22580952D01*
X74194940Y-24723809D02*
X73688988Y-24961904D01*
X72736607Y-24961904D01*
X72290178Y-24723809D01*
X72111607Y-24247619D01*
X72349702Y-22342857D01*
X72647321Y-21866666D01*
X73153273Y-21628571D01*
X74105654Y-21628571D01*
X74552083Y-21866666D01*
X74730654Y-22342857D01*
X74671130Y-22819047D01*
X72230654Y-23295238D01*
X78718750Y-24723809D02*
X78212797Y-24961904D01*
X77260416Y-24961904D01*
X76813988Y-24723809D01*
X76605654Y-24485714D01*
X76427083Y-24009523D01*
X76605654Y-22580952D01*
X76903273Y-22104761D01*
X77171130Y-21866666D01*
X77677083Y-21628571D01*
X78629464Y-21628571D01*
X79075892Y-21866666D01*
X82766369Y-24723809D02*
X82260416Y-24961904D01*
X81308035Y-24961904D01*
X80861607Y-24723809D01*
X80683035Y-24247619D01*
X80921130Y-22342857D01*
X81218750Y-21866666D01*
X81724702Y-21628571D01*
X82677083Y-21628571D01*
X83123511Y-21866666D01*
X83302083Y-22342857D01*
X83242559Y-22819047D01*
X80802083Y-23295238D01*
X85117559Y-24961904D02*
X85534226Y-21628571D01*
X85742559Y-19961904D02*
X85474702Y-20200000D01*
X85683035Y-20438095D01*
X85950892Y-20200000D01*
X85742559Y-19961904D01*
X85683035Y-20438095D01*
X87438988Y-21628571D02*
X88212797Y-24961904D01*
X89819940Y-21628571D01*
X93242559Y-24723809D02*
X92736607Y-24961904D01*
X91784226Y-24961904D01*
X91337797Y-24723809D01*
X91159226Y-24247619D01*
X91397321Y-22342857D01*
X91694940Y-21866666D01*
X92200892Y-21628571D01*
X93153273Y-21628571D01*
X93599702Y-21866666D01*
X93778273Y-22342857D01*
X93718750Y-22819047D01*
X91278273Y-23295238D01*
X95593750Y-24961904D02*
X96010416Y-21628571D01*
X95891369Y-22580952D02*
X96188988Y-22104761D01*
X96456845Y-21866666D01*
X96962797Y-21628571D01*
X97438988Y-21628571D01*
D11*
%TO.C,U2*%
X40220000Y-67411400D02*
X40220000Y-67024000D01*
X43797000Y-67811400D02*
X43797000Y-68218800D01*
X43797000Y-65449200D02*
X43797000Y-65836600D01*
X40220000Y-65449200D02*
X43797000Y-65449200D01*
X41814800Y-68218800D02*
X42202200Y-68218800D01*
X41027400Y-68218800D02*
X41414800Y-68218800D01*
X43797000Y-66624000D02*
X40220000Y-66624000D01*
X40220000Y-64641800D02*
X43797000Y-64641800D01*
X42202200Y-64641800D02*
X41814800Y-64641800D01*
X41027400Y-64641800D02*
X41027400Y-68218800D01*
X40220000Y-66236600D02*
X43797000Y-66236600D01*
X42602200Y-68218800D02*
X42989600Y-68218800D01*
X40220000Y-65836600D02*
X40220000Y-65449200D01*
X40220000Y-67024000D02*
X43797000Y-67024000D01*
X41414800Y-68218800D02*
X41414800Y-64641800D01*
X43797000Y-67411400D02*
X40220000Y-67411400D01*
X42989600Y-64641800D02*
X42602200Y-64641800D01*
X41814800Y-64641800D02*
X41814800Y-68218800D01*
X43797000Y-68218800D02*
X43389600Y-68218800D01*
X43389600Y-64641800D02*
X43797000Y-64641800D01*
X43797000Y-65049200D02*
X40220000Y-65049200D01*
X40627400Y-68218800D02*
X40220000Y-68218800D01*
X40220000Y-66624000D02*
X40220000Y-66236600D01*
X42202200Y-68218800D02*
X42202200Y-64641800D01*
X40627400Y-64641800D02*
X40627400Y-68218800D01*
X40220000Y-68218800D02*
X40220000Y-67811400D01*
X40220000Y-67811400D02*
X43797000Y-67811400D01*
X43797000Y-67024000D02*
X43797000Y-67411400D01*
X41414800Y-64641800D02*
X41027400Y-64641800D01*
X43797000Y-68218800D02*
X40220000Y-68218800D01*
X40220000Y-65049200D02*
X40220000Y-64641800D01*
X43797000Y-64641800D02*
X43797000Y-68218800D01*
X40220000Y-68218800D02*
X40220000Y-64641800D01*
X43797000Y-66236600D02*
X43797000Y-66624000D01*
X42602200Y-64641800D02*
X42602200Y-68218800D01*
X43797000Y-64641800D02*
X43797000Y-65049200D01*
X43389600Y-68218800D02*
X43389600Y-64641800D01*
X43797000Y-65836600D02*
X40220000Y-65836600D01*
X40220000Y-64641800D02*
X40627400Y-64641800D01*
X42989600Y-68218800D02*
X42989600Y-64641800D01*
%TD*%
D12*
%TO.C,U3*%
X54866800Y-43808000D03*
X54866800Y-43008000D03*
D13*
X56454800Y-41420000D03*
X57254800Y-41420000D03*
D12*
X58842800Y-43008000D03*
X58842800Y-43808000D03*
D13*
X57254800Y-45396000D03*
X56454800Y-45396000D03*
D14*
X56854800Y-43408000D03*
D15*
X58842800Y-42208000D03*
D16*
X58054800Y-41420000D03*
D17*
X55654800Y-41420000D03*
D18*
X58054800Y-45396000D03*
D19*
X54866800Y-44608000D03*
D20*
X54866800Y-42208000D03*
D21*
X55654800Y-45396000D03*
D22*
X58842800Y-44608000D03*
%TD*%
D23*
%TO.C,H3*%
X122000000Y-22000000D03*
D24*
X122000000Y-25225000D03*
X125225000Y-22000000D03*
X124280419Y-24280419D03*
X124280419Y-19719581D03*
X119719581Y-24280419D03*
X119719581Y-19719581D03*
X118775000Y-22000000D03*
X122000000Y-18775000D03*
%TD*%
%TO.C,H2*%
X22000000Y-78775000D03*
D23*
X22000000Y-82000000D03*
D24*
X25225000Y-82000000D03*
X18775000Y-82000000D03*
X24280419Y-84280419D03*
X22000000Y-85225000D03*
X24280419Y-79719581D03*
X19719581Y-79719581D03*
X19719581Y-84280419D03*
%TD*%
D25*
%TO.C,C64*%
X67523600Y-43470000D03*
X65623600Y-43470000D03*
%TD*%
D26*
%TO.C,C65*%
X80895900Y-33508900D03*
X80895900Y-31608900D03*
%TD*%
D27*
%TO.C,D2*%
X102911320Y-74120100D03*
X102911320Y-69720100D03*
%TD*%
D28*
%TO.C,D6*%
X66351320Y-72493540D03*
D29*
X70151320Y-73458540D03*
X70151320Y-71528540D03*
%TD*%
D25*
%TO.C,C67*%
X67523600Y-33382800D03*
X65623600Y-33382800D03*
%TD*%
D26*
%TO.C,C69*%
X82927900Y-33508900D03*
X82927900Y-31608900D03*
%TD*%
D30*
%TO.C,D3*%
X83431320Y-60500100D03*
X87831320Y-60500100D03*
%TD*%
D25*
%TO.C,C60*%
X67523600Y-45502000D03*
X65623600Y-45502000D03*
%TD*%
D31*
%TO.C,J3*%
X59877400Y-32790800D03*
X52257400Y-31775800D03*
X52257400Y-33805800D03*
D32*
X54162400Y-35330800D03*
X59877400Y-35330800D03*
X59877400Y-30250800D03*
X54162400Y-30250800D03*
D33*
X58607400Y-32155800D03*
X57337400Y-32155800D03*
X56067400Y-32155800D03*
X54797400Y-32155800D03*
X53527400Y-32155800D03*
X53527400Y-33425800D03*
X54797400Y-33425800D03*
X56067400Y-33425800D03*
X57337400Y-33425800D03*
X58607400Y-33425800D03*
%TD*%
D25*
%TO.C,C68*%
X67523600Y-41450700D03*
X65623600Y-41450700D03*
%TD*%
D34*
%TO.C,C70*%
X85498100Y-41781600D03*
X85498100Y-43681600D03*
%TD*%
D35*
%TO.C,D4*%
X90090360Y-75090960D03*
X90090360Y-79490960D03*
%TD*%
D25*
%TO.C,C59*%
X67523600Y-37421400D03*
X65623600Y-37421400D03*
%TD*%
D26*
%TO.C,C61*%
X78863900Y-33508900D03*
X78863900Y-31608900D03*
%TD*%
D34*
%TO.C,C62*%
X72806000Y-47293900D03*
X72806000Y-49193900D03*
%TD*%
%TO.C,C66*%
X70774000Y-47293900D03*
X70774000Y-49193900D03*
%TD*%
D30*
%TO.C,D5*%
X65087320Y-57703700D03*
X69487320Y-57703700D03*
%TD*%
D25*
%TO.C,C63*%
X67523600Y-35402100D03*
X65623600Y-35402100D03*
%TD*%
D32*
%TO.C,J6*%
X44781900Y-40931500D03*
X44781900Y-46011500D03*
D31*
X42876900Y-42456500D03*
X42876900Y-44486500D03*
D32*
X47956900Y-46011500D03*
X47956900Y-40931500D03*
D31*
X47956900Y-43471500D03*
D33*
X46686900Y-42836500D03*
X45416900Y-42836500D03*
X44146900Y-42836500D03*
X44146900Y-44106500D03*
X45416900Y-44106500D03*
X46686900Y-44106500D03*
%TD*%
D36*
%TO.C,R5*%
X88388900Y-32399000D03*
X88388900Y-34224000D03*
%TD*%
D32*
%TO.C,J4*%
X37030100Y-35343500D03*
X37030100Y-30263500D03*
D31*
X31950100Y-31788500D03*
D32*
X33855100Y-30263500D03*
X33855100Y-35343500D03*
D31*
X37030100Y-32803500D03*
X31950100Y-33818500D03*
D33*
X35760100Y-32168500D03*
X34490100Y-32168500D03*
X33220100Y-32168500D03*
X33220100Y-33438500D03*
X34490100Y-33438500D03*
X35760100Y-33438500D03*
%TD*%
D36*
%TO.C,R1*%
X93659700Y-46006300D03*
X93659700Y-47831300D03*
%TD*%
D32*
%TO.C,J5*%
X44777100Y-30327000D03*
D31*
X42872100Y-31852000D03*
X47952100Y-32867000D03*
X42872100Y-33882000D03*
D32*
X44777100Y-35407000D03*
X47952100Y-35407000D03*
X47952100Y-30327000D03*
D33*
X46682100Y-32232000D03*
X45412100Y-32232000D03*
X44142100Y-32232000D03*
X44142100Y-33502000D03*
X45412100Y-33502000D03*
X46682100Y-33502000D03*
%TD*%
D37*
%TO.C,L1*%
X37281560Y-61836220D03*
X37281560Y-59711220D03*
%TD*%
D38*
%TO.C,L3*%
X35308760Y-65040920D03*
X33183760Y-65040920D03*
%TD*%
%TO.C,L4*%
X35285900Y-68843300D03*
X33160900Y-68843300D03*
%TD*%
D39*
%TO.C,R6*%
X37291720Y-58168320D03*
X37291720Y-56343320D03*
%TD*%
D36*
%TO.C,R9*%
X101911320Y-57507600D03*
X101911320Y-59332600D03*
%TD*%
D37*
%TO.C,L2*%
X36895480Y-68765340D03*
X36895480Y-66640340D03*
%TD*%
D38*
%TO.C,L5*%
X33655220Y-59772960D03*
X31530220Y-59772960D03*
%TD*%
D36*
%TO.C,R3*%
X89722700Y-46006300D03*
X89722700Y-47831300D03*
%TD*%
D37*
%TO.C,L6*%
X31579260Y-67010200D03*
X31579260Y-64885200D03*
%TD*%
D38*
%TO.C,L7*%
X30050960Y-59775500D03*
X27925960Y-59775500D03*
%TD*%
%TO.C,L8*%
X24478200Y-59772960D03*
X22353200Y-59772960D03*
%TD*%
D40*
%TO.C,L9*%
X100011320Y-71290100D03*
X94011320Y-71290100D03*
%TD*%
D41*
%TO.C,Q1*%
X93011840Y-77920840D03*
X93011840Y-78870840D03*
X93011840Y-79820840D03*
X95611840Y-79820840D03*
X95611840Y-78870840D03*
X95611840Y-77920840D03*
%TD*%
D36*
%TO.C,R2*%
X91691200Y-46006300D03*
X91691200Y-47831300D03*
%TD*%
D39*
%TO.C,R4*%
X44548500Y-59829480D03*
X44548500Y-58004480D03*
%TD*%
%TO.C,R7*%
X88388900Y-37653000D03*
X88388900Y-35828000D03*
%TD*%
D36*
%TO.C,R8*%
X99951320Y-57507600D03*
X99951320Y-59332600D03*
%TD*%
D39*
%TO.C,R11*%
X99951320Y-62752600D03*
X99951320Y-60927600D03*
%TD*%
D36*
%TO.C,R12*%
X100619000Y-33107400D03*
X100619000Y-34932400D03*
%TD*%
D42*
%TO.C,R14*%
X84738500Y-57257500D03*
X82913500Y-57257500D03*
%TD*%
D39*
%TO.C,R17*%
X85498100Y-47085800D03*
X85498100Y-45260800D03*
%TD*%
D36*
%TO.C,R23*%
X87531320Y-62767600D03*
X87531320Y-64592600D03*
%TD*%
%TO.C,R29*%
X65857320Y-60513700D03*
X65857320Y-62338700D03*
%TD*%
D39*
%TO.C,R22*%
X93026600Y-83258060D03*
X93026600Y-81433060D03*
%TD*%
D36*
%TO.C,R18*%
X91675320Y-71461020D03*
X91675320Y-73286020D03*
%TD*%
%TO.C,R28*%
X65857320Y-63921200D03*
X65857320Y-65746200D03*
%TD*%
D43*
%TO.C,TP5*%
X90826000Y-53557500D03*
%TD*%
D42*
%TO.C,R20*%
X118333600Y-29955900D03*
X116508600Y-29955900D03*
%TD*%
D44*
%TO.C,U4*%
X55494840Y-75035980D03*
X55494840Y-74085980D03*
X55494840Y-73135980D03*
X52794840Y-73135980D03*
X52794840Y-75035980D03*
%TD*%
D45*
%TO.C,X1*%
X45706580Y-72885220D03*
X47556580Y-72885220D03*
X47556580Y-71435220D03*
X45706580Y-71435220D03*
%TD*%
D36*
%TO.C,R25*%
X61887320Y-63941200D03*
X61887320Y-65766200D03*
%TD*%
D39*
%TO.C,R27*%
X71327320Y-65683800D03*
X71327320Y-63858800D03*
%TD*%
D43*
%TO.C,TP11*%
X67426000Y-80357500D03*
%TD*%
D46*
%TO.C,U9*%
X67637320Y-62023700D03*
X69537320Y-62023700D03*
X68587320Y-60023700D03*
%TD*%
D47*
%TO.C,U5*%
X106151320Y-66270100D03*
X106151320Y-68810100D03*
X112651320Y-68810100D03*
X112651320Y-66270100D03*
%TD*%
D39*
%TO.C,R24*%
X95627560Y-83232660D03*
X95627560Y-81407660D03*
%TD*%
D43*
%TO.C,TP3*%
X104641320Y-63520100D03*
%TD*%
D47*
%TO.C,U6*%
X106121320Y-73560100D03*
X106121320Y-76100100D03*
X112621320Y-76100100D03*
X112621320Y-73560100D03*
%TD*%
D39*
%TO.C,R30*%
X87479300Y-43644100D03*
X87479300Y-41819100D03*
%TD*%
D43*
%TO.C,TP9*%
X86158440Y-81426080D03*
%TD*%
%TO.C,TP10*%
X58661000Y-63556500D03*
%TD*%
D48*
%TO.C,J1*%
X19280580Y-59778040D03*
X19280580Y-62318040D03*
X19280580Y-57238040D03*
%TD*%
D42*
%TO.C,R21*%
X118282800Y-48967800D03*
X116457800Y-48967800D03*
%TD*%
D43*
%TO.C,TP7*%
X80901320Y-60470100D03*
%TD*%
D49*
%TO.C,U8*%
X71551320Y-55140100D03*
X71551320Y-57680100D03*
X80751320Y-57680100D03*
X80751320Y-55140100D03*
%TD*%
D39*
%TO.C,R16*%
X100619000Y-45155900D03*
X100619000Y-43330900D03*
%TD*%
D43*
%TO.C,TP1*%
X52605380Y-79343660D03*
%TD*%
D36*
%TO.C,R26*%
X63867320Y-63941200D03*
X63867320Y-65766200D03*
%TD*%
D50*
%TO.C,U7*%
X91498820Y-58690100D03*
X91498820Y-59340100D03*
X91498820Y-59990100D03*
X91498820Y-60640100D03*
X91498820Y-61290100D03*
X91498820Y-61940100D03*
X91498820Y-62590100D03*
X97223820Y-62590100D03*
X97223820Y-61940100D03*
X97223820Y-61290100D03*
X97223820Y-60640100D03*
X97223820Y-59990100D03*
X97223820Y-59340100D03*
X97223820Y-58690100D03*
%TD*%
D43*
%TO.C,TP8*%
X94201320Y-55500100D03*
%TD*%
D42*
%TO.C,R10*%
X97124260Y-64423320D03*
X95299260Y-64423320D03*
%TD*%
D51*
%TO.C,SW1*%
X93481600Y-38073600D03*
D43*
X93481600Y-31673600D03*
%TD*%
D39*
%TO.C,R13*%
X100619000Y-38336000D03*
X100619000Y-36511000D03*
%TD*%
D36*
%TO.C,R15*%
X100619000Y-39927300D03*
X100619000Y-41752300D03*
%TD*%
D42*
%TO.C,R19*%
X88238500Y-55257500D03*
X86413500Y-55257500D03*
%TD*%
D43*
%TO.C,TP6*%
X97881320Y-55160100D03*
%TD*%
%TO.C,TP4*%
X104621320Y-60010100D03*
%TD*%
D52*
%TO.C,C7*%
X56276000Y-47057500D03*
X58176000Y-47057500D03*
%TD*%
%TO.C,C4*%
X49194120Y-63072420D03*
X51094120Y-63072420D03*
%TD*%
%TO.C,C9*%
X51500440Y-71489980D03*
X53400440Y-71489980D03*
%TD*%
%TO.C,C10*%
X52364840Y-76695980D03*
X54264840Y-76695980D03*
%TD*%
D25*
%TO.C,C2*%
X56852300Y-71492520D03*
X54952300Y-71492520D03*
%TD*%
D26*
%TO.C,C11*%
X46557640Y-59884760D03*
X46557640Y-57984760D03*
%TD*%
D52*
%TO.C,C1*%
X45731580Y-74580220D03*
X47631580Y-74580220D03*
%TD*%
%TO.C,C3*%
X49204280Y-67108480D03*
X51104280Y-67108480D03*
%TD*%
%TO.C,C5*%
X49199200Y-65089180D03*
X51099200Y-65089180D03*
%TD*%
D25*
%TO.C,C6*%
X47631580Y-69730220D03*
X45731580Y-69730220D03*
%TD*%
D26*
%TO.C,C8*%
X48587100Y-59879680D03*
X48587100Y-57979680D03*
%TD*%
%TO.C,C12*%
X42541900Y-59861900D03*
X42541900Y-57961900D03*
%TD*%
D52*
%TO.C,C14*%
X105591320Y-71240100D03*
X107491320Y-71240100D03*
%TD*%
D26*
%TO.C,C16*%
X70498220Y-33368080D03*
X70498220Y-31468080D03*
%TD*%
%TO.C,C15*%
X37301880Y-54756500D03*
X37301880Y-52856500D03*
%TD*%
D34*
%TO.C,C17*%
X90382800Y-35815900D03*
X90382800Y-37715900D03*
%TD*%
D26*
%TO.C,C18*%
X39336420Y-58236300D03*
X39336420Y-56336300D03*
%TD*%
%TO.C,C36*%
X91690560Y-69838680D03*
X91690560Y-67938680D03*
%TD*%
D25*
%TO.C,C41*%
X107975000Y-29034900D03*
X106075000Y-29034900D03*
%TD*%
%TO.C,C20*%
X35597580Y-61685580D03*
X33697580Y-61685580D03*
%TD*%
D34*
%TO.C,C21*%
X37052960Y-70298680D03*
X37052960Y-72198680D03*
%TD*%
D52*
%TO.C,C39*%
X86376000Y-57257500D03*
X88276000Y-57257500D03*
%TD*%
D25*
%TO.C,C27*%
X33524940Y-57878120D03*
X31624940Y-57878120D03*
%TD*%
%TO.C,C50*%
X67523600Y-49540600D03*
X65623600Y-49540600D03*
%TD*%
%TO.C,C23*%
X35221660Y-70738140D03*
X33321660Y-70738140D03*
%TD*%
%TO.C,C24*%
X35201340Y-72859040D03*
X33301340Y-72859040D03*
%TD*%
%TO.C,C26*%
X35226740Y-66938300D03*
X33326740Y-66938300D03*
%TD*%
D26*
%TO.C,C31*%
X39897760Y-78269280D03*
X39897760Y-76369280D03*
%TD*%
%TO.C,C35*%
X100619000Y-31502800D03*
X100619000Y-29602800D03*
%TD*%
D34*
%TO.C,C42*%
X89663640Y-71438760D03*
X89663640Y-73338760D03*
%TD*%
D26*
%TO.C,C28*%
X41922140Y-78269280D03*
X41922140Y-76369280D03*
%TD*%
%TO.C,C32*%
X37873380Y-78276900D03*
X37873380Y-76376900D03*
%TD*%
%TO.C,C33*%
X26202080Y-59773000D03*
X26202080Y-57873000D03*
%TD*%
D34*
%TO.C,C48*%
X78902000Y-47293900D03*
X78902000Y-49193900D03*
%TD*%
D25*
%TO.C,C51*%
X62951320Y-74920100D03*
X61051320Y-74920100D03*
%TD*%
D34*
%TO.C,C37*%
X100580900Y-46811300D03*
X100580900Y-48711300D03*
%TD*%
D53*
%TO.C,C34*%
X103401320Y-78480100D03*
X98301320Y-78480100D03*
%TD*%
D34*
%TO.C,C40*%
X85541320Y-62750100D03*
X85541320Y-64650100D03*
%TD*%
D25*
%TO.C,C55*%
X67523600Y-39431400D03*
X65623600Y-39431400D03*
%TD*%
%TO.C,C57*%
X62951320Y-72910100D03*
X61051320Y-72910100D03*
%TD*%
%TO.C,C38*%
X84776000Y-55257500D03*
X82876000Y-55257500D03*
%TD*%
D26*
%TO.C,C25*%
X43951600Y-78266740D03*
X43951600Y-76366740D03*
%TD*%
D34*
%TO.C,C58*%
X74838000Y-47293900D03*
X74838000Y-49193900D03*
%TD*%
D26*
%TO.C,C22*%
X45973440Y-78266740D03*
X45973440Y-76366740D03*
%TD*%
%TO.C,C30*%
X31576720Y-63372180D03*
X31576720Y-61472180D03*
%TD*%
D54*
%TO.C,C45*%
X74626320Y-64100100D03*
X77576320Y-64100100D03*
%TD*%
D34*
%TO.C,C54*%
X76870000Y-47293900D03*
X76870000Y-49193900D03*
%TD*%
%TO.C,C13*%
X76467220Y-31772880D03*
X76467220Y-33672880D03*
%TD*%
D26*
%TO.C,C29*%
X35628020Y-76664000D03*
X35628020Y-74764000D03*
%TD*%
D25*
%TO.C,C52*%
X69527320Y-65783700D03*
X67627320Y-65783700D03*
%TD*%
%TO.C,C56*%
X67523600Y-47521300D03*
X65623600Y-47521300D03*
%TD*%
D52*
%TO.C,C44*%
X102575700Y-29026100D03*
X104475700Y-29026100D03*
%TD*%
D26*
%TO.C,C19*%
X39338960Y-54751420D03*
X39338960Y-52851420D03*
%TD*%
D25*
%TO.C,C46*%
X66867320Y-55183700D03*
X64967320Y-55183700D03*
%TD*%
%TO.C,C49*%
X67523600Y-31354200D03*
X65623600Y-31354200D03*
%TD*%
%TO.C,C53*%
X62951320Y-70900100D03*
X61051320Y-70900100D03*
%TD*%
D34*
%TO.C,C43*%
X83531320Y-62750100D03*
X83531320Y-64650100D03*
%TD*%
D25*
%TO.C,C47*%
X69527320Y-63773700D03*
X67627320Y-63773700D03*
%TD*%
D55*
%TO.C,Y1*%
X74585200Y-31769800D03*
X72385200Y-31769800D03*
X72385200Y-33369800D03*
X74585200Y-33369800D03*
%TD*%
D56*
%TO.C,J2*%
X113763500Y-45157800D03*
X113763500Y-33727800D03*
D57*
X107413500Y-33702800D03*
D58*
X104873500Y-34702800D03*
X107413500Y-36252800D03*
X104873500Y-37512800D03*
X107413500Y-38802800D03*
X107413500Y-41342800D03*
X104873500Y-42592800D03*
X107413500Y-43882800D03*
X104873500Y-45132800D03*
X116303500Y-32717800D03*
X118333500Y-32717800D03*
X116303500Y-46167800D03*
X118333500Y-46167800D03*
D59*
X110713500Y-47317800D03*
X110713500Y-31567800D03*
%TD*%
D60*
%TO.C,D1*%
X92353100Y-41711200D03*
X90953100Y-41711200D03*
X90953100Y-44211200D03*
X92353100Y-44211200D03*
%TD*%
D61*
%TO.C,D7*%
X58909320Y-68578300D03*
X58909320Y-71378300D03*
%TD*%
D62*
%TO.C,R31*%
X58909320Y-73129800D03*
X58909320Y-74954800D03*
%TD*%
D31*
%TO.C,J7*%
X31954900Y-44499200D03*
X31954900Y-42469200D03*
D32*
X37034900Y-40944200D03*
X33859900Y-40944200D03*
X37034900Y-46024200D03*
X33859900Y-46024200D03*
D31*
X37034900Y-43484200D03*
D33*
X35764900Y-42849200D03*
X34494900Y-42849200D03*
X33224900Y-42849200D03*
X33224900Y-44119200D03*
X34494900Y-44119200D03*
X35764900Y-44119200D03*
%TD*%
D63*
%TO.C,TP12*%
X69826000Y-38857500D03*
%TD*%
D64*
%TO.C,U2*%
X44483499Y-68180299D03*
X44483499Y-67680300D03*
X44483499Y-67180301D03*
X44483499Y-66680300D03*
X44483499Y-66180300D03*
X44483499Y-65680299D03*
X44483499Y-65180300D03*
X44483499Y-64680301D03*
D65*
X43758941Y-63955301D03*
X43258815Y-63955301D03*
X42758689Y-63955301D03*
X42258563Y-63955301D03*
X41758437Y-63955301D03*
X41258311Y-63955301D03*
X40758185Y-63955301D03*
X40258059Y-63955301D03*
D64*
X39533501Y-64680301D03*
X39533501Y-65180300D03*
X39533501Y-65680299D03*
X39533501Y-66180300D03*
X39533501Y-66680300D03*
X39533501Y-67180301D03*
X39533501Y-67680300D03*
X39533501Y-68180299D03*
D65*
X40258059Y-68905299D03*
X40758185Y-68905299D03*
X41258311Y-68905299D03*
X41758437Y-68905299D03*
X42258563Y-68905299D03*
X42758689Y-68905299D03*
X43258815Y-68905299D03*
X43758941Y-68905299D03*
D66*
X41614800Y-67611400D03*
X43189600Y-67611400D03*
X43189600Y-66036600D03*
X43189600Y-66824000D03*
X40827400Y-66824000D03*
X42402200Y-67611400D03*
X40827400Y-66036600D03*
X42402200Y-66036600D03*
X41614800Y-66036600D03*
X40827400Y-67611400D03*
D67*
X42008500Y-66430300D03*
D66*
X40827400Y-65249200D03*
X42402200Y-66824000D03*
X41614800Y-66824000D03*
X43189600Y-65249200D03*
X41614800Y-65249200D03*
X42402200Y-65249200D03*
%TD*%
D68*
%TO.C,T1*%
X86109720Y-71265120D03*
X86109720Y-73765120D03*
X86109720Y-76265120D03*
X86109720Y-78765120D03*
X72399720Y-78765120D03*
X72399720Y-76265120D03*
X72399720Y-73765120D03*
X72399720Y-71265120D03*
%TD*%
D24*
%TO.C,H4*%
X22000000Y-25225000D03*
X22000000Y-18775000D03*
X19719581Y-24280419D03*
X24280419Y-19719581D03*
D23*
X22000000Y-22000000D03*
D24*
X18775000Y-22000000D03*
X24280419Y-24280419D03*
X19719581Y-19719581D03*
X25225000Y-22000000D03*
%TD*%
%TO.C,H1*%
X119719581Y-84280419D03*
X119719581Y-79719581D03*
X122000000Y-85225000D03*
X118775000Y-82000000D03*
X124280419Y-79719581D03*
X124280419Y-84280419D03*
X122000000Y-78775000D03*
X125225000Y-82000000D03*
D23*
X122000000Y-82000000D03*
%TD*%
D69*
%TO.C,U1*%
X71525999Y-44457501D03*
X71525999Y-43957502D03*
X71525999Y-42957502D03*
X71525999Y-42457500D03*
X71525999Y-41457502D03*
X71525999Y-40957501D03*
X71525999Y-39957500D03*
X71525999Y-39457501D03*
X71525999Y-38457500D03*
X71525999Y-37957501D03*
X71525999Y-36957501D03*
X71525999Y-36457502D03*
X71525999Y-35957500D03*
X71525999Y-35457501D03*
X72025998Y-44457501D03*
X72025998Y-43957502D03*
X72025998Y-43457501D03*
X72025998Y-42957502D03*
X72025998Y-42457500D03*
X72025998Y-41957501D03*
X72025998Y-41457502D03*
X72025998Y-40957501D03*
X72025998Y-40457502D03*
X72025998Y-39957500D03*
X72025998Y-39457501D03*
X72025998Y-38957502D03*
X72025998Y-38457500D03*
X72025998Y-37957501D03*
X72025998Y-37457500D03*
X72025998Y-36957501D03*
X72025998Y-36457502D03*
X72025998Y-35957500D03*
X72025998Y-35457501D03*
X72525999Y-44457501D03*
X72525999Y-43957502D03*
X72525999Y-42457500D03*
X72525999Y-41957501D03*
X72525999Y-40957501D03*
X72525999Y-39957500D03*
X72525999Y-38957502D03*
X72525999Y-37957501D03*
X72525999Y-37457500D03*
X72525999Y-35957500D03*
X73025998Y-44457501D03*
X73025998Y-43957502D03*
X73025998Y-41957501D03*
X73025998Y-41457502D03*
X73025998Y-40957501D03*
X73025998Y-38957502D03*
X73025998Y-38457500D03*
X73025998Y-37957501D03*
X73025998Y-35957500D03*
X73025998Y-35457501D03*
X73526000Y-43957502D03*
X73526000Y-43457501D03*
X73526000Y-41457502D03*
X73526000Y-39957500D03*
X73526000Y-38457500D03*
X73526000Y-36457502D03*
X73526000Y-35957500D03*
X73526000Y-35457501D03*
X74025999Y-44457501D03*
X74025999Y-43957502D03*
X74025999Y-43457501D03*
X74025999Y-42957502D03*
X74025999Y-39957500D03*
X74025999Y-36957501D03*
X74025999Y-36457502D03*
X74025999Y-35957500D03*
X74525998Y-44457501D03*
X74525998Y-43957502D03*
X74525998Y-42957502D03*
X74525998Y-42457500D03*
X74525998Y-39957500D03*
X74525998Y-37457500D03*
X74525998Y-36957501D03*
X74525998Y-35957500D03*
X74525998Y-35457501D03*
X75025999Y-43957502D03*
X75025999Y-43457501D03*
X75025999Y-42957502D03*
X75025999Y-40457502D03*
X75025999Y-39957500D03*
X75025999Y-39457501D03*
X75025999Y-38957502D03*
X75025999Y-36957501D03*
X75025999Y-36457502D03*
X75025999Y-35957500D03*
X75025999Y-35457501D03*
X75525998Y-44457501D03*
X75525998Y-43957502D03*
X75525998Y-40957501D03*
X75525998Y-40457502D03*
X75525998Y-39957500D03*
X75525998Y-39457501D03*
X75525998Y-38957502D03*
X75525998Y-35957500D03*
X76026000Y-44457501D03*
X76026000Y-43957502D03*
X76026000Y-43457501D03*
X76026000Y-42457500D03*
X76026000Y-41957501D03*
X76026000Y-41457502D03*
X76026000Y-40957501D03*
X76026000Y-40457502D03*
X76026000Y-39957500D03*
X76026000Y-39457501D03*
X76026000Y-38957502D03*
X76026000Y-38457500D03*
X76026000Y-37957501D03*
X76026000Y-37457500D03*
X76026000Y-36457502D03*
X76026000Y-35957500D03*
X76026000Y-35457501D03*
X76525999Y-43957502D03*
X76525999Y-40957501D03*
X76525999Y-40457502D03*
X76525999Y-39957500D03*
X76525999Y-39457501D03*
X76525999Y-38957502D03*
X76525999Y-35957500D03*
X76525999Y-35457501D03*
X77025998Y-44457501D03*
X77025998Y-43957502D03*
X77025998Y-43457501D03*
X77025998Y-42957502D03*
X77025998Y-40957501D03*
X77025998Y-40457502D03*
X77025998Y-39957500D03*
X77025998Y-39457501D03*
X77025998Y-38957502D03*
X77025998Y-36957501D03*
X77025998Y-36457502D03*
X77025998Y-35957500D03*
X77526000Y-44457501D03*
X77526000Y-43957502D03*
X77526000Y-42957502D03*
X77526000Y-42457500D03*
X77526000Y-39957500D03*
X77526000Y-37457500D03*
X77526000Y-36957501D03*
X77526000Y-35957500D03*
X77526000Y-35457501D03*
X78025999Y-43957502D03*
X78025999Y-43457501D03*
X78025999Y-42957502D03*
X78025999Y-39957500D03*
X78025999Y-36957501D03*
X78025999Y-36457502D03*
X78025999Y-35957500D03*
X78025999Y-35457501D03*
X78526000Y-44457501D03*
X78526000Y-43957502D03*
X78526000Y-43457501D03*
X78526000Y-41457502D03*
X78526000Y-39957500D03*
X78526000Y-38457500D03*
X78526000Y-36457502D03*
X78526000Y-35957500D03*
X79025999Y-44457501D03*
X79025999Y-43957502D03*
X79025999Y-41957501D03*
X79025999Y-41457502D03*
X79025999Y-40957501D03*
X79025999Y-38957502D03*
X79025999Y-38457500D03*
X79025999Y-37957501D03*
X79025999Y-35957500D03*
X79025999Y-35457501D03*
X79525998Y-43957502D03*
X79525998Y-42457500D03*
X79525998Y-41957501D03*
X79525998Y-40957501D03*
X79525998Y-39957500D03*
X79525998Y-38957502D03*
X79525998Y-37957501D03*
X79525998Y-37457500D03*
X79525998Y-35957500D03*
X79525998Y-35457501D03*
X80026000Y-44457501D03*
X80026000Y-43957502D03*
X80026000Y-43457501D03*
X80026000Y-42957502D03*
X80026000Y-42457500D03*
X80026000Y-41957501D03*
X80026000Y-41457502D03*
X80026000Y-40957501D03*
X80026000Y-40457502D03*
X80026000Y-39957500D03*
X80026000Y-39457501D03*
X80026000Y-38957502D03*
X80026000Y-38457500D03*
X80026000Y-37957501D03*
X80026000Y-37457500D03*
X80026000Y-36957501D03*
X80026000Y-36457502D03*
X80026000Y-35957500D03*
X80026000Y-35457501D03*
X80525999Y-44457501D03*
X80525999Y-43957502D03*
X80525999Y-43457501D03*
X80525999Y-42957502D03*
X80525999Y-41957501D03*
X80525999Y-41457502D03*
X80525999Y-40457502D03*
X80525999Y-39957500D03*
X80525999Y-38957502D03*
X80525999Y-38457500D03*
X80525999Y-37457500D03*
X80525999Y-36957501D03*
X80525999Y-35957500D03*
X80525999Y-35457501D03*
%TD*%
M02*
